<svg xmlns="http://www.w3.org/2000/svg" width="200" height="250" viewBox="0 0 200 250"><style>.a{fill:#16A085;}.b{fill:#F39C12;}.c{fill:#FFF;}</style><line x1="100" y1="50" x2="100" y2="95" style="fill:none;stroke-width:4;stroke:#16A085"/><polygon points="93 87.5 100 94.2 107 87.5 107 93.2 100 100 93 93.2 " class="a"/><line x1="100" y1="150" x2="100" y2="195" style="fill:none;stroke-width:4;stroke:#F39C12"/><polygon points="93 187.5 100 194.2 107 187.5 107 193.2 100 200 93 193.2 " class="b"/><polygon points="175 50 0 50 25 0 200 0 " class="a"/><polygon points="175 250 0 250 25 200 200 200 " fill="#34495E"/><rect y="100" width="200" height="50" class="b"/><path d="M34.6 10.7h3.6c0.5 0 1 0.1 1.5 0.2 0.5 0.1 0.9 0.3 1.2 0.5 0.3 0.2 0.6 0.6 0.8 1 0.2 0.4 0.3 0.9 0.3 1.5 0 0.6-0.1 1.1-0.3 1.5 -0.2 0.4-0.5 0.8-0.8 1 -0.3 0.3-0.8 0.5-1.2 0.6s-0.9 0.2-1.5 0.2h-1.4v3.3h-2.2V10.7zM38.1 15.4c1.2 0 1.8-0.5 1.8-1.6 0-0.5-0.2-0.9-0.5-1.1 -0.3-0.2-0.8-0.3-1.3-0.3h-1.2v3H38.1z" class="c"/><path d="M42.8 18.4c0-0.8 0.3-1.4 1-1.8 0.7-0.4 1.7-0.7 3.2-0.9 0-0.3-0.1-0.6-0.3-0.8 -0.2-0.2-0.5-0.3-0.9-0.3 -0.3 0-0.6 0.1-1 0.2 -0.3 0.1-0.7 0.3-1 0.5l-0.8-1.5c0.5-0.3 1-0.5 1.5-0.7 0.5-0.2 1.1-0.3 1.7-0.3 1 0 1.7 0.3 2.2 0.8 0.5 0.5 0.8 1.4 0.8 2.5v4.3h-1.8l-0.2-0.8h0c-0.3 0.3-0.7 0.5-1 0.7s-0.7 0.3-1.2 0.3c-0.3 0-0.6-0.1-0.9-0.2 -0.3-0.1-0.5-0.3-0.7-0.5 -0.2-0.2-0.3-0.4-0.4-0.7S42.8 18.8 42.8 18.4zM44.9 18.3c0 0.2 0.1 0.4 0.2 0.5 0.2 0.1 0.4 0.2 0.6 0.2 0.3 0 0.5-0.1 0.7-0.2 0.2-0.1 0.4-0.3 0.6-0.5V17.1c-0.8 0.1-1.3 0.3-1.6 0.5C45 17.7 44.9 18 44.9 18.3z" class="c"/><path d="M51.4 18.3c0.3 0.3 0.7 0.5 1 0.6s0.6 0.2 0.9 0.2c0.3 0 0.6-0.1 0.7-0.2 0.2-0.1 0.2-0.3 0.2-0.5 0-0.1 0-0.2-0.1-0.3 -0.1-0.1-0.2-0.2-0.3-0.3s-0.3-0.2-0.5-0.2c-0.2-0.1-0.4-0.1-0.6-0.2 -0.2-0.1-0.5-0.2-0.7-0.3s-0.4-0.3-0.6-0.4 -0.3-0.4-0.5-0.6c-0.1-0.2-0.2-0.5-0.2-0.8 0-0.3 0.1-0.7 0.2-0.9 0.1-0.3 0.3-0.5 0.6-0.7 0.3-0.2 0.6-0.4 0.9-0.5 0.4-0.1 0.7-0.2 1.2-0.2 0.6 0 1.1 0.1 1.5 0.3 0.4 0.2 0.8 0.4 1.1 0.7l-1 1.3c-0.3-0.2-0.5-0.4-0.8-0.5s-0.5-0.2-0.8-0.2c-0.6 0-0.8 0.2-0.8 0.6 0 0.1 0 0.2 0.1 0.3s0.2 0.2 0.3 0.2c0.1 0.1 0.3 0.1 0.5 0.2 0.2 0.1 0.4 0.1 0.5 0.2 0.2 0.1 0.5 0.2 0.7 0.3 0.2 0.1 0.5 0.3 0.6 0.4 0.2 0.2 0.4 0.4 0.5 0.6 0.1 0.2 0.2 0.5 0.2 0.9 0 0.3-0.1 0.7-0.2 0.9s-0.3 0.5-0.6 0.8c-0.3 0.2-0.6 0.4-1 0.5 -0.4 0.1-0.8 0.2-1.3 0.2 -0.5 0-1-0.1-1.5-0.3 -0.5-0.2-1-0.4-1.3-0.7L51.4 18.3z" class="c"/><path d="M58 18.3c0.3 0.3 0.7 0.5 1 0.6s0.6 0.2 0.9 0.2c0.3 0 0.6-0.1 0.7-0.2 0.2-0.1 0.2-0.3 0.2-0.5 0-0.1 0-0.2-0.1-0.3 -0.1-0.1-0.2-0.2-0.3-0.3s-0.3-0.2-0.5-0.2c-0.2-0.1-0.4-0.1-0.6-0.2 -0.2-0.1-0.5-0.2-0.7-0.3s-0.4-0.3-0.6-0.4 -0.3-0.4-0.5-0.6c-0.1-0.2-0.2-0.5-0.2-0.8 0-0.3 0.1-0.7 0.2-0.9 0.1-0.3 0.3-0.5 0.6-0.7 0.3-0.2 0.6-0.4 0.9-0.5 0.4-0.1 0.7-0.2 1.2-0.2 0.6 0 1.1 0.1 1.5 0.3 0.4 0.2 0.8 0.4 1.1 0.7l-1 1.3c-0.3-0.2-0.5-0.4-0.8-0.5s-0.5-0.2-0.8-0.2c-0.6 0-0.8 0.2-0.8 0.6 0 0.1 0 0.2 0.1 0.3s0.2 0.2 0.3 0.2c0.1 0.1 0.3 0.1 0.5 0.2 0.2 0.1 0.4 0.1 0.5 0.2 0.2 0.1 0.5 0.2 0.7 0.3 0.2 0.1 0.5 0.3 0.6 0.4 0.2 0.2 0.4 0.4 0.5 0.6 0.1 0.2 0.2 0.5 0.2 0.9 0 0.3-0.1 0.7-0.2 0.9s-0.3 0.5-0.6 0.8c-0.3 0.2-0.6 0.4-1 0.5 -0.4 0.1-0.8 0.2-1.3 0.2 -0.5 0-1-0.1-1.5-0.3 -0.5-0.2-1-0.4-1.3-0.7L58 18.3z" class="c"/><path d="M63.7 13.1h2.2l0.7 3.5c0.1 0.4 0.1 0.7 0.2 1.1 0.1 0.4 0.1 0.7 0.2 1.1h0.1c0.1-0.4 0.1-0.8 0.2-1.1 0.1-0.4 0.1-0.7 0.2-1.1l0.8-3.4h1.9l0.8 3.5c0.1 0.4 0.2 0.7 0.2 1.1s0.1 0.7 0.2 1.1h0.1c0.1-0.4 0.1-0.7 0.2-1.1 0-0.4 0.1-0.7 0.2-1.1l0.7-3.4h2l-1.8 7.4h-2.6l-0.7-3c-0.1-0.3-0.1-0.7-0.2-1 -0.1-0.3-0.1-0.7-0.2-1.1h-0.1c-0.1 0.4-0.1 0.8-0.2 1.1s-0.1 0.7-0.2 1.1l-0.7 3h-2.5L63.7 13.1z" class="c"/><path d="M75.4 16.8c0-0.6 0.1-1.2 0.3-1.7s0.5-0.9 0.8-1.2c0.3-0.3 0.7-0.6 1.2-0.8 0.4-0.2 0.9-0.3 1.4-0.3s0.9 0.1 1.4 0.3 0.8 0.4 1.2 0.8c0.3 0.3 0.6 0.7 0.8 1.2s0.3 1 0.3 1.7c0 0.6-0.1 1.2-0.3 1.7 -0.2 0.5-0.5 0.9-0.8 1.2 -0.3 0.3-0.7 0.6-1.2 0.8s-0.9 0.3-1.4 0.3 -0.9-0.1-1.4-0.3c-0.4-0.2-0.8-0.4-1.2-0.8 -0.3-0.3-0.6-0.7-0.8-1.2C75.5 18 75.4 17.4 75.4 16.8zM77.7 16.8c0 0.7 0.1 1.2 0.3 1.5s0.6 0.6 1 0.6c0.5 0 0.8-0.2 1-0.6s0.3-0.9 0.3-1.5c0-0.6-0.1-1.2-0.3-1.5 -0.2-0.4-0.6-0.6-1-0.6 -0.5 0-0.8 0.2-1 0.6C77.8 15.6 77.7 16.1 77.7 16.8z" class="c"/><path d="M84.2 13.1h1.8l0.2 1.3h0.1c0.3-0.5 0.6-0.9 1-1.1 0.4-0.2 0.8-0.4 1.1-0.4 0.2 0 0.4 0 0.5 0 0.1 0 0.3 0.1 0.4 0.1l-0.4 1.9c-0.1 0-0.3-0.1-0.4-0.1 -0.1 0-0.3 0-0.4 0 -0.3 0-0.6 0.1-0.9 0.3 -0.3 0.2-0.6 0.6-0.8 1.1v4.3h-2.2V13.1z" class="c"/><path d="M89.6 16.8c0-0.6 0.1-1.2 0.3-1.6 0.2-0.5 0.4-0.9 0.7-1.2 0.3-0.3 0.6-0.6 1-0.8 0.4-0.2 0.8-0.3 1.1-0.3 0.4 0 0.8 0.1 1 0.2 0.3 0.1 0.5 0.3 0.8 0.6l-0.1-1.1V10h2.2v10.5h-1.8l-0.1-0.7h-0.1c-0.3 0.3-0.6 0.5-0.9 0.7s-0.7 0.3-1.1 0.3c-0.5 0-0.9-0.1-1.3-0.3 -0.4-0.2-0.7-0.4-1-0.8 -0.3-0.3-0.5-0.7-0.6-1.2C89.7 18 89.6 17.4 89.6 16.8zM91.9 16.8c0 0.7 0.1 1.3 0.4 1.6 0.2 0.3 0.6 0.5 1 0.5 0.2 0 0.5 0 0.7-0.1 0.2-0.1 0.4-0.3 0.6-0.5v-3c-0.2-0.2-0.4-0.3-0.6-0.4s-0.4-0.1-0.6-0.1c-0.3 0-0.7 0.2-0.9 0.5S91.9 16.1 91.9 16.8z" class="c"/><path d="M102.8 12c-0.4 0-0.7-0.1-0.9-0.3 -0.2-0.2-0.4-0.5-0.4-0.8s0.1-0.6 0.4-0.8c0.2-0.2 0.5-0.3 0.9-0.3 0.4 0 0.7 0.1 0.9 0.3 0.2 0.2 0.4 0.5 0.4 0.8s-0.1 0.6-0.4 0.8C103.5 11.9 103.2 12 102.8 12zM101.7 13.1h2.2v7.4h-2.2V13.1z" class="c"/><path d="M106.2 18.3c0.3 0.3 0.7 0.5 1 0.6s0.6 0.2 0.9 0.2c0.3 0 0.6-0.1 0.7-0.2 0.2-0.1 0.2-0.3 0.2-0.5 0-0.1 0-0.2-0.1-0.3 -0.1-0.1-0.2-0.2-0.3-0.3s-0.3-0.2-0.5-0.2c-0.2-0.1-0.4-0.1-0.6-0.2 -0.2-0.1-0.5-0.2-0.7-0.3s-0.4-0.3-0.6-0.4 -0.3-0.4-0.5-0.6c-0.1-0.2-0.2-0.5-0.2-0.8 0-0.3 0.1-0.7 0.2-0.9 0.1-0.3 0.3-0.5 0.6-0.7 0.3-0.2 0.6-0.4 0.9-0.5 0.4-0.1 0.7-0.2 1.2-0.2 0.6 0 1.1 0.1 1.5 0.3 0.4 0.2 0.8 0.4 1.1 0.7l-1 1.3c-0.3-0.2-0.5-0.4-0.8-0.5s-0.5-0.2-0.8-0.2c-0.6 0-0.8 0.2-0.8 0.6 0 0.1 0 0.2 0.1 0.3s0.2 0.2 0.3 0.2c0.1 0.1 0.3 0.1 0.5 0.2 0.2 0.1 0.4 0.1 0.5 0.2 0.2 0.1 0.5 0.2 0.7 0.3 0.2 0.1 0.5 0.3 0.6 0.4 0.2 0.2 0.4 0.4 0.5 0.6 0.1 0.2 0.2 0.5 0.2 0.9 0 0.3-0.1 0.7-0.2 0.9s-0.3 0.5-0.6 0.8c-0.3 0.2-0.6 0.4-1 0.5 -0.4 0.1-0.8 0.2-1.3 0.2 -0.5 0-1-0.1-1.5-0.3 -0.5-0.2-1-0.4-1.3-0.7L106.2 18.3z" class="c"/><path d="M115.2 16.8c0-0.6 0.1-1.1 0.3-1.6 0.2-0.5 0.5-0.9 0.8-1.2 0.3-0.3 0.7-0.6 1.1-0.8 0.4-0.2 0.9-0.3 1.3-0.3 0.5 0 1 0.1 1.4 0.3 0.4 0.2 0.7 0.4 1 0.8 0.3 0.3 0.5 0.7 0.6 1.1 0.1 0.4 0.2 0.9 0.2 1.4 0 0.2 0 0.4 0 0.5s0 0.3-0.1 0.4h-4.5c0.1 0.6 0.3 1 0.7 1.2 0.3 0.3 0.8 0.4 1.3 0.4 0.5 0 1.1-0.2 1.6-0.5l0.7 1.3c-0.4 0.3-0.8 0.5-1.3 0.6 -0.5 0.2-0.9 0.2-1.4 0.2 -0.5 0-1-0.1-1.5-0.3s-0.9-0.4-1.2-0.8c-0.3-0.3-0.6-0.7-0.8-1.2C115.3 18 115.2 17.4 115.2 16.8zM120 16c0-0.4-0.1-0.8-0.3-1 -0.2-0.3-0.5-0.4-1-0.4 -0.4 0-0.7 0.1-0.9 0.4s-0.4 0.6-0.5 1.1H120z" class="c"/><path d="M123.4 13.1h1.8l0.2 0.9h0.1c0.3-0.3 0.7-0.6 1.1-0.8 0.4-0.2 0.8-0.3 1.3-0.3 0.8 0 1.4 0.3 1.8 0.8 0.4 0.5 0.5 1.3 0.5 2.2v4.6h-2.2V16.2c0-0.5-0.1-0.9-0.2-1.1s-0.4-0.3-0.7-0.3c-0.3 0-0.5 0.1-0.7 0.2 -0.2 0.1-0.4 0.3-0.7 0.5v5h-2.2V13.1z" class="c"/><path d="M132.3 14.8h-1v-1.6l1.1-0.1 0.3-2h1.8v2h1.8V14.8h-1.8v3c0 0.4 0.1 0.7 0.3 0.9 0.2 0.2 0.4 0.3 0.7 0.3 0.1 0 0.2 0 0.4 0 0.1 0 0.2-0.1 0.3-0.1l0.3 1.6c-0.2 0.1-0.4 0.1-0.7 0.2s-0.6 0.1-0.9 0.1c-0.5 0-0.9-0.1-1.2-0.2 -0.3-0.1-0.6-0.3-0.8-0.6 -0.2-0.2-0.4-0.6-0.4-0.9 -0.1-0.4-0.1-0.7-0.1-1.2V14.8z" class="c"/><path d="M137.1 16.8c0-0.6 0.1-1.1 0.3-1.6 0.2-0.5 0.5-0.9 0.8-1.2 0.3-0.3 0.7-0.6 1.1-0.8 0.4-0.2 0.9-0.3 1.3-0.3 0.5 0 1 0.1 1.4 0.3 0.4 0.2 0.7 0.4 1 0.8 0.3 0.3 0.5 0.7 0.6 1.1 0.1 0.4 0.2 0.9 0.2 1.4 0 0.2 0 0.4 0 0.5s0 0.3-0.1 0.4h-4.5c0.1 0.6 0.3 1 0.7 1.2 0.3 0.3 0.8 0.4 1.3 0.4 0.5 0 1.1-0.2 1.6-0.5l0.7 1.3c-0.4 0.3-0.8 0.5-1.3 0.6 -0.5 0.2-0.9 0.2-1.4 0.2 -0.5 0-1-0.1-1.5-0.3s-0.9-0.4-1.2-0.8c-0.3-0.3-0.6-0.7-0.8-1.2C137.2 18 137.1 17.4 137.1 16.8zM141.9 16c0-0.4-0.1-0.8-0.3-1 -0.2-0.3-0.5-0.4-1-0.4 -0.4 0-0.7 0.1-0.9 0.4s-0.4 0.6-0.5 1.1H141.9z" class="c"/><path d="M145.3 13.1h1.8l0.2 1.3h0.1c0.3-0.5 0.6-0.9 1-1.1 0.4-0.2 0.8-0.4 1.1-0.4 0.2 0 0.4 0 0.5 0 0.1 0 0.3 0.1 0.4 0.1l-0.4 1.9c-0.1 0-0.3-0.1-0.4-0.1 -0.1 0-0.3 0-0.4 0 -0.3 0-0.6 0.1-0.9 0.3 -0.3 0.2-0.6 0.6-0.8 1.1v4.3h-2.2V13.1z" class="c"/><path d="M150.7 16.8c0-0.6 0.1-1.1 0.3-1.6 0.2-0.5 0.5-0.9 0.8-1.2 0.3-0.3 0.7-0.6 1.1-0.8 0.4-0.2 0.9-0.3 1.3-0.3 0.5 0 1 0.1 1.4 0.3 0.4 0.2 0.7 0.4 1 0.8 0.3 0.3 0.5 0.7 0.6 1.1 0.1 0.4 0.2 0.9 0.2 1.4 0 0.2 0 0.4 0 0.5s0 0.3-0.1 0.4h-4.5c0.1 0.6 0.3 1 0.7 1.2 0.3 0.3 0.8 0.4 1.3 0.4 0.5 0 1.1-0.2 1.6-0.5l0.7 1.3c-0.4 0.3-0.8 0.5-1.3 0.6 -0.5 0.2-0.9 0.2-1.4 0.2 -0.5 0-1-0.1-1.5-0.3s-0.9-0.4-1.2-0.8c-0.3-0.3-0.6-0.7-0.8-1.2C150.8 18 150.7 17.4 150.7 16.8zM155.5 16c0-0.4-0.1-0.8-0.3-1 -0.2-0.3-0.5-0.4-1-0.4 -0.4 0-0.7 0.1-0.9 0.4s-0.4 0.6-0.5 1.1H155.5z" class="c"/><path d="M158.5 16.8c0-0.6 0.1-1.2 0.3-1.6 0.2-0.5 0.4-0.9 0.7-1.2 0.3-0.3 0.6-0.6 1-0.8 0.4-0.2 0.8-0.3 1.1-0.3 0.4 0 0.8 0.1 1 0.2 0.3 0.1 0.5 0.3 0.8 0.6l-0.1-1.1V10h2.2v10.5h-1.8l-0.1-0.7h-0.1c-0.3 0.3-0.6 0.5-0.9 0.7s-0.7 0.3-1.1 0.3c-0.5 0-0.9-0.1-1.3-0.3 -0.4-0.2-0.7-0.4-1-0.8 -0.3-0.3-0.5-0.7-0.6-1.2C158.6 18 158.5 17.4 158.5 16.8zM160.8 16.8c0 0.7 0.1 1.3 0.4 1.6 0.2 0.3 0.6 0.5 1 0.5 0.2 0 0.5 0 0.7-0.1 0.2-0.1 0.4-0.3 0.6-0.5v-3c-0.2-0.2-0.4-0.3-0.6-0.4s-0.4-0.1-0.6-0.1c-0.3 0-0.7 0.2-0.9 0.5S160.8 16.1 160.8 16.8z" class="c"/><path d="M64.4 30c-0.4 0-0.7-0.1-0.9-0.3 -0.2-0.2-0.4-0.5-0.4-0.8s0.1-0.6 0.4-0.8c0.2-0.2 0.5-0.3 0.9-0.3 0.4 0 0.7 0.1 0.9 0.3 0.2 0.2 0.4 0.5 0.4 0.8s-0.1 0.6-0.4 0.8C65.1 29.9 64.8 30 64.4 30zM63.3 31.1h2.2v7.4h-2.2V31.1z" class="c"/><path d="M67.5 31.1h1.8l0.2 0.9h0.1c0.3-0.3 0.7-0.6 1.1-0.8 0.4-0.2 0.8-0.3 1.3-0.3 0.8 0 1.4 0.3 1.8 0.8 0.4 0.5 0.5 1.3 0.5 2.2v4.6h-2.2V34.2c0-0.5-0.1-0.9-0.2-1.1s-0.4-0.3-0.7-0.3c-0.3 0-0.5 0.1-0.7 0.2 -0.2 0.1-0.4 0.3-0.7 0.5v5h-2.2V31.1z" class="c"/><path d="M78.7 34.8c0-0.6 0.1-1.2 0.3-1.7s0.5-0.9 0.8-1.2c0.4-0.3 0.8-0.6 1.2-0.8s1-0.3 1.5-0.3c0.5 0 0.9 0.1 1.2 0.2 0.4 0.2 0.7 0.4 0.9 0.6l-1 1.4c-0.3-0.3-0.7-0.4-1-0.4 -0.5 0-1 0.2-1.3 0.6 -0.3 0.4-0.5 0.9-0.5 1.5 0 0.7 0.2 1.2 0.5 1.5s0.7 0.6 1.2 0.6c0.3 0 0.5-0.1 0.7-0.2 0.2-0.1 0.4-0.2 0.6-0.4l0.9 1.4c-0.4 0.3-0.8 0.6-1.2 0.7 -0.4 0.2-0.9 0.2-1.3 0.2 -0.5 0-1-0.1-1.4-0.3 -0.4-0.2-0.8-0.4-1.2-0.8s-0.6-0.7-0.8-1.2C78.8 36 78.7 35.4 78.7 34.8z" class="c"/><path d="M86.2 28h2.2v8.3c0 0.2 0 0.4 0.1 0.5 0.1 0.1 0.2 0.1 0.3 0.1 0.1 0 0.1 0 0.1 0s0.1 0 0.1 0l0.3 1.6c-0.1 0.1-0.3 0.1-0.5 0.1s-0.4 0.1-0.7 0.1c-0.4 0-0.7-0.1-1-0.2 -0.3-0.1-0.5-0.3-0.6-0.5 -0.2-0.2-0.3-0.5-0.3-0.8 -0.1-0.3-0.1-0.6-0.1-1V28z" class="c"/><path d="M90 34.8c0-0.6 0.1-1.1 0.3-1.6 0.2-0.5 0.5-0.9 0.8-1.2 0.3-0.3 0.7-0.6 1.1-0.8 0.4-0.2 0.9-0.3 1.3-0.3 0.5 0 1 0.1 1.4 0.3 0.4 0.2 0.7 0.4 1 0.8 0.3 0.3 0.5 0.7 0.6 1.1 0.1 0.4 0.2 0.9 0.2 1.4 0 0.2 0 0.4 0 0.5s0 0.3-0.1 0.4h-4.5c0.1 0.6 0.3 1 0.7 1.2 0.3 0.3 0.8 0.4 1.3 0.4 0.5 0 1.1-0.2 1.6-0.5l0.7 1.3c-0.4 0.3-0.8 0.5-1.3 0.6 -0.5 0.2-0.9 0.2-1.4 0.2 -0.5 0-1-0.1-1.5-0.3s-0.9-0.4-1.2-0.8c-0.3-0.3-0.6-0.7-0.8-1.2C90.1 36 90 35.4 90 34.8zM94.8 34c0-0.4-0.1-0.8-0.3-1 -0.2-0.3-0.5-0.4-1-0.4 -0.4 0-0.7 0.1-0.9 0.4S92.2 33.5 92.1 34H94.8z" class="c"/><path d="M97.8 36.4c0-0.8 0.3-1.4 1-1.8 0.7-0.4 1.7-0.7 3.2-0.9 0-0.3-0.1-0.6-0.3-0.8 -0.2-0.2-0.5-0.3-0.9-0.3 -0.3 0-0.6 0.1-1 0.2 -0.3 0.1-0.7 0.3-1 0.5l-0.8-1.5c0.5-0.3 1-0.5 1.5-0.7 0.5-0.2 1.1-0.3 1.7-0.3 1 0 1.7 0.3 2.2 0.8 0.5 0.5 0.8 1.4 0.8 2.5v4.3h-1.8l-0.2-0.8h0c-0.3 0.3-0.7 0.5-1 0.7s-0.7 0.3-1.2 0.3c-0.3 0-0.6-0.1-0.9-0.2 -0.3-0.1-0.5-0.3-0.7-0.5 -0.2-0.2-0.3-0.4-0.4-0.7S97.8 36.8 97.8 36.4zM99.9 36.3c0 0.2 0.1 0.4 0.2 0.5 0.2 0.1 0.4 0.2 0.6 0.2 0.3 0 0.5-0.1 0.7-0.2 0.2-0.1 0.4-0.3 0.6-0.5V35.1c-0.8 0.1-1.3 0.3-1.6 0.5C100 35.7 99.9 36 99.9 36.3z" class="c"/><path d="M106.1 31.1h1.8l0.2 1.3h0.1c0.3-0.5 0.6-0.9 1-1.1 0.4-0.2 0.8-0.4 1.1-0.4 0.2 0 0.4 0 0.5 0 0.1 0 0.3 0.1 0.4 0.1l-0.4 1.9c-0.1 0-0.3-0.1-0.4-0.1 -0.1 0-0.3 0-0.4 0 -0.3 0-0.6 0.1-0.9 0.3 -0.3 0.2-0.6 0.6-0.8 1.1v4.3h-2.2V31.1z" class="c"/><path d="M112.3 32.8h-1v-1.6l1.1-0.1 0.3-2h1.8v2h1.8V32.8h-1.8v3c0 0.4 0.1 0.7 0.3 0.9 0.2 0.2 0.4 0.3 0.7 0.3 0.1 0 0.2 0 0.4 0 0.1 0 0.2-0.1 0.3-0.1l0.3 1.6c-0.2 0.1-0.4 0.1-0.7 0.2s-0.6 0.1-0.9 0.1c-0.5 0-0.9-0.1-1.2-0.2 -0.3-0.1-0.6-0.3-0.8-0.6 -0.2-0.2-0.4-0.6-0.4-0.9 -0.1-0.4-0.1-0.7-0.1-1.2V32.8z" class="c"/><path d="M117.2 34.8c0-0.6 0.1-1.1 0.3-1.6 0.2-0.5 0.5-0.9 0.8-1.2 0.3-0.3 0.7-0.6 1.1-0.8 0.4-0.2 0.9-0.3 1.3-0.3 0.5 0 1 0.1 1.4 0.3 0.4 0.2 0.7 0.4 1 0.8 0.3 0.3 0.5 0.7 0.6 1.1 0.1 0.4 0.2 0.9 0.2 1.4 0 0.2 0 0.4 0 0.5s0 0.3-0.1 0.4h-4.5c0.1 0.6 0.3 1 0.7 1.2 0.3 0.3 0.8 0.4 1.3 0.4 0.5 0 1.1-0.2 1.6-0.5l0.7 1.3c-0.4 0.3-0.8 0.5-1.3 0.6 -0.5 0.2-0.9 0.2-1.4 0.2 -0.5 0-1-0.1-1.5-0.3s-0.9-0.4-1.2-0.8c-0.3-0.3-0.6-0.7-0.8-1.2C117.3 36 117.2 35.4 117.2 34.8zM122 34c0-0.4-0.1-0.8-0.3-1 -0.2-0.3-0.5-0.4-1-0.4 -0.4 0-0.7 0.1-0.9 0.4s-0.4 0.6-0.5 1.1H122z" class="c"/><path d="M126.7 34.6l-2.1-3.6h2.4l0.7 1.2c0.1 0.2 0.2 0.4 0.3 0.6 0.1 0.2 0.2 0.4 0.3 0.6h0.1c0.1-0.2 0.2-0.4 0.3-0.6 0.1-0.2 0.2-0.4 0.3-0.6l0.5-1.2h2.3l-2.2 3.8 2.3 3.6h-2.4l-0.7-1.2c-0.1-0.2-0.2-0.4-0.4-0.6 -0.1-0.2-0.2-0.4-0.4-0.6h-0.1c-0.1 0.2-0.2 0.4-0.3 0.6 -0.1 0.2-0.2 0.4-0.3 0.7l-0.6 1.2h-2.3L126.7 34.6z" class="c"/><path d="M133.2 32.8h-1v-1.6l1.1-0.1 0.3-2h1.8v2h1.8V32.8h-1.8v3c0 0.4 0.1 0.7 0.3 0.9 0.2 0.2 0.4 0.3 0.7 0.3 0.1 0 0.2 0 0.4 0 0.1 0 0.2-0.1 0.3-0.1l0.3 1.6c-0.2 0.1-0.4 0.1-0.7 0.2s-0.6 0.1-0.9 0.1c-0.5 0-0.9-0.1-1.2-0.2 -0.3-0.1-0.6-0.3-0.8-0.6 -0.2-0.2-0.4-0.6-0.4-0.9 -0.1-0.4-0.1-0.7-0.1-1.2V32.8z" class="c"/><path d="M36.5 119.7h3.6c0.5 0 1 0.1 1.5 0.2 0.5 0.1 0.9 0.3 1.2 0.5 0.3 0.2 0.6 0.6 0.8 1 0.2 0.4 0.3 0.9 0.3 1.5 0 0.6-0.1 1.1-0.3 1.5 -0.2 0.4-0.5 0.8-0.8 1 -0.3 0.3-0.8 0.5-1.2 0.6s-0.9 0.2-1.5 0.2h-1.4v3.3h-2.2V119.7zM39.9 124.4c1.2 0 1.8-0.5 1.8-1.6 0-0.5-0.2-0.9-0.5-1.1 -0.3-0.2-0.8-0.3-1.3-0.3h-1.2v3H39.9z" class="c"/><path d="M44.6 127.4c0-0.8 0.3-1.4 1-1.8 0.7-0.4 1.7-0.7 3.2-0.9 0-0.3-0.1-0.6-0.3-0.8 -0.2-0.2-0.5-0.3-0.9-0.3 -0.3 0-0.6 0.1-1 0.2 -0.3 0.1-0.7 0.3-1 0.5l-0.8-1.5c0.5-0.3 1-0.5 1.5-0.7 0.5-0.2 1.1-0.3 1.7-0.3 1 0 1.7 0.3 2.2 0.8 0.5 0.5 0.8 1.4 0.8 2.5v4.3h-1.8l-0.2-0.8h0c-0.3 0.3-0.7 0.5-1 0.7s-0.7 0.3-1.2 0.3c-0.3 0-0.6-0.1-0.9-0.2 -0.3-0.1-0.5-0.3-0.7-0.5 -0.2-0.2-0.3-0.4-0.4-0.7S44.6 127.8 44.6 127.4zM46.7 127.3c0 0.2 0.1 0.4 0.2 0.5 0.2 0.1 0.4 0.2 0.6 0.2 0.3 0 0.5-0.1 0.7-0.2 0.2-0.1 0.4-0.3 0.6-0.5v-1.3c-0.8 0.1-1.3 0.3-1.6 0.5C46.9 126.7 46.7 127 46.7 127.3z" class="c"/><path d="M53.2 127.3c0.3 0.3 0.7 0.5 1 0.6s0.6 0.2 0.9 0.2c0.3 0 0.6-0.1 0.7-0.2 0.2-0.1 0.2-0.3 0.2-0.5 0-0.1 0-0.2-0.1-0.3 -0.1-0.1-0.2-0.2-0.3-0.3s-0.3-0.2-0.5-0.2c-0.2-0.1-0.4-0.1-0.6-0.2 -0.2-0.1-0.5-0.2-0.7-0.3s-0.4-0.3-0.6-0.4 -0.3-0.4-0.5-0.6c-0.1-0.2-0.2-0.5-0.2-0.8 0-0.3 0.1-0.7 0.2-0.9 0.1-0.3 0.3-0.5 0.6-0.7 0.3-0.2 0.6-0.4 0.9-0.5 0.4-0.1 0.7-0.2 1.2-0.2 0.6 0 1.1 0.1 1.5 0.3 0.4 0.2 0.8 0.4 1.1 0.7l-1 1.3c-0.3-0.2-0.5-0.4-0.8-0.5s-0.5-0.2-0.8-0.2c-0.6 0-0.8 0.2-0.8 0.6 0 0.1 0 0.2 0.1 0.3s0.2 0.2 0.3 0.2c0.1 0.1 0.3 0.1 0.5 0.2 0.2 0.1 0.4 0.1 0.5 0.2 0.2 0.1 0.5 0.2 0.7 0.3 0.2 0.1 0.5 0.3 0.6 0.4 0.2 0.2 0.4 0.4 0.5 0.6 0.1 0.2 0.2 0.5 0.2 0.9 0 0.3-0.1 0.7-0.2 0.9s-0.3 0.5-0.6 0.8c-0.3 0.2-0.6 0.4-1 0.5 -0.4 0.1-0.8 0.2-1.3 0.2 -0.5 0-1-0.1-1.5-0.3 -0.5-0.2-1-0.4-1.3-0.7L53.2 127.3z" class="c"/><path d="M59.9 127.3c0.3 0.3 0.7 0.5 1 0.6s0.6 0.2 0.9 0.2c0.3 0 0.6-0.1 0.7-0.2 0.2-0.1 0.2-0.3 0.2-0.5 0-0.1 0-0.2-0.1-0.3 -0.1-0.1-0.2-0.2-0.3-0.3s-0.3-0.2-0.5-0.2c-0.2-0.1-0.4-0.1-0.6-0.2 -0.2-0.1-0.5-0.2-0.7-0.3s-0.4-0.3-0.6-0.4 -0.3-0.4-0.5-0.6c-0.1-0.2-0.2-0.5-0.2-0.8 0-0.3 0.1-0.7 0.2-0.9 0.1-0.3 0.3-0.5 0.6-0.7 0.3-0.2 0.6-0.4 0.9-0.5 0.4-0.1 0.7-0.2 1.2-0.2 0.6 0 1.1 0.1 1.5 0.3 0.4 0.2 0.8 0.4 1.1 0.7l-1 1.3c-0.3-0.2-0.5-0.4-0.8-0.5s-0.5-0.2-0.8-0.2c-0.6 0-0.8 0.2-0.8 0.6 0 0.1 0 0.2 0.1 0.3s0.2 0.2 0.3 0.2c0.1 0.1 0.3 0.1 0.5 0.2 0.2 0.1 0.4 0.1 0.5 0.2 0.2 0.1 0.5 0.2 0.7 0.3 0.2 0.1 0.5 0.3 0.6 0.4 0.2 0.2 0.4 0.4 0.5 0.6 0.1 0.2 0.2 0.5 0.2 0.9 0 0.3-0.1 0.7-0.2 0.9s-0.3 0.5-0.6 0.8c-0.3 0.2-0.6 0.4-1 0.5 -0.4 0.1-0.8 0.2-1.3 0.2 -0.5 0-1-0.1-1.5-0.3 -0.5-0.2-1-0.4-1.3-0.7L59.9 127.3z" class="c"/><path d="M65.6 122.1h2.2l0.7 3.5c0.1 0.4 0.1 0.7 0.2 1.1 0.1 0.4 0.1 0.7 0.2 1.1h0.1c0.1-0.4 0.1-0.8 0.2-1.1 0.1-0.4 0.1-0.7 0.2-1.1l0.8-3.4h1.9l0.8 3.5c0.1 0.4 0.2 0.7 0.2 1.1s0.1 0.7 0.2 1.1h0.1c0.1-0.4 0.1-0.7 0.2-1.1 0-0.4 0.1-0.7 0.2-1.1l0.7-3.4h2l-1.8 7.4h-2.6l-0.7-3c-0.1-0.3-0.1-0.7-0.2-1 -0.1-0.3-0.1-0.7-0.2-1.1h-0.1c-0.1 0.4-0.1 0.8-0.2 1.1s-0.1 0.7-0.2 1.1l-0.7 3h-2.5L65.6 122.1z" class="c"/><path d="M77.3 125.8c0-0.6 0.1-1.2 0.3-1.7s0.5-0.9 0.8-1.2c0.3-0.3 0.7-0.6 1.2-0.8 0.4-0.2 0.9-0.3 1.4-0.3s0.9 0.1 1.4 0.3 0.8 0.4 1.2 0.8c0.3 0.3 0.6 0.7 0.8 1.2s0.3 1 0.3 1.7c0 0.6-0.1 1.2-0.3 1.7 -0.2 0.5-0.5 0.9-0.8 1.2 -0.3 0.3-0.7 0.6-1.2 0.8s-0.9 0.3-1.4 0.3 -0.9-0.1-1.4-0.3c-0.4-0.2-0.8-0.4-1.2-0.8 -0.3-0.3-0.6-0.7-0.8-1.2C77.4 127 77.3 126.4 77.3 125.8zM79.5 125.8c0 0.7 0.1 1.2 0.3 1.5s0.6 0.6 1 0.6c0.5 0 0.8-0.2 1-0.6s0.3-0.9 0.3-1.5c0-0.6-0.1-1.2-0.3-1.5 -0.2-0.4-0.6-0.6-1-0.6 -0.5 0-0.8 0.2-1 0.6C79.7 124.6 79.5 125.1 79.5 125.8z" class="c"/><path d="M86 122.1h1.8l0.2 1.3h0.1c0.3-0.5 0.6-0.9 1-1.1 0.4-0.2 0.8-0.4 1.1-0.4 0.2 0 0.4 0 0.5 0 0.1 0 0.3 0.1 0.4 0.1l-0.4 1.9c-0.1 0-0.3-0.1-0.4-0.1 -0.1 0-0.3 0-0.4 0 -0.3 0-0.6 0.1-0.9 0.3 -0.3 0.2-0.6 0.6-0.8 1.1v4.3h-2.2V122.1z" class="c"/><path d="M91.5 125.8c0-0.6 0.1-1.2 0.3-1.6 0.2-0.5 0.4-0.9 0.7-1.2 0.3-0.3 0.6-0.6 1-0.8 0.4-0.2 0.8-0.3 1.1-0.3 0.4 0 0.8 0.1 1 0.2 0.3 0.1 0.5 0.3 0.8 0.6l-0.1-1.1V119h2.2v10.5h-1.8l-0.1-0.7h-0.1c-0.3 0.3-0.6 0.5-0.9 0.7s-0.7 0.3-1.1 0.3c-0.5 0-0.9-0.1-1.3-0.3 -0.4-0.2-0.7-0.4-1-0.8 -0.3-0.3-0.5-0.7-0.6-1.2C91.5 127 91.5 126.4 91.5 125.8zM93.7 125.8c0 0.7 0.1 1.3 0.4 1.6 0.2 0.3 0.6 0.5 1 0.5 0.2 0 0.5 0 0.7-0.1 0.2-0.1 0.4-0.3 0.6-0.5v-3c-0.2-0.2-0.4-0.3-0.6-0.4s-0.4-0.1-0.6-0.1c-0.3 0-0.7 0.2-0.9 0.5S93.7 125.1 93.7 125.8z" class="c"/><path d="M104.7 121c-0.4 0-0.7-0.1-0.9-0.3 -0.2-0.2-0.4-0.5-0.4-0.8s0.1-0.6 0.4-0.8c0.2-0.2 0.5-0.3 0.9-0.3 0.4 0 0.7 0.1 0.9 0.3 0.2 0.2 0.4 0.5 0.4 0.8s-0.1 0.6-0.4 0.8C105.4 120.9 105.1 121 104.7 121zM103.6 122.1h2.2v7.4h-2.2V122.1z" class="c"/><path d="M108 127.3c0.3 0.3 0.7 0.5 1 0.6s0.6 0.2 0.9 0.2c0.3 0 0.6-0.1 0.7-0.2 0.2-0.1 0.2-0.3 0.2-0.5 0-0.1 0-0.2-0.1-0.3 -0.1-0.1-0.2-0.2-0.3-0.3s-0.3-0.2-0.5-0.2c-0.2-0.1-0.4-0.1-0.6-0.2 -0.2-0.1-0.5-0.2-0.7-0.3s-0.4-0.3-0.6-0.4 -0.3-0.4-0.5-0.6c-0.1-0.2-0.2-0.5-0.2-0.8 0-0.3 0.1-0.7 0.2-0.9 0.1-0.3 0.3-0.5 0.6-0.7 0.3-0.2 0.6-0.4 0.9-0.5 0.4-0.1 0.7-0.2 1.2-0.2 0.6 0 1.1 0.1 1.5 0.3 0.4 0.2 0.8 0.4 1.1 0.7l-1 1.3c-0.3-0.2-0.5-0.4-0.8-0.5s-0.5-0.2-0.8-0.2c-0.6 0-0.8 0.2-0.8 0.6 0 0.1 0 0.2 0.1 0.3s0.2 0.2 0.3 0.2c0.1 0.1 0.3 0.1 0.5 0.2 0.2 0.1 0.4 0.1 0.5 0.2 0.2 0.1 0.5 0.2 0.7 0.3 0.2 0.1 0.5 0.3 0.6 0.4 0.2 0.2 0.4 0.4 0.5 0.6 0.1 0.2 0.2 0.5 0.2 0.9 0 0.3-0.1 0.7-0.2 0.9s-0.3 0.5-0.6 0.8c-0.3 0.2-0.6 0.4-1 0.5 -0.4 0.1-0.8 0.2-1.3 0.2 -0.5 0-1-0.1-1.5-0.3 -0.5-0.2-1-0.4-1.3-0.7L108 127.3z" class="c"/><path d="M117.5 119h2.2v2.6l-0.1 1.3c0.3-0.2 0.6-0.5 1-0.7s0.8-0.3 1.3-0.3c0.8 0 1.4 0.3 1.8 0.8 0.4 0.5 0.5 1.3 0.5 2.2v4.6h-2.2v-4.3c0-0.5-0.1-0.9-0.2-1.1s-0.4-0.3-0.7-0.3c-0.3 0-0.5 0.1-0.7 0.2 -0.2 0.1-0.4 0.3-0.7 0.5v5h-2.2V119z" class="c"/><path d="M125.8 127.4c0-0.8 0.3-1.4 1-1.8 0.7-0.4 1.7-0.7 3.2-0.9 0-0.3-0.1-0.6-0.3-0.8 -0.2-0.2-0.5-0.3-0.9-0.3 -0.3 0-0.6 0.1-1 0.2 -0.3 0.1-0.7 0.3-1 0.5l-0.8-1.5c0.5-0.3 1-0.5 1.5-0.7 0.5-0.2 1.1-0.3 1.7-0.3 1 0 1.7 0.3 2.2 0.8 0.5 0.5 0.8 1.4 0.8 2.5v4.3h-1.8l-0.2-0.8h0c-0.3 0.3-0.7 0.5-1 0.7s-0.7 0.3-1.2 0.3c-0.3 0-0.6-0.1-0.9-0.2 -0.3-0.1-0.5-0.3-0.7-0.5 -0.2-0.2-0.3-0.4-0.4-0.7S125.8 127.8 125.8 127.4zM127.9 127.3c0 0.2 0.1 0.4 0.2 0.5 0.2 0.1 0.4 0.2 0.6 0.2 0.3 0 0.5-0.1 0.7-0.2 0.2-0.1 0.4-0.3 0.6-0.5v-1.3c-0.8 0.1-1.3 0.3-1.6 0.5C128 126.7 127.9 127 127.9 127.3z" class="c"/><path d="M134.4 127.3c0.3 0.3 0.7 0.5 1 0.6s0.6 0.2 0.9 0.2c0.3 0 0.6-0.1 0.7-0.2 0.2-0.1 0.2-0.3 0.2-0.5 0-0.1 0-0.2-0.1-0.3 -0.1-0.1-0.2-0.2-0.3-0.3s-0.3-0.2-0.5-0.2c-0.2-0.1-0.4-0.1-0.6-0.2 -0.2-0.1-0.5-0.2-0.7-0.3s-0.4-0.3-0.6-0.4 -0.3-0.4-0.5-0.6c-0.1-0.2-0.2-0.5-0.2-0.8 0-0.3 0.1-0.7 0.2-0.9 0.1-0.3 0.3-0.5 0.6-0.7 0.3-0.2 0.6-0.4 0.9-0.5 0.4-0.1 0.7-0.2 1.2-0.2 0.6 0 1.1 0.1 1.5 0.3 0.4 0.2 0.8 0.4 1.1 0.7l-1 1.3c-0.3-0.2-0.5-0.4-0.8-0.5s-0.5-0.2-0.8-0.2c-0.6 0-0.8 0.2-0.8 0.6 0 0.1 0 0.2 0.1 0.3s0.2 0.2 0.3 0.2c0.1 0.1 0.3 0.1 0.5 0.2 0.2 0.1 0.4 0.1 0.5 0.2 0.2 0.1 0.5 0.2 0.7 0.3 0.2 0.1 0.5 0.3 0.6 0.4 0.2 0.2 0.4 0.4 0.5 0.6 0.1 0.2 0.2 0.5 0.2 0.9 0 0.3-0.1 0.7-0.2 0.9s-0.3 0.5-0.6 0.8c-0.3 0.2-0.6 0.4-1 0.5 -0.4 0.1-0.8 0.2-1.3 0.2 -0.5 0-1-0.1-1.5-0.3 -0.5-0.2-1-0.4-1.3-0.7L134.4 127.3z" class="c"/><path d="M140.7 119h2.2v2.6l-0.1 1.3c0.3-0.2 0.6-0.5 1-0.7s0.8-0.3 1.3-0.3c0.8 0 1.4 0.3 1.8 0.8 0.4 0.5 0.5 1.3 0.5 2.2v4.6h-2.2v-4.3c0-0.5-0.1-0.9-0.2-1.1s-0.4-0.3-0.7-0.3c-0.3 0-0.5 0.1-0.7 0.2 -0.2 0.1-0.4 0.3-0.7 0.5v5h-2.2V119z" class="c"/><path d="M148.8 125.8c0-0.6 0.1-1.1 0.3-1.6 0.2-0.5 0.5-0.9 0.8-1.2 0.3-0.3 0.7-0.6 1.1-0.8 0.4-0.2 0.9-0.3 1.3-0.3 0.5 0 1 0.1 1.4 0.3 0.4 0.2 0.7 0.4 1 0.8 0.3 0.3 0.5 0.7 0.6 1.1 0.1 0.4 0.2 0.9 0.2 1.4 0 0.2 0 0.4 0 0.5s0 0.3-0.1 0.4h-4.5c0.1 0.6 0.3 1 0.7 1.2 0.3 0.3 0.8 0.4 1.3 0.4 0.5 0 1.1-0.2 1.6-0.5l0.7 1.3c-0.4 0.3-0.8 0.5-1.3 0.6 -0.5 0.2-0.9 0.2-1.4 0.2 -0.5 0-1-0.1-1.5-0.3s-0.9-0.4-1.2-0.8c-0.3-0.3-0.6-0.7-0.8-1.2C148.9 127 148.8 126.4 148.8 125.8zM153.6 125c0-0.4-0.1-0.8-0.3-1 -0.2-0.3-0.5-0.4-1-0.4 -0.4 0-0.7 0.1-0.9 0.4s-0.4 0.6-0.5 1.1H153.6z" class="c"/><path d="M156.6 125.8c0-0.6 0.1-1.2 0.3-1.6 0.2-0.5 0.4-0.9 0.7-1.2 0.3-0.3 0.6-0.6 1-0.8 0.4-0.2 0.8-0.3 1.1-0.3 0.4 0 0.8 0.1 1 0.2 0.3 0.1 0.5 0.3 0.8 0.6l-0.1-1.1V119h2.2v10.5h-1.8l-0.1-0.7h-0.1c-0.3 0.3-0.6 0.5-0.9 0.7s-0.7 0.3-1.1 0.3c-0.5 0-0.9-0.1-1.3-0.3 -0.4-0.2-0.7-0.4-1-0.8 -0.3-0.3-0.5-0.7-0.6-1.2C156.7 127 156.6 126.4 156.6 125.8zM158.9 125.8c0 0.7 0.1 1.3 0.4 1.6 0.2 0.3 0.6 0.5 1 0.5 0.2 0 0.5 0 0.7-0.1 0.2-0.1 0.4-0.3 0.6-0.5v-3c-0.2-0.2-0.4-0.3-0.6-0.4s-0.4-0.1-0.6-0.1c-0.3 0-0.7 0.2-0.9 0.5S158.9 125.1 158.9 125.8z" class="c"/><path d="M42.8 210.2h2.2V214h3.4v-3.8h2.2v9.8h-2.2v-4.1h-3.4v4.1h-2.2V210.2z" class="c"/><path d="M52.4 217.9c0-0.8 0.3-1.4 1-1.8 0.7-0.4 1.7-0.7 3.2-0.9 0-0.3-0.1-0.6-0.3-0.8 -0.2-0.2-0.5-0.3-0.9-0.3 -0.3 0-0.6 0.1-1 0.2 -0.3 0.1-0.7 0.3-1 0.5l-0.8-1.5c0.5-0.3 1-0.5 1.5-0.7 0.5-0.2 1.1-0.3 1.7-0.3 1 0 1.7 0.3 2.2 0.8 0.5 0.5 0.8 1.4 0.8 2.5v4.3h-1.8l-0.2-0.8h0c-0.3 0.3-0.7 0.5-1 0.7 -0.4 0.2-0.7 0.3-1.2 0.3 -0.3 0-0.6-0.1-0.9-0.2 -0.3-0.1-0.5-0.3-0.7-0.5 -0.2-0.2-0.3-0.4-0.4-0.7C52.5 218.6 52.4 218.3 52.4 217.9zM54.5 217.8c0 0.2 0.1 0.4 0.2 0.5 0.2 0.1 0.4 0.2 0.6 0.2 0.3 0 0.5-0.1 0.7-0.2 0.2-0.1 0.4-0.3 0.6-0.5v-1.3c-0.8 0.1-1.3 0.3-1.6 0.5C54.7 217.2 54.5 217.5 54.5 217.8z" class="c"/><path d="M61 217.8c0.3 0.3 0.7 0.5 1 0.6 0.3 0.1 0.6 0.2 0.9 0.2 0.3 0 0.6-0.1 0.7-0.2 0.2-0.1 0.2-0.3 0.2-0.5 0-0.1 0-0.2-0.1-0.3 -0.1-0.1-0.2-0.2-0.3-0.3s-0.3-0.2-0.5-0.2c-0.2-0.1-0.4-0.1-0.6-0.2 -0.2-0.1-0.5-0.2-0.7-0.3s-0.4-0.3-0.6-0.4 -0.3-0.4-0.5-0.6c-0.1-0.2-0.2-0.5-0.2-0.8 0-0.3 0.1-0.7 0.2-0.9 0.1-0.3 0.3-0.5 0.6-0.7 0.3-0.2 0.6-0.4 0.9-0.5 0.4-0.1 0.7-0.2 1.2-0.2 0.6 0 1.1 0.1 1.5 0.3 0.4 0.2 0.8 0.4 1.1 0.7l-1 1.3c-0.3-0.2-0.5-0.4-0.8-0.5 -0.3-0.1-0.5-0.2-0.8-0.2 -0.6 0-0.8 0.2-0.8 0.6 0 0.1 0 0.2 0.1 0.3 0.1 0.1 0.2 0.2 0.3 0.2 0.1 0.1 0.3 0.1 0.5 0.2 0.2 0.1 0.4 0.1 0.5 0.2 0.2 0.1 0.5 0.2 0.7 0.3 0.2 0.1 0.5 0.3 0.6 0.4 0.2 0.2 0.4 0.4 0.5 0.6s0.2 0.5 0.2 0.9 -0.1 0.7-0.2 0.9c-0.1 0.3-0.3 0.5-0.6 0.8 -0.3 0.2-0.6 0.4-1 0.5 -0.4 0.1-0.8 0.2-1.3 0.2 -0.5 0-1-0.1-1.5-0.3 -0.5-0.2-1-0.4-1.3-0.7L61 217.8z" class="c"/><path d="M67.3 209.5h2.2v2.6l-0.1 1.3c0.3-0.2 0.6-0.5 1-0.7s0.8-0.3 1.3-0.3c0.8 0 1.4 0.3 1.8 0.8 0.4 0.5 0.5 1.3 0.5 2.2v4.6h-2.2v-4.3c0-0.5-0.1-0.9-0.2-1.1 -0.1-0.2-0.4-0.3-0.7-0.3 -0.3 0-0.5 0.1-0.7 0.2s-0.4 0.3-0.7 0.5v5h-2.2V209.5z" class="c"/><path d="M75.5 216.3c0-0.6 0.1-1.1 0.3-1.6s0.5-0.9 0.8-1.2c0.3-0.3 0.7-0.6 1.1-0.8 0.4-0.2 0.9-0.3 1.3-0.3 0.5 0 1 0.1 1.4 0.3 0.4 0.2 0.7 0.4 1 0.8 0.3 0.3 0.5 0.7 0.6 1.1 0.1 0.4 0.2 0.9 0.2 1.4 0 0.2 0 0.4 0 0.5 0 0.2 0 0.3-0.1 0.4h-4.5c0.1 0.6 0.3 1 0.7 1.2 0.3 0.3 0.8 0.4 1.3 0.4 0.5 0 1.1-0.2 1.6-0.5l0.7 1.3c-0.4 0.3-0.8 0.5-1.3 0.6 -0.5 0.1-0.9 0.2-1.4 0.2 -0.5 0-1-0.1-1.5-0.3 -0.5-0.2-0.9-0.4-1.2-0.8 -0.3-0.3-0.6-0.7-0.8-1.2C75.6 217.5 75.5 216.9 75.5 216.3zM80.3 215.5c0-0.4-0.1-0.8-0.3-1 -0.2-0.3-0.5-0.4-1-0.4 -0.4 0-0.7 0.1-0.9 0.4 -0.3 0.2-0.4 0.6-0.5 1.1H80.3z" class="c"/><path d="M83.3 216.3c0-0.6 0.1-1.2 0.3-1.6 0.2-0.5 0.4-0.9 0.7-1.2 0.3-0.3 0.6-0.6 1-0.8 0.4-0.2 0.8-0.3 1.1-0.3 0.4 0 0.8 0.1 1 0.2s0.5 0.3 0.8 0.6l-0.1-1.1V209.5h2.2v10.5h-1.8l-0.1-0.7h-0.1c-0.3 0.3-0.6 0.5-0.9 0.7 -0.3 0.2-0.7 0.3-1.1 0.3 -0.5 0-0.9-0.1-1.3-0.3 -0.4-0.2-0.7-0.4-1-0.8 -0.3-0.3-0.5-0.7-0.6-1.2C83.4 217.4 83.3 216.9 83.3 216.3zM85.5 216.3c0 0.7 0.1 1.3 0.4 1.6 0.2 0.3 0.6 0.5 1 0.5 0.2 0 0.5 0 0.7-0.1 0.2-0.1 0.4-0.3 0.6-0.5v-3c-0.2-0.2-0.4-0.3-0.6-0.4s-0.4-0.1-0.6-0.1c-0.3 0-0.7 0.2-0.9 0.5S85.5 215.6 85.5 216.3z" class="c"/><path d="M97.6 220.6v2.2h-2.2v-10.2h1.8l0.2 0.7h0.1c0.3-0.3 0.6-0.5 1-0.7 0.4-0.2 0.7-0.3 1.1-0.3 0.5 0 0.9 0.1 1.2 0.3 0.4 0.2 0.7 0.4 0.9 0.8s0.4 0.7 0.6 1.2c0.1 0.5 0.2 1 0.2 1.6 0 0.6-0.1 1.2-0.3 1.7 -0.2 0.5-0.4 0.9-0.7 1.3 -0.3 0.3-0.6 0.6-1 0.8 -0.4 0.2-0.8 0.3-1.2 0.3 -0.3 0-0.6-0.1-0.9-0.2 -0.3-0.1-0.6-0.3-0.8-0.6L97.6 220.6zM97.6 217.9c0.2 0.2 0.4 0.3 0.6 0.4 0.2 0.1 0.4 0.1 0.6 0.1 0.4 0 0.7-0.2 1-0.5 0.3-0.3 0.4-0.9 0.4-1.7 0-1.3-0.4-2-1.3-2 -0.4 0-0.9 0.2-1.3 0.7V217.9z" class="c"/><path d="M103.5 217.9c0-0.8 0.3-1.4 1-1.8 0.7-0.4 1.7-0.7 3.2-0.9 0-0.3-0.1-0.6-0.3-0.8 -0.2-0.2-0.5-0.3-0.9-0.3 -0.3 0-0.6 0.1-1 0.2 -0.3 0.1-0.7 0.3-1 0.5l-0.8-1.5c0.5-0.3 1-0.5 1.5-0.7 0.5-0.2 1.1-0.3 1.7-0.3 1 0 1.7 0.3 2.2 0.8 0.5 0.5 0.8 1.4 0.8 2.5v4.3h-1.8l-0.2-0.8h0c-0.3 0.3-0.7 0.5-1 0.7 -0.4 0.2-0.7 0.3-1.2 0.3 -0.3 0-0.6-0.1-0.9-0.2 -0.3-0.1-0.5-0.3-0.7-0.5 -0.2-0.2-0.3-0.4-0.4-0.7C103.6 218.6 103.5 218.3 103.5 217.9zM105.6 217.8c0 0.2 0.1 0.4 0.2 0.5 0.2 0.1 0.4 0.2 0.6 0.2 0.3 0 0.5-0.1 0.7-0.2 0.2-0.1 0.4-0.3 0.6-0.5v-1.3c-0.8 0.1-1.3 0.3-1.6 0.5C105.8 217.2 105.6 217.5 105.6 217.8z" class="c"/><path d="M112.2 217.8c0.3 0.3 0.7 0.5 1 0.6 0.3 0.1 0.6 0.2 0.9 0.2 0.3 0 0.6-0.1 0.7-0.2 0.2-0.1 0.2-0.3 0.2-0.5 0-0.1 0-0.2-0.1-0.3 -0.1-0.1-0.2-0.2-0.3-0.3s-0.3-0.2-0.5-0.2c-0.2-0.1-0.4-0.1-0.6-0.2 -0.2-0.1-0.5-0.2-0.7-0.3s-0.4-0.3-0.6-0.4 -0.3-0.4-0.5-0.6c-0.1-0.2-0.2-0.5-0.2-0.8 0-0.3 0.1-0.7 0.2-0.9 0.1-0.3 0.3-0.5 0.6-0.7 0.3-0.2 0.6-0.4 0.9-0.5 0.4-0.1 0.7-0.2 1.2-0.2 0.6 0 1.1 0.1 1.5 0.3 0.4 0.2 0.8 0.4 1.1 0.7l-1 1.3c-0.3-0.2-0.5-0.4-0.8-0.5 -0.3-0.1-0.5-0.2-0.8-0.2 -0.6 0-0.8 0.2-0.8 0.6 0 0.1 0 0.2 0.1 0.3 0.1 0.1 0.2 0.2 0.3 0.2 0.1 0.1 0.3 0.1 0.5 0.2 0.2 0.1 0.4 0.1 0.5 0.2 0.2 0.1 0.5 0.2 0.7 0.3 0.2 0.1 0.5 0.3 0.6 0.4 0.2 0.2 0.4 0.4 0.5 0.6s0.2 0.5 0.2 0.9 -0.1 0.7-0.2 0.9c-0.1 0.3-0.3 0.5-0.6 0.8 -0.3 0.2-0.6 0.4-1 0.5 -0.4 0.1-0.8 0.2-1.3 0.2 -0.5 0-1-0.1-1.5-0.3 -0.5-0.2-1-0.4-1.3-0.7L112.2 217.8z" class="c"/><path d="M118.8 217.8c0.3 0.3 0.7 0.5 1 0.6 0.3 0.1 0.6 0.2 0.9 0.2 0.3 0 0.6-0.1 0.7-0.2 0.2-0.1 0.2-0.3 0.2-0.5 0-0.1 0-0.2-0.1-0.3 -0.1-0.1-0.2-0.2-0.3-0.3s-0.3-0.2-0.5-0.2c-0.2-0.1-0.4-0.1-0.6-0.2 -0.2-0.1-0.5-0.2-0.7-0.3s-0.4-0.3-0.6-0.4 -0.3-0.4-0.5-0.6c-0.1-0.2-0.2-0.5-0.2-0.8 0-0.3 0.1-0.7 0.2-0.9 0.1-0.3 0.3-0.5 0.6-0.7 0.3-0.2 0.6-0.4 0.9-0.5 0.4-0.1 0.7-0.2 1.2-0.2 0.6 0 1.1 0.1 1.5 0.3 0.4 0.2 0.8 0.4 1.1 0.7l-1 1.3c-0.3-0.2-0.5-0.4-0.8-0.5 -0.3-0.1-0.5-0.2-0.8-0.2 -0.6 0-0.8 0.2-0.8 0.6 0 0.1 0 0.2 0.1 0.3 0.1 0.1 0.2 0.2 0.3 0.2 0.1 0.1 0.3 0.1 0.5 0.2 0.2 0.1 0.4 0.1 0.5 0.2 0.2 0.1 0.5 0.2 0.7 0.3 0.2 0.1 0.5 0.3 0.6 0.4 0.2 0.2 0.4 0.4 0.5 0.6s0.2 0.5 0.2 0.9 -0.1 0.7-0.2 0.9c-0.1 0.3-0.3 0.5-0.6 0.8 -0.3 0.2-0.6 0.4-1 0.5 -0.4 0.1-0.8 0.2-1.3 0.2 -0.5 0-1-0.1-1.5-0.3 -0.5-0.2-1-0.4-1.3-0.7L118.8 217.8z" class="c"/><path d="M124.5 212.6h2.2l0.7 3.5c0.1 0.4 0.1 0.7 0.2 1.1 0.1 0.4 0.1 0.7 0.2 1.1h0.1c0.1-0.4 0.1-0.8 0.2-1.1s0.1-0.7 0.2-1.1l0.8-3.4h1.9l0.8 3.5c0.1 0.4 0.2 0.7 0.2 1.1 0.1 0.4 0.1 0.7 0.2 1.1h0.1c0.1-0.4 0.1-0.7 0.2-1.1 0-0.4 0.1-0.7 0.2-1.1l0.7-3.4h2l-1.8 7.4h-2.6l-0.7-3c-0.1-0.3-0.1-0.7-0.2-1.1 -0.1-0.3-0.1-0.7-0.2-1.1h-0.1c-0.1 0.4-0.1 0.8-0.2 1.1 -0.1 0.4-0.1 0.7-0.2 1.1l-0.7 3h-2.5L124.5 212.6z" class="c"/><path d="M136.2 216.3c0-0.6 0.1-1.2 0.3-1.7 0.2-0.5 0.5-0.9 0.8-1.2 0.3-0.3 0.7-0.6 1.2-0.8 0.4-0.2 0.9-0.3 1.4-0.3s0.9 0.1 1.4 0.3 0.8 0.4 1.2 0.8c0.3 0.3 0.6 0.7 0.8 1.2 0.2 0.5 0.3 1 0.3 1.7s-0.1 1.2-0.3 1.7 -0.5 0.9-0.8 1.2c-0.3 0.3-0.7 0.6-1.2 0.8 -0.4 0.2-0.9 0.3-1.4 0.3s-0.9-0.1-1.4-0.3c-0.4-0.2-0.8-0.4-1.2-0.8 -0.3-0.3-0.6-0.7-0.8-1.2S136.2 216.9 136.2 216.3zM138.5 216.3c0 0.7 0.1 1.2 0.3 1.5s0.6 0.6 1 0.6c0.5 0 0.8-0.2 1-0.6s0.3-0.9 0.3-1.5 -0.1-1.2-0.3-1.5c-0.2-0.4-0.6-0.6-1-0.6 -0.5 0-0.8 0.2-1 0.6C138.6 215.1 138.5 215.6 138.5 216.3z" class="c"/><path d="M145 212.6h1.8l0.2 1.3h0.1c0.3-0.5 0.6-0.9 1-1.1 0.4-0.2 0.8-0.4 1.1-0.4 0.2 0 0.4 0 0.5 0 0.1 0 0.3 0.1 0.4 0.1l-0.4 1.9c-0.1 0-0.3-0.1-0.4-0.1 -0.1 0-0.3 0-0.4 0 -0.3 0-0.6 0.1-0.9 0.3 -0.3 0.2-0.6 0.6-0.8 1.1v4.3h-2.2V212.6z" class="c"/><path d="M150.4 216.3c0-0.6 0.1-1.2 0.3-1.6 0.2-0.5 0.4-0.9 0.7-1.2 0.3-0.3 0.6-0.6 1-0.8 0.4-0.2 0.8-0.3 1.1-0.3 0.4 0 0.8 0.1 1 0.2s0.5 0.3 0.8 0.6l-0.1-1.1V209.5h2.2v10.5h-1.8l-0.1-0.7h-0.1c-0.3 0.3-0.6 0.5-0.9 0.7 -0.3 0.2-0.7 0.3-1.1 0.3 -0.5 0-0.9-0.1-1.3-0.3 -0.4-0.2-0.7-0.4-1-0.8 -0.3-0.3-0.5-0.7-0.6-1.2C150.5 217.4 150.4 216.9 150.4 216.3zM152.7 216.3c0 0.7 0.1 1.3 0.4 1.6 0.2 0.3 0.6 0.5 1 0.5 0.2 0 0.5 0 0.7-0.1 0.2-0.1 0.4-0.3 0.6-0.5v-3c-0.2-0.2-0.4-0.3-0.6-0.4s-0.4-0.1-0.6-0.1c-0.3 0-0.7 0.2-0.9 0.5S152.7 215.6 152.7 216.3z" class="c"/><path d="M64.3 229.5c-0.4 0-0.7-0.1-0.9-0.3 -0.2-0.2-0.4-0.5-0.4-0.8s0.1-0.6 0.4-0.8c0.2-0.2 0.5-0.3 0.9-0.3 0.4 0 0.7 0.1 0.9 0.3 0.2 0.2 0.4 0.5 0.4 0.8s-0.1 0.6-0.4 0.8C65 229.4 64.7 229.5 64.3 229.5zM63.2 230.6h2.2v7.4h-2.2V230.6z" class="c"/><path d="M67.7 235.8c0.3 0.3 0.7 0.5 1 0.6 0.3 0.1 0.6 0.2 0.9 0.2 0.3 0 0.6-0.1 0.7-0.2 0.2-0.1 0.2-0.3 0.2-0.5 0-0.1 0-0.2-0.1-0.3 -0.1-0.1-0.2-0.2-0.3-0.3s-0.3-0.2-0.5-0.2c-0.2-0.1-0.4-0.1-0.6-0.2 -0.2-0.1-0.5-0.2-0.7-0.3s-0.4-0.3-0.6-0.4 -0.3-0.4-0.5-0.6c-0.1-0.2-0.2-0.5-0.2-0.8 0-0.3 0.1-0.7 0.2-0.9 0.1-0.3 0.3-0.5 0.6-0.7 0.3-0.2 0.6-0.4 0.9-0.5 0.4-0.1 0.7-0.2 1.2-0.2 0.6 0 1.1 0.1 1.5 0.3 0.4 0.2 0.8 0.4 1.1 0.7l-1 1.3c-0.3-0.2-0.5-0.4-0.8-0.5 -0.3-0.1-0.5-0.2-0.8-0.2 -0.6 0-0.8 0.2-0.8 0.6 0 0.1 0 0.2 0.1 0.3 0.1 0.1 0.2 0.2 0.3 0.2 0.1 0.1 0.3 0.1 0.5 0.2 0.2 0.1 0.4 0.1 0.5 0.2 0.2 0.1 0.5 0.2 0.7 0.3 0.2 0.1 0.5 0.3 0.6 0.4 0.2 0.2 0.4 0.4 0.5 0.6s0.2 0.5 0.2 0.9 -0.1 0.7-0.2 0.9c-0.1 0.3-0.3 0.5-0.6 0.8 -0.3 0.2-0.6 0.4-1 0.5 -0.4 0.1-0.8 0.2-1.3 0.2 -0.5 0-1-0.1-1.5-0.3 -0.5-0.2-1-0.4-1.3-0.7L67.7 235.8z" class="c"/><path d="M79.3 238.6v2.2h-2.2v-10.2h1.8l0.2 0.7h0.1c0.3-0.3 0.6-0.5 1-0.7 0.4-0.2 0.7-0.3 1.1-0.3 0.5 0 0.9 0.1 1.2 0.3 0.4 0.2 0.7 0.4 0.9 0.8s0.4 0.7 0.6 1.2c0.1 0.5 0.2 1 0.2 1.6 0 0.6-0.1 1.2-0.3 1.7 -0.2 0.5-0.4 0.9-0.7 1.3 -0.3 0.3-0.6 0.6-1 0.8 -0.4 0.2-0.8 0.3-1.2 0.3 -0.3 0-0.6-0.1-0.9-0.2 -0.3-0.1-0.6-0.3-0.8-0.6L79.3 238.6zM79.3 235.9c0.2 0.2 0.4 0.3 0.6 0.4 0.2 0.1 0.4 0.1 0.6 0.1 0.4 0 0.7-0.2 1-0.5 0.3-0.3 0.4-0.9 0.4-1.7 0-1.3-0.4-2-1.3-2 -0.4 0-0.9 0.2-1.3 0.7V235.9z" class="c"/><path d="M85.3 234.3c0-0.6 0.1-1.1 0.3-1.6s0.5-0.9 0.8-1.2c0.3-0.3 0.7-0.6 1.1-0.8 0.4-0.2 0.9-0.3 1.3-0.3 0.5 0 1 0.1 1.4 0.3 0.4 0.2 0.7 0.4 1 0.8 0.3 0.3 0.5 0.7 0.6 1.1 0.1 0.4 0.2 0.9 0.2 1.4 0 0.2 0 0.4 0 0.5 0 0.2 0 0.3-0.1 0.4h-4.5c0.1 0.6 0.3 1 0.7 1.2 0.3 0.3 0.8 0.4 1.3 0.4 0.5 0 1.1-0.2 1.6-0.5l0.7 1.3c-0.4 0.3-0.8 0.5-1.3 0.6 -0.5 0.1-0.9 0.2-1.4 0.2 -0.5 0-1-0.1-1.5-0.3 -0.5-0.2-0.9-0.4-1.2-0.8 -0.3-0.3-0.6-0.7-0.8-1.2C85.4 235.5 85.3 234.9 85.3 234.3zM90.1 233.5c0-0.4-0.1-0.8-0.3-1 -0.2-0.3-0.5-0.4-1-0.4 -0.4 0-0.7 0.1-0.9 0.4 -0.3 0.2-0.4 0.6-0.5 1.1H90.1z" class="c"/><path d="M93.5 230.6h1.8l0.2 1.3h0.1c0.3-0.5 0.6-0.9 1-1.1 0.4-0.2 0.8-0.4 1.1-0.4 0.2 0 0.4 0 0.5 0 0.1 0 0.3 0.1 0.4 0.1l-0.4 1.9c-0.1 0-0.3-0.1-0.4-0.1 -0.1 0-0.3 0-0.4 0 -0.3 0-0.6 0.1-0.9 0.3 -0.3 0.2-0.6 0.6-0.8 1.1v4.3h-2.2V230.6z" class="c"/><path d="M99.7 235.8c0.3 0.3 0.7 0.5 1 0.6 0.3 0.1 0.6 0.2 0.9 0.2 0.3 0 0.6-0.1 0.7-0.2 0.2-0.1 0.2-0.3 0.2-0.5 0-0.1 0-0.2-0.1-0.3 -0.1-0.1-0.2-0.2-0.3-0.3s-0.3-0.2-0.5-0.2c-0.2-0.1-0.4-0.1-0.6-0.2 -0.2-0.1-0.5-0.2-0.7-0.3s-0.4-0.3-0.6-0.4 -0.3-0.4-0.5-0.6c-0.1-0.2-0.2-0.5-0.2-0.8 0-0.3 0.1-0.7 0.2-0.9 0.1-0.3 0.3-0.5 0.6-0.7 0.3-0.2 0.6-0.4 0.9-0.5 0.4-0.1 0.7-0.2 1.2-0.2 0.6 0 1.1 0.1 1.5 0.3 0.4 0.2 0.8 0.4 1.1 0.7l-1 1.3c-0.3-0.2-0.5-0.4-0.8-0.5 -0.3-0.1-0.5-0.2-0.8-0.2 -0.6 0-0.8 0.2-0.8 0.6 0 0.1 0 0.2 0.1 0.3 0.1 0.1 0.2 0.2 0.3 0.2 0.1 0.1 0.3 0.1 0.5 0.2 0.2 0.1 0.4 0.1 0.5 0.2 0.2 0.1 0.5 0.2 0.7 0.3 0.2 0.1 0.5 0.3 0.6 0.4 0.2 0.2 0.4 0.4 0.5 0.6s0.2 0.5 0.2 0.9 -0.1 0.7-0.2 0.9c-0.1 0.3-0.3 0.5-0.6 0.8 -0.3 0.2-0.6 0.4-1 0.5 -0.4 0.1-0.8 0.2-1.3 0.2 -0.5 0-1-0.1-1.5-0.3 -0.5-0.2-1-0.4-1.3-0.7L99.7 235.8z" class="c"/><path d="M107.1 229.5c-0.4 0-0.7-0.1-0.9-0.3 -0.2-0.2-0.4-0.5-0.4-0.8s0.1-0.6 0.4-0.8c0.2-0.2 0.5-0.3 0.9-0.3 0.4 0 0.7 0.1 0.9 0.3 0.2 0.2 0.4 0.5 0.4 0.8s-0.1 0.6-0.4 0.8C107.8 229.4 107.4 229.5 107.1 229.5zM106 230.6h2.2v7.4h-2.2V230.6z" class="c"/><path d="M110.4 235.8c0.3 0.3 0.7 0.5 1 0.6 0.3 0.1 0.6 0.2 0.9 0.2 0.3 0 0.6-0.1 0.7-0.2 0.2-0.1 0.2-0.3 0.2-0.5 0-0.1 0-0.2-0.1-0.3 -0.1-0.1-0.2-0.2-0.3-0.3s-0.3-0.2-0.5-0.2c-0.2-0.1-0.4-0.1-0.6-0.2 -0.2-0.1-0.5-0.2-0.7-0.3s-0.4-0.3-0.6-0.4 -0.3-0.4-0.5-0.6c-0.1-0.2-0.2-0.5-0.2-0.8 0-0.3 0.1-0.7 0.2-0.9 0.1-0.3 0.3-0.5 0.6-0.7 0.3-0.2 0.6-0.4 0.9-0.5 0.4-0.1 0.7-0.2 1.2-0.2 0.6 0 1.1 0.1 1.5 0.3 0.4 0.2 0.8 0.4 1.1 0.7l-1 1.3c-0.3-0.2-0.5-0.4-0.8-0.5 -0.3-0.1-0.5-0.2-0.8-0.2 -0.6 0-0.8 0.2-0.8 0.6 0 0.1 0 0.2 0.1 0.3 0.1 0.1 0.2 0.2 0.3 0.2 0.1 0.1 0.3 0.1 0.5 0.2 0.2 0.1 0.4 0.1 0.5 0.2 0.2 0.1 0.5 0.2 0.7 0.3 0.2 0.1 0.5 0.3 0.6 0.4 0.2 0.2 0.4 0.4 0.5 0.6s0.2 0.5 0.2 0.9 -0.1 0.7-0.2 0.9c-0.1 0.3-0.3 0.5-0.6 0.8 -0.3 0.2-0.6 0.4-1 0.5 -0.4 0.1-0.8 0.2-1.3 0.2 -0.5 0-1-0.1-1.5-0.3 -0.5-0.2-1-0.4-1.3-0.7L110.4 235.8z" class="c"/><path d="M117.1 232.3h-1v-1.6l1.1-0.1 0.3-2h1.8v2h1.8v1.7h-1.8v3c0 0.4 0.1 0.7 0.3 0.9 0.2 0.2 0.4 0.3 0.7 0.3 0.1 0 0.2 0 0.4 0 0.1 0 0.2-0.1 0.3-0.1l0.3 1.6c-0.2 0.1-0.4 0.1-0.7 0.2s-0.6 0.1-0.9 0.1c-0.5 0-0.9-0.1-1.2-0.2 -0.3-0.1-0.6-0.3-0.8-0.6 -0.2-0.2-0.4-0.6-0.4-0.9 -0.1-0.4-0.1-0.7-0.1-1.2V232.3z" class="c"/><path d="M121.9 234.3c0-0.6 0.1-1.1 0.3-1.6s0.5-0.9 0.8-1.2c0.3-0.3 0.7-0.6 1.1-0.8 0.4-0.2 0.9-0.3 1.3-0.3 0.5 0 1 0.1 1.4 0.3 0.4 0.2 0.7 0.4 1 0.8 0.3 0.3 0.5 0.7 0.6 1.1 0.1 0.4 0.2 0.9 0.2 1.4 0 0.2 0 0.4 0 0.5 0 0.2 0 0.3-0.1 0.4h-4.5c0.1 0.6 0.3 1 0.7 1.2 0.3 0.3 0.8 0.4 1.3 0.4 0.5 0 1.1-0.2 1.6-0.5l0.7 1.3c-0.4 0.3-0.8 0.5-1.3 0.6 -0.5 0.1-0.9 0.2-1.4 0.2 -0.5 0-1-0.1-1.5-0.3 -0.5-0.2-0.9-0.4-1.2-0.8 -0.3-0.3-0.6-0.7-0.8-1.2C122 235.5 121.9 234.9 121.9 234.3zM126.7 233.5c0-0.4-0.1-0.8-0.3-1 -0.2-0.3-0.5-0.4-1-0.4 -0.4 0-0.7 0.1-0.9 0.4 -0.3 0.2-0.4 0.6-0.5 1.1H126.7z" class="c"/><path d="M129.7 234.3c0-0.6 0.1-1.2 0.3-1.6 0.2-0.5 0.4-0.9 0.7-1.2 0.3-0.3 0.6-0.6 1-0.8 0.4-0.2 0.8-0.3 1.1-0.3 0.4 0 0.8 0.1 1 0.2s0.5 0.3 0.8 0.6l-0.1-1.1V227.5h2.2v10.5h-1.8l-0.1-0.7h-0.1c-0.3 0.3-0.6 0.5-0.9 0.7 -0.3 0.2-0.7 0.3-1.1 0.3 -0.5 0-0.9-0.1-1.3-0.3 -0.4-0.2-0.7-0.4-1-0.8 -0.3-0.3-0.5-0.7-0.6-1.2C129.8 235.4 129.7 234.9 129.7 234.3zM132 234.3c0 0.7 0.1 1.3 0.4 1.6 0.2 0.3 0.6 0.5 1 0.5 0.2 0 0.5 0 0.7-0.1 0.2-0.1 0.4-0.3 0.6-0.5v-3c-0.2-0.2-0.4-0.3-0.6-0.4s-0.4-0.1-0.6-0.1c-0.3 0-0.7 0.2-0.9 0.5S132 233.6 132 234.3z" class="c"/></svg>
