<svg xmlns="http://www.w3.org/2000/svg" width="500" height="500" viewBox="0 0 500 500"><style>.a{fill:#16A085;}.b{fill:none;stroke-width:4;stroke:#F39C12;}.c{fill:#F39C12;}.d{fill:#1ABC9C;}.e{fill:#34495E;}.f{fill:#FFF;}</style><line x1="100" y1="50" x2="100" y2="95.4" style="fill:none;stroke-width:4;stroke:#16A085"/><polygon points="93.2 87.5 100 94.2 106.8 87.5 106.8 93.2 100 100 93.2 93.2 " class="a"/><polyline points="100 150 100 225 145.4 225 " class="b"/><polygon points="137.5 231.8 144.2 225 137.5 218.2 143.2 218.2 150 225 143.2 231.8 " class="c"/><polyline points="400 150 400 225 354.6 225 " style="fill:none;stroke-width:4;stroke:#1ABC9C"/><polygon points="362.5 218.2 355.8 225 362.5 231.8 356.8 231.8 350 225 356.8 218.2 " class="d"/><line x1="250" y1="250" x2="250" y2="295.4" class="b"/><polygon points="243.2 287.5 250 294.2 256.8 287.5 256.8 293.2 250 300 243.2 293.2 " class="c"/><line x1="250" y1="350" x2="250" y2="395.4" style="fill:none;stroke-width:4;stroke:#34495E"/><polygon points="243.2 387.5 250 394.2 256.8 387.5 256.8 393.2 250 400 243.2 393.2 " class="e"/><polygon points="175 50 0 50 25 0 200 0 " class="a"/><rect y="100" width="200" height="50" class="c"/><rect x="300" y="100" width="200" height="50" class="d"/><rect x="150" y="300" width="200" height="50" class="e"/><rect x="150" y="200" width="200" height="50" class="c"/><polygon points="250 500 150 450.5 250 400 350 450.5 " fill="#E74C3C"/><path d="M34.6 10.7h3.6c0.5 0 1 0.1 1.5 0.2 0.5 0.1 0.9 0.3 1.2 0.5 0.3 0.2 0.6 0.6 0.8 1 0.2 0.4 0.3 0.9 0.3 1.5 0 0.6-0.1 1.1-0.3 1.5 -0.2 0.4-0.5 0.8-0.8 1 -0.3 0.3-0.8 0.5-1.2 0.6s-0.9 0.2-1.5 0.2h-1.4v3.3h-2.2V10.7zM38.1 15.4c1.2 0 1.8-0.5 1.8-1.6 0-0.5-0.2-0.9-0.5-1.1 -0.3-0.2-0.8-0.3-1.3-0.3h-1.2v3H38.1z" class="f"/><path d="M42.8 18.4c0-0.8 0.3-1.4 1-1.8 0.7-0.4 1.7-0.7 3.2-0.9 0-0.3-0.1-0.6-0.3-0.8 -0.2-0.2-0.5-0.3-0.9-0.3 -0.3 0-0.6 0.1-1 0.2 -0.3 0.1-0.7 0.3-1 0.5l-0.8-1.5c0.5-0.3 1-0.5 1.5-0.7 0.5-0.2 1.1-0.3 1.7-0.3 1 0 1.7 0.3 2.2 0.8 0.5 0.5 0.8 1.4 0.8 2.5v4.3h-1.8l-0.2-0.8h0c-0.3 0.3-0.7 0.5-1 0.7s-0.7 0.3-1.2 0.3c-0.3 0-0.6-0.1-0.9-0.2 -0.3-0.1-0.5-0.3-0.7-0.5 -0.2-0.2-0.3-0.4-0.4-0.7S42.8 18.8 42.8 18.4zM44.9 18.3c0 0.2 0.1 0.4 0.2 0.5 0.2 0.1 0.4 0.2 0.6 0.2 0.3 0 0.5-0.1 0.7-0.2 0.2-0.1 0.4-0.3 0.6-0.5V17.1c-0.8 0.1-1.3 0.3-1.6 0.5C45 17.7 44.9 18 44.9 18.3z" class="f"/><path d="M51.4 18.3c0.3 0.3 0.7 0.5 1 0.6s0.6 0.2 0.9 0.2c0.3 0 0.6-0.1 0.7-0.2 0.2-0.1 0.2-0.3 0.2-0.5 0-0.1 0-0.2-0.1-0.3 -0.1-0.1-0.2-0.2-0.3-0.3s-0.3-0.2-0.5-0.2c-0.2-0.1-0.4-0.1-0.6-0.2 -0.2-0.1-0.5-0.2-0.7-0.3s-0.4-0.3-0.6-0.4 -0.3-0.4-0.5-0.6c-0.1-0.2-0.2-0.5-0.2-0.8 0-0.3 0.1-0.7 0.2-0.9 0.1-0.3 0.3-0.5 0.6-0.7 0.3-0.2 0.6-0.4 0.9-0.5 0.4-0.1 0.7-0.2 1.2-0.2 0.6 0 1.1 0.1 1.5 0.3 0.4 0.2 0.8 0.4 1.1 0.7l-1 1.3c-0.3-0.2-0.5-0.4-0.8-0.5s-0.5-0.2-0.8-0.2c-0.6 0-0.8 0.2-0.8 0.6 0 0.1 0 0.2 0.1 0.3s0.2 0.2 0.3 0.2c0.1 0.1 0.3 0.1 0.5 0.2 0.2 0.1 0.4 0.1 0.5 0.2 0.2 0.1 0.5 0.2 0.7 0.3 0.2 0.1 0.5 0.3 0.6 0.4 0.2 0.2 0.4 0.4 0.5 0.6 0.1 0.2 0.2 0.5 0.2 0.9 0 0.3-0.1 0.7-0.2 0.9s-0.3 0.5-0.6 0.8c-0.3 0.2-0.6 0.4-1 0.5 -0.4 0.1-0.8 0.2-1.3 0.2 -0.5 0-1-0.1-1.5-0.3 -0.5-0.2-1-0.4-1.3-0.7L51.4 18.3z" class="f"/><path d="M58 18.3c0.3 0.3 0.7 0.5 1 0.6s0.6 0.2 0.9 0.2c0.3 0 0.6-0.1 0.7-0.2 0.2-0.1 0.2-0.3 0.2-0.5 0-0.1 0-0.2-0.1-0.3 -0.1-0.1-0.2-0.2-0.3-0.3s-0.3-0.2-0.5-0.2c-0.2-0.1-0.4-0.1-0.6-0.2 -0.2-0.1-0.5-0.2-0.7-0.3s-0.4-0.3-0.6-0.4 -0.3-0.4-0.5-0.6c-0.1-0.2-0.2-0.5-0.2-0.8 0-0.3 0.1-0.7 0.2-0.9 0.1-0.3 0.3-0.5 0.6-0.7 0.3-0.2 0.6-0.4 0.9-0.5 0.4-0.1 0.7-0.2 1.2-0.2 0.6 0 1.1 0.1 1.5 0.3 0.4 0.2 0.8 0.4 1.1 0.7l-1 1.3c-0.3-0.2-0.5-0.4-0.8-0.5s-0.5-0.2-0.8-0.2c-0.6 0-0.8 0.2-0.8 0.6 0 0.1 0 0.2 0.1 0.3s0.2 0.2 0.3 0.2c0.1 0.1 0.3 0.1 0.5 0.2 0.2 0.1 0.4 0.1 0.5 0.2 0.2 0.1 0.5 0.2 0.7 0.3 0.2 0.1 0.5 0.3 0.6 0.4 0.2 0.2 0.4 0.4 0.5 0.6 0.1 0.2 0.2 0.5 0.2 0.9 0 0.3-0.1 0.7-0.2 0.9s-0.3 0.5-0.6 0.8c-0.3 0.2-0.6 0.4-1 0.5 -0.4 0.1-0.8 0.2-1.3 0.2 -0.5 0-1-0.1-1.5-0.3 -0.5-0.2-1-0.4-1.3-0.7L58 18.3z" class="f"/><path d="M63.7 13.1h2.2l0.7 3.5c0.1 0.4 0.1 0.7 0.2 1.1 0.1 0.4 0.1 0.7 0.2 1.1h0.1c0.1-0.4 0.1-0.8 0.2-1.1 0.1-0.4 0.1-0.7 0.2-1.1l0.8-3.4h1.9l0.8 3.5c0.1 0.4 0.2 0.7 0.2 1.1s0.1 0.7 0.2 1.1h0.1c0.1-0.4 0.1-0.7 0.2-1.1 0-0.4 0.1-0.7 0.2-1.1l0.7-3.4h2l-1.8 7.4h-2.6l-0.7-3c-0.1-0.3-0.1-0.7-0.2-1 -0.1-0.3-0.1-0.7-0.2-1.1h-0.1c-0.1 0.4-0.1 0.8-0.2 1.1s-0.1 0.7-0.2 1.1l-0.7 3h-2.5L63.7 13.1z" class="f"/><path d="M75.4 16.8c0-0.6 0.1-1.2 0.3-1.7s0.5-0.9 0.8-1.2c0.3-0.3 0.7-0.6 1.2-0.8 0.4-0.2 0.9-0.3 1.4-0.3s0.9 0.1 1.4 0.3 0.8 0.4 1.2 0.8c0.3 0.3 0.6 0.7 0.8 1.2s0.3 1 0.3 1.7c0 0.6-0.1 1.2-0.3 1.7 -0.2 0.5-0.5 0.9-0.8 1.2 -0.3 0.3-0.7 0.6-1.2 0.8s-0.9 0.3-1.4 0.3 -0.9-0.1-1.4-0.3c-0.4-0.2-0.8-0.4-1.2-0.8 -0.3-0.3-0.6-0.7-0.8-1.2C75.5 18 75.4 17.4 75.4 16.8zM77.7 16.8c0 0.7 0.1 1.2 0.3 1.5s0.6 0.6 1 0.6c0.5 0 0.8-0.2 1-0.6s0.3-0.9 0.3-1.5c0-0.6-0.1-1.2-0.3-1.5 -0.2-0.4-0.6-0.6-1-0.6 -0.5 0-0.8 0.2-1 0.6C77.8 15.6 77.7 16.1 77.7 16.8z" class="f"/><path d="M84.2 13.1h1.8l0.2 1.3h0.1c0.3-0.5 0.6-0.9 1-1.1 0.4-0.2 0.8-0.4 1.1-0.4 0.2 0 0.4 0 0.5 0 0.1 0 0.3 0.1 0.4 0.1l-0.4 1.9c-0.1 0-0.3-0.1-0.4-0.1 -0.1 0-0.3 0-0.4 0 -0.3 0-0.6 0.1-0.9 0.3 -0.3 0.2-0.6 0.6-0.8 1.1v4.3h-2.2V13.1z" class="f"/><path d="M89.6 16.8c0-0.6 0.1-1.2 0.3-1.6 0.2-0.5 0.4-0.9 0.7-1.2 0.3-0.3 0.6-0.6 1-0.8 0.4-0.2 0.8-0.3 1.1-0.3 0.4 0 0.8 0.1 1 0.2 0.3 0.1 0.5 0.3 0.8 0.6l-0.1-1.1V10h2.2v10.5h-1.8l-0.1-0.7h-0.1c-0.3 0.3-0.6 0.5-0.9 0.7s-0.7 0.3-1.1 0.3c-0.5 0-0.9-0.1-1.3-0.3 -0.4-0.2-0.7-0.4-1-0.8 -0.3-0.3-0.5-0.7-0.6-1.2C89.7 18 89.6 17.4 89.6 16.8zM91.9 16.8c0 0.7 0.1 1.3 0.4 1.6 0.2 0.3 0.6 0.5 1 0.5 0.2 0 0.5 0 0.7-0.1 0.2-0.1 0.4-0.3 0.6-0.5v-3c-0.2-0.2-0.4-0.3-0.6-0.4s-0.4-0.1-0.6-0.1c-0.3 0-0.7 0.2-0.9 0.5S91.9 16.1 91.9 16.8z" class="f"/><path d="M102.8 12c-0.4 0-0.7-0.1-0.9-0.3 -0.2-0.2-0.4-0.5-0.4-0.8s0.1-0.6 0.4-0.8c0.2-0.2 0.5-0.3 0.9-0.3 0.4 0 0.7 0.1 0.9 0.3 0.2 0.2 0.4 0.5 0.4 0.8s-0.1 0.6-0.4 0.8C103.5 11.9 103.2 12 102.8 12zM101.7 13.1h2.2v7.4h-2.2V13.1z" class="f"/><path d="M106.2 18.3c0.3 0.3 0.7 0.5 1 0.6s0.6 0.2 0.9 0.2c0.3 0 0.6-0.1 0.7-0.2 0.2-0.1 0.2-0.3 0.2-0.5 0-0.1 0-0.2-0.1-0.3 -0.1-0.1-0.2-0.2-0.3-0.3s-0.3-0.2-0.5-0.2c-0.2-0.1-0.4-0.1-0.6-0.2 -0.2-0.1-0.5-0.2-0.7-0.3s-0.4-0.3-0.6-0.4 -0.3-0.4-0.5-0.6c-0.1-0.2-0.2-0.5-0.2-0.8 0-0.3 0.1-0.7 0.2-0.9 0.1-0.3 0.3-0.5 0.6-0.7 0.3-0.2 0.6-0.4 0.9-0.5 0.4-0.1 0.7-0.2 1.2-0.2 0.6 0 1.1 0.1 1.5 0.3 0.4 0.2 0.8 0.4 1.1 0.7l-1 1.3c-0.3-0.2-0.5-0.4-0.8-0.5s-0.5-0.2-0.8-0.2c-0.6 0-0.8 0.2-0.8 0.6 0 0.1 0 0.2 0.1 0.3s0.2 0.2 0.3 0.2c0.1 0.1 0.3 0.1 0.5 0.2 0.2 0.1 0.4 0.1 0.5 0.2 0.2 0.1 0.5 0.2 0.7 0.3 0.2 0.1 0.5 0.3 0.6 0.4 0.2 0.2 0.4 0.4 0.5 0.6 0.1 0.2 0.2 0.5 0.2 0.9 0 0.3-0.1 0.7-0.2 0.9s-0.3 0.5-0.6 0.8c-0.3 0.2-0.6 0.4-1 0.5 -0.4 0.1-0.8 0.2-1.3 0.2 -0.5 0-1-0.1-1.5-0.3 -0.5-0.2-1-0.4-1.3-0.7L106.2 18.3z" class="f"/><path d="M115.2 16.8c0-0.6 0.1-1.1 0.3-1.6 0.2-0.5 0.5-0.9 0.8-1.2 0.3-0.3 0.7-0.6 1.1-0.8 0.4-0.2 0.9-0.3 1.3-0.3 0.5 0 1 0.1 1.4 0.3 0.4 0.2 0.7 0.4 1 0.8 0.3 0.3 0.5 0.7 0.6 1.1 0.1 0.4 0.2 0.9 0.2 1.4 0 0.2 0 0.4 0 0.5s0 0.3-0.1 0.4h-4.5c0.1 0.6 0.3 1 0.7 1.2 0.3 0.3 0.8 0.4 1.3 0.4 0.5 0 1.1-0.2 1.6-0.5l0.7 1.3c-0.4 0.3-0.8 0.5-1.3 0.6 -0.5 0.2-0.9 0.2-1.4 0.2 -0.5 0-1-0.1-1.5-0.3s-0.9-0.4-1.2-0.8c-0.3-0.3-0.6-0.7-0.8-1.2C115.3 18 115.2 17.4 115.2 16.8zM120 16c0-0.4-0.1-0.8-0.3-1 -0.2-0.3-0.5-0.4-1-0.4 -0.4 0-0.7 0.1-0.9 0.4s-0.4 0.6-0.5 1.1H120z" class="f"/><path d="M123.4 13.1h1.8l0.2 0.9h0.1c0.3-0.3 0.7-0.6 1.1-0.8 0.4-0.2 0.8-0.3 1.3-0.3 0.8 0 1.4 0.3 1.8 0.8 0.4 0.5 0.5 1.3 0.5 2.2v4.6h-2.2V16.2c0-0.5-0.1-0.9-0.2-1.1s-0.4-0.3-0.7-0.3c-0.3 0-0.5 0.1-0.7 0.2 -0.2 0.1-0.4 0.3-0.7 0.5v5h-2.2V13.1z" class="f"/><path d="M132.3 14.8h-1v-1.6l1.1-0.1 0.3-2h1.8v2h1.8V14.8h-1.8v3c0 0.4 0.1 0.7 0.3 0.9 0.2 0.2 0.4 0.3 0.7 0.3 0.1 0 0.2 0 0.4 0 0.1 0 0.2-0.1 0.3-0.1l0.3 1.6c-0.2 0.1-0.4 0.1-0.7 0.2s-0.6 0.1-0.9 0.1c-0.5 0-0.9-0.1-1.2-0.2 -0.3-0.1-0.6-0.3-0.8-0.6 -0.2-0.2-0.4-0.6-0.4-0.9 -0.1-0.4-0.1-0.7-0.1-1.2V14.8z" class="f"/><path d="M137.1 16.8c0-0.6 0.1-1.1 0.3-1.6 0.2-0.5 0.5-0.9 0.8-1.2 0.3-0.3 0.7-0.6 1.1-0.8 0.4-0.2 0.9-0.3 1.3-0.3 0.5 0 1 0.1 1.4 0.3 0.4 0.2 0.7 0.4 1 0.8 0.3 0.3 0.5 0.7 0.6 1.1 0.1 0.4 0.2 0.9 0.2 1.4 0 0.2 0 0.4 0 0.5s0 0.3-0.1 0.4h-4.5c0.1 0.6 0.3 1 0.7 1.2 0.3 0.3 0.8 0.4 1.3 0.4 0.5 0 1.1-0.2 1.6-0.5l0.7 1.3c-0.4 0.3-0.8 0.5-1.3 0.6 -0.5 0.2-0.9 0.2-1.4 0.2 -0.5 0-1-0.1-1.5-0.3s-0.9-0.4-1.2-0.8c-0.3-0.3-0.6-0.7-0.8-1.2C137.2 18 137.1 17.4 137.1 16.8zM141.9 16c0-0.4-0.1-0.8-0.3-1 -0.2-0.3-0.5-0.4-1-0.4 -0.4 0-0.7 0.1-0.9 0.4s-0.4 0.6-0.5 1.1H141.9z" class="f"/><path d="M145.3 13.1h1.8l0.2 1.3h0.1c0.3-0.5 0.6-0.9 1-1.1 0.4-0.2 0.8-0.4 1.1-0.4 0.2 0 0.4 0 0.5 0 0.1 0 0.3 0.1 0.4 0.1l-0.4 1.9c-0.1 0-0.3-0.1-0.4-0.1 -0.1 0-0.3 0-0.4 0 -0.3 0-0.6 0.1-0.9 0.3 -0.3 0.2-0.6 0.6-0.8 1.1v4.3h-2.2V13.1z" class="f"/><path d="M150.7 16.8c0-0.6 0.1-1.1 0.3-1.6 0.2-0.5 0.5-0.9 0.8-1.2 0.3-0.3 0.7-0.6 1.1-0.8 0.4-0.2 0.9-0.3 1.3-0.3 0.5 0 1 0.1 1.4 0.3 0.4 0.2 0.7 0.4 1 0.8 0.3 0.3 0.5 0.7 0.6 1.1 0.1 0.4 0.2 0.9 0.2 1.4 0 0.2 0 0.4 0 0.5s0 0.3-0.1 0.4h-4.5c0.1 0.6 0.3 1 0.7 1.2 0.3 0.3 0.8 0.4 1.3 0.4 0.5 0 1.1-0.2 1.6-0.5l0.7 1.3c-0.4 0.3-0.8 0.5-1.3 0.6 -0.5 0.2-0.9 0.2-1.4 0.2 -0.5 0-1-0.1-1.5-0.3s-0.9-0.4-1.2-0.8c-0.3-0.3-0.6-0.7-0.8-1.2C150.8 18 150.7 17.4 150.7 16.8zM155.5 16c0-0.4-0.1-0.8-0.3-1 -0.2-0.3-0.5-0.4-1-0.4 -0.4 0-0.7 0.1-0.9 0.4s-0.4 0.6-0.5 1.1H155.5z" class="f"/><path d="M158.5 16.8c0-0.6 0.1-1.2 0.3-1.6 0.2-0.5 0.4-0.9 0.7-1.2 0.3-0.3 0.6-0.6 1-0.8 0.4-0.2 0.8-0.3 1.1-0.3 0.4 0 0.8 0.1 1 0.2 0.3 0.1 0.5 0.3 0.8 0.6l-0.1-1.1V10h2.2v10.5h-1.8l-0.1-0.7h-0.1c-0.3 0.3-0.6 0.5-0.9 0.7s-0.7 0.3-1.1 0.3c-0.5 0-0.9-0.1-1.3-0.3 -0.4-0.2-0.7-0.4-1-0.8 -0.3-0.3-0.5-0.7-0.6-1.2C158.6 18 158.5 17.4 158.5 16.8zM160.8 16.8c0 0.7 0.1 1.3 0.4 1.6 0.2 0.3 0.6 0.5 1 0.5 0.2 0 0.5 0 0.7-0.1 0.2-0.1 0.4-0.3 0.6-0.5v-3c-0.2-0.2-0.4-0.3-0.6-0.4s-0.4-0.1-0.6-0.1c-0.3 0-0.7 0.2-0.9 0.5S160.8 16.1 160.8 16.8z" class="f"/><path d="M64.4 30c-0.4 0-0.7-0.1-0.9-0.3 -0.2-0.2-0.4-0.5-0.4-0.8s0.1-0.6 0.4-0.8c0.2-0.2 0.5-0.3 0.9-0.3 0.4 0 0.7 0.1 0.9 0.3 0.2 0.2 0.4 0.5 0.4 0.8s-0.1 0.6-0.4 0.8C65.1 29.9 64.8 30 64.4 30zM63.3 31.1h2.2v7.4h-2.2V31.1z" class="f"/><path d="M67.5 31.1h1.8l0.2 0.9h0.1c0.3-0.3 0.7-0.6 1.1-0.8 0.4-0.2 0.8-0.3 1.3-0.3 0.8 0 1.4 0.3 1.8 0.8 0.4 0.5 0.5 1.3 0.5 2.2v4.6h-2.2V34.2c0-0.5-0.1-0.9-0.2-1.1s-0.4-0.3-0.7-0.3c-0.3 0-0.5 0.1-0.7 0.2 -0.2 0.1-0.4 0.3-0.7 0.5v5h-2.2V31.1z" class="f"/><path d="M78.7 34.8c0-0.6 0.1-1.2 0.3-1.7s0.5-0.9 0.8-1.2c0.4-0.3 0.8-0.6 1.2-0.8s1-0.3 1.5-0.3c0.5 0 0.9 0.1 1.2 0.2 0.4 0.2 0.7 0.4 0.9 0.6l-1 1.4c-0.3-0.3-0.7-0.4-1-0.4 -0.5 0-1 0.2-1.3 0.6 -0.3 0.4-0.5 0.9-0.5 1.5 0 0.7 0.2 1.2 0.5 1.5s0.7 0.6 1.2 0.6c0.3 0 0.5-0.1 0.7-0.2 0.2-0.1 0.4-0.2 0.6-0.4l0.9 1.4c-0.4 0.3-0.8 0.6-1.2 0.7 -0.4 0.2-0.9 0.2-1.3 0.2 -0.5 0-1-0.1-1.4-0.3 -0.4-0.2-0.8-0.4-1.2-0.8s-0.6-0.7-0.8-1.2C78.8 36 78.7 35.4 78.7 34.8z" class="f"/><path d="M86.2 28h2.2v8.3c0 0.2 0 0.4 0.1 0.5 0.1 0.1 0.2 0.1 0.3 0.1 0.1 0 0.1 0 0.1 0s0.1 0 0.1 0l0.3 1.6c-0.1 0.1-0.3 0.1-0.5 0.1s-0.4 0.1-0.7 0.1c-0.4 0-0.7-0.1-1-0.2 -0.3-0.1-0.5-0.3-0.6-0.5 -0.2-0.2-0.3-0.5-0.3-0.8 -0.1-0.3-0.1-0.6-0.1-1V28z" class="f"/><path d="M90 34.8c0-0.6 0.1-1.1 0.3-1.6 0.2-0.5 0.5-0.9 0.8-1.2 0.3-0.3 0.7-0.6 1.1-0.8 0.4-0.2 0.9-0.3 1.3-0.3 0.5 0 1 0.1 1.4 0.3 0.4 0.2 0.7 0.4 1 0.8 0.3 0.3 0.5 0.7 0.6 1.1 0.1 0.4 0.2 0.9 0.2 1.4 0 0.2 0 0.4 0 0.5s0 0.3-0.1 0.4h-4.5c0.1 0.6 0.3 1 0.7 1.2 0.3 0.3 0.8 0.4 1.3 0.4 0.5 0 1.1-0.2 1.6-0.5l0.7 1.3c-0.4 0.3-0.8 0.5-1.3 0.6 -0.5 0.2-0.9 0.2-1.4 0.2 -0.5 0-1-0.1-1.5-0.3s-0.9-0.4-1.2-0.8c-0.3-0.3-0.6-0.7-0.8-1.2C90.1 36 90 35.4 90 34.8zM94.8 34c0-0.4-0.1-0.8-0.3-1 -0.2-0.3-0.5-0.4-1-0.4 -0.4 0-0.7 0.1-0.9 0.4S92.2 33.5 92.1 34H94.8z" class="f"/><path d="M97.8 36.4c0-0.8 0.3-1.4 1-1.8 0.7-0.4 1.7-0.7 3.2-0.9 0-0.3-0.1-0.6-0.3-0.8 -0.2-0.2-0.5-0.3-0.9-0.3 -0.3 0-0.6 0.1-1 0.2 -0.3 0.1-0.7 0.3-1 0.5l-0.8-1.5c0.5-0.3 1-0.5 1.5-0.7 0.5-0.2 1.1-0.3 1.7-0.3 1 0 1.7 0.3 2.2 0.8 0.5 0.5 0.8 1.4 0.8 2.5v4.3h-1.8l-0.2-0.8h0c-0.3 0.3-0.7 0.5-1 0.7s-0.7 0.3-1.2 0.3c-0.3 0-0.6-0.1-0.9-0.2 -0.3-0.1-0.5-0.3-0.7-0.5 -0.2-0.2-0.3-0.4-0.4-0.7S97.8 36.8 97.8 36.4zM99.9 36.3c0 0.2 0.1 0.4 0.2 0.5 0.2 0.1 0.4 0.2 0.6 0.2 0.3 0 0.5-0.1 0.7-0.2 0.2-0.1 0.4-0.3 0.6-0.5V35.1c-0.8 0.1-1.3 0.3-1.6 0.5C100 35.7 99.9 36 99.9 36.3z" class="f"/><path d="M106.1 31.1h1.8l0.2 1.3h0.1c0.3-0.5 0.6-0.9 1-1.1 0.4-0.2 0.8-0.4 1.1-0.4 0.2 0 0.4 0 0.5 0 0.1 0 0.3 0.1 0.4 0.1l-0.4 1.9c-0.1 0-0.3-0.1-0.4-0.1 -0.1 0-0.3 0-0.4 0 -0.3 0-0.6 0.1-0.9 0.3 -0.3 0.2-0.6 0.6-0.8 1.1v4.3h-2.2V31.1z" class="f"/><path d="M112.3 32.8h-1v-1.6l1.1-0.1 0.3-2h1.8v2h1.8V32.8h-1.8v3c0 0.4 0.1 0.7 0.3 0.9 0.2 0.2 0.4 0.3 0.7 0.3 0.1 0 0.2 0 0.4 0 0.1 0 0.2-0.1 0.3-0.1l0.3 1.6c-0.2 0.1-0.4 0.1-0.7 0.2s-0.6 0.1-0.9 0.1c-0.5 0-0.9-0.1-1.2-0.2 -0.3-0.1-0.6-0.3-0.8-0.6 -0.2-0.2-0.4-0.6-0.4-0.9 -0.1-0.4-0.1-0.7-0.1-1.2V32.8z" class="f"/><path d="M117.2 34.8c0-0.6 0.1-1.1 0.3-1.6 0.2-0.5 0.5-0.9 0.8-1.2 0.3-0.3 0.7-0.6 1.1-0.8 0.4-0.2 0.9-0.3 1.3-0.3 0.5 0 1 0.1 1.4 0.3 0.4 0.2 0.7 0.4 1 0.8 0.3 0.3 0.5 0.7 0.6 1.1 0.1 0.4 0.2 0.9 0.2 1.4 0 0.2 0 0.4 0 0.5s0 0.3-0.1 0.4h-4.5c0.1 0.6 0.3 1 0.7 1.2 0.3 0.3 0.8 0.4 1.3 0.4 0.5 0 1.1-0.2 1.6-0.5l0.7 1.3c-0.4 0.3-0.8 0.5-1.3 0.6 -0.5 0.2-0.9 0.2-1.4 0.2 -0.5 0-1-0.1-1.5-0.3s-0.9-0.4-1.2-0.8c-0.3-0.3-0.6-0.7-0.8-1.2C117.3 36 117.2 35.4 117.2 34.8zM122 34c0-0.4-0.1-0.8-0.3-1 -0.2-0.3-0.5-0.4-1-0.4 -0.4 0-0.7 0.1-0.9 0.4s-0.4 0.6-0.5 1.1H122z" class="f"/><path d="M126.7 34.6l-2.1-3.6h2.4l0.7 1.2c0.1 0.2 0.2 0.4 0.3 0.6 0.1 0.2 0.2 0.4 0.3 0.6h0.1c0.1-0.2 0.2-0.4 0.3-0.6 0.1-0.2 0.2-0.4 0.3-0.6l0.5-1.2h2.3l-2.2 3.8 2.3 3.6h-2.4l-0.7-1.2c-0.1-0.2-0.2-0.4-0.4-0.6 -0.1-0.2-0.2-0.4-0.4-0.6h-0.1c-0.1 0.2-0.2 0.4-0.3 0.6 -0.1 0.2-0.2 0.4-0.3 0.7l-0.6 1.2h-2.3L126.7 34.6z" class="f"/><path d="M133.2 32.8h-1v-1.6l1.1-0.1 0.3-2h1.8v2h1.8V32.8h-1.8v3c0 0.4 0.1 0.7 0.3 0.9 0.2 0.2 0.4 0.3 0.7 0.3 0.1 0 0.2 0 0.4 0 0.1 0 0.2-0.1 0.3-0.1l0.3 1.6c-0.2 0.1-0.4 0.1-0.7 0.2s-0.6 0.1-0.9 0.1c-0.5 0-0.9-0.1-1.2-0.2 -0.3-0.1-0.6-0.3-0.8-0.6 -0.2-0.2-0.4-0.6-0.4-0.9 -0.1-0.4-0.1-0.7-0.1-1.2V32.8z" class="f"/><path d="M36.5 119.7h3.6c0.5 0 1 0.1 1.5 0.2 0.5 0.1 0.9 0.3 1.2 0.5 0.3 0.2 0.6 0.6 0.8 1 0.2 0.4 0.3 0.9 0.3 1.5 0 0.6-0.1 1.1-0.3 1.5 -0.2 0.4-0.5 0.8-0.8 1 -0.3 0.3-0.8 0.5-1.2 0.6s-0.9 0.2-1.5 0.2h-1.4v3.3h-2.2V119.7zM39.9 124.4c1.2 0 1.8-0.5 1.8-1.6 0-0.5-0.2-0.9-0.5-1.1 -0.3-0.2-0.8-0.3-1.3-0.3h-1.2v3H39.9z" class="f"/><path d="M44.6 127.4c0-0.8 0.3-1.4 1-1.8 0.7-0.4 1.7-0.7 3.2-0.9 0-0.3-0.1-0.6-0.3-0.8 -0.2-0.2-0.5-0.3-0.9-0.3 -0.3 0-0.6 0.1-1 0.2 -0.3 0.1-0.7 0.3-1 0.5l-0.8-1.5c0.5-0.3 1-0.5 1.5-0.7 0.5-0.2 1.1-0.3 1.7-0.3 1 0 1.7 0.3 2.2 0.8 0.5 0.5 0.8 1.4 0.8 2.5v4.3h-1.8l-0.2-0.8h0c-0.3 0.3-0.7 0.5-1 0.7s-0.7 0.3-1.2 0.3c-0.3 0-0.6-0.1-0.9-0.2 -0.3-0.1-0.5-0.3-0.7-0.5 -0.2-0.2-0.3-0.4-0.4-0.7S44.6 127.8 44.6 127.4zM46.7 127.3c0 0.2 0.1 0.4 0.2 0.5 0.2 0.1 0.4 0.2 0.6 0.2 0.3 0 0.5-0.1 0.7-0.2 0.2-0.1 0.4-0.3 0.6-0.5v-1.3c-0.8 0.1-1.3 0.3-1.6 0.5C46.9 126.7 46.7 127 46.7 127.3z" class="f"/><path d="M53.2 127.3c0.3 0.3 0.7 0.5 1 0.6s0.6 0.2 0.9 0.2c0.3 0 0.6-0.1 0.7-0.2 0.2-0.1 0.2-0.3 0.2-0.5 0-0.1 0-0.2-0.1-0.3 -0.1-0.1-0.2-0.2-0.3-0.3s-0.3-0.2-0.5-0.2c-0.2-0.1-0.4-0.1-0.6-0.2 -0.2-0.1-0.5-0.2-0.7-0.3s-0.4-0.3-0.6-0.4 -0.3-0.4-0.5-0.6c-0.1-0.2-0.2-0.5-0.2-0.8 0-0.3 0.1-0.7 0.2-0.9 0.1-0.3 0.3-0.5 0.6-0.7 0.3-0.2 0.6-0.4 0.9-0.5 0.4-0.1 0.7-0.2 1.2-0.2 0.6 0 1.1 0.1 1.5 0.3 0.4 0.2 0.8 0.4 1.1 0.7l-1 1.3c-0.3-0.2-0.5-0.4-0.8-0.5s-0.5-0.2-0.8-0.2c-0.6 0-0.8 0.2-0.8 0.6 0 0.1 0 0.2 0.1 0.3s0.2 0.2 0.3 0.2c0.1 0.1 0.3 0.1 0.5 0.2 0.2 0.1 0.4 0.1 0.5 0.2 0.2 0.1 0.5 0.2 0.7 0.3 0.2 0.1 0.5 0.3 0.6 0.4 0.2 0.2 0.4 0.4 0.5 0.6 0.1 0.2 0.2 0.5 0.2 0.9 0 0.3-0.1 0.7-0.2 0.9s-0.3 0.5-0.6 0.8c-0.3 0.2-0.6 0.4-1 0.5 -0.4 0.1-0.8 0.2-1.3 0.2 -0.5 0-1-0.1-1.5-0.3 -0.5-0.2-1-0.4-1.3-0.7L53.2 127.3z" class="f"/><path d="M59.9 127.3c0.3 0.3 0.7 0.5 1 0.6s0.6 0.2 0.9 0.2c0.3 0 0.6-0.1 0.7-0.2 0.2-0.1 0.2-0.3 0.2-0.5 0-0.1 0-0.2-0.1-0.3 -0.1-0.1-0.2-0.2-0.3-0.3s-0.3-0.2-0.5-0.2c-0.2-0.1-0.4-0.1-0.6-0.2 -0.2-0.1-0.5-0.2-0.7-0.3s-0.4-0.3-0.6-0.4 -0.3-0.4-0.5-0.6c-0.1-0.2-0.2-0.5-0.2-0.8 0-0.3 0.1-0.7 0.2-0.9 0.1-0.3 0.3-0.5 0.6-0.7 0.3-0.2 0.6-0.4 0.9-0.5 0.4-0.1 0.7-0.2 1.2-0.2 0.6 0 1.1 0.1 1.5 0.3 0.4 0.2 0.8 0.4 1.1 0.7l-1 1.3c-0.3-0.2-0.5-0.4-0.8-0.5s-0.5-0.2-0.8-0.2c-0.6 0-0.8 0.2-0.8 0.6 0 0.1 0 0.2 0.1 0.3s0.2 0.2 0.3 0.2c0.1 0.1 0.3 0.1 0.5 0.2 0.2 0.1 0.4 0.1 0.5 0.2 0.2 0.1 0.5 0.2 0.7 0.3 0.2 0.1 0.5 0.3 0.6 0.4 0.2 0.2 0.4 0.4 0.5 0.6 0.1 0.2 0.2 0.5 0.2 0.9 0 0.3-0.1 0.7-0.2 0.9s-0.3 0.5-0.6 0.8c-0.3 0.2-0.6 0.4-1 0.5 -0.4 0.1-0.8 0.2-1.3 0.2 -0.5 0-1-0.1-1.5-0.3 -0.5-0.2-1-0.4-1.3-0.7L59.9 127.3z" class="f"/><path d="M65.6 122.1h2.2l0.7 3.5c0.1 0.4 0.1 0.7 0.2 1.1 0.1 0.4 0.1 0.7 0.2 1.1h0.1c0.1-0.4 0.1-0.8 0.2-1.1 0.1-0.4 0.1-0.7 0.2-1.1l0.8-3.4h1.9l0.8 3.5c0.1 0.4 0.2 0.7 0.2 1.1s0.1 0.7 0.2 1.1h0.1c0.1-0.4 0.1-0.7 0.2-1.1 0-0.4 0.1-0.7 0.2-1.1l0.7-3.4h2l-1.8 7.4h-2.6l-0.7-3c-0.1-0.3-0.1-0.7-0.2-1 -0.1-0.3-0.1-0.7-0.2-1.1h-0.1c-0.1 0.4-0.1 0.8-0.2 1.1s-0.1 0.7-0.2 1.1l-0.7 3h-2.5L65.6 122.1z" class="f"/><path d="M77.3 125.8c0-0.6 0.1-1.2 0.3-1.7s0.5-0.9 0.8-1.2c0.3-0.3 0.7-0.6 1.2-0.8 0.4-0.2 0.9-0.3 1.4-0.3s0.9 0.1 1.4 0.3 0.8 0.4 1.2 0.8c0.3 0.3 0.6 0.7 0.8 1.2s0.3 1 0.3 1.7c0 0.6-0.1 1.2-0.3 1.7 -0.2 0.5-0.5 0.9-0.8 1.2 -0.3 0.3-0.7 0.6-1.2 0.8s-0.9 0.3-1.4 0.3 -0.9-0.1-1.4-0.3c-0.4-0.2-0.8-0.4-1.2-0.8 -0.3-0.3-0.6-0.7-0.8-1.2C77.4 127 77.3 126.4 77.3 125.8zM79.5 125.8c0 0.7 0.1 1.2 0.3 1.5s0.6 0.6 1 0.6c0.5 0 0.8-0.2 1-0.6s0.3-0.9 0.3-1.5c0-0.6-0.1-1.2-0.3-1.5 -0.2-0.4-0.6-0.6-1-0.6 -0.5 0-0.8 0.2-1 0.6C79.7 124.6 79.5 125.1 79.5 125.8z" class="f"/><path d="M86 122.1h1.8l0.2 1.3h0.1c0.3-0.5 0.6-0.9 1-1.1 0.4-0.2 0.8-0.4 1.1-0.4 0.2 0 0.4 0 0.5 0 0.1 0 0.3 0.1 0.4 0.1l-0.4 1.9c-0.1 0-0.3-0.1-0.4-0.1 -0.1 0-0.3 0-0.4 0 -0.3 0-0.6 0.1-0.9 0.3 -0.3 0.2-0.6 0.6-0.8 1.1v4.3h-2.2V122.1z" class="f"/><path d="M91.5 125.8c0-0.6 0.1-1.2 0.3-1.6 0.2-0.5 0.4-0.9 0.7-1.2 0.3-0.3 0.6-0.6 1-0.8 0.4-0.2 0.8-0.3 1.1-0.3 0.4 0 0.8 0.1 1 0.2 0.3 0.1 0.5 0.3 0.8 0.6l-0.1-1.1V119h2.2v10.5h-1.8l-0.1-0.7h-0.1c-0.3 0.3-0.6 0.5-0.9 0.7s-0.7 0.3-1.1 0.3c-0.5 0-0.9-0.1-1.3-0.3 -0.4-0.2-0.7-0.4-1-0.8 -0.3-0.3-0.5-0.7-0.6-1.2C91.5 127 91.5 126.4 91.5 125.8zM93.7 125.8c0 0.7 0.1 1.3 0.4 1.6 0.2 0.3 0.6 0.5 1 0.5 0.2 0 0.5 0 0.7-0.1 0.2-0.1 0.4-0.3 0.6-0.5v-3c-0.2-0.2-0.4-0.3-0.6-0.4s-0.4-0.1-0.6-0.1c-0.3 0-0.7 0.2-0.9 0.5S93.7 125.1 93.7 125.8z" class="f"/><path d="M104.7 121c-0.4 0-0.7-0.1-0.9-0.3 -0.2-0.2-0.4-0.5-0.4-0.8s0.1-0.6 0.4-0.8c0.2-0.2 0.5-0.3 0.9-0.3 0.4 0 0.7 0.1 0.9 0.3 0.2 0.2 0.4 0.5 0.4 0.8s-0.1 0.6-0.4 0.8C105.4 120.9 105.1 121 104.7 121zM103.6 122.1h2.2v7.4h-2.2V122.1z" class="f"/><path d="M108 127.3c0.3 0.3 0.7 0.5 1 0.6s0.6 0.2 0.9 0.2c0.3 0 0.6-0.1 0.7-0.2 0.2-0.1 0.2-0.3 0.2-0.5 0-0.1 0-0.2-0.1-0.3 -0.1-0.1-0.2-0.2-0.3-0.3s-0.3-0.2-0.5-0.2c-0.2-0.1-0.4-0.1-0.6-0.2 -0.2-0.1-0.5-0.2-0.7-0.3s-0.4-0.3-0.6-0.4 -0.3-0.4-0.5-0.6c-0.1-0.2-0.2-0.5-0.2-0.8 0-0.3 0.1-0.7 0.2-0.9 0.1-0.3 0.3-0.5 0.6-0.7 0.3-0.2 0.6-0.4 0.9-0.5 0.4-0.1 0.7-0.2 1.2-0.2 0.6 0 1.1 0.1 1.5 0.3 0.4 0.2 0.8 0.4 1.1 0.7l-1 1.3c-0.3-0.2-0.5-0.4-0.8-0.5s-0.5-0.2-0.8-0.2c-0.6 0-0.8 0.2-0.8 0.6 0 0.1 0 0.2 0.1 0.3s0.2 0.2 0.3 0.2c0.1 0.1 0.3 0.1 0.5 0.2 0.2 0.1 0.4 0.1 0.5 0.2 0.2 0.1 0.5 0.2 0.7 0.3 0.2 0.1 0.5 0.3 0.6 0.4 0.2 0.2 0.4 0.4 0.5 0.6 0.1 0.2 0.2 0.5 0.2 0.9 0 0.3-0.1 0.7-0.2 0.9s-0.3 0.5-0.6 0.8c-0.3 0.2-0.6 0.4-1 0.5 -0.4 0.1-0.8 0.2-1.3 0.2 -0.5 0-1-0.1-1.5-0.3 -0.5-0.2-1-0.4-1.3-0.7L108 127.3z" class="f"/><path d="M117.5 119h2.2v2.6l-0.1 1.3c0.3-0.2 0.6-0.5 1-0.7s0.8-0.3 1.3-0.3c0.8 0 1.4 0.3 1.8 0.8 0.4 0.5 0.5 1.3 0.5 2.2v4.6h-2.2v-4.3c0-0.5-0.1-0.9-0.2-1.1s-0.4-0.3-0.7-0.3c-0.3 0-0.5 0.1-0.7 0.2 -0.2 0.1-0.4 0.3-0.7 0.5v5h-2.2V119z" class="f"/><path d="M125.8 127.4c0-0.8 0.3-1.4 1-1.8 0.7-0.4 1.7-0.7 3.2-0.9 0-0.3-0.1-0.6-0.3-0.8 -0.2-0.2-0.5-0.3-0.9-0.3 -0.3 0-0.6 0.1-1 0.2 -0.3 0.1-0.7 0.3-1 0.5l-0.8-1.5c0.5-0.3 1-0.5 1.5-0.7 0.5-0.2 1.1-0.3 1.7-0.3 1 0 1.7 0.3 2.2 0.8 0.5 0.5 0.8 1.4 0.8 2.5v4.3h-1.8l-0.2-0.8h0c-0.3 0.3-0.7 0.5-1 0.7s-0.7 0.3-1.2 0.3c-0.3 0-0.6-0.1-0.9-0.2 -0.3-0.1-0.5-0.3-0.7-0.5 -0.2-0.2-0.3-0.4-0.4-0.7S125.8 127.8 125.8 127.4zM127.9 127.3c0 0.2 0.1 0.4 0.2 0.5 0.2 0.1 0.4 0.2 0.6 0.2 0.3 0 0.5-0.1 0.7-0.2 0.2-0.1 0.4-0.3 0.6-0.5v-1.3c-0.8 0.1-1.3 0.3-1.6 0.5C128 126.7 127.9 127 127.9 127.3z" class="f"/><path d="M134.4 127.3c0.3 0.3 0.7 0.5 1 0.6s0.6 0.2 0.9 0.2c0.3 0 0.6-0.1 0.7-0.2 0.2-0.1 0.2-0.3 0.2-0.5 0-0.1 0-0.2-0.1-0.3 -0.1-0.1-0.2-0.2-0.3-0.3s-0.3-0.2-0.5-0.2c-0.2-0.1-0.4-0.1-0.6-0.2 -0.2-0.1-0.5-0.2-0.7-0.3s-0.4-0.3-0.6-0.4 -0.3-0.4-0.5-0.6c-0.1-0.2-0.2-0.5-0.2-0.8 0-0.3 0.1-0.7 0.2-0.9 0.1-0.3 0.3-0.5 0.6-0.7 0.3-0.2 0.6-0.4 0.9-0.5 0.4-0.1 0.7-0.2 1.2-0.2 0.6 0 1.1 0.1 1.5 0.3 0.4 0.2 0.8 0.4 1.1 0.7l-1 1.3c-0.3-0.2-0.5-0.4-0.8-0.5s-0.5-0.2-0.8-0.2c-0.6 0-0.8 0.2-0.8 0.6 0 0.1 0 0.2 0.1 0.3s0.2 0.2 0.3 0.2c0.1 0.1 0.3 0.1 0.5 0.2 0.2 0.1 0.4 0.1 0.5 0.2 0.2 0.1 0.5 0.2 0.7 0.3 0.2 0.1 0.5 0.3 0.6 0.4 0.2 0.2 0.4 0.4 0.5 0.6 0.1 0.2 0.2 0.5 0.2 0.9 0 0.3-0.1 0.7-0.2 0.9s-0.3 0.5-0.6 0.8c-0.3 0.2-0.6 0.4-1 0.5 -0.4 0.1-0.8 0.2-1.3 0.2 -0.5 0-1-0.1-1.5-0.3 -0.5-0.2-1-0.4-1.3-0.7L134.4 127.3z" class="f"/><path d="M140.7 119h2.2v2.6l-0.1 1.3c0.3-0.2 0.6-0.5 1-0.7s0.8-0.3 1.3-0.3c0.8 0 1.4 0.3 1.8 0.8 0.4 0.5 0.5 1.3 0.5 2.2v4.6h-2.2v-4.3c0-0.5-0.1-0.9-0.2-1.1s-0.4-0.3-0.7-0.3c-0.3 0-0.5 0.1-0.7 0.2 -0.2 0.1-0.4 0.3-0.7 0.5v5h-2.2V119z" class="f"/><path d="M148.8 125.8c0-0.6 0.1-1.1 0.3-1.6 0.2-0.5 0.5-0.9 0.8-1.2 0.3-0.3 0.7-0.6 1.1-0.8 0.4-0.2 0.9-0.3 1.3-0.3 0.5 0 1 0.1 1.4 0.3 0.4 0.2 0.7 0.4 1 0.8 0.3 0.3 0.5 0.7 0.6 1.1 0.1 0.4 0.2 0.9 0.2 1.4 0 0.2 0 0.4 0 0.5s0 0.3-0.1 0.4h-4.5c0.1 0.6 0.3 1 0.7 1.2 0.3 0.3 0.8 0.4 1.3 0.4 0.5 0 1.1-0.2 1.6-0.5l0.7 1.3c-0.4 0.3-0.8 0.5-1.3 0.6 -0.5 0.2-0.9 0.2-1.4 0.2 -0.5 0-1-0.1-1.5-0.3s-0.9-0.4-1.2-0.8c-0.3-0.3-0.6-0.7-0.8-1.2C148.9 127 148.8 126.4 148.8 125.8zM153.6 125c0-0.4-0.1-0.8-0.3-1 -0.2-0.3-0.5-0.4-1-0.4 -0.4 0-0.7 0.1-0.9 0.4s-0.4 0.6-0.5 1.1H153.6z" class="f"/><path d="M156.6 125.8c0-0.6 0.1-1.2 0.3-1.6 0.2-0.5 0.4-0.9 0.7-1.2 0.3-0.3 0.6-0.6 1-0.8 0.4-0.2 0.8-0.3 1.1-0.3 0.4 0 0.8 0.1 1 0.2 0.3 0.1 0.5 0.3 0.8 0.6l-0.1-1.1V119h2.2v10.5h-1.8l-0.1-0.7h-0.1c-0.3 0.3-0.6 0.5-0.9 0.7s-0.7 0.3-1.1 0.3c-0.5 0-0.9-0.1-1.3-0.3 -0.4-0.2-0.7-0.4-1-0.8 -0.3-0.3-0.5-0.7-0.6-1.2C156.7 127 156.6 126.4 156.6 125.8zM158.9 125.8c0 0.7 0.1 1.3 0.4 1.6 0.2 0.3 0.6 0.5 1 0.5 0.2 0 0.5 0 0.7-0.1 0.2-0.1 0.4-0.3 0.6-0.5v-3c-0.2-0.2-0.4-0.3-0.6-0.4s-0.4-0.1-0.6-0.1c-0.3 0-0.7 0.2-0.9 0.5S158.9 125.1 158.9 125.8z" class="f"/><path d="M191 209.2h3.6c0.5 0 1 0.1 1.5 0.2 0.5 0.1 0.9 0.3 1.2 0.5 0.3 0.2 0.6 0.6 0.8 1 0.2 0.4 0.3 0.9 0.3 1.5 0 0.6-0.1 1.1-0.3 1.5 -0.2 0.4-0.5 0.8-0.8 1 -0.3 0.3-0.8 0.5-1.2 0.6s-0.9 0.2-1.5 0.2h-1.4v3.3h-2.2V209.2zM194.5 213.9c1.2 0 1.8-0.5 1.8-1.6 0-0.5-0.2-0.9-0.5-1.1 -0.3-0.2-0.8-0.3-1.3-0.3h-1.2v3H194.5z" class="f"/><path d="M199.2 216.9c0-0.8 0.3-1.4 1-1.8 0.7-0.4 1.7-0.7 3.2-0.9 0-0.3-0.1-0.6-0.3-0.8 -0.2-0.2-0.5-0.3-0.9-0.3 -0.3 0-0.6 0.1-1 0.2 -0.3 0.1-0.7 0.3-1 0.5l-0.8-1.5c0.5-0.3 1-0.5 1.5-0.7 0.5-0.2 1.1-0.3 1.7-0.3 1 0 1.7 0.3 2.2 0.8 0.5 0.5 0.8 1.4 0.8 2.5v4.3h-1.8l-0.2-0.8h0c-0.3 0.3-0.7 0.5-1 0.7s-0.7 0.3-1.2 0.3c-0.3 0-0.6-0.1-0.9-0.2 -0.3-0.1-0.5-0.3-0.7-0.5 -0.2-0.2-0.3-0.4-0.4-0.7S199.2 217.3 199.2 216.9zM201.3 216.8c0 0.2 0.1 0.4 0.2 0.5 0.2 0.1 0.4 0.2 0.6 0.2 0.3 0 0.5-0.1 0.7-0.2 0.2-0.1 0.4-0.3 0.6-0.5v-1.3c-0.8 0.1-1.3 0.3-1.6 0.5C201.4 216.2 201.3 216.5 201.3 216.8z" class="f"/><path d="M207.8 216.8c0.3 0.3 0.7 0.5 1 0.6s0.6 0.2 0.9 0.2c0.3 0 0.6-0.1 0.7-0.2 0.2-0.1 0.2-0.3 0.2-0.5 0-0.1 0-0.2-0.1-0.3 -0.1-0.1-0.2-0.2-0.3-0.3s-0.3-0.2-0.5-0.2c-0.2-0.1-0.4-0.1-0.6-0.2 -0.2-0.1-0.5-0.2-0.7-0.3s-0.4-0.3-0.6-0.4 -0.3-0.4-0.5-0.6c-0.1-0.2-0.2-0.5-0.2-0.8 0-0.3 0.1-0.7 0.2-0.9 0.1-0.3 0.3-0.5 0.6-0.7 0.3-0.2 0.6-0.4 0.9-0.5 0.4-0.1 0.7-0.2 1.2-0.2 0.6 0 1.1 0.1 1.5 0.3 0.4 0.2 0.8 0.4 1.1 0.7l-1 1.3c-0.3-0.2-0.5-0.4-0.8-0.5s-0.5-0.2-0.8-0.2c-0.6 0-0.8 0.2-0.8 0.6 0 0.1 0 0.2 0.1 0.3s0.2 0.2 0.3 0.2c0.1 0.1 0.3 0.1 0.5 0.2 0.2 0.1 0.4 0.1 0.5 0.2 0.2 0.1 0.5 0.2 0.7 0.3 0.2 0.1 0.5 0.3 0.6 0.4 0.2 0.2 0.4 0.4 0.5 0.6 0.1 0.2 0.2 0.5 0.2 0.9 0 0.3-0.1 0.7-0.2 0.9s-0.3 0.5-0.6 0.8c-0.3 0.2-0.6 0.4-1 0.5 -0.4 0.1-0.8 0.2-1.3 0.2 -0.5 0-1-0.1-1.5-0.3 -0.5-0.2-1-0.4-1.3-0.7L207.8 216.8z" class="f"/><path d="M214.4 216.8c0.3 0.3 0.7 0.5 1 0.6s0.6 0.2 0.9 0.2c0.3 0 0.6-0.1 0.7-0.2 0.2-0.1 0.2-0.3 0.2-0.5 0-0.1 0-0.2-0.1-0.3 -0.1-0.1-0.2-0.2-0.3-0.3s-0.3-0.2-0.5-0.2c-0.2-0.1-0.4-0.1-0.6-0.2 -0.2-0.1-0.5-0.2-0.7-0.3s-0.4-0.3-0.6-0.4 -0.3-0.4-0.5-0.6c-0.1-0.2-0.2-0.5-0.2-0.8 0-0.3 0.1-0.7 0.2-0.9 0.1-0.3 0.3-0.5 0.6-0.7 0.3-0.2 0.6-0.4 0.9-0.5 0.4-0.1 0.7-0.2 1.2-0.2 0.6 0 1.1 0.1 1.5 0.3 0.4 0.2 0.8 0.4 1.1 0.7l-1 1.3c-0.3-0.2-0.5-0.4-0.8-0.5s-0.5-0.2-0.8-0.2c-0.6 0-0.8 0.2-0.8 0.6 0 0.1 0 0.2 0.1 0.3s0.2 0.2 0.3 0.2c0.1 0.1 0.3 0.1 0.5 0.2 0.2 0.1 0.4 0.1 0.5 0.2 0.2 0.1 0.5 0.2 0.7 0.3 0.2 0.1 0.5 0.3 0.6 0.4 0.2 0.2 0.4 0.4 0.5 0.6 0.1 0.2 0.2 0.5 0.2 0.9 0 0.3-0.1 0.7-0.2 0.9s-0.3 0.5-0.6 0.8c-0.3 0.2-0.6 0.4-1 0.5 -0.4 0.1-0.8 0.2-1.3 0.2 -0.5 0-1-0.1-1.5-0.3 -0.5-0.2-1-0.4-1.3-0.7L214.4 216.8z" class="f"/><path d="M220.1 211.6h2.2l0.7 3.5c0.1 0.4 0.1 0.7 0.2 1.1 0.1 0.4 0.1 0.7 0.2 1.1h0.1c0.1-0.4 0.1-0.8 0.2-1.1 0.1-0.4 0.1-0.7 0.2-1.1l0.8-3.4h1.9l0.8 3.5c0.1 0.4 0.2 0.7 0.2 1.1s0.1 0.7 0.2 1.1h0.1c0.1-0.4 0.1-0.7 0.2-1.1 0-0.4 0.1-0.7 0.2-1.1l0.7-3.4h2l-1.8 7.4h-2.6l-0.7-3c-0.1-0.3-0.1-0.7-0.2-1 -0.1-0.3-0.1-0.7-0.2-1.1h-0.1c-0.1 0.4-0.1 0.8-0.2 1.1s-0.1 0.7-0.2 1.1l-0.7 3h-2.5L220.1 211.6z" class="f"/><path d="M231.8 215.3c0-0.6 0.1-1.2 0.3-1.7s0.5-0.9 0.8-1.2c0.3-0.3 0.7-0.6 1.2-0.8 0.4-0.2 0.9-0.3 1.4-0.3s0.9 0.1 1.4 0.3 0.8 0.4 1.2 0.8c0.3 0.3 0.6 0.7 0.8 1.2s0.3 1 0.3 1.7c0 0.6-0.1 1.2-0.3 1.7 -0.2 0.5-0.5 0.9-0.8 1.2 -0.3 0.3-0.7 0.6-1.2 0.8s-0.9 0.3-1.4 0.3 -0.9-0.1-1.4-0.3c-0.4-0.2-0.8-0.4-1.2-0.8 -0.3-0.3-0.6-0.7-0.8-1.2C231.9 216.5 231.8 215.9 231.8 215.3zM234.1 215.3c0 0.7 0.1 1.2 0.3 1.5s0.6 0.6 1 0.6c0.5 0 0.8-0.2 1-0.6s0.3-0.9 0.3-1.5c0-0.6-0.1-1.2-0.3-1.5 -0.2-0.4-0.6-0.6-1-0.6 -0.5 0-0.8 0.2-1 0.6C234.2 214.1 234.1 214.6 234.1 215.3z" class="f"/><path d="M240.6 211.6h1.8l0.2 1.3h0.1c0.3-0.5 0.6-0.9 1-1.1 0.4-0.2 0.8-0.4 1.1-0.4 0.2 0 0.4 0 0.5 0 0.1 0 0.3 0.1 0.4 0.1l-0.4 1.9c-0.1 0-0.3-0.1-0.4-0.1 -0.1 0-0.3 0-0.4 0 -0.3 0-0.6 0.1-0.9 0.3 -0.3 0.2-0.6 0.6-0.8 1.1v4.3h-2.2V211.6z" class="f"/><path d="M246 215.3c0-0.6 0.1-1.2 0.3-1.6 0.2-0.5 0.4-0.9 0.7-1.2 0.3-0.3 0.6-0.6 1-0.8 0.4-0.2 0.8-0.3 1.1-0.3 0.4 0 0.8 0.1 1 0.2 0.3 0.1 0.5 0.3 0.8 0.6l-0.1-1.1V208.5h2.2v10.5h-1.8l-0.1-0.7h-0.1c-0.3 0.3-0.6 0.5-0.9 0.7s-0.7 0.3-1.1 0.3c-0.5 0-0.9-0.1-1.3-0.3 -0.4-0.2-0.7-0.4-1-0.8 -0.3-0.3-0.5-0.7-0.6-1.2C246.1 216.5 246 215.9 246 215.3zM248.3 215.3c0 0.7 0.1 1.3 0.4 1.6 0.2 0.3 0.6 0.5 1 0.5 0.2 0 0.5 0 0.7-0.1 0.2-0.1 0.4-0.3 0.6-0.5v-3c-0.2-0.2-0.4-0.3-0.6-0.4s-0.4-0.1-0.6-0.1c-0.3 0-0.7 0.2-0.9 0.5S248.3 214.6 248.3 215.3z" class="f"/><path d="M257.8 216.9c0-0.8 0.3-1.4 1-1.8 0.7-0.4 1.7-0.7 3.2-0.9 0-0.3-0.1-0.6-0.3-0.8 -0.2-0.2-0.5-0.3-0.9-0.3 -0.3 0-0.6 0.1-1 0.2s-0.7 0.3-1 0.5l-0.8-1.5c0.5-0.3 1-0.5 1.5-0.7 0.5-0.2 1.1-0.3 1.7-0.3 1 0 1.7 0.3 2.2 0.8 0.5 0.5 0.8 1.4 0.8 2.5v4.3h-1.8l-0.2-0.8h0c-0.3 0.3-0.7 0.5-1 0.7 -0.4 0.2-0.7 0.3-1.2 0.3 -0.3 0-0.6-0.1-0.9-0.2 -0.3-0.1-0.5-0.3-0.7-0.5 -0.2-0.2-0.3-0.4-0.4-0.7C257.9 217.6 257.8 217.3 257.8 216.9zM259.9 216.8c0 0.2 0.1 0.4 0.2 0.5 0.2 0.1 0.4 0.2 0.6 0.2 0.3 0 0.5-0.1 0.7-0.2 0.2-0.1 0.4-0.3 0.6-0.5v-1.3c-0.8 0.1-1.3 0.3-1.6 0.5C260.1 216.2 259.9 216.5 259.9 216.8z" class="f"/><path d="M266.1 211.6h1.8l0.1 0.9h0.1c0.3-0.3 0.7-0.6 1.1-0.8 0.4-0.2 0.8-0.3 1.3-0.3 0.8 0 1.4 0.3 1.8 0.8 0.4 0.5 0.5 1.3 0.5 2.2v4.6h-2.2v-4.3c0-0.5-0.1-0.9-0.2-1.1s-0.4-0.3-0.7-0.3c-0.3 0-0.5 0.1-0.7 0.2 -0.2 0.1-0.4 0.3-0.7 0.5v5h-2.2V211.6z" class="f"/><path d="M274.3 215.3c0-0.6 0.1-1.2 0.3-1.6 0.2-0.5 0.4-0.9 0.7-1.2 0.3-0.3 0.6-0.6 1-0.8 0.4-0.2 0.8-0.3 1.1-0.3 0.4 0 0.8 0.1 1 0.2 0.3 0.1 0.5 0.3 0.8 0.6l-0.1-1.1V208.5h2.2v10.5h-1.8l-0.1-0.7h-0.1c-0.3 0.3-0.6 0.5-0.9 0.7s-0.7 0.3-1.1 0.3c-0.5 0-0.9-0.1-1.3-0.3 -0.4-0.2-0.7-0.4-1-0.8s-0.5-0.7-0.6-1.2C274.4 216.5 274.3 215.9 274.3 215.3zM276.6 215.3c0 0.7 0.1 1.3 0.4 1.6s0.6 0.5 1 0.5c0.2 0 0.5 0 0.7-0.1 0.2-0.1 0.4-0.3 0.6-0.5v-3c-0.2-0.2-0.4-0.3-0.6-0.4 -0.2-0.1-0.4-0.1-0.6-0.1 -0.4 0-0.7 0.2-0.9 0.5C276.7 214 276.6 214.6 276.6 215.3z" class="f"/><path d="M286.7 216.8c0.3 0.3 0.7 0.5 1 0.6s0.6 0.2 0.9 0.2c0.3 0 0.6-0.1 0.7-0.2 0.2-0.1 0.2-0.3 0.2-0.5 0-0.1 0-0.2-0.1-0.3 -0.1-0.1-0.2-0.2-0.3-0.3 -0.1-0.1-0.3-0.2-0.5-0.2 -0.2-0.1-0.4-0.1-0.6-0.2 -0.2-0.1-0.5-0.2-0.7-0.3 -0.2-0.1-0.4-0.3-0.6-0.4 -0.2-0.2-0.3-0.4-0.5-0.6 -0.1-0.2-0.2-0.5-0.2-0.8 0-0.3 0.1-0.7 0.2-0.9 0.1-0.3 0.3-0.5 0.6-0.7 0.2-0.2 0.6-0.4 0.9-0.5 0.4-0.1 0.7-0.2 1.2-0.2 0.6 0 1.1 0.1 1.5 0.3 0.4 0.2 0.8 0.4 1.1 0.7l-1 1.3c-0.3-0.2-0.5-0.4-0.8-0.5 -0.3-0.1-0.5-0.2-0.8-0.2 -0.6 0-0.8 0.2-0.8 0.6 0 0.1 0 0.2 0.1 0.3s0.2 0.2 0.3 0.2c0.1 0.1 0.3 0.1 0.5 0.2 0.2 0.1 0.4 0.1 0.5 0.2 0.2 0.1 0.5 0.2 0.7 0.3 0.2 0.1 0.4 0.3 0.6 0.4 0.2 0.2 0.4 0.4 0.5 0.6 0.1 0.2 0.2 0.5 0.2 0.9 0 0.3-0.1 0.7-0.2 0.9s-0.3 0.5-0.6 0.8c-0.3 0.2-0.6 0.4-1 0.5 -0.4 0.1-0.8 0.2-1.3 0.2 -0.5 0-1-0.1-1.5-0.3s-1-0.4-1.3-0.7L286.7 216.8z" class="f"/><path d="M292.8 216.9c0-0.8 0.3-1.4 1-1.8s1.7-0.7 3.2-0.9c0-0.3-0.1-0.6-0.3-0.8 -0.2-0.2-0.5-0.3-0.9-0.3 -0.3 0-0.6 0.1-1 0.2s-0.7 0.3-1 0.5l-0.8-1.5c0.5-0.3 1-0.5 1.5-0.7 0.5-0.2 1.1-0.3 1.7-0.3 1 0 1.7 0.3 2.2 0.8 0.5 0.5 0.8 1.4 0.8 2.5v4.3h-1.8l-0.2-0.8h0c-0.3 0.3-0.7 0.5-1 0.7s-0.7 0.3-1.2 0.3c-0.3 0-0.6-0.1-0.9-0.2 -0.3-0.1-0.5-0.3-0.7-0.5 -0.2-0.2-0.3-0.4-0.4-0.7S292.8 217.3 292.8 216.9zM294.9 216.8c0 0.2 0.1 0.4 0.2 0.5 0.2 0.1 0.4 0.2 0.6 0.2s0.5-0.1 0.7-0.2 0.4-0.3 0.6-0.5v-1.3c-0.8 0.1-1.3 0.3-1.6 0.5S294.9 216.5 294.9 216.8z" class="f"/><path d="M301.1 208.5h2.2v8.3c0 0.2 0 0.4 0.1 0.5 0.1 0.1 0.2 0.1 0.3 0.1 0.1 0 0.1 0 0.1 0s0.1 0 0.1 0l0.3 1.6c-0.1 0.1-0.3 0.1-0.5 0.1s-0.4 0.1-0.7 0.1c-0.4 0-0.7-0.1-1-0.2 -0.3-0.1-0.5-0.3-0.6-0.5 -0.2-0.2-0.3-0.5-0.3-0.8 -0.1-0.3-0.1-0.6-0.1-1V208.5z" class="f"/><path d="M305.7 213.3h-1v-1.6l1.1-0.1 0.3-2h1.8v2h1.8v1.7h-1.8v3c0 0.4 0.1 0.7 0.3 0.9 0.2 0.2 0.4 0.3 0.7 0.3 0.1 0 0.2 0 0.4 0 0.1 0 0.2-0.1 0.3-0.1l0.3 1.6c-0.2 0.1-0.4 0.1-0.7 0.2s-0.6 0.1-0.9 0.1c-0.5 0-0.9-0.1-1.2-0.2 -0.3-0.1-0.6-0.3-0.8-0.6 -0.2-0.2-0.4-0.6-0.5-0.9 -0.1-0.4-0.1-0.7-0.1-1.2V213.3z" class="f"/><path d="M190.9 228.5c-0.4 0-0.7-0.1-0.9-0.3 -0.2-0.2-0.4-0.5-0.4-0.8s0.1-0.6 0.4-0.8c0.2-0.2 0.5-0.3 0.9-0.3 0.4 0 0.7 0.1 0.9 0.3 0.2 0.2 0.4 0.5 0.4 0.8s-0.1 0.6-0.4 0.8C191.6 228.4 191.3 228.5 190.9 228.5zM189.8 229.6h2.2v7.4h-2.2V229.6z" class="f"/><path d="M194.3 234.8c0.3 0.3 0.7 0.5 1 0.6s0.6 0.2 0.9 0.2c0.3 0 0.6-0.1 0.7-0.2 0.2-0.1 0.2-0.3 0.2-0.5 0-0.1 0-0.2-0.1-0.3 -0.1-0.1-0.2-0.2-0.3-0.3s-0.3-0.2-0.5-0.2c-0.2-0.1-0.4-0.1-0.6-0.2 -0.2-0.1-0.5-0.2-0.7-0.3s-0.4-0.3-0.6-0.4 -0.3-0.4-0.5-0.6c-0.1-0.2-0.2-0.5-0.2-0.8 0-0.3 0.1-0.7 0.2-0.9 0.1-0.3 0.3-0.5 0.6-0.7 0.3-0.2 0.6-0.4 0.9-0.5 0.4-0.1 0.7-0.2 1.2-0.2 0.6 0 1.1 0.1 1.5 0.3 0.4 0.2 0.8 0.4 1.1 0.7l-1 1.3c-0.3-0.2-0.5-0.4-0.8-0.5s-0.5-0.2-0.8-0.2c-0.6 0-0.8 0.2-0.8 0.6 0 0.1 0 0.2 0.1 0.3s0.2 0.2 0.3 0.2c0.1 0.1 0.3 0.1 0.5 0.2 0.2 0.1 0.4 0.1 0.5 0.2 0.2 0.1 0.5 0.2 0.7 0.3 0.2 0.1 0.5 0.3 0.6 0.4 0.2 0.2 0.4 0.4 0.5 0.6 0.1 0.2 0.2 0.5 0.2 0.9 0 0.3-0.1 0.7-0.2 0.9s-0.3 0.5-0.6 0.8c-0.3 0.2-0.6 0.4-1 0.5 -0.4 0.1-0.8 0.2-1.3 0.2 -0.5 0-1-0.1-1.5-0.3 -0.5-0.2-1-0.4-1.3-0.7L194.3 234.8z" class="f"/><path d="M203.7 226.5h2.2v2.6l-0.1 1.3c0.3-0.2 0.6-0.5 1-0.7s0.8-0.3 1.3-0.3c0.8 0 1.4 0.3 1.8 0.8 0.4 0.5 0.5 1.3 0.5 2.2v4.6h-2.2v-4.3c0-0.5-0.1-0.9-0.2-1.1s-0.4-0.3-0.7-0.3c-0.3 0-0.5 0.1-0.7 0.2 -0.2 0.1-0.4 0.3-0.7 0.5v5h-2.2V226.5z" class="f"/><path d="M212 234.9c0-0.8 0.3-1.4 1-1.8 0.7-0.4 1.7-0.7 3.2-0.9 0-0.3-0.1-0.6-0.3-0.8 -0.2-0.2-0.5-0.3-0.9-0.3 -0.3 0-0.6 0.1-1 0.2 -0.3 0.1-0.7 0.3-1 0.5l-0.8-1.5c0.5-0.3 1-0.5 1.5-0.7 0.5-0.2 1.1-0.3 1.7-0.3 1 0 1.7 0.3 2.2 0.8 0.5 0.5 0.8 1.4 0.8 2.5v4.3h-1.8l-0.2-0.8h0c-0.3 0.3-0.7 0.5-1 0.7s-0.7 0.3-1.2 0.3c-0.3 0-0.6-0.1-0.9-0.2 -0.3-0.1-0.5-0.3-0.7-0.5 -0.2-0.2-0.3-0.4-0.4-0.7S212 235.3 212 234.9zM214.1 234.8c0 0.2 0.1 0.4 0.2 0.5 0.2 0.1 0.4 0.2 0.6 0.2 0.3 0 0.5-0.1 0.7-0.2 0.2-0.1 0.4-0.3 0.6-0.5v-1.3c-0.8 0.1-1.3 0.3-1.6 0.5C214.2 234.2 214.1 234.5 214.1 234.8z" class="f"/><path d="M220.6 234.8c0.3 0.3 0.7 0.5 1 0.6s0.6 0.2 0.9 0.2c0.3 0 0.6-0.1 0.7-0.2 0.2-0.1 0.2-0.3 0.2-0.5 0-0.1 0-0.2-0.1-0.3 -0.1-0.1-0.2-0.2-0.3-0.3s-0.3-0.2-0.5-0.2c-0.2-0.1-0.4-0.1-0.6-0.2 -0.2-0.1-0.5-0.2-0.7-0.3s-0.4-0.3-0.6-0.4 -0.3-0.4-0.5-0.6c-0.1-0.2-0.2-0.5-0.2-0.8 0-0.3 0.1-0.7 0.2-0.9 0.1-0.3 0.3-0.5 0.6-0.7 0.3-0.2 0.6-0.4 0.9-0.5 0.4-0.1 0.7-0.2 1.2-0.2 0.6 0 1.1 0.1 1.5 0.3 0.4 0.2 0.8 0.4 1.1 0.7l-1 1.3c-0.3-0.2-0.5-0.4-0.8-0.5s-0.5-0.2-0.8-0.2c-0.6 0-0.8 0.2-0.8 0.6 0 0.1 0 0.2 0.1 0.3s0.2 0.2 0.3 0.2c0.1 0.1 0.3 0.1 0.5 0.2 0.2 0.1 0.4 0.1 0.5 0.2 0.2 0.1 0.5 0.2 0.7 0.3 0.2 0.1 0.5 0.3 0.6 0.4 0.2 0.2 0.4 0.4 0.5 0.6 0.1 0.2 0.2 0.5 0.2 0.9 0 0.3-0.1 0.7-0.2 0.9s-0.3 0.5-0.6 0.8c-0.3 0.2-0.6 0.4-1 0.5 -0.4 0.1-0.8 0.2-1.3 0.2 -0.5 0-1-0.1-1.5-0.3 -0.5-0.2-1-0.4-1.3-0.7L220.6 234.8z" class="f"/><path d="M226.9 226.5h2.2v2.6l-0.1 1.3c0.3-0.2 0.6-0.5 1-0.7s0.8-0.3 1.3-0.3c0.8 0 1.4 0.3 1.8 0.8 0.4 0.5 0.5 1.3 0.5 2.2v4.6h-2.2v-4.3c0-0.5-0.1-0.9-0.2-1.1s-0.4-0.3-0.7-0.3c-0.3 0-0.5 0.1-0.7 0.2 -0.2 0.1-0.4 0.3-0.7 0.5v5h-2.2V226.5z" class="f"/><path d="M235 233.3c0-0.6 0.1-1.1 0.3-1.6 0.2-0.5 0.5-0.9 0.8-1.2 0.3-0.3 0.7-0.6 1.1-0.8 0.4-0.2 0.9-0.3 1.3-0.3 0.5 0 1 0.1 1.4 0.3 0.4 0.2 0.7 0.4 1 0.8 0.3 0.3 0.5 0.7 0.6 1.1 0.1 0.4 0.2 0.9 0.2 1.4 0 0.2 0 0.4 0 0.5s0 0.3-0.1 0.4h-4.5c0.1 0.6 0.3 1 0.7 1.2 0.3 0.3 0.8 0.4 1.3 0.4 0.5 0 1.1-0.2 1.6-0.5l0.7 1.3c-0.4 0.3-0.8 0.5-1.3 0.6 -0.5 0.2-0.9 0.2-1.4 0.2 -0.5 0-1-0.1-1.5-0.3s-0.9-0.4-1.2-0.8c-0.3-0.3-0.6-0.7-0.8-1.2C235.1 234.5 235 233.9 235 233.3zM239.8 232.5c0-0.4-0.1-0.8-0.3-1 -0.2-0.3-0.5-0.4-1-0.4 -0.4 0-0.7 0.1-0.9 0.4s-0.4 0.6-0.5 1.1H239.8z" class="f"/><path d="M242.9 233.3c0-0.6 0.1-1.2 0.3-1.6 0.2-0.5 0.4-0.9 0.7-1.2 0.3-0.3 0.6-0.6 1-0.8 0.4-0.2 0.8-0.3 1.1-0.3 0.4 0 0.8 0.1 1 0.2 0.3 0.1 0.5 0.3 0.8 0.6l-0.1-1.1V226.5h2.2v10.5h-1.8l-0.1-0.7h-0.1c-0.3 0.3-0.6 0.5-0.9 0.7s-0.7 0.3-1.1 0.3c-0.5 0-0.9-0.1-1.3-0.3 -0.4-0.2-0.7-0.4-1-0.8 -0.3-0.3-0.5-0.7-0.6-1.2C242.9 234.5 242.9 233.9 242.9 233.3zM245.1 233.3c0 0.7 0.1 1.3 0.4 1.6 0.2 0.3 0.6 0.5 1 0.5 0.2 0 0.5 0 0.7-0.1 0.2-0.1 0.4-0.3 0.6-0.5v-3c-0.2-0.2-0.4-0.3-0.6-0.4s-0.4-0.1-0.6-0.1c-0.3 0-0.7 0.2-0.9 0.5S245.1 232.6 245.1 233.3z" class="f"/><path d="M255.3 231.3h-1v-1.6l1.1-0.1 0.3-2h1.8v2h1.8v1.7h-1.8v3c0 0.4 0.1 0.7 0.3 0.9 0.2 0.2 0.4 0.3 0.7 0.3 0.1 0 0.2 0 0.4 0 0.1 0 0.2-0.1 0.3-0.1l0.3 1.6c-0.2 0.1-0.4 0.1-0.7 0.2s-0.6 0.1-0.9 0.1c-0.5 0-0.9-0.1-1.2-0.2 -0.3-0.1-0.6-0.3-0.8-0.6 -0.2-0.2-0.4-0.6-0.4-0.9 -0.1-0.4-0.1-0.7-0.1-1.2V231.3z" class="f"/><path d="M260.1 233.3c0-0.6 0.1-1.2 0.3-1.7 0.2-0.5 0.5-0.9 0.8-1.2 0.3-0.3 0.7-0.6 1.2-0.8 0.4-0.2 0.9-0.3 1.4-0.3 0.5 0 0.9 0.1 1.4 0.3 0.4 0.2 0.8 0.4 1.2 0.8 0.3 0.3 0.6 0.7 0.8 1.2s0.3 1 0.3 1.7c0 0.6-0.1 1.2-0.3 1.7 -0.2 0.5-0.5 0.9-0.8 1.2 -0.3 0.3-0.7 0.6-1.2 0.8 -0.4 0.2-0.9 0.3-1.4 0.3 -0.5 0-0.9-0.1-1.4-0.3 -0.4-0.2-0.8-0.4-1.2-0.8 -0.3-0.3-0.6-0.7-0.8-1.2C260.2 234.5 260.1 233.9 260.1 233.3zM262.4 233.3c0 0.7 0.1 1.2 0.3 1.5 0.2 0.4 0.6 0.6 1 0.6 0.4 0 0.8-0.2 1-0.6s0.3-0.9 0.3-1.5c0-0.6-0.1-1.2-0.3-1.5 -0.2-0.4-0.6-0.6-1-0.6 -0.5 0-0.8 0.2-1 0.6C262.5 232.1 262.4 232.6 262.4 233.3z" class="f"/><path d="M268.4 238.3c0-0.6 0.4-1.1 1.1-1.5v-0.1c-0.2-0.1-0.4-0.3-0.5-0.5 -0.1-0.2-0.2-0.5-0.2-0.8 0-0.3 0.1-0.5 0.2-0.8s0.4-0.5 0.6-0.6v-0.1c-0.3-0.2-0.5-0.4-0.7-0.8s-0.3-0.7-0.3-1.2c0-0.4 0.1-0.8 0.3-1.2s0.4-0.6 0.7-0.8c0.3-0.2 0.6-0.4 1-0.5 0.4-0.1 0.8-0.2 1.2-0.2 0.4 0 0.8 0.1 1.2 0.2h2.7v1.6h-1.2c0.1 0.1 0.1 0.3 0.2 0.4 0 0.2 0.1 0.4 0.1 0.6 0 0.4-0.1 0.8-0.2 1.1s-0.4 0.6-0.6 0.8c-0.3 0.2-0.6 0.4-0.9 0.5s-0.7 0.2-1.1 0.2c-0.3 0-0.6 0-0.9-0.1 -0.1 0.1-0.2 0.2-0.2 0.2 0 0.1-0.1 0.2-0.1 0.3 0 0.2 0.1 0.3 0.2 0.4 0.2 0.1 0.5 0.1 0.9 0.1h1.2c0.9 0 1.6 0.1 2.1 0.4 0.5 0.3 0.7 0.8 0.7 1.4 0 0.4-0.1 0.7-0.3 1.1s-0.5 0.6-0.8 0.8c-0.4 0.2-0.8 0.4-1.3 0.6 -0.5 0.1-1.1 0.2-1.7 0.2 -0.4 0-0.8 0-1.2-0.1 -0.4-0.1-0.7-0.2-1-0.3 -0.3-0.1-0.5-0.3-0.7-0.6C268.5 238.9 268.4 238.6 268.4 238.3zM270.2 237.9c0 0.3 0.1 0.5 0.5 0.6 0.3 0.1 0.7 0.2 1.2 0.2s0.9-0.1 1.2-0.3 0.5-0.4 0.5-0.7c0-0.2-0.1-0.4-0.3-0.5s-0.5-0.1-0.8-0.1h-0.8c-0.3 0-0.5 0-0.6 0 -0.2 0-0.3 0-0.4-0.1C270.4 237.5 270.2 237.7 270.2 237.9zM271.7 233.3c0.3 0 0.5-0.1 0.7-0.3 0.2-0.2 0.3-0.5 0.3-0.9 0-0.4-0.1-0.7-0.3-0.9 -0.2-0.2-0.4-0.3-0.7-0.3s-0.5 0.1-0.7 0.3c-0.2 0.2-0.3 0.5-0.3 0.9 0 0.4 0.1 0.7 0.3 0.9C271.2 233.2 271.4 233.3 271.7 233.3z" class="f"/><path d="M276.2 233.3c0-0.6 0.1-1.1 0.3-1.6 0.2-0.5 0.5-0.9 0.8-1.2 0.3-0.3 0.7-0.6 1.1-0.8 0.4-0.2 0.9-0.3 1.3-0.3 0.5 0 1 0.1 1.4 0.3 0.4 0.2 0.7 0.4 1 0.8 0.3 0.3 0.5 0.7 0.6 1.1 0.1 0.4 0.2 0.9 0.2 1.4 0 0.2 0 0.4 0 0.5s0 0.3-0.1 0.4h-4.5c0.1 0.6 0.3 1 0.7 1.2 0.3 0.3 0.8 0.4 1.3 0.4 0.5 0 1.1-0.2 1.6-0.5l0.7 1.3c-0.4 0.3-0.8 0.5-1.3 0.6 -0.5 0.2-0.9 0.2-1.4 0.2 -0.5 0-1-0.1-1.5-0.3s-0.9-0.4-1.2-0.8c-0.3-0.3-0.6-0.7-0.8-1.2S276.2 233.9 276.2 233.3zM281 232.5c0-0.4-0.1-0.8-0.3-1 -0.2-0.3-0.5-0.4-1-0.4 -0.4 0-0.7 0.1-0.9 0.4s-0.4 0.6-0.5 1.1H281z" class="f"/><path d="M284.4 231.3h-1v-1.6l1.1-0.1 0.3-2h1.8v2h1.8v1.7h-1.8v3c0 0.4 0.1 0.7 0.3 0.9 0.2 0.2 0.4 0.3 0.7 0.3 0.1 0 0.2 0 0.4 0 0.1 0 0.2-0.1 0.3-0.1l0.3 1.6c-0.2 0.1-0.4 0.1-0.7 0.2s-0.6 0.1-0.9 0.1c-0.5 0-0.9-0.1-1.2-0.2 -0.3-0.1-0.6-0.3-0.8-0.6 -0.2-0.2-0.4-0.6-0.4-0.9 -0.1-0.4-0.1-0.7-0.1-1.2V231.3z" class="f"/><path d="M289.9 226.5h2.2v2.6l-0.1 1.3c0.3-0.2 0.6-0.5 1-0.7s0.8-0.3 1.3-0.3c0.8 0 1.4 0.3 1.8 0.8 0.4 0.5 0.5 1.3 0.5 2.2v4.6h-2.2v-4.3c0-0.5-0.1-0.9-0.2-1.1 -0.1-0.2-0.4-0.3-0.7-0.3 -0.3 0-0.5 0.1-0.7 0.2 -0.2 0.1-0.4 0.3-0.7 0.5v5h-2.2V226.5z" class="f"/><path d="M298 233.3c0-0.6 0.1-1.1 0.3-1.6 0.2-0.5 0.5-0.9 0.8-1.2 0.3-0.3 0.7-0.6 1.1-0.8 0.4-0.2 0.9-0.3 1.3-0.3 0.5 0 1 0.1 1.4 0.3 0.4 0.2 0.7 0.4 1 0.8 0.3 0.3 0.5 0.7 0.6 1.1 0.1 0.4 0.2 0.9 0.2 1.4 0 0.2 0 0.4 0 0.5s0 0.3-0.1 0.4h-4.5c0.1 0.6 0.3 1 0.7 1.2 0.3 0.3 0.8 0.4 1.3 0.4 0.5 0 1.1-0.2 1.6-0.5l0.7 1.3c-0.4 0.3-0.8 0.5-1.3 0.6 -0.5 0.2-0.9 0.2-1.4 0.2 -0.5 0-1-0.1-1.5-0.3s-0.9-0.4-1.2-0.8c-0.3-0.3-0.6-0.7-0.8-1.2S298 233.9 298 233.3zM302.8 232.5c0-0.4-0.1-0.8-0.3-1 -0.2-0.3-0.5-0.4-1-0.4 -0.4 0-0.7 0.1-0.9 0.4s-0.4 0.6-0.5 1.1H302.8z" class="f"/><path d="M306.2 229.6h1.8l0.1 1.3h0.1c0.3-0.5 0.6-0.9 1-1.1 0.4-0.2 0.8-0.4 1.1-0.4 0.2 0 0.4 0 0.5 0s0.3 0.1 0.4 0.1l-0.4 1.9c-0.1 0-0.3-0.1-0.4-0.1 -0.1 0-0.3 0-0.4 0 -0.3 0-0.6 0.1-0.9 0.3 -0.3 0.2-0.6 0.6-0.8 1.1v4.3h-2.2V229.6z" class="f"/><path d="M186.7 310.2h3.6c0.5 0 1 0.1 1.5 0.2 0.5 0.1 0.9 0.3 1.2 0.5 0.3 0.2 0.6 0.6 0.8 1 0.2 0.4 0.3 0.9 0.3 1.5 0 0.6-0.1 1.1-0.3 1.5 -0.2 0.4-0.5 0.8-0.8 1 -0.3 0.3-0.8 0.5-1.2 0.6s-0.9 0.2-1.5 0.2h-1.4v3.3h-2.2V310.2zM190.2 314.9c1.2 0 1.8-0.5 1.8-1.6 0-0.5-0.2-0.9-0.5-1.1 -0.3-0.2-0.8-0.3-1.3-0.3h-1.2v3H190.2z" class="f"/><path d="M194.9 316.3c0-0.6 0.1-1.1 0.3-1.6s0.5-0.9 0.8-1.2c0.3-0.3 0.7-0.6 1.1-0.8 0.4-0.2 0.9-0.3 1.3-0.3 0.5 0 1 0.1 1.4 0.3 0.4 0.2 0.7 0.4 1 0.8 0.3 0.3 0.5 0.7 0.6 1.1 0.1 0.4 0.2 0.9 0.2 1.4 0 0.2 0 0.4 0 0.5 0 0.2 0 0.3-0.1 0.4h-4.5c0.1 0.6 0.3 1 0.7 1.2 0.3 0.3 0.8 0.4 1.3 0.4 0.5 0 1.1-0.2 1.6-0.5l0.7 1.3c-0.4 0.3-0.8 0.5-1.3 0.6 -0.5 0.1-0.9 0.2-1.4 0.2 -0.5 0-1-0.1-1.5-0.3 -0.5-0.2-0.9-0.4-1.2-0.8 -0.3-0.3-0.6-0.7-0.8-1.2C195 317.5 194.9 316.9 194.9 316.3zM199.7 315.5c0-0.4-0.1-0.8-0.3-1 -0.2-0.3-0.5-0.4-1-0.4 -0.4 0-0.7 0.1-0.9 0.4 -0.3 0.2-0.4 0.6-0.5 1.1H199.7z" class="f"/><path d="M203.1 312.6h1.8l0.2 1.3h0.1c0.3-0.5 0.6-0.9 1-1.1 0.4-0.2 0.8-0.4 1.1-0.4 0.2 0 0.4 0 0.5 0 0.1 0 0.3 0.1 0.4 0.1l-0.4 1.9c-0.1 0-0.3-0.1-0.4-0.1 -0.1 0-0.3 0-0.4 0 -0.3 0-0.6 0.1-0.9 0.3 -0.3 0.2-0.6 0.6-0.8 1.1v4.3h-2.2V312.6z" class="f"/><path d="M209.2 317.8c0.3 0.3 0.7 0.5 1 0.6 0.3 0.1 0.6 0.2 0.9 0.2 0.3 0 0.6-0.1 0.7-0.2 0.2-0.1 0.2-0.3 0.2-0.5 0-0.1 0-0.2-0.1-0.3 -0.1-0.1-0.2-0.2-0.3-0.3s-0.3-0.2-0.5-0.2c-0.2-0.1-0.4-0.1-0.6-0.2 -0.2-0.1-0.5-0.2-0.7-0.3s-0.4-0.3-0.6-0.4 -0.3-0.4-0.5-0.6c-0.1-0.2-0.2-0.5-0.2-0.8 0-0.3 0.1-0.7 0.2-0.9 0.1-0.3 0.3-0.5 0.6-0.7 0.3-0.2 0.6-0.4 0.9-0.5 0.4-0.1 0.7-0.2 1.2-0.2 0.6 0 1.1 0.1 1.5 0.3 0.4 0.2 0.8 0.4 1.1 0.7l-1 1.3c-0.3-0.2-0.5-0.4-0.8-0.5 -0.3-0.1-0.5-0.2-0.8-0.2 -0.6 0-0.8 0.2-0.8 0.6 0 0.1 0 0.2 0.1 0.3 0.1 0.1 0.2 0.2 0.3 0.2 0.1 0.1 0.3 0.1 0.5 0.2 0.2 0.1 0.4 0.1 0.5 0.2 0.2 0.1 0.5 0.2 0.7 0.3 0.2 0.1 0.5 0.3 0.6 0.4 0.2 0.2 0.4 0.4 0.5 0.6s0.2 0.5 0.2 0.9 -0.1 0.7-0.2 0.9c-0.1 0.3-0.3 0.5-0.6 0.8 -0.3 0.2-0.6 0.4-1 0.5 -0.4 0.1-0.8 0.2-1.3 0.2 -0.5 0-1-0.1-1.5-0.3 -0.5-0.2-1-0.4-1.3-0.7L209.2 317.8z" class="f"/><path d="M216.6 311.5c-0.4 0-0.7-0.1-0.9-0.3 -0.2-0.2-0.4-0.5-0.4-0.8s0.1-0.6 0.4-0.8c0.2-0.2 0.5-0.3 0.9-0.3 0.4 0 0.7 0.1 0.9 0.3 0.2 0.2 0.4 0.5 0.4 0.8s-0.1 0.6-0.4 0.8C217.3 311.4 217 311.5 216.6 311.5zM215.6 312.6h2.2v7.4h-2.2V312.6z" class="f"/><path d="M220 317.8c0.3 0.3 0.7 0.5 1 0.6 0.3 0.1 0.6 0.2 0.9 0.2 0.3 0 0.6-0.1 0.7-0.2 0.2-0.1 0.2-0.3 0.2-0.5 0-0.1 0-0.2-0.1-0.3 -0.1-0.1-0.2-0.2-0.3-0.3s-0.3-0.2-0.5-0.2c-0.2-0.1-0.4-0.1-0.6-0.2 -0.2-0.1-0.5-0.2-0.7-0.3s-0.4-0.3-0.6-0.4 -0.3-0.4-0.5-0.6c-0.1-0.2-0.2-0.5-0.2-0.8 0-0.3 0.1-0.7 0.2-0.9 0.1-0.3 0.3-0.5 0.6-0.7 0.3-0.2 0.6-0.4 0.9-0.5 0.4-0.1 0.7-0.2 1.2-0.2 0.6 0 1.1 0.1 1.5 0.3 0.4 0.2 0.8 0.4 1.1 0.7l-1 1.3c-0.3-0.2-0.5-0.4-0.8-0.5 -0.3-0.1-0.5-0.2-0.8-0.2 -0.6 0-0.8 0.2-0.8 0.6 0 0.1 0 0.2 0.1 0.3 0.1 0.1 0.2 0.2 0.3 0.2 0.1 0.1 0.3 0.1 0.5 0.2 0.2 0.1 0.4 0.1 0.5 0.2 0.2 0.1 0.5 0.2 0.7 0.3 0.2 0.1 0.5 0.3 0.6 0.4 0.2 0.2 0.4 0.4 0.5 0.6s0.2 0.5 0.2 0.9 -0.1 0.7-0.2 0.9c-0.1 0.3-0.3 0.5-0.6 0.8 -0.3 0.2-0.6 0.4-1 0.5 -0.4 0.1-0.8 0.2-1.3 0.2 -0.5 0-1-0.1-1.5-0.3 -0.5-0.2-1-0.4-1.3-0.7L220 317.8z" class="f"/><path d="M226.6 314.3h-1v-1.6l1.1-0.1 0.3-2h1.8v2h1.8v1.7h-1.8v3c0 0.4 0.1 0.7 0.3 0.9 0.2 0.2 0.4 0.3 0.7 0.3 0.1 0 0.2 0 0.4 0 0.1 0 0.2-0.1 0.3-0.1l0.3 1.6c-0.2 0.1-0.4 0.1-0.7 0.2s-0.6 0.1-0.9 0.1c-0.5 0-0.9-0.1-1.2-0.2 -0.3-0.1-0.6-0.3-0.8-0.6 -0.2-0.2-0.4-0.6-0.4-0.9 -0.1-0.4-0.1-0.7-0.1-1.2V314.3z" class="f"/><path d="M231.5 316.3c0-0.6 0.1-1.1 0.3-1.6s0.5-0.9 0.8-1.2c0.3-0.3 0.7-0.6 1.1-0.8 0.4-0.2 0.9-0.3 1.3-0.3 0.5 0 1 0.1 1.4 0.3 0.4 0.2 0.7 0.4 1 0.8 0.3 0.3 0.5 0.7 0.6 1.1 0.1 0.4 0.2 0.9 0.2 1.4 0 0.2 0 0.4 0 0.5 0 0.2 0 0.3-0.1 0.4h-4.5c0.1 0.6 0.3 1 0.7 1.2 0.3 0.3 0.8 0.4 1.3 0.4 0.5 0 1.1-0.2 1.6-0.5l0.7 1.3c-0.4 0.3-0.8 0.5-1.3 0.6 -0.5 0.1-0.9 0.2-1.4 0.2 -0.5 0-1-0.1-1.5-0.3 -0.5-0.2-0.9-0.4-1.2-0.8 -0.3-0.3-0.6-0.7-0.8-1.2C231.6 317.5 231.5 316.9 231.5 316.3zM236.3 315.5c0-0.4-0.1-0.8-0.3-1 -0.2-0.3-0.5-0.4-1-0.4 -0.4 0-0.7 0.1-0.9 0.4 -0.3 0.2-0.4 0.6-0.5 1.1H236.3z" class="f"/><path d="M239.3 316.3c0-0.6 0.1-1.2 0.3-1.6 0.2-0.5 0.4-0.9 0.7-1.2 0.3-0.3 0.6-0.6 1-0.8 0.4-0.2 0.8-0.3 1.1-0.3 0.4 0 0.8 0.1 1 0.2s0.5 0.3 0.8 0.6l-0.1-1.1V309.5h2.2v10.5h-1.8l-0.1-0.7h-0.1c-0.3 0.3-0.6 0.5-0.9 0.7 -0.3 0.2-0.7 0.3-1.1 0.3 -0.5 0-0.9-0.1-1.3-0.3 -0.4-0.2-0.7-0.4-1-0.8 -0.3-0.3-0.5-0.7-0.6-1.2C239.4 317.4 239.3 316.9 239.3 316.3zM241.6 316.3c0 0.7 0.1 1.3 0.4 1.6 0.2 0.3 0.6 0.5 1 0.5 0.2 0 0.5 0 0.7-0.1 0.2-0.1 0.4-0.3 0.6-0.5v-3c-0.2-0.2-0.4-0.3-0.6-0.4s-0.4-0.1-0.6-0.1c-0.3 0-0.7 0.2-0.9 0.5S241.6 315.6 241.6 316.3z" class="f"/><path d="M253.6 320.6v2.2h-2.2v-10.2h1.8l0.1 0.7h0.1c0.3-0.3 0.6-0.5 1-0.7s0.7-0.3 1.1-0.3c0.4 0 0.9 0.1 1.2 0.3 0.4 0.2 0.7 0.4 0.9 0.8s0.4 0.7 0.6 1.2 0.2 1 0.2 1.6c0 0.6-0.1 1.2-0.3 1.7 -0.2 0.5-0.4 0.9-0.7 1.3 -0.3 0.3-0.6 0.6-1 0.8 -0.4 0.2-0.8 0.3-1.2 0.3 -0.3 0-0.6-0.1-0.9-0.2s-0.6-0.3-0.8-0.6L253.6 320.6zM253.6 317.9c0.2 0.2 0.4 0.3 0.6 0.4 0.2 0.1 0.4 0.1 0.6 0.1 0.4 0 0.7-0.2 1-0.5 0.3-0.3 0.4-0.9 0.4-1.7 0-1.3-0.4-2-1.3-2 -0.4 0-0.9 0.2-1.3 0.7V317.9z" class="f"/><path d="M259.6 317.9c0-0.8 0.3-1.4 1-1.8 0.7-0.4 1.7-0.7 3.2-0.9 0-0.3-0.1-0.6-0.3-0.8 -0.2-0.2-0.5-0.3-0.9-0.3 -0.3 0-0.6 0.1-1 0.2 -0.3 0.1-0.7 0.3-1 0.5l-0.8-1.5c0.5-0.3 1-0.5 1.5-0.7 0.5-0.2 1.1-0.3 1.7-0.3 1 0 1.7 0.3 2.2 0.8 0.5 0.5 0.8 1.4 0.8 2.5v4.3h-1.8l-0.2-0.8h0c-0.3 0.3-0.7 0.5-1 0.7 -0.4 0.2-0.7 0.3-1.2 0.3 -0.3 0-0.6-0.1-0.9-0.2 -0.3-0.1-0.5-0.3-0.7-0.5 -0.2-0.2-0.3-0.4-0.4-0.7C259.6 318.6 259.6 318.3 259.6 317.9zM261.7 317.8c0 0.2 0.1 0.4 0.2 0.5 0.2 0.1 0.4 0.2 0.6 0.2 0.3 0 0.5-0.1 0.7-0.2 0.2-0.1 0.4-0.3 0.6-0.5v-1.3c-0.8 0.1-1.3 0.3-1.6 0.5C261.8 317.2 261.7 317.5 261.7 317.8z" class="f"/><path d="M268.2 317.8c0.3 0.3 0.7 0.5 1 0.6 0.3 0.1 0.6 0.2 0.9 0.2 0.3 0 0.6-0.1 0.7-0.2 0.2-0.1 0.2-0.3 0.2-0.5 0-0.1 0-0.2-0.1-0.3 -0.1-0.1-0.2-0.2-0.3-0.3 -0.1-0.1-0.3-0.2-0.5-0.2 -0.2-0.1-0.4-0.1-0.6-0.2 -0.2-0.1-0.5-0.2-0.7-0.3 -0.2-0.1-0.4-0.3-0.6-0.4 -0.2-0.2-0.3-0.4-0.5-0.6 -0.1-0.2-0.2-0.5-0.2-0.8 0-0.3 0.1-0.7 0.2-0.9 0.1-0.3 0.3-0.5 0.6-0.7 0.2-0.2 0.6-0.4 0.9-0.5 0.4-0.1 0.7-0.2 1.2-0.2 0.6 0 1.1 0.1 1.5 0.3s0.8 0.4 1.1 0.7l-1 1.3c-0.3-0.2-0.5-0.4-0.8-0.5 -0.3-0.1-0.5-0.2-0.8-0.2 -0.6 0-0.8 0.2-0.8 0.6 0 0.1 0 0.2 0.1 0.3 0.1 0.1 0.2 0.2 0.3 0.2 0.1 0.1 0.3 0.1 0.5 0.2 0.2 0.1 0.4 0.1 0.5 0.2 0.2 0.1 0.5 0.2 0.7 0.3 0.2 0.1 0.4 0.3 0.6 0.4s0.4 0.4 0.5 0.6c0.1 0.2 0.2 0.5 0.2 0.9s-0.1 0.7-0.2 0.9c-0.1 0.3-0.3 0.5-0.6 0.8 -0.3 0.2-0.6 0.4-1 0.5 -0.4 0.1-0.8 0.2-1.3 0.2 -0.5 0-1-0.1-1.5-0.3 -0.5-0.2-1-0.4-1.3-0.7L268.2 317.8z" class="f"/><path d="M274.8 317.8c0.3 0.3 0.7 0.5 1 0.6 0.3 0.1 0.6 0.2 0.9 0.2 0.3 0 0.6-0.1 0.7-0.2 0.2-0.1 0.2-0.3 0.2-0.5 0-0.1 0-0.2-0.1-0.3 -0.1-0.1-0.2-0.2-0.3-0.3s-0.3-0.2-0.5-0.2c-0.2-0.1-0.4-0.1-0.6-0.2 -0.2-0.1-0.5-0.2-0.7-0.3s-0.4-0.3-0.6-0.4 -0.3-0.4-0.5-0.6c-0.1-0.2-0.2-0.5-0.2-0.8 0-0.3 0.1-0.7 0.2-0.9s0.3-0.5 0.6-0.7c0.2-0.2 0.5-0.4 0.9-0.5 0.4-0.1 0.7-0.2 1.2-0.2 0.6 0 1.1 0.1 1.5 0.3 0.4 0.2 0.8 0.4 1.1 0.7l-1 1.3c-0.3-0.2-0.5-0.4-0.8-0.5 -0.3-0.1-0.5-0.2-0.8-0.2 -0.6 0-0.8 0.2-0.8 0.6 0 0.1 0 0.2 0.1 0.3 0.1 0.1 0.2 0.2 0.3 0.2 0.1 0.1 0.3 0.1 0.5 0.2 0.2 0.1 0.4 0.1 0.5 0.2 0.2 0.1 0.5 0.2 0.7 0.3 0.2 0.1 0.4 0.3 0.6 0.4s0.4 0.4 0.5 0.6 0.2 0.5 0.2 0.9 -0.1 0.7-0.2 0.9c-0.1 0.3-0.3 0.5-0.6 0.8 -0.3 0.2-0.6 0.4-1 0.5 -0.4 0.1-0.8 0.2-1.3 0.2 -0.5 0-1-0.1-1.5-0.3 -0.5-0.2-1-0.4-1.3-0.7L274.8 317.8z" class="f"/><path d="M280.5 312.6h2.2l0.7 3.5c0.1 0.4 0.1 0.7 0.2 1.1 0.1 0.4 0.1 0.7 0.2 1.1h0.1c0.1-0.4 0.1-0.8 0.2-1.1 0.1-0.4 0.1-0.7 0.2-1.1l0.8-3.4h1.9l0.8 3.5c0.1 0.4 0.2 0.7 0.2 1.1 0.1 0.4 0.1 0.7 0.2 1.1h0.1c0.1-0.4 0.1-0.7 0.2-1.1 0-0.4 0.1-0.7 0.2-1.1l0.7-3.4h2l-1.8 7.4h-2.6l-0.7-3c-0.1-0.3-0.1-0.7-0.2-1.1 -0.1-0.3-0.1-0.7-0.2-1.1h-0.1c-0.1 0.4-0.1 0.8-0.2 1.1 -0.1 0.4-0.1 0.7-0.2 1.1l-0.7 3h-2.5L280.5 312.6z" class="f"/><path d="M292.2 316.3c0-0.6 0.1-1.2 0.3-1.7 0.2-0.5 0.5-0.9 0.8-1.2s0.7-0.6 1.2-0.8c0.4-0.2 0.9-0.3 1.4-0.3s0.9 0.1 1.4 0.3 0.8 0.4 1.2 0.8c0.3 0.3 0.6 0.7 0.8 1.2 0.2 0.5 0.3 1 0.3 1.7s-0.1 1.2-0.3 1.7c-0.2 0.5-0.5 0.9-0.8 1.2 -0.3 0.3-0.7 0.6-1.2 0.8 -0.4 0.2-0.9 0.3-1.4 0.3s-0.9-0.1-1.4-0.3c-0.4-0.2-0.8-0.4-1.2-0.8s-0.6-0.7-0.8-1.2S292.2 316.9 292.2 316.3zM294.5 316.3c0 0.7 0.1 1.2 0.3 1.5s0.6 0.6 1 0.6c0.5 0 0.8-0.2 1-0.6 0.2-0.4 0.3-0.9 0.3-1.5s-0.1-1.2-0.3-1.5c-0.2-0.4-0.6-0.6-1-0.6 -0.5 0-0.8 0.2-1 0.6C294.6 315.1 294.5 315.6 294.5 316.3z" class="f"/><path d="M301 312.6h1.8l0.1 1.3h0.1c0.3-0.5 0.6-0.9 1-1.1 0.4-0.2 0.8-0.4 1.1-0.4 0.2 0 0.4 0 0.5 0 0.1 0 0.3 0.1 0.4 0.1l-0.4 1.9c-0.1 0-0.3-0.1-0.4-0.1 -0.1 0-0.3 0-0.4 0 -0.3 0-0.6 0.1-0.9 0.3 -0.3 0.2-0.6 0.6-0.8 1.1v4.3h-2.2V312.6z" class="f"/><path d="M306.4 316.3c0-0.6 0.1-1.2 0.3-1.6 0.2-0.5 0.4-0.9 0.7-1.2 0.3-0.3 0.6-0.6 1-0.8 0.4-0.2 0.8-0.3 1.1-0.3 0.4 0 0.8 0.1 1 0.2s0.5 0.3 0.8 0.6l-0.1-1.1V309.5h2.2v10.5h-1.8l-0.1-0.7h-0.1c-0.3 0.3-0.6 0.5-0.9 0.7 -0.3 0.2-0.7 0.3-1.1 0.3 -0.5 0-0.9-0.1-1.3-0.3 -0.4-0.2-0.7-0.4-1-0.8 -0.3-0.3-0.5-0.7-0.6-1.2C306.5 317.4 306.4 316.9 306.4 316.3zM308.7 316.3c0 0.7 0.1 1.3 0.4 1.6 0.2 0.3 0.6 0.5 1 0.5 0.2 0 0.5 0 0.7-0.1 0.2-0.1 0.4-0.3 0.6-0.5v-3c-0.2-0.2-0.4-0.3-0.6-0.4s-0.4-0.1-0.6-0.1c-0.3 0-0.7 0.2-0.9 0.5S308.7 315.6 308.7 316.3z" class="f"/><path d="M220.1 329.5c-0.4 0-0.7-0.1-0.9-0.3 -0.2-0.2-0.4-0.5-0.4-0.8s0.1-0.6 0.4-0.8c0.2-0.2 0.5-0.3 0.9-0.3 0.4 0 0.7 0.1 0.9 0.3 0.2 0.2 0.4 0.5 0.4 0.8s-0.1 0.6-0.4 0.8C220.8 329.4 220.5 329.5 220.1 329.5zM219 330.6h2.2v7.4h-2.2V330.6z" class="f"/><path d="M223.5 335.8c0.3 0.3 0.7 0.5 1 0.6 0.3 0.1 0.6 0.2 0.9 0.2 0.3 0 0.6-0.1 0.7-0.2 0.2-0.1 0.2-0.3 0.2-0.5 0-0.1 0-0.2-0.1-0.3 -0.1-0.1-0.2-0.2-0.3-0.3s-0.3-0.2-0.5-0.2c-0.2-0.1-0.4-0.1-0.6-0.2 -0.2-0.1-0.5-0.2-0.7-0.3s-0.4-0.3-0.6-0.4 -0.3-0.4-0.5-0.6c-0.1-0.2-0.2-0.5-0.2-0.8 0-0.3 0.1-0.7 0.2-0.9 0.1-0.3 0.3-0.5 0.6-0.7 0.3-0.2 0.6-0.4 0.9-0.5 0.4-0.1 0.7-0.2 1.2-0.2 0.6 0 1.1 0.1 1.5 0.3 0.4 0.2 0.8 0.4 1.1 0.7l-1 1.3c-0.3-0.2-0.5-0.4-0.8-0.5 -0.3-0.1-0.5-0.2-0.8-0.2 -0.6 0-0.8 0.2-0.8 0.6 0 0.1 0 0.2 0.1 0.3 0.1 0.1 0.2 0.2 0.3 0.2 0.1 0.1 0.3 0.1 0.5 0.2 0.2 0.1 0.4 0.1 0.5 0.2 0.2 0.1 0.5 0.2 0.7 0.3 0.2 0.1 0.5 0.3 0.6 0.4 0.2 0.2 0.4 0.4 0.5 0.6s0.2 0.5 0.2 0.9 -0.1 0.7-0.2 0.9c-0.1 0.3-0.3 0.5-0.6 0.8 -0.3 0.2-0.6 0.4-1 0.5 -0.4 0.1-0.8 0.2-1.3 0.2 -0.5 0-1-0.1-1.5-0.3 -0.5-0.2-1-0.4-1.3-0.7L223.5 335.8z" class="f"/><path d="M237.1 329.2c-0.3-0.1-0.5-0.1-0.8-0.1 -0.3 0-0.5 0.1-0.6 0.2 -0.1 0.2-0.2 0.4-0.2 0.8v0.4h1.3v1.7h-1.3v5.7h-2.2V332.3h-1v-1.6l1-0.1v-0.4c0-0.4 0-0.8 0.1-1.1 0.1-0.3 0.3-0.7 0.5-0.9 0.2-0.3 0.5-0.5 0.9-0.6s0.8-0.2 1.3-0.2c0.3 0 0.6 0 0.8 0.1 0.3 0.1 0.5 0.1 0.6 0.2L237.1 329.2z" class="f"/><path d="M237.5 334.3c0-0.6 0.1-1.1 0.3-1.6s0.5-0.9 0.8-1.2c0.3-0.3 0.7-0.6 1.1-0.8 0.4-0.2 0.9-0.3 1.3-0.3 0.5 0 1 0.1 1.4 0.3 0.4 0.2 0.7 0.4 1 0.8 0.3 0.3 0.5 0.7 0.6 1.1 0.1 0.4 0.2 0.9 0.2 1.4 0 0.2 0 0.4 0 0.5 0 0.2 0 0.3-0.1 0.4h-4.5c0.1 0.6 0.3 1 0.7 1.2 0.3 0.3 0.8 0.4 1.3 0.4 0.5 0 1.1-0.2 1.6-0.5l0.7 1.3c-0.4 0.3-0.8 0.5-1.3 0.6 -0.5 0.1-0.9 0.2-1.4 0.2 -0.5 0-1-0.1-1.5-0.3 -0.5-0.2-0.9-0.4-1.2-0.8 -0.3-0.3-0.6-0.7-0.8-1.2C237.6 335.5 237.5 334.9 237.5 334.3zM242.3 333.5c0-0.4-0.1-0.8-0.3-1 -0.2-0.3-0.5-0.4-1-0.4 -0.4 0-0.7 0.1-0.9 0.4 -0.3 0.2-0.4 0.6-0.5 1.1H242.3z" class="f"/><path d="M245.7 332.3h-1v-1.6l1.1-0.1 0.3-2h1.8v2h1.8v1.7H247.9v3c0 0.4 0.1 0.7 0.3 0.9 0.2 0.2 0.4 0.3 0.7 0.3 0.1 0 0.2 0 0.4 0 0.1 0 0.2-0.1 0.3-0.1l0.3 1.6c-0.2 0.1-0.4 0.1-0.7 0.2s-0.6 0.1-0.9 0.1c-0.5 0-0.9-0.1-1.2-0.2 -0.3-0.1-0.6-0.3-0.8-0.6 -0.2-0.2-0.4-0.6-0.4-0.9 -0.1-0.4-0.1-0.7-0.1-1.2V332.3z" class="f"/><path d="M250.6 334.3c0-0.6 0.1-1.2 0.3-1.7 0.2-0.5 0.5-0.9 0.8-1.2s0.8-0.6 1.2-0.8 1-0.3 1.5-0.3c0.5 0 0.9 0.1 1.2 0.2 0.4 0.2 0.7 0.4 0.9 0.6l-1 1.4c-0.4-0.3-0.7-0.4-1-0.4 -0.5 0-1 0.2-1.3 0.6 -0.3 0.4-0.5 0.9-0.5 1.5s0.2 1.2 0.5 1.5c0.3 0.4 0.7 0.6 1.2 0.6 0.3 0 0.5-0.1 0.7-0.2 0.2-0.1 0.4-0.2 0.6-0.4l0.9 1.4c-0.4 0.3-0.8 0.6-1.2 0.7 -0.4 0.1-0.9 0.2-1.3 0.2 -0.5 0-1-0.1-1.4-0.3 -0.4-0.2-0.8-0.4-1.2-0.8s-0.6-0.7-0.8-1.2C250.7 335.5 250.6 334.9 250.6 334.3z" class="f"/><path d="M258 327.5h2.2v2.6l-0.1 1.3c0.3-0.2 0.6-0.5 1-0.7 0.4-0.2 0.8-0.3 1.3-0.3 0.8 0 1.4 0.3 1.8 0.8 0.4 0.5 0.5 1.3 0.5 2.2v4.6h-2.2v-4.3c0-0.5-0.1-0.9-0.2-1.1 -0.1-0.2-0.4-0.3-0.7-0.3 -0.3 0-0.5 0.1-0.7 0.2 -0.2 0.1-0.4 0.3-0.7 0.5v5h-2.2V327.5z" class="f"/><path d="M266.1 334.3c0-0.6 0.1-1.1 0.3-1.6s0.5-0.9 0.8-1.2c0.3-0.3 0.7-0.6 1.1-0.8 0.4-0.2 0.9-0.3 1.3-0.3 0.5 0 1 0.1 1.4 0.3 0.4 0.2 0.7 0.4 1 0.8 0.3 0.3 0.5 0.7 0.6 1.1 0.1 0.4 0.2 0.9 0.2 1.4 0 0.2 0 0.4 0 0.5 0 0.2 0 0.3-0.1 0.4h-4.5c0.1 0.6 0.3 1 0.7 1.2 0.3 0.3 0.8 0.4 1.3 0.4 0.5 0 1.1-0.2 1.6-0.5l0.7 1.3c-0.4 0.3-0.8 0.5-1.3 0.6 -0.5 0.1-0.9 0.2-1.4 0.2 -0.5 0-1-0.1-1.5-0.3 -0.5-0.2-0.9-0.4-1.2-0.8s-0.6-0.7-0.8-1.2C266.2 335.5 266.1 334.9 266.1 334.3zM270.9 333.5c0-0.4-0.1-0.8-0.3-1 -0.2-0.3-0.5-0.4-1-0.4 -0.3 0-0.7 0.1-0.9 0.4 -0.3 0.2-0.4 0.6-0.5 1.1H270.9z" class="f"/><path d="M273.9 334.3c0-0.6 0.1-1.2 0.3-1.6 0.2-0.5 0.4-0.9 0.7-1.2 0.3-0.3 0.6-0.6 1-0.8 0.4-0.2 0.8-0.3 1.1-0.3 0.4 0 0.8 0.1 1 0.2 0.3 0.1 0.5 0.3 0.8 0.6l-0.1-1.1V327.5h2.2v10.5h-1.8l-0.1-0.7h-0.1c-0.3 0.3-0.6 0.5-0.9 0.7 -0.4 0.2-0.7 0.3-1.1 0.3 -0.5 0-0.9-0.1-1.3-0.3 -0.4-0.2-0.7-0.4-1-0.8s-0.5-0.7-0.6-1.2C274 335.4 273.9 334.9 273.9 334.3zM276.2 334.3c0 0.7 0.1 1.3 0.4 1.6s0.6 0.5 1 0.5c0.2 0 0.5 0 0.7-0.1 0.2-0.1 0.4-0.3 0.6-0.5v-3c-0.2-0.2-0.4-0.3-0.6-0.4 -0.2-0.1-0.4-0.1-0.6-0.1 -0.4 0-0.7 0.2-0.9 0.5C276.3 333 276.2 333.6 276.2 334.3z" class="f"/><path d="M205 435.2h2.8c0.8 0 1.4 0.1 2 0.3 0.6 0.2 1.1 0.5 1.5 0.9 0.4 0.4 0.8 0.9 1 1.5 0.2 0.6 0.3 1.3 0.3 2.2s-0.1 1.6-0.3 2.2c-0.2 0.6-0.6 1.1-1 1.5 -0.4 0.4-0.9 0.7-1.5 0.9s-1.2 0.3-2 0.3h-2.9V435.2zM207.6 443.2c0.4 0 0.8-0.1 1.1-0.2 0.3-0.1 0.6-0.3 0.9-0.5 0.2-0.2 0.4-0.6 0.6-1 0.1-0.4 0.2-0.9 0.2-1.5 0-0.6-0.1-1.1-0.2-1.5 -0.1-0.4-0.3-0.7-0.6-0.9 -0.2-0.2-0.5-0.4-0.9-0.5s-0.7-0.1-1.1-0.1h-0.4v6.2H207.6z" class="f"/><path d="M213.9 441.3c0-0.6 0.1-1.2 0.3-1.7 0.2-0.5 0.5-0.9 0.8-1.2 0.3-0.3 0.7-0.6 1.2-0.8 0.4-0.2 0.9-0.3 1.4-0.3s0.9 0.1 1.4 0.3 0.8 0.4 1.2 0.8c0.3 0.3 0.6 0.7 0.8 1.2 0.2 0.5 0.3 1 0.3 1.7s-0.1 1.2-0.3 1.7 -0.5 0.9-0.8 1.2c-0.3 0.3-0.7 0.6-1.2 0.8 -0.4 0.2-0.9 0.3-1.4 0.3s-0.9-0.1-1.4-0.3c-0.4-0.2-0.8-0.4-1.2-0.8 -0.3-0.3-0.6-0.7-0.8-1.2S213.9 441.9 213.9 441.3zM216.1 441.3c0 0.7 0.1 1.2 0.3 1.5s0.6 0.6 1 0.6c0.5 0 0.8-0.2 1-0.6s0.3-0.9 0.3-1.5 -0.1-1.2-0.3-1.5c-0.2-0.4-0.6-0.6-1-0.6 -0.5 0-0.8 0.2-1 0.6C216.3 440.1 216.1 440.6 216.1 441.3z" class="f"/><path d="M226.1 439.3h-1v-1.6l1.1-0.1 0.3-2h1.8v2h1.8v1.7h-1.8v3c0 0.4 0.1 0.7 0.3 0.9 0.2 0.2 0.4 0.3 0.7 0.3 0.1 0 0.2 0 0.4 0 0.1 0 0.2-0.1 0.3-0.1l0.3 1.6c-0.2 0.1-0.4 0.1-0.7 0.2s-0.6 0.1-0.9 0.1c-0.5 0-0.9-0.1-1.2-0.2 -0.3-0.1-0.6-0.3-0.8-0.6 -0.2-0.2-0.4-0.6-0.4-0.9 -0.1-0.4-0.1-0.7-0.1-1.2V439.3z" class="f"/><path d="M231.5 434.5h2.2v2.6l-0.1 1.3c0.3-0.2 0.6-0.5 1-0.7s0.8-0.3 1.3-0.3c0.8 0 1.4 0.3 1.8 0.8 0.4 0.5 0.5 1.3 0.5 2.2v4.6h-2.2v-4.3c0-0.5-0.1-0.9-0.2-1.1 -0.1-0.2-0.4-0.3-0.7-0.3 -0.3 0-0.5 0.1-0.7 0.2s-0.4 0.3-0.7 0.5v5h-2.2V434.5z" class="f"/><path d="M239.6 441.3c0-0.6 0.1-1.1 0.3-1.6s0.5-0.9 0.8-1.2c0.3-0.3 0.7-0.6 1.1-0.8 0.4-0.2 0.9-0.3 1.3-0.3 0.5 0 1 0.1 1.4 0.3 0.4 0.2 0.7 0.4 1 0.8 0.3 0.3 0.5 0.7 0.6 1.1 0.1 0.4 0.2 0.9 0.2 1.4 0 0.2 0 0.4 0 0.5 0 0.2 0 0.3-0.1 0.4h-4.5c0.1 0.6 0.3 1 0.7 1.2 0.3 0.3 0.8 0.4 1.3 0.4 0.5 0 1.1-0.2 1.6-0.5l0.7 1.3c-0.4 0.3-0.8 0.5-1.3 0.6 -0.5 0.1-0.9 0.2-1.4 0.2 -0.5 0-1-0.1-1.5-0.3 -0.5-0.2-0.9-0.4-1.2-0.8 -0.3-0.3-0.6-0.7-0.8-1.2C239.7 442.5 239.6 441.9 239.6 441.3zM244.4 440.5c0-0.4-0.1-0.8-0.3-1 -0.2-0.3-0.5-0.4-1-0.4 -0.4 0-0.7 0.1-0.9 0.4 -0.3 0.2-0.4 0.6-0.5 1.1H244.4z" class="f"/><path d="M251 434.5h2.2v2.6l-0.1 1.3c0.3-0.2 0.6-0.5 1-0.7s0.8-0.3 1.3-0.3c0.8 0 1.4 0.3 1.8 0.8 0.4 0.5 0.5 1.3 0.5 2.2v4.6h-2.2v-4.3c0-0.5-0.1-0.9-0.2-1.1 -0.1-0.2-0.4-0.3-0.7-0.3 -0.3 0-0.5 0.1-0.7 0.2s-0.4 0.3-0.7 0.5v5h-2.2V434.5z" class="f"/><path d="M259.3 442.9c0-0.8 0.3-1.4 1-1.8 0.7-0.4 1.7-0.7 3.2-0.9 0-0.3-0.1-0.6-0.3-0.8 -0.2-0.2-0.5-0.3-0.9-0.3 -0.3 0-0.6 0.1-1 0.2 -0.3 0.1-0.7 0.3-1 0.5l-0.8-1.5c0.5-0.3 1-0.5 1.5-0.7 0.5-0.2 1.1-0.3 1.7-0.3 1 0 1.7 0.3 2.2 0.8 0.5 0.5 0.8 1.4 0.8 2.5v4.3h-1.8l-0.2-0.8h0c-0.3 0.3-0.7 0.5-1 0.7 -0.4 0.2-0.7 0.3-1.2 0.3 -0.3 0-0.6-0.1-0.9-0.2 -0.3-0.1-0.5-0.3-0.7-0.5 -0.2-0.2-0.3-0.4-0.4-0.7C259.3 443.6 259.3 443.3 259.3 442.9zM261.4 442.8c0 0.2 0.1 0.4 0.2 0.5 0.2 0.1 0.4 0.2 0.6 0.2 0.3 0 0.5-0.1 0.7-0.2 0.2-0.1 0.4-0.3 0.6-0.5v-1.3c-0.8 0.1-1.3 0.3-1.6 0.5C261.5 442.2 261.4 442.5 261.4 442.8z" class="f"/><path d="M267.9 442.8c0.3 0.3 0.7 0.5 1 0.6 0.3 0.1 0.6 0.2 0.9 0.2 0.3 0 0.6-0.1 0.7-0.2 0.2-0.1 0.2-0.3 0.2-0.5 0-0.1 0-0.2-0.1-0.3 -0.1-0.1-0.2-0.2-0.3-0.3 -0.1-0.1-0.3-0.2-0.5-0.2 -0.2-0.1-0.4-0.1-0.6-0.2 -0.2-0.1-0.5-0.2-0.7-0.3 -0.2-0.1-0.4-0.3-0.6-0.4 -0.2-0.2-0.3-0.4-0.5-0.6 -0.1-0.2-0.2-0.5-0.2-0.8 0-0.3 0.1-0.7 0.2-0.9 0.1-0.3 0.3-0.5 0.6-0.7 0.2-0.2 0.6-0.4 0.9-0.5 0.4-0.1 0.7-0.2 1.2-0.2 0.6 0 1.1 0.1 1.5 0.3s0.8 0.4 1.1 0.7l-1 1.3c-0.3-0.2-0.5-0.4-0.8-0.5 -0.3-0.1-0.5-0.2-0.8-0.2 -0.6 0-0.8 0.2-0.8 0.6 0 0.1 0 0.2 0.1 0.3 0.1 0.1 0.2 0.2 0.3 0.2 0.1 0.1 0.3 0.1 0.5 0.2 0.2 0.1 0.4 0.1 0.5 0.2 0.2 0.1 0.5 0.2 0.7 0.3 0.2 0.1 0.4 0.3 0.6 0.4s0.4 0.4 0.5 0.6c0.1 0.2 0.2 0.5 0.2 0.9s-0.1 0.7-0.2 0.9c-0.1 0.3-0.3 0.5-0.6 0.8 -0.3 0.2-0.6 0.4-1 0.5 -0.4 0.1-0.8 0.2-1.3 0.2 -0.5 0-1-0.1-1.5-0.3 -0.5-0.2-1-0.4-1.3-0.7L267.9 442.8z" class="f"/><path d="M274.2 434.5h2.2v2.6l-0.1 1.3c0.3-0.2 0.6-0.5 1-0.7s0.8-0.3 1.3-0.3c0.8 0 1.4 0.3 1.8 0.8 0.4 0.5 0.5 1.3 0.5 2.2v4.6h-2.2v-4.3c0-0.5-0.1-0.9-0.2-1.1 -0.1-0.2-0.4-0.3-0.7-0.3 -0.3 0-0.5 0.1-0.7 0.2s-0.4 0.3-0.7 0.5v5h-2.2V434.5z" class="f"/><path d="M282.3 441.3c0-0.6 0.1-1.1 0.3-1.6 0.2-0.5 0.5-0.9 0.8-1.2 0.3-0.3 0.7-0.6 1.1-0.8 0.4-0.2 0.9-0.3 1.3-0.3 0.5 0 1 0.1 1.4 0.3 0.4 0.2 0.7 0.4 1 0.8 0.3 0.3 0.5 0.7 0.6 1.1 0.1 0.4 0.2 0.9 0.2 1.4 0 0.2 0 0.4 0 0.5 0 0.2 0 0.3-0.1 0.4h-4.5c0.1 0.6 0.3 1 0.7 1.2 0.3 0.3 0.8 0.4 1.3 0.4 0.5 0 1.1-0.2 1.6-0.5l0.7 1.3c-0.4 0.3-0.8 0.5-1.3 0.6s-0.9 0.2-1.4 0.2c-0.5 0-1-0.1-1.5-0.3 -0.5-0.2-0.9-0.4-1.2-0.8 -0.3-0.3-0.6-0.7-0.8-1.2C282.4 442.5 282.3 441.9 282.3 441.3zM287.1 440.5c0-0.4-0.1-0.8-0.3-1 -0.2-0.3-0.5-0.4-1-0.4 -0.4 0-0.7 0.1-0.9 0.4 -0.3 0.2-0.4 0.6-0.5 1.1H287.1z" class="f"/><path d="M290.8 442.8c0.3 0.3 0.7 0.5 1 0.6 0.3 0.1 0.6 0.2 0.9 0.2 0.3 0 0.6-0.1 0.7-0.2 0.2-0.1 0.2-0.3 0.2-0.5 0-0.1 0-0.2-0.1-0.3 -0.1-0.1-0.2-0.2-0.3-0.3s-0.3-0.2-0.5-0.2c-0.2-0.1-0.4-0.1-0.6-0.2 -0.2-0.1-0.5-0.2-0.7-0.3s-0.4-0.3-0.6-0.4 -0.3-0.4-0.5-0.6c-0.1-0.2-0.2-0.5-0.2-0.8 0-0.3 0.1-0.7 0.2-0.9 0.1-0.3 0.3-0.5 0.6-0.7 0.3-0.2 0.6-0.4 0.9-0.5 0.4-0.1 0.7-0.2 1.2-0.2 0.6 0 1.1 0.1 1.5 0.3s0.8 0.4 1.1 0.7l-1 1.3c-0.3-0.2-0.5-0.4-0.8-0.5 -0.3-0.1-0.5-0.2-0.8-0.2 -0.6 0-0.8 0.2-0.8 0.6 0 0.1 0 0.2 0.1 0.3 0.1 0.1 0.2 0.2 0.3 0.2 0.1 0.1 0.3 0.1 0.5 0.2 0.2 0.1 0.4 0.1 0.5 0.2 0.2 0.1 0.5 0.2 0.7 0.3 0.2 0.1 0.5 0.3 0.6 0.4 0.2 0.2 0.4 0.4 0.5 0.6s0.2 0.5 0.2 0.9 -0.1 0.7-0.2 0.9c-0.1 0.3-0.3 0.5-0.6 0.8 -0.3 0.2-0.6 0.4-1 0.5 -0.4 0.1-0.8 0.2-1.3 0.2 -0.5 0-1-0.1-1.5-0.3 -0.5-0.2-1-0.4-1.3-0.7L290.8 442.8z" class="f"/><path d="M226.6 455.6h1.8l0.2 1h0.1c0.3-0.3 0.6-0.6 1-0.8 0.4-0.2 0.8-0.3 1.3-0.3 0.5 0 1 0.1 1.3 0.3 0.3 0.2 0.6 0.5 0.8 0.9 0.3-0.3 0.7-0.6 1-0.9 0.4-0.2 0.8-0.4 1.3-0.4 0.8 0 1.4 0.3 1.8 0.8s0.6 1.3 0.6 2.2v4.6h-2.2v-4.3c0-0.5-0.1-0.9-0.2-1.1 -0.1-0.2-0.4-0.3-0.7-0.3 -0.4 0-0.8 0.2-1.3 0.7v5h-2.2v-4.3c0-0.5-0.1-0.9-0.2-1.1 -0.1-0.2-0.4-0.3-0.7-0.3 -0.4 0-0.8 0.2-1.3 0.7v5h-2.2V455.6z" class="f"/><path d="M239.2 460.9c0-0.8 0.3-1.4 1-1.8 0.7-0.4 1.7-0.7 3.2-0.9 0-0.3-0.1-0.6-0.3-0.8 -0.2-0.2-0.5-0.3-0.9-0.3 -0.3 0-0.6 0.1-1 0.2 -0.3 0.1-0.7 0.3-1 0.5l-0.8-1.5c0.5-0.3 1-0.5 1.5-0.7 0.5-0.2 1.1-0.3 1.7-0.3 1 0 1.7 0.3 2.2 0.8 0.5 0.5 0.8 1.4 0.8 2.5v4.3h-1.8l-0.2-0.8h0c-0.3 0.3-0.7 0.5-1 0.7 -0.4 0.2-0.7 0.3-1.2 0.3 -0.3 0-0.6-0.1-0.9-0.2 -0.3-0.1-0.5-0.3-0.7-0.5 -0.2-0.2-0.3-0.4-0.4-0.7C239.2 461.6 239.2 461.3 239.2 460.9zM241.3 460.8c0 0.2 0.1 0.4 0.2 0.5 0.2 0.1 0.4 0.2 0.6 0.2 0.3 0 0.5-0.1 0.7-0.2 0.2-0.1 0.4-0.3 0.6-0.5v-1.3c-0.8 0.1-1.3 0.3-1.6 0.5C241.4 460.2 241.3 460.5 241.3 460.8z" class="f"/><path d="M247.8 457.3h-1v-1.6l1.1-0.1 0.3-2h1.8v2h1.8v1.7h-1.8v3c0 0.4 0.1 0.7 0.3 0.9 0.2 0.2 0.4 0.3 0.7 0.3 0.1 0 0.2 0 0.4 0s0.2-0.1 0.3-0.1l0.3 1.6c-0.2 0.1-0.4 0.1-0.7 0.2s-0.6 0.1-0.9 0.1c-0.5 0-0.9-0.1-1.2-0.2 -0.3-0.1-0.6-0.3-0.8-0.6 -0.2-0.2-0.4-0.6-0.4-0.9 -0.1-0.4-0.1-0.7-0.1-1.2V457.3z" class="f"/><path d="M252.6 459.3c0-0.6 0.1-1.2 0.3-1.7 0.2-0.5 0.5-0.9 0.8-1.2 0.4-0.3 0.8-0.6 1.2-0.8s1-0.3 1.5-0.3c0.5 0 0.9 0.1 1.2 0.2 0.4 0.2 0.7 0.4 0.9 0.6l-1 1.4c-0.3-0.3-0.7-0.4-1-0.4 -0.5 0-1 0.2-1.3 0.6 -0.3 0.4-0.5 0.9-0.5 1.5s0.2 1.2 0.5 1.5c0.3 0.4 0.7 0.6 1.2 0.6 0.3 0 0.5-0.1 0.7-0.2 0.2-0.1 0.4-0.2 0.6-0.4l0.9 1.4c-0.4 0.3-0.8 0.6-1.2 0.7s-0.9 0.2-1.3 0.2c-0.5 0-1-0.1-1.4-0.3 -0.4-0.2-0.8-0.4-1.2-0.8s-0.6-0.7-0.8-1.2C252.7 460.5 252.6 459.9 252.6 459.3z" class="f"/><path d="M260.1 452.5h2.2v2.6l-0.1 1.3c0.3-0.2 0.6-0.5 1-0.7 0.4-0.2 0.8-0.3 1.3-0.3 0.8 0 1.4 0.3 1.8 0.8 0.4 0.5 0.5 1.3 0.5 2.2v4.6h-2.2v-4.3c0-0.5-0.1-0.9-0.2-1.1 -0.1-0.2-0.4-0.3-0.7-0.3 -0.3 0-0.5 0.1-0.7 0.2 -0.2 0.1-0.4 0.3-0.7 0.5v5h-2.2V452.5z" class="f"/><path d="M269.7 459.6c-0.1-0.3 0-0.6 0-0.9 0.1-0.3 0.2-0.5 0.3-0.8 0.1-0.2 0.3-0.5 0.5-0.7 0.2-0.2 0.3-0.4 0.5-0.6 0.2-0.2 0.3-0.4 0.4-0.5 0.1-0.2 0.2-0.4 0.2-0.5 0-0.3-0.1-0.5-0.3-0.7 -0.2-0.2-0.4-0.2-0.7-0.2 -0.3 0-0.5 0.1-0.7 0.2s-0.4 0.3-0.6 0.5l-1.2-1.1c0.3-0.4 0.7-0.7 1.2-1s1-0.4 1.5-0.4c0.4 0 0.8 0.1 1.2 0.1 0.4 0.1 0.7 0.3 0.9 0.5s0.5 0.5 0.6 0.8c0.2 0.3 0.2 0.7 0.2 1.1 0 0.3-0.1 0.6-0.2 0.8 -0.1 0.2-0.2 0.5-0.4 0.7 -0.2 0.2-0.3 0.4-0.5 0.6 -0.2 0.2-0.4 0.4-0.5 0.6 -0.2 0.2-0.3 0.4-0.4 0.7s-0.1 0.5-0.1 0.8H269.7zM269.4 461.8c0-0.4 0.1-0.7 0.4-1 0.2-0.3 0.6-0.4 0.9-0.4s0.7 0.1 1 0.4c0.3 0.3 0.4 0.6 0.4 1 0 0.4-0.1 0.7-0.4 1 -0.3 0.3-0.6 0.4-1 0.4s-0.7-0.1-0.9-0.4C269.5 462.5 269.4 462.2 269.4 461.8z" class="f"/><path d="M356.4 110.7h3.6c0.5 0 1 0.1 1.5 0.2s0.9 0.3 1.2 0.5c0.3 0.2 0.6 0.6 0.8 1 0.2 0.4 0.3 0.9 0.3 1.5 0 0.6-0.1 1.1-0.3 1.5s-0.5 0.8-0.8 1c-0.4 0.3-0.8 0.5-1.2 0.6s-0.9 0.2-1.5 0.2h-1.4v3.3h-2.2V110.7zM359.8 115.4c1.2 0 1.8-0.5 1.8-1.6 0-0.5-0.2-0.9-0.5-1.1s-0.8-0.3-1.3-0.3h-1.2v3H359.8z" class="f"/><path d="M364.5 116.8c0-0.6 0.1-1.1 0.3-1.6 0.2-0.5 0.5-0.9 0.8-1.2 0.3-0.3 0.7-0.6 1.1-0.8 0.4-0.2 0.9-0.3 1.3-0.3 0.5 0 1 0.1 1.4 0.3 0.4 0.2 0.7 0.4 1 0.8 0.3 0.3 0.5 0.7 0.6 1.1 0.1 0.4 0.2 0.9 0.2 1.4 0 0.2 0 0.4 0 0.5 0 0.2 0 0.3-0.1 0.4h-4.5c0.1 0.6 0.3 1 0.7 1.2 0.3 0.3 0.8 0.4 1.3 0.4 0.5 0 1.1-0.2 1.6-0.5l0.7 1.3c-0.4 0.3-0.8 0.5-1.3 0.6 -0.5 0.2-0.9 0.2-1.4 0.2 -0.5 0-1-0.1-1.5-0.3 -0.5-0.2-0.9-0.4-1.2-0.8 -0.3-0.3-0.6-0.7-0.8-1.2C364.6 118 364.5 117.4 364.5 116.8zM369.3 116c0-0.4-0.1-0.8-0.3-1 -0.2-0.3-0.5-0.4-1-0.4 -0.3 0-0.7 0.1-0.9 0.4 -0.3 0.2-0.4 0.6-0.5 1.1H369.3z" class="f"/><path d="M372.7 113.1h1.8l0.1 1.3h0.1c0.3-0.5 0.6-0.9 1-1.1 0.4-0.2 0.8-0.4 1.1-0.4 0.2 0 0.4 0 0.5 0s0.3 0.1 0.4 0.1l-0.4 1.9c-0.1 0-0.3-0.1-0.4-0.1 -0.1 0-0.3 0-0.4 0 -0.3 0-0.6 0.1-0.9 0.3 -0.3 0.2-0.6 0.6-0.8 1.1v4.3h-2.2V113.1z" class="f"/><path d="M378.9 118.3c0.3 0.3 0.7 0.5 1 0.6 0.3 0.1 0.6 0.2 0.9 0.2 0.3 0 0.6-0.1 0.7-0.2 0.2-0.1 0.2-0.3 0.2-0.5 0-0.1 0-0.2-0.1-0.3 -0.1-0.1-0.2-0.2-0.3-0.3s-0.3-0.2-0.5-0.2c-0.2-0.1-0.4-0.1-0.6-0.2 -0.2-0.1-0.5-0.2-0.7-0.3s-0.4-0.3-0.6-0.4 -0.3-0.4-0.5-0.6c-0.1-0.2-0.2-0.5-0.2-0.8 0-0.3 0.1-0.7 0.2-0.9 0.1-0.3 0.3-0.5 0.6-0.7 0.3-0.2 0.6-0.4 0.9-0.5 0.4-0.1 0.7-0.2 1.2-0.2 0.6 0 1.1 0.1 1.5 0.3 0.4 0.2 0.8 0.4 1.1 0.7l-1 1.3c-0.3-0.2-0.5-0.4-0.8-0.5s-0.5-0.2-0.8-0.2c-0.6 0-0.8 0.2-0.8 0.6 0 0.1 0 0.2 0.1 0.3s0.2 0.2 0.3 0.2 0.3 0.1 0.5 0.2c0.2 0.1 0.4 0.1 0.5 0.2 0.2 0.1 0.5 0.2 0.7 0.3 0.2 0.1 0.5 0.3 0.6 0.4 0.2 0.2 0.4 0.4 0.5 0.6 0.1 0.2 0.2 0.5 0.2 0.9 0 0.3-0.1 0.7-0.2 0.9 -0.1 0.3-0.3 0.5-0.6 0.8 -0.3 0.2-0.6 0.4-1 0.5 -0.4 0.1-0.8 0.2-1.3 0.2 -0.5 0-1-0.1-1.5-0.3 -0.5-0.2-1-0.4-1.3-0.7L378.9 118.3z" class="f"/><path d="M386.3 112c-0.4 0-0.7-0.1-0.9-0.3s-0.4-0.5-0.4-0.8 0.1-0.6 0.4-0.8 0.5-0.3 0.9-0.3c0.4 0 0.7 0.1 0.9 0.3 0.2 0.2 0.4 0.5 0.4 0.8s-0.1 0.6-0.4 0.8C387 111.9 386.7 112 386.3 112zM385.2 113.1h2.2v7.4h-2.2V113.1z" class="f"/><path d="M389.7 118.3c0.3 0.3 0.7 0.5 1 0.6s0.6 0.2 0.9 0.2c0.3 0 0.6-0.1 0.7-0.2 0.2-0.1 0.2-0.3 0.2-0.5 0-0.1 0-0.2-0.1-0.3 -0.1-0.1-0.2-0.2-0.3-0.3 -0.1-0.1-0.3-0.2-0.5-0.2 -0.2-0.1-0.4-0.1-0.6-0.2 -0.2-0.1-0.5-0.2-0.7-0.3 -0.2-0.1-0.4-0.3-0.6-0.4 -0.2-0.2-0.3-0.4-0.5-0.6 -0.1-0.2-0.2-0.5-0.2-0.8 0-0.3 0.1-0.7 0.2-0.9 0.1-0.3 0.3-0.5 0.6-0.7 0.3-0.2 0.6-0.4 0.9-0.5 0.4-0.1 0.7-0.2 1.2-0.2 0.6 0 1.1 0.1 1.5 0.3 0.4 0.2 0.8 0.4 1.1 0.7l-1 1.3c-0.3-0.2-0.5-0.4-0.8-0.5 -0.3-0.1-0.5-0.2-0.8-0.2 -0.6 0-0.8 0.2-0.8 0.6 0 0.1 0 0.2 0.1 0.3s0.2 0.2 0.3 0.2 0.3 0.1 0.5 0.2c0.2 0.1 0.4 0.1 0.5 0.2 0.2 0.1 0.5 0.2 0.7 0.3 0.2 0.1 0.5 0.3 0.6 0.4 0.2 0.2 0.4 0.4 0.5 0.6 0.1 0.2 0.2 0.5 0.2 0.9 0 0.3-0.1 0.7-0.2 0.9s-0.3 0.5-0.6 0.8c-0.3 0.2-0.6 0.4-1 0.5 -0.4 0.1-0.8 0.2-1.3 0.2 -0.5 0-1-0.1-1.5-0.3 -0.5-0.2-1-0.4-1.3-0.7L389.7 118.3z" class="f"/><path d="M396.3 114.8h-1v-1.6l1.1-0.1 0.3-2h1.8v2h1.8v1.7h-1.8v3c0 0.4 0.1 0.7 0.3 0.9 0.2 0.2 0.4 0.3 0.7 0.3 0.1 0 0.2 0 0.4 0 0.1 0 0.2-0.1 0.3-0.1l0.3 1.6c-0.2 0.1-0.4 0.1-0.7 0.2s-0.6 0.1-0.9 0.1c-0.5 0-0.9-0.1-1.2-0.2 -0.3-0.1-0.6-0.3-0.8-0.6 -0.2-0.2-0.4-0.6-0.5-0.9 -0.1-0.4-0.1-0.7-0.1-1.2V114.8z" class="f"/><path d="M401.1 116.8c0-0.6 0.1-1.1 0.3-1.6 0.2-0.5 0.5-0.9 0.8-1.2 0.3-0.3 0.7-0.6 1.1-0.8 0.4-0.2 0.9-0.3 1.3-0.3 0.5 0 1 0.1 1.4 0.3 0.4 0.2 0.7 0.4 1 0.8 0.3 0.3 0.5 0.7 0.6 1.1 0.1 0.4 0.2 0.9 0.2 1.4 0 0.2 0 0.4 0 0.5s0 0.3-0.1 0.4h-4.5c0.1 0.6 0.3 1 0.7 1.2 0.3 0.3 0.8 0.4 1.3 0.4 0.5 0 1.1-0.2 1.6-0.5l0.7 1.3c-0.4 0.3-0.8 0.5-1.3 0.6s-0.9 0.2-1.4 0.2c-0.5 0-1-0.1-1.5-0.3s-0.9-0.4-1.2-0.8c-0.3-0.3-0.6-0.7-0.8-1.2C401.2 118 401.1 117.4 401.1 116.8zM405.9 116c0-0.4-0.1-0.8-0.3-1 -0.2-0.3-0.5-0.4-1-0.4 -0.4 0-0.7 0.1-0.9 0.4s-0.4 0.6-0.5 1.1H405.9z" class="f"/><path d="M409 116.8c0-0.6 0.1-1.2 0.3-1.6s0.4-0.9 0.7-1.2c0.3-0.3 0.6-0.6 1-0.8 0.4-0.2 0.8-0.3 1.1-0.3 0.4 0 0.8 0.1 1 0.2 0.3 0.1 0.5 0.3 0.8 0.6l-0.1-1.1V110h2.2v10.5h-1.8l-0.1-0.7h-0.1c-0.3 0.3-0.6 0.5-0.9 0.7 -0.3 0.2-0.7 0.3-1.1 0.3 -0.5 0-0.9-0.1-1.3-0.3 -0.4-0.2-0.7-0.4-1-0.8 -0.3-0.3-0.5-0.7-0.6-1.2C409 118 409 117.4 409 116.8zM411.2 116.8c0 0.7 0.1 1.3 0.4 1.6 0.2 0.3 0.6 0.5 1 0.5 0.2 0 0.5 0 0.7-0.1 0.2-0.1 0.4-0.3 0.6-0.5v-3c-0.2-0.2-0.4-0.3-0.6-0.4s-0.4-0.1-0.6-0.1c-0.3 0-0.7 0.2-0.9 0.5S411.2 116.1 411.2 116.8z" class="f"/><path d="M421.4 118.3c0.3 0.3 0.7 0.5 1 0.6s0.6 0.2 0.9 0.2c0.3 0 0.6-0.1 0.7-0.2 0.2-0.1 0.2-0.3 0.2-0.5 0-0.1 0-0.2-0.1-0.3 -0.1-0.1-0.2-0.2-0.3-0.3 -0.1-0.1-0.3-0.2-0.5-0.2 -0.2-0.1-0.4-0.1-0.6-0.2 -0.2-0.1-0.5-0.2-0.7-0.3 -0.2-0.1-0.4-0.3-0.6-0.4 -0.2-0.2-0.3-0.4-0.5-0.6 -0.1-0.2-0.2-0.5-0.2-0.8 0-0.3 0.1-0.7 0.2-0.9 0.1-0.3 0.3-0.5 0.6-0.7 0.2-0.2 0.6-0.4 0.9-0.5 0.4-0.1 0.7-0.2 1.2-0.2 0.6 0 1.1 0.1 1.5 0.3 0.4 0.2 0.8 0.4 1.1 0.7l-1 1.3c-0.3-0.2-0.5-0.4-0.8-0.5 -0.3-0.1-0.5-0.2-0.8-0.2 -0.6 0-0.8 0.2-0.8 0.6 0 0.1 0 0.2 0.1 0.3s0.2 0.2 0.3 0.2c0.1 0.1 0.3 0.1 0.5 0.2 0.2 0.1 0.4 0.1 0.5 0.2 0.2 0.1 0.5 0.2 0.7 0.3 0.2 0.1 0.4 0.3 0.6 0.4 0.2 0.2 0.4 0.4 0.5 0.6 0.1 0.2 0.2 0.5 0.2 0.9 0 0.3-0.1 0.7-0.2 0.9s-0.3 0.5-0.6 0.8c-0.3 0.2-0.6 0.4-1 0.5 -0.4 0.1-0.8 0.2-1.3 0.2 -0.5 0-1-0.1-1.5-0.3s-1-0.4-1.3-0.7L421.4 118.3z" class="f"/><path d="M427.4 118.4c0-0.8 0.3-1.4 1-1.8s1.7-0.7 3.2-0.9c0-0.3-0.1-0.6-0.3-0.8 -0.2-0.2-0.5-0.3-0.9-0.3 -0.3 0-0.6 0.1-1 0.2s-0.7 0.3-1 0.5l-0.8-1.5c0.5-0.3 1-0.5 1.5-0.7 0.5-0.2 1.1-0.3 1.7-0.3 1 0 1.7 0.3 2.2 0.8 0.5 0.5 0.8 1.4 0.8 2.5v4.3h-1.8l-0.2-0.8h0c-0.3 0.3-0.7 0.5-1 0.7s-0.7 0.3-1.2 0.3c-0.3 0-0.6-0.1-0.9-0.2 -0.3-0.1-0.5-0.3-0.7-0.5 -0.2-0.2-0.3-0.4-0.4-0.7S427.4 118.8 427.4 118.4zM429.5 118.3c0 0.2 0.1 0.4 0.2 0.5 0.2 0.1 0.4 0.2 0.6 0.2s0.5-0.1 0.7-0.2 0.4-0.3 0.6-0.5v-1.3c-0.8 0.1-1.3 0.3-1.6 0.5S429.5 118 429.5 118.3z" class="f"/><path d="M435.7 110h2.2v8.3c0 0.2 0 0.4 0.1 0.5 0.1 0.1 0.2 0.1 0.3 0.1 0.1 0 0.1 0 0.1 0s0.1 0 0.1 0l0.3 1.6c-0.1 0.1-0.3 0.1-0.5 0.1s-0.4 0.1-0.7 0.1c-0.4 0-0.7-0.1-1-0.2 -0.3-0.1-0.5-0.3-0.6-0.5 -0.2-0.2-0.3-0.5-0.3-0.8 -0.1-0.3-0.1-0.6-0.1-1V110z" class="f"/><path d="M440.3 114.8h-1v-1.6l1.1-0.1 0.3-2h1.8v2h1.8v1.7h-1.8v3c0 0.4 0.1 0.7 0.3 0.9 0.2 0.2 0.4 0.3 0.7 0.3 0.1 0 0.2 0 0.4 0 0.1 0 0.2-0.1 0.3-0.1l0.3 1.6c-0.2 0.1-0.4 0.1-0.7 0.2s-0.6 0.1-0.9 0.1c-0.5 0-0.9-0.1-1.2-0.2 -0.3-0.1-0.6-0.3-0.8-0.6 -0.2-0.2-0.4-0.6-0.5-0.9 -0.1-0.4-0.1-0.7-0.1-1.2V114.8z" class="f"/><path d="M370.1 130c-0.4 0-0.7-0.1-0.9-0.3s-0.4-0.5-0.4-0.8 0.1-0.6 0.4-0.8 0.5-0.3 0.9-0.3c0.4 0 0.7 0.1 0.9 0.3 0.2 0.2 0.4 0.5 0.4 0.8s-0.1 0.6-0.4 0.8C370.8 129.9 370.5 130 370.1 130zM369 131.1h2.2v7.4h-2.2V131.1z" class="f"/><path d="M373.5 136.3c0.3 0.3 0.7 0.5 1 0.6s0.6 0.2 0.9 0.2c0.3 0 0.6-0.1 0.7-0.2 0.2-0.1 0.2-0.3 0.2-0.5 0-0.1 0-0.2-0.1-0.3 -0.1-0.1-0.2-0.2-0.3-0.3 -0.1-0.1-0.3-0.2-0.5-0.2 -0.2-0.1-0.4-0.1-0.6-0.2 -0.2-0.1-0.5-0.2-0.7-0.3 -0.2-0.1-0.4-0.3-0.6-0.4 -0.2-0.2-0.3-0.4-0.5-0.6 -0.1-0.2-0.2-0.5-0.2-0.8 0-0.3 0.1-0.7 0.2-0.9 0.1-0.3 0.3-0.5 0.6-0.7 0.3-0.2 0.6-0.4 0.9-0.5 0.4-0.1 0.7-0.2 1.2-0.2 0.6 0 1.1 0.1 1.5 0.3 0.4 0.2 0.8 0.4 1.1 0.7l-1 1.3c-0.3-0.2-0.5-0.4-0.8-0.5 -0.3-0.1-0.5-0.2-0.8-0.2 -0.6 0-0.8 0.2-0.8 0.6 0 0.1 0 0.2 0.1 0.3s0.2 0.2 0.3 0.2 0.3 0.1 0.5 0.2c0.2 0.1 0.4 0.1 0.5 0.2 0.2 0.1 0.5 0.2 0.7 0.3 0.2 0.1 0.5 0.3 0.6 0.4 0.2 0.2 0.4 0.4 0.5 0.6 0.1 0.2 0.2 0.5 0.2 0.9 0 0.3-0.1 0.7-0.2 0.9s-0.3 0.5-0.6 0.8c-0.3 0.2-0.6 0.4-1 0.5 -0.4 0.1-0.8 0.2-1.3 0.2 -0.5 0-1-0.1-1.5-0.3 -0.5-0.2-1-0.4-1.3-0.7L373.5 136.3z" class="f"/><path d="M387.1 129.7c-0.3-0.1-0.5-0.1-0.8-0.1 -0.3 0-0.5 0.1-0.6 0.2 -0.1 0.2-0.2 0.4-0.2 0.8v0.5h1.3v1.7h-1.3v5.7h-2.2V132.8h-1v-1.6l1-0.1v-0.4c0-0.4 0-0.8 0.1-1.1 0.1-0.3 0.3-0.7 0.5-0.9 0.2-0.3 0.5-0.5 0.9-0.6 0.4-0.1 0.8-0.2 1.3-0.2 0.3 0 0.6 0 0.8 0.1s0.5 0.1 0.6 0.2L387.1 129.7z" class="f"/><path d="M387.5 134.8c0-0.6 0.1-1.1 0.3-1.6 0.2-0.5 0.5-0.9 0.8-1.2 0.3-0.3 0.7-0.6 1.1-0.8 0.4-0.2 0.9-0.3 1.3-0.3 0.5 0 1 0.1 1.4 0.3 0.4 0.2 0.7 0.4 1 0.8 0.3 0.3 0.5 0.7 0.6 1.1 0.1 0.4 0.2 0.9 0.2 1.4 0 0.2 0 0.4 0 0.5 0 0.2 0 0.3-0.1 0.4h-4.5c0.1 0.6 0.3 1 0.7 1.2 0.3 0.3 0.8 0.4 1.3 0.4 0.5 0 1.1-0.2 1.6-0.5l0.7 1.3c-0.4 0.3-0.8 0.5-1.3 0.6s-0.9 0.2-1.4 0.2c-0.5 0-1-0.1-1.5-0.3 -0.5-0.2-0.9-0.4-1.2-0.8 -0.3-0.3-0.6-0.7-0.8-1.2C387.6 136 387.5 135.4 387.5 134.8zM392.3 134c0-0.4-0.1-0.8-0.3-1s-0.5-0.4-1-0.4c-0.4 0-0.7 0.1-0.9 0.4 -0.3 0.2-0.4 0.6-0.5 1.1H392.3z" class="f"/><path d="M395.7 132.8h-1v-1.6l1.1-0.1 0.3-2h1.8v2h1.8v1.7H397.9v3c0 0.4 0.1 0.7 0.3 0.9 0.2 0.2 0.4 0.3 0.7 0.3 0.1 0 0.2 0 0.4 0 0.1 0 0.2-0.1 0.3-0.1l0.3 1.6c-0.2 0.1-0.4 0.1-0.7 0.2s-0.6 0.1-0.9 0.1c-0.5 0-0.9-0.1-1.2-0.2 -0.3-0.1-0.6-0.3-0.8-0.6 -0.2-0.2-0.4-0.6-0.4-0.9 -0.1-0.4-0.1-0.7-0.1-1.2V132.8z" class="f"/><path d="M400.6 134.8c0-0.6 0.1-1.2 0.3-1.7s0.5-0.9 0.8-1.2 0.8-0.6 1.2-0.8 1-0.3 1.5-0.3c0.5 0 0.9 0.1 1.2 0.2 0.4 0.2 0.7 0.4 0.9 0.6l-1 1.4c-0.4-0.3-0.7-0.4-1-0.4 -0.5 0-1 0.2-1.3 0.6 -0.3 0.4-0.5 0.9-0.5 1.5 0 0.7 0.2 1.2 0.5 1.5 0.3 0.4 0.7 0.6 1.2 0.6 0.3 0 0.5-0.1 0.7-0.2 0.2-0.1 0.4-0.2 0.6-0.4l0.9 1.4c-0.4 0.3-0.8 0.6-1.2 0.7 -0.4 0.2-0.9 0.2-1.3 0.2 -0.5 0-1-0.1-1.4-0.3 -0.4-0.2-0.8-0.4-1.2-0.8s-0.6-0.7-0.8-1.2C400.7 136 400.6 135.4 400.6 134.8z" class="f"/><path d="M408 128h2.2v2.6l-0.1 1.3c0.3-0.2 0.6-0.5 1-0.7 0.4-0.2 0.8-0.3 1.3-0.3 0.8 0 1.4 0.3 1.8 0.8 0.4 0.5 0.5 1.3 0.5 2.2v4.6h-2.2v-4.3c0-0.5-0.1-0.9-0.2-1.1s-0.4-0.3-0.7-0.3c-0.3 0-0.5 0.1-0.7 0.2 -0.2 0.1-0.4 0.3-0.7 0.5v5h-2.2V128z" class="f"/><path d="M416.1 134.8c0-0.6 0.1-1.1 0.3-1.6 0.2-0.5 0.5-0.9 0.8-1.2 0.3-0.3 0.7-0.6 1.1-0.8 0.4-0.2 0.9-0.3 1.3-0.3 0.5 0 1 0.1 1.4 0.3 0.4 0.2 0.7 0.4 1 0.8 0.3 0.3 0.5 0.7 0.6 1.1 0.1 0.4 0.2 0.9 0.2 1.4 0 0.2 0 0.4 0 0.5 0 0.2 0 0.3-0.1 0.4h-4.5c0.1 0.6 0.3 1 0.7 1.2 0.3 0.3 0.8 0.4 1.3 0.4 0.5 0 1.1-0.2 1.6-0.5l0.7 1.3c-0.4 0.3-0.8 0.5-1.3 0.6 -0.5 0.2-0.9 0.2-1.4 0.2 -0.5 0-1-0.1-1.5-0.3 -0.5-0.2-0.9-0.4-1.2-0.8 -0.3-0.3-0.6-0.7-0.8-1.2C416.2 136 416.1 135.4 416.1 134.8zM420.9 134c0-0.4-0.1-0.8-0.3-1 -0.2-0.3-0.5-0.4-1-0.4 -0.3 0-0.7 0.1-0.9 0.4 -0.3 0.2-0.4 0.6-0.5 1.1H420.9z" class="f"/><path d="M423.9 134.8c0-0.6 0.1-1.2 0.3-1.6 0.2-0.5 0.4-0.9 0.7-1.2 0.3-0.3 0.6-0.6 1-0.8 0.4-0.2 0.8-0.3 1.1-0.3 0.4 0 0.8 0.1 1 0.2 0.3 0.1 0.5 0.3 0.8 0.6l-0.1-1.1V128h2.2v10.5h-1.8l-0.1-0.7h-0.1c-0.3 0.3-0.6 0.5-0.9 0.7s-0.7 0.3-1.1 0.3c-0.5 0-0.9-0.1-1.3-0.3 -0.4-0.2-0.7-0.4-1-0.8s-0.5-0.7-0.6-1.2C424 136 423.9 135.4 423.9 134.8zM426.2 134.8c0 0.7 0.1 1.3 0.4 1.6s0.6 0.5 1 0.5c0.2 0 0.5 0 0.7-0.1 0.2-0.1 0.4-0.3 0.6-0.5v-3c-0.2-0.2-0.4-0.3-0.6-0.4 -0.2-0.1-0.4-0.1-0.6-0.1 -0.4 0-0.7 0.2-0.9 0.5C426.3 133.5 426.2 134.1 426.2 134.8z" class="f"/></svg>
