<svg xmlns="http://www.w3.org/2000/svg" width="500" height="350" viewBox="0 0 500 350"><style>.a{fill:#1ABC9C;}.b{fill:#16A085;}.c{fill:none;stroke-width:4;stroke:#F39C12;}.d{fill:#F39C12;}.e{fill:#FFF;}</style><line x1="400" y1="50" x2="400" y2="95" style="fill:none;stroke-width:4;stroke:#1ABC9C"/><polygon points="393 87.5 400 94.2 407 87.5 407 93.2 400 100 393 93.2 " class="a"/><line x1="100" y1="50" x2="100" y2="95" style="fill:none;stroke-width:4;stroke:#16A085"/><polygon points="93 87.5 100 94.2 107 87.5 107 93.2 100 100 93 93.2 " class="b"/><line x1="250" y1="250" x2="250" y2="295" class="c"/><polygon points="243 287.5 250 294.2 257 287.5 257 293.2 250 300 243 293.2 " class="d"/><polyline points="100 150 100 225 145.4 225 " class="c"/><polygon points="137.5 231.8 144.2 225 137.5 218.2 143.2 218.2 150 225 143.2 231.8 " class="d"/><polyline points="400 150 400 225 354.6 225 " class="c"/><polygon points="362.5 218.2 355.8 225 362.5 231.8 356.8 231.8 350 225 356.8 218.2 " class="d"/><polygon points="175 50 0 50 25 0 200 0 " class="b"/><polygon points="325 350 150 350 175 300 350 300 " fill="#34495E"/><rect y="100" width="200" height="50" class="d"/><rect x="300" width="200" height="50" class="a"/><rect x="300" y="100" width="200" height="50" class="d"/><rect x="150" y="200" width="200" height="50" class="d"/><path d="M34.6 10.7h3.6c0.5 0 1 0.1 1.5 0.2 0.5 0.1 0.9 0.3 1.2 0.5 0.3 0.2 0.6 0.6 0.8 1 0.2 0.4 0.3 0.9 0.3 1.5 0 0.6-0.1 1.1-0.3 1.5 -0.2 0.4-0.5 0.8-0.8 1 -0.3 0.3-0.8 0.5-1.2 0.6s-0.9 0.2-1.5 0.2h-1.4v3.3h-2.2V10.7zM38.1 15.4c1.2 0 1.8-0.5 1.8-1.6 0-0.5-0.2-0.9-0.5-1.1 -0.3-0.2-0.8-0.3-1.3-0.3h-1.2v3H38.1z" class="e"/><path d="M42.8 18.4c0-0.8 0.3-1.4 1-1.8 0.7-0.4 1.7-0.7 3.2-0.9 0-0.3-0.1-0.6-0.3-0.8 -0.2-0.2-0.5-0.3-0.9-0.3 -0.3 0-0.6 0.1-1 0.2 -0.3 0.1-0.7 0.3-1 0.5l-0.8-1.5c0.5-0.3 1-0.5 1.5-0.7 0.5-0.2 1.1-0.3 1.7-0.3 1 0 1.7 0.3 2.2 0.8 0.5 0.5 0.8 1.4 0.8 2.5v4.3h-1.8l-0.2-0.8h0c-0.3 0.3-0.7 0.5-1 0.7s-0.7 0.3-1.2 0.3c-0.3 0-0.6-0.1-0.9-0.2 -0.3-0.1-0.5-0.3-0.7-0.5 -0.2-0.2-0.3-0.4-0.4-0.7S42.8 18.8 42.8 18.4zM44.9 18.3c0 0.2 0.1 0.4 0.2 0.5 0.2 0.1 0.4 0.2 0.6 0.2 0.3 0 0.5-0.1 0.7-0.2 0.2-0.1 0.4-0.3 0.6-0.5V17.1c-0.8 0.1-1.3 0.3-1.6 0.5C45 17.7 44.9 18 44.9 18.3z" class="e"/><path d="M51.4 18.3c0.3 0.3 0.7 0.5 1 0.6s0.6 0.2 0.9 0.2c0.3 0 0.6-0.1 0.7-0.2 0.2-0.1 0.2-0.3 0.2-0.5 0-0.1 0-0.2-0.1-0.3 -0.1-0.1-0.2-0.2-0.3-0.3s-0.3-0.2-0.5-0.2c-0.2-0.1-0.4-0.1-0.6-0.2 -0.2-0.1-0.5-0.2-0.7-0.3s-0.4-0.3-0.6-0.4 -0.3-0.4-0.5-0.6c-0.1-0.2-0.2-0.5-0.2-0.8 0-0.3 0.1-0.7 0.2-0.9 0.1-0.3 0.3-0.5 0.6-0.7 0.3-0.2 0.6-0.4 0.9-0.5 0.4-0.1 0.7-0.2 1.2-0.2 0.6 0 1.1 0.1 1.5 0.3 0.4 0.2 0.8 0.4 1.1 0.7l-1 1.3c-0.3-0.2-0.5-0.4-0.8-0.5s-0.5-0.2-0.8-0.2c-0.6 0-0.8 0.2-0.8 0.6 0 0.1 0 0.2 0.1 0.3s0.2 0.2 0.3 0.2c0.1 0.1 0.3 0.1 0.5 0.2 0.2 0.1 0.4 0.1 0.5 0.2 0.2 0.1 0.5 0.2 0.7 0.3 0.2 0.1 0.5 0.3 0.6 0.4 0.2 0.2 0.4 0.4 0.5 0.6 0.1 0.2 0.2 0.5 0.2 0.9 0 0.3-0.1 0.7-0.2 0.9s-0.3 0.5-0.6 0.8c-0.3 0.2-0.6 0.4-1 0.5 -0.4 0.1-0.8 0.2-1.3 0.2 -0.5 0-1-0.1-1.5-0.3 -0.5-0.2-1-0.4-1.3-0.7L51.4 18.3z" class="e"/><path d="M58 18.3c0.3 0.3 0.7 0.5 1 0.6s0.6 0.2 0.9 0.2c0.3 0 0.6-0.1 0.7-0.2 0.2-0.1 0.2-0.3 0.2-0.5 0-0.1 0-0.2-0.1-0.3 -0.1-0.1-0.2-0.2-0.3-0.3s-0.3-0.2-0.5-0.2c-0.2-0.1-0.4-0.1-0.6-0.2 -0.2-0.1-0.5-0.2-0.7-0.3s-0.4-0.3-0.6-0.4 -0.3-0.4-0.5-0.6c-0.1-0.2-0.2-0.5-0.2-0.8 0-0.3 0.1-0.7 0.2-0.9 0.1-0.3 0.3-0.5 0.6-0.7 0.3-0.2 0.6-0.4 0.9-0.5 0.4-0.1 0.7-0.2 1.2-0.2 0.6 0 1.1 0.1 1.5 0.3 0.4 0.2 0.8 0.4 1.1 0.7l-1 1.3c-0.3-0.2-0.5-0.4-0.8-0.5s-0.5-0.2-0.8-0.2c-0.6 0-0.8 0.2-0.8 0.6 0 0.1 0 0.2 0.1 0.3s0.2 0.2 0.3 0.2c0.1 0.1 0.3 0.1 0.5 0.2 0.2 0.1 0.4 0.1 0.5 0.2 0.2 0.1 0.5 0.2 0.7 0.3 0.2 0.1 0.5 0.3 0.6 0.4 0.2 0.2 0.4 0.4 0.5 0.6 0.1 0.2 0.2 0.5 0.2 0.9 0 0.3-0.1 0.7-0.2 0.9s-0.3 0.5-0.6 0.8c-0.3 0.2-0.6 0.4-1 0.5 -0.4 0.1-0.8 0.2-1.3 0.2 -0.5 0-1-0.1-1.5-0.3 -0.5-0.2-1-0.4-1.3-0.7L58 18.3z" class="e"/><path d="M63.7 13.1h2.2l0.7 3.5c0.1 0.4 0.1 0.7 0.2 1.1 0.1 0.4 0.1 0.7 0.2 1.1h0.1c0.1-0.4 0.1-0.8 0.2-1.1 0.1-0.4 0.1-0.7 0.2-1.1l0.8-3.4h1.9l0.8 3.5c0.1 0.4 0.2 0.7 0.2 1.1s0.1 0.7 0.2 1.1h0.1c0.1-0.4 0.1-0.7 0.2-1.1 0-0.4 0.1-0.7 0.2-1.1l0.7-3.4h2l-1.8 7.4h-2.6l-0.7-3c-0.1-0.3-0.1-0.7-0.2-1 -0.1-0.3-0.1-0.7-0.2-1.1h-0.1c-0.1 0.4-0.1 0.8-0.2 1.1s-0.1 0.7-0.2 1.1l-0.7 3h-2.5L63.7 13.1z" class="e"/><path d="M75.4 16.8c0-0.6 0.1-1.2 0.3-1.7s0.5-0.9 0.8-1.2c0.3-0.3 0.7-0.6 1.2-0.8 0.4-0.2 0.9-0.3 1.4-0.3s0.9 0.1 1.4 0.3 0.8 0.4 1.2 0.8c0.3 0.3 0.6 0.7 0.8 1.2s0.3 1 0.3 1.7c0 0.6-0.1 1.2-0.3 1.7 -0.2 0.5-0.5 0.9-0.8 1.2 -0.3 0.3-0.7 0.6-1.2 0.8s-0.9 0.3-1.4 0.3 -0.9-0.1-1.4-0.3c-0.4-0.2-0.8-0.4-1.2-0.8 -0.3-0.3-0.6-0.7-0.8-1.2C75.5 18 75.4 17.4 75.4 16.8zM77.7 16.8c0 0.7 0.1 1.2 0.3 1.5s0.6 0.6 1 0.6c0.5 0 0.8-0.2 1-0.6s0.3-0.9 0.3-1.5c0-0.6-0.1-1.2-0.3-1.5 -0.2-0.4-0.6-0.6-1-0.6 -0.5 0-0.8 0.2-1 0.6C77.8 15.6 77.7 16.1 77.7 16.8z" class="e"/><path d="M84.2 13.1h1.8l0.2 1.3h0.1c0.3-0.5 0.6-0.9 1-1.1 0.4-0.2 0.8-0.4 1.1-0.4 0.2 0 0.4 0 0.5 0 0.1 0 0.3 0.1 0.4 0.1l-0.4 1.9c-0.1 0-0.3-0.1-0.4-0.1 -0.1 0-0.3 0-0.4 0 -0.3 0-0.6 0.1-0.9 0.3 -0.3 0.2-0.6 0.6-0.8 1.1v4.3h-2.2V13.1z" class="e"/><path d="M89.6 16.8c0-0.6 0.1-1.2 0.3-1.6 0.2-0.5 0.4-0.9 0.7-1.2 0.3-0.3 0.6-0.6 1-0.8 0.4-0.2 0.8-0.3 1.1-0.3 0.4 0 0.8 0.1 1 0.2 0.3 0.1 0.5 0.3 0.8 0.6l-0.1-1.1V10h2.2v10.5h-1.8l-0.1-0.7h-0.1c-0.3 0.3-0.6 0.5-0.9 0.7s-0.7 0.3-1.1 0.3c-0.5 0-0.9-0.1-1.3-0.3 -0.4-0.2-0.7-0.4-1-0.8 -0.3-0.3-0.5-0.7-0.6-1.2C89.7 18 89.6 17.4 89.6 16.8zM91.9 16.8c0 0.7 0.1 1.3 0.4 1.6 0.2 0.3 0.6 0.5 1 0.5 0.2 0 0.5 0 0.7-0.1 0.2-0.1 0.4-0.3 0.6-0.5v-3c-0.2-0.2-0.4-0.3-0.6-0.4s-0.4-0.1-0.6-0.1c-0.3 0-0.7 0.2-0.9 0.5S91.9 16.1 91.9 16.8z" class="e"/><path d="M102.8 12c-0.4 0-0.7-0.1-0.9-0.3 -0.2-0.2-0.4-0.5-0.4-0.8s0.1-0.6 0.4-0.8c0.2-0.2 0.5-0.3 0.9-0.3 0.4 0 0.7 0.1 0.9 0.3 0.2 0.2 0.4 0.5 0.4 0.8s-0.1 0.6-0.4 0.8C103.5 11.9 103.2 12 102.8 12zM101.7 13.1h2.2v7.4h-2.2V13.1z" class="e"/><path d="M106.2 18.3c0.3 0.3 0.7 0.5 1 0.6s0.6 0.2 0.9 0.2c0.3 0 0.6-0.1 0.7-0.2 0.2-0.1 0.2-0.3 0.2-0.5 0-0.1 0-0.2-0.1-0.3 -0.1-0.1-0.2-0.2-0.3-0.3s-0.3-0.2-0.5-0.2c-0.2-0.1-0.4-0.1-0.6-0.2 -0.2-0.1-0.5-0.2-0.7-0.3s-0.4-0.3-0.6-0.4 -0.3-0.4-0.5-0.6c-0.1-0.2-0.2-0.5-0.2-0.8 0-0.3 0.1-0.7 0.2-0.9 0.1-0.3 0.3-0.5 0.6-0.7 0.3-0.2 0.6-0.4 0.9-0.5 0.4-0.1 0.7-0.2 1.2-0.2 0.6 0 1.1 0.1 1.5 0.3 0.4 0.2 0.8 0.4 1.1 0.7l-1 1.3c-0.3-0.2-0.5-0.4-0.8-0.5s-0.5-0.2-0.8-0.2c-0.6 0-0.8 0.2-0.8 0.6 0 0.1 0 0.2 0.1 0.3s0.2 0.2 0.3 0.2c0.1 0.1 0.3 0.1 0.5 0.2 0.2 0.1 0.4 0.1 0.5 0.2 0.2 0.1 0.5 0.2 0.7 0.3 0.2 0.1 0.5 0.3 0.6 0.4 0.2 0.2 0.4 0.4 0.5 0.6 0.1 0.2 0.2 0.5 0.2 0.9 0 0.3-0.1 0.7-0.2 0.9s-0.3 0.5-0.6 0.8c-0.3 0.2-0.6 0.4-1 0.5 -0.4 0.1-0.8 0.2-1.3 0.2 -0.5 0-1-0.1-1.5-0.3 -0.5-0.2-1-0.4-1.3-0.7L106.2 18.3z" class="e"/><path d="M115.2 16.8c0-0.6 0.1-1.1 0.3-1.6 0.2-0.5 0.5-0.9 0.8-1.2 0.3-0.3 0.7-0.6 1.1-0.8 0.4-0.2 0.9-0.3 1.3-0.3 0.5 0 1 0.1 1.4 0.3 0.4 0.2 0.7 0.4 1 0.8 0.3 0.3 0.5 0.7 0.6 1.1 0.1 0.4 0.2 0.9 0.2 1.4 0 0.2 0 0.4 0 0.5s0 0.3-0.1 0.4h-4.5c0.1 0.6 0.3 1 0.7 1.2 0.3 0.3 0.8 0.4 1.3 0.4 0.5 0 1.1-0.2 1.6-0.5l0.7 1.3c-0.4 0.3-0.8 0.5-1.3 0.6 -0.5 0.2-0.9 0.2-1.4 0.2 -0.5 0-1-0.1-1.5-0.3s-0.9-0.4-1.2-0.8c-0.3-0.3-0.6-0.7-0.8-1.2C115.3 18 115.2 17.4 115.2 16.8zM120 16c0-0.4-0.1-0.8-0.3-1 -0.2-0.3-0.5-0.4-1-0.4 -0.4 0-0.7 0.1-0.9 0.4s-0.4 0.6-0.5 1.1H120z" class="e"/><path d="M123.4 13.1h1.8l0.2 0.9h0.1c0.3-0.3 0.7-0.6 1.1-0.8 0.4-0.2 0.8-0.3 1.3-0.3 0.8 0 1.4 0.3 1.8 0.8 0.4 0.5 0.5 1.3 0.5 2.2v4.6h-2.2V16.2c0-0.5-0.1-0.9-0.2-1.1s-0.4-0.3-0.7-0.3c-0.3 0-0.5 0.1-0.7 0.2 -0.2 0.1-0.4 0.3-0.7 0.5v5h-2.2V13.1z" class="e"/><path d="M132.3 14.8h-1v-1.6l1.1-0.1 0.3-2h1.8v2h1.8V14.8h-1.8v3c0 0.4 0.1 0.7 0.3 0.9 0.2 0.2 0.4 0.3 0.7 0.3 0.1 0 0.2 0 0.4 0 0.1 0 0.2-0.1 0.3-0.1l0.3 1.6c-0.2 0.1-0.4 0.1-0.7 0.2s-0.6 0.1-0.9 0.1c-0.5 0-0.9-0.1-1.2-0.2 -0.3-0.1-0.6-0.3-0.8-0.6 -0.2-0.2-0.4-0.6-0.4-0.9 -0.1-0.4-0.1-0.7-0.1-1.2V14.8z" class="e"/><path d="M137.1 16.8c0-0.6 0.1-1.1 0.3-1.6 0.2-0.5 0.5-0.9 0.8-1.2 0.3-0.3 0.7-0.6 1.1-0.8 0.4-0.2 0.9-0.3 1.3-0.3 0.5 0 1 0.1 1.4 0.3 0.4 0.2 0.7 0.4 1 0.8 0.3 0.3 0.5 0.7 0.6 1.1 0.1 0.4 0.2 0.9 0.2 1.4 0 0.2 0 0.4 0 0.5s0 0.3-0.1 0.4h-4.5c0.1 0.6 0.3 1 0.7 1.2 0.3 0.3 0.8 0.4 1.3 0.4 0.5 0 1.1-0.2 1.6-0.5l0.7 1.3c-0.4 0.3-0.8 0.5-1.3 0.6 -0.5 0.2-0.9 0.2-1.4 0.2 -0.5 0-1-0.1-1.5-0.3s-0.9-0.4-1.2-0.8c-0.3-0.3-0.6-0.7-0.8-1.2C137.2 18 137.1 17.4 137.1 16.8zM141.9 16c0-0.4-0.1-0.8-0.3-1 -0.2-0.3-0.5-0.4-1-0.4 -0.4 0-0.7 0.1-0.9 0.4s-0.4 0.6-0.5 1.1H141.9z" class="e"/><path d="M145.3 13.1h1.8l0.2 1.3h0.1c0.3-0.5 0.6-0.9 1-1.1 0.4-0.2 0.8-0.4 1.1-0.4 0.2 0 0.4 0 0.5 0 0.1 0 0.3 0.1 0.4 0.1l-0.4 1.9c-0.1 0-0.3-0.1-0.4-0.1 -0.1 0-0.3 0-0.4 0 -0.3 0-0.6 0.1-0.9 0.3 -0.3 0.2-0.6 0.6-0.8 1.1v4.3h-2.2V13.1z" class="e"/><path d="M150.7 16.8c0-0.6 0.1-1.1 0.3-1.6 0.2-0.5 0.5-0.9 0.8-1.2 0.3-0.3 0.7-0.6 1.1-0.8 0.4-0.2 0.9-0.3 1.3-0.3 0.5 0 1 0.1 1.4 0.3 0.4 0.2 0.7 0.4 1 0.8 0.3 0.3 0.5 0.7 0.6 1.1 0.1 0.4 0.2 0.9 0.2 1.4 0 0.2 0 0.4 0 0.5s0 0.3-0.1 0.4h-4.5c0.1 0.6 0.3 1 0.7 1.2 0.3 0.3 0.8 0.4 1.3 0.4 0.5 0 1.1-0.2 1.6-0.5l0.7 1.3c-0.4 0.3-0.8 0.5-1.3 0.6 -0.5 0.2-0.9 0.2-1.4 0.2 -0.5 0-1-0.1-1.5-0.3s-0.9-0.4-1.2-0.8c-0.3-0.3-0.6-0.7-0.8-1.2C150.8 18 150.7 17.4 150.7 16.8zM155.5 16c0-0.4-0.1-0.8-0.3-1 -0.2-0.3-0.5-0.4-1-0.4 -0.4 0-0.7 0.1-0.9 0.4s-0.4 0.6-0.5 1.1H155.5z" class="e"/><path d="M158.5 16.8c0-0.6 0.1-1.2 0.3-1.6 0.2-0.5 0.4-0.9 0.7-1.2 0.3-0.3 0.6-0.6 1-0.8 0.4-0.2 0.8-0.3 1.1-0.3 0.4 0 0.8 0.1 1 0.2 0.3 0.1 0.5 0.3 0.8 0.6l-0.1-1.1V10h2.2v10.5h-1.8l-0.1-0.7h-0.1c-0.3 0.3-0.6 0.5-0.9 0.7s-0.7 0.3-1.1 0.3c-0.5 0-0.9-0.1-1.3-0.3 -0.4-0.2-0.7-0.4-1-0.8 -0.3-0.3-0.5-0.7-0.6-1.2C158.6 18 158.5 17.4 158.5 16.8zM160.8 16.8c0 0.7 0.1 1.3 0.4 1.6 0.2 0.3 0.6 0.5 1 0.5 0.2 0 0.5 0 0.7-0.1 0.2-0.1 0.4-0.3 0.6-0.5v-3c-0.2-0.2-0.4-0.3-0.6-0.4s-0.4-0.1-0.6-0.1c-0.3 0-0.7 0.2-0.9 0.5S160.8 16.1 160.8 16.8z" class="e"/><path d="M64.4 30c-0.4 0-0.7-0.1-0.9-0.3 -0.2-0.2-0.4-0.5-0.4-0.8s0.1-0.6 0.4-0.8c0.2-0.2 0.5-0.3 0.9-0.3 0.4 0 0.7 0.1 0.9 0.3 0.2 0.2 0.4 0.5 0.4 0.8s-0.1 0.6-0.4 0.8C65.1 29.9 64.8 30 64.4 30zM63.3 31.1h2.2v7.4h-2.2V31.1z" class="e"/><path d="M67.5 31.1h1.8l0.2 0.9h0.1c0.3-0.3 0.7-0.6 1.1-0.8 0.4-0.2 0.8-0.3 1.3-0.3 0.8 0 1.4 0.3 1.8 0.8 0.4 0.5 0.5 1.3 0.5 2.2v4.6h-2.2V34.2c0-0.5-0.1-0.9-0.2-1.1s-0.4-0.3-0.7-0.3c-0.3 0-0.5 0.1-0.7 0.2 -0.2 0.1-0.4 0.3-0.7 0.5v5h-2.2V31.1z" class="e"/><path d="M78.7 34.8c0-0.6 0.1-1.2 0.3-1.7s0.5-0.9 0.8-1.2c0.4-0.3 0.8-0.6 1.2-0.8s1-0.3 1.5-0.3c0.5 0 0.9 0.1 1.2 0.2 0.4 0.2 0.7 0.4 0.9 0.6l-1 1.4c-0.3-0.3-0.7-0.4-1-0.4 -0.5 0-1 0.2-1.3 0.6 -0.3 0.4-0.5 0.9-0.5 1.5 0 0.7 0.2 1.2 0.5 1.5s0.7 0.6 1.2 0.6c0.3 0 0.5-0.1 0.7-0.2 0.2-0.1 0.4-0.2 0.6-0.4l0.9 1.4c-0.4 0.3-0.8 0.6-1.2 0.7 -0.4 0.2-0.9 0.2-1.3 0.2 -0.5 0-1-0.1-1.4-0.3 -0.4-0.2-0.8-0.4-1.2-0.8s-0.6-0.7-0.8-1.2C78.8 36 78.7 35.4 78.7 34.8z" class="e"/><path d="M86.2 28h2.2v8.3c0 0.2 0 0.4 0.1 0.5 0.1 0.1 0.2 0.1 0.3 0.1 0.1 0 0.1 0 0.1 0s0.1 0 0.1 0l0.3 1.6c-0.1 0.1-0.3 0.1-0.5 0.1s-0.4 0.1-0.7 0.1c-0.4 0-0.7-0.1-1-0.2 -0.3-0.1-0.5-0.3-0.6-0.5 -0.2-0.2-0.3-0.5-0.3-0.8 -0.1-0.3-0.1-0.6-0.1-1V28z" class="e"/><path d="M90 34.8c0-0.6 0.1-1.1 0.3-1.6 0.2-0.5 0.5-0.9 0.8-1.2 0.3-0.3 0.7-0.6 1.1-0.8 0.4-0.2 0.9-0.3 1.3-0.3 0.5 0 1 0.1 1.4 0.3 0.4 0.2 0.7 0.4 1 0.8 0.3 0.3 0.5 0.7 0.6 1.1 0.1 0.4 0.2 0.9 0.2 1.4 0 0.2 0 0.4 0 0.5s0 0.3-0.1 0.4h-4.5c0.1 0.6 0.3 1 0.7 1.2 0.3 0.3 0.8 0.4 1.3 0.4 0.5 0 1.1-0.2 1.6-0.5l0.7 1.3c-0.4 0.3-0.8 0.5-1.3 0.6 -0.5 0.2-0.9 0.2-1.4 0.2 -0.5 0-1-0.1-1.5-0.3s-0.9-0.4-1.2-0.8c-0.3-0.3-0.6-0.7-0.8-1.2C90.1 36 90 35.4 90 34.8zM94.8 34c0-0.4-0.1-0.8-0.3-1 -0.2-0.3-0.5-0.4-1-0.4 -0.4 0-0.7 0.1-0.9 0.4S92.2 33.5 92.1 34H94.8z" class="e"/><path d="M97.8 36.4c0-0.8 0.3-1.4 1-1.8 0.7-0.4 1.7-0.7 3.2-0.9 0-0.3-0.1-0.6-0.3-0.8 -0.2-0.2-0.5-0.3-0.9-0.3 -0.3 0-0.6 0.1-1 0.2 -0.3 0.1-0.7 0.3-1 0.5l-0.8-1.5c0.5-0.3 1-0.5 1.5-0.7 0.5-0.2 1.1-0.3 1.7-0.3 1 0 1.7 0.3 2.2 0.8 0.5 0.5 0.8 1.4 0.8 2.5v4.3h-1.8l-0.2-0.8h0c-0.3 0.3-0.7 0.5-1 0.7s-0.7 0.3-1.2 0.3c-0.3 0-0.6-0.1-0.9-0.2 -0.3-0.1-0.5-0.3-0.7-0.5 -0.2-0.2-0.3-0.4-0.4-0.7S97.8 36.8 97.8 36.4zM99.9 36.3c0 0.2 0.1 0.4 0.2 0.5 0.2 0.1 0.4 0.2 0.6 0.2 0.3 0 0.5-0.1 0.7-0.2 0.2-0.1 0.4-0.3 0.6-0.5V35.1c-0.8 0.1-1.3 0.3-1.6 0.5C100 35.7 99.9 36 99.9 36.3z" class="e"/><path d="M106.1 31.1h1.8l0.2 1.3h0.1c0.3-0.5 0.6-0.9 1-1.1 0.4-0.2 0.8-0.4 1.1-0.4 0.2 0 0.4 0 0.5 0 0.1 0 0.3 0.1 0.4 0.1l-0.4 1.9c-0.1 0-0.3-0.1-0.4-0.1 -0.1 0-0.3 0-0.4 0 -0.3 0-0.6 0.1-0.9 0.3 -0.3 0.2-0.6 0.6-0.8 1.1v4.3h-2.2V31.1z" class="e"/><path d="M112.3 32.8h-1v-1.6l1.1-0.1 0.3-2h1.8v2h1.8V32.8h-1.8v3c0 0.4 0.1 0.7 0.3 0.9 0.2 0.2 0.4 0.3 0.7 0.3 0.1 0 0.2 0 0.4 0 0.1 0 0.2-0.1 0.3-0.1l0.3 1.6c-0.2 0.1-0.4 0.1-0.7 0.2s-0.6 0.1-0.9 0.1c-0.5 0-0.9-0.1-1.2-0.2 -0.3-0.1-0.6-0.3-0.8-0.6 -0.2-0.2-0.4-0.6-0.4-0.9 -0.1-0.4-0.1-0.7-0.1-1.2V32.8z" class="e"/><path d="M117.2 34.8c0-0.6 0.1-1.1 0.3-1.6 0.2-0.5 0.5-0.9 0.8-1.2 0.3-0.3 0.7-0.6 1.1-0.8 0.4-0.2 0.9-0.3 1.3-0.3 0.5 0 1 0.1 1.4 0.3 0.4 0.2 0.7 0.4 1 0.8 0.3 0.3 0.5 0.7 0.6 1.1 0.1 0.4 0.2 0.9 0.2 1.4 0 0.2 0 0.4 0 0.5s0 0.3-0.1 0.4h-4.5c0.1 0.6 0.3 1 0.7 1.2 0.3 0.3 0.8 0.4 1.3 0.4 0.5 0 1.1-0.2 1.6-0.5l0.7 1.3c-0.4 0.3-0.8 0.5-1.3 0.6 -0.5 0.2-0.9 0.2-1.4 0.2 -0.5 0-1-0.1-1.5-0.3s-0.9-0.4-1.2-0.8c-0.3-0.3-0.6-0.7-0.8-1.2C117.3 36 117.2 35.4 117.2 34.8zM122 34c0-0.4-0.1-0.8-0.3-1 -0.2-0.3-0.5-0.4-1-0.4 -0.4 0-0.7 0.1-0.9 0.4s-0.4 0.6-0.5 1.1H122z" class="e"/><path d="M126.7 34.6l-2.1-3.6h2.4l0.7 1.2c0.1 0.2 0.2 0.4 0.3 0.6 0.1 0.2 0.2 0.4 0.3 0.6h0.1c0.1-0.2 0.2-0.4 0.3-0.6 0.1-0.2 0.2-0.4 0.3-0.6l0.5-1.2h2.3l-2.2 3.8 2.3 3.6h-2.4l-0.7-1.2c-0.1-0.2-0.2-0.4-0.4-0.6 -0.1-0.2-0.2-0.4-0.4-0.6h-0.1c-0.1 0.2-0.2 0.4-0.3 0.6 -0.1 0.2-0.2 0.4-0.3 0.7l-0.6 1.2h-2.3L126.7 34.6z" class="e"/><path d="M133.2 32.8h-1v-1.6l1.1-0.1 0.3-2h1.8v2h1.8V32.8h-1.8v3c0 0.4 0.1 0.7 0.3 0.9 0.2 0.2 0.4 0.3 0.7 0.3 0.1 0 0.2 0 0.4 0 0.1 0 0.2-0.1 0.3-0.1l0.3 1.6c-0.2 0.1-0.4 0.1-0.7 0.2s-0.6 0.1-0.9 0.1c-0.5 0-0.9-0.1-1.2-0.2 -0.3-0.1-0.6-0.3-0.8-0.6 -0.2-0.2-0.4-0.6-0.4-0.9 -0.1-0.4-0.1-0.7-0.1-1.2V32.8z" class="e"/><path d="M36.5 119.7h3.6c0.5 0 1 0.1 1.5 0.2 0.5 0.1 0.9 0.3 1.2 0.5 0.3 0.2 0.6 0.6 0.8 1 0.2 0.4 0.3 0.9 0.3 1.5 0 0.6-0.1 1.1-0.3 1.5 -0.2 0.4-0.5 0.8-0.8 1 -0.3 0.3-0.8 0.5-1.2 0.6s-0.9 0.2-1.5 0.2h-1.4v3.3h-2.2V119.7zM39.9 124.4c1.2 0 1.8-0.5 1.8-1.6 0-0.5-0.2-0.9-0.5-1.1 -0.3-0.2-0.8-0.3-1.3-0.3h-1.2v3H39.9z" class="e"/><path d="M44.6 127.4c0-0.8 0.3-1.4 1-1.8 0.7-0.4 1.7-0.7 3.2-0.9 0-0.3-0.1-0.6-0.3-0.8 -0.2-0.2-0.5-0.3-0.9-0.3 -0.3 0-0.6 0.1-1 0.2 -0.3 0.1-0.7 0.3-1 0.5l-0.8-1.5c0.5-0.3 1-0.5 1.5-0.7 0.5-0.2 1.1-0.3 1.7-0.3 1 0 1.7 0.3 2.2 0.8 0.5 0.5 0.8 1.4 0.8 2.5v4.3h-1.8l-0.2-0.8h0c-0.3 0.3-0.7 0.5-1 0.7s-0.7 0.3-1.2 0.3c-0.3 0-0.6-0.1-0.9-0.2 -0.3-0.1-0.5-0.3-0.7-0.5 -0.2-0.2-0.3-0.4-0.4-0.7S44.6 127.8 44.6 127.4zM46.7 127.3c0 0.2 0.1 0.4 0.2 0.5 0.2 0.1 0.4 0.2 0.6 0.2 0.3 0 0.5-0.1 0.7-0.2 0.2-0.1 0.4-0.3 0.6-0.5v-1.3c-0.8 0.1-1.3 0.3-1.6 0.5C46.9 126.7 46.7 127 46.7 127.3z" class="e"/><path d="M53.2 127.3c0.3 0.3 0.7 0.5 1 0.6s0.6 0.2 0.9 0.2c0.3 0 0.6-0.1 0.7-0.2 0.2-0.1 0.2-0.3 0.2-0.5 0-0.1 0-0.2-0.1-0.3 -0.1-0.1-0.2-0.2-0.3-0.3s-0.3-0.2-0.5-0.2c-0.2-0.1-0.4-0.1-0.6-0.2 -0.2-0.1-0.5-0.2-0.7-0.3s-0.4-0.3-0.6-0.4 -0.3-0.4-0.5-0.6c-0.1-0.2-0.2-0.5-0.2-0.8 0-0.3 0.1-0.7 0.2-0.9 0.1-0.3 0.3-0.5 0.6-0.7 0.3-0.2 0.6-0.4 0.9-0.5 0.4-0.1 0.7-0.2 1.2-0.2 0.6 0 1.1 0.1 1.5 0.3 0.4 0.2 0.8 0.4 1.1 0.7l-1 1.3c-0.3-0.2-0.5-0.4-0.8-0.5s-0.5-0.2-0.8-0.2c-0.6 0-0.8 0.2-0.8 0.6 0 0.1 0 0.2 0.1 0.3s0.2 0.2 0.3 0.2c0.1 0.1 0.3 0.1 0.5 0.2 0.2 0.1 0.4 0.1 0.5 0.2 0.2 0.1 0.5 0.2 0.7 0.3 0.2 0.1 0.5 0.3 0.6 0.4 0.2 0.2 0.4 0.4 0.5 0.6 0.1 0.2 0.2 0.5 0.2 0.9 0 0.3-0.1 0.7-0.2 0.9s-0.3 0.5-0.6 0.8c-0.3 0.2-0.6 0.4-1 0.5 -0.4 0.1-0.8 0.2-1.3 0.2 -0.5 0-1-0.1-1.5-0.3 -0.5-0.2-1-0.4-1.3-0.7L53.2 127.3z" class="e"/><path d="M59.9 127.3c0.3 0.3 0.7 0.5 1 0.6s0.6 0.2 0.9 0.2c0.3 0 0.6-0.1 0.7-0.2 0.2-0.1 0.2-0.3 0.2-0.5 0-0.1 0-0.2-0.1-0.3 -0.1-0.1-0.2-0.2-0.3-0.3s-0.3-0.2-0.5-0.2c-0.2-0.1-0.4-0.1-0.6-0.2 -0.2-0.1-0.5-0.2-0.7-0.3s-0.4-0.3-0.6-0.4 -0.3-0.4-0.5-0.6c-0.1-0.2-0.2-0.5-0.2-0.8 0-0.3 0.1-0.7 0.2-0.9 0.1-0.3 0.3-0.5 0.6-0.7 0.3-0.2 0.6-0.4 0.9-0.5 0.4-0.1 0.7-0.2 1.2-0.2 0.6 0 1.1 0.1 1.5 0.3 0.4 0.2 0.8 0.4 1.1 0.7l-1 1.3c-0.3-0.2-0.5-0.4-0.8-0.5s-0.5-0.2-0.8-0.2c-0.6 0-0.8 0.2-0.8 0.6 0 0.1 0 0.2 0.1 0.3s0.2 0.2 0.3 0.2c0.1 0.1 0.3 0.1 0.5 0.2 0.2 0.1 0.4 0.1 0.5 0.2 0.2 0.1 0.5 0.2 0.7 0.3 0.2 0.1 0.5 0.3 0.6 0.4 0.2 0.2 0.4 0.4 0.5 0.6 0.1 0.2 0.2 0.5 0.2 0.9 0 0.3-0.1 0.7-0.2 0.9s-0.3 0.5-0.6 0.8c-0.3 0.2-0.6 0.4-1 0.5 -0.4 0.1-0.8 0.2-1.3 0.2 -0.5 0-1-0.1-1.5-0.3 -0.5-0.2-1-0.4-1.3-0.7L59.9 127.3z" class="e"/><path d="M65.6 122.1h2.2l0.7 3.5c0.1 0.4 0.1 0.7 0.2 1.1 0.1 0.4 0.1 0.7 0.2 1.1h0.1c0.1-0.4 0.1-0.8 0.2-1.1 0.1-0.4 0.1-0.7 0.2-1.1l0.8-3.4h1.9l0.8 3.5c0.1 0.4 0.2 0.7 0.2 1.1s0.1 0.7 0.2 1.1h0.1c0.1-0.4 0.1-0.7 0.2-1.1 0-0.4 0.1-0.7 0.2-1.1l0.7-3.4h2l-1.8 7.4h-2.6l-0.7-3c-0.1-0.3-0.1-0.7-0.2-1 -0.1-0.3-0.1-0.7-0.2-1.1h-0.1c-0.1 0.4-0.1 0.8-0.2 1.1s-0.1 0.7-0.2 1.1l-0.7 3h-2.5L65.6 122.1z" class="e"/><path d="M77.3 125.8c0-0.6 0.1-1.2 0.3-1.7s0.5-0.9 0.8-1.2c0.3-0.3 0.7-0.6 1.2-0.8 0.4-0.2 0.9-0.3 1.4-0.3s0.9 0.1 1.4 0.3 0.8 0.4 1.2 0.8c0.3 0.3 0.6 0.7 0.8 1.2s0.3 1 0.3 1.7c0 0.6-0.1 1.2-0.3 1.7 -0.2 0.5-0.5 0.9-0.8 1.2 -0.3 0.3-0.7 0.6-1.2 0.8s-0.9 0.3-1.4 0.3 -0.9-0.1-1.4-0.3c-0.4-0.2-0.8-0.4-1.2-0.8 -0.3-0.3-0.6-0.7-0.8-1.2C77.4 127 77.3 126.4 77.3 125.8zM79.5 125.8c0 0.7 0.1 1.2 0.3 1.5s0.6 0.6 1 0.6c0.5 0 0.8-0.2 1-0.6s0.3-0.9 0.3-1.5c0-0.6-0.1-1.2-0.3-1.5 -0.2-0.4-0.6-0.6-1-0.6 -0.5 0-0.8 0.2-1 0.6C79.7 124.6 79.5 125.1 79.5 125.8z" class="e"/><path d="M86 122.1h1.8l0.2 1.3h0.1c0.3-0.5 0.6-0.9 1-1.1 0.4-0.2 0.8-0.4 1.1-0.4 0.2 0 0.4 0 0.5 0 0.1 0 0.3 0.1 0.4 0.1l-0.4 1.9c-0.1 0-0.3-0.1-0.4-0.1 -0.1 0-0.3 0-0.4 0 -0.3 0-0.6 0.1-0.9 0.3 -0.3 0.2-0.6 0.6-0.8 1.1v4.3h-2.2V122.1z" class="e"/><path d="M91.5 125.8c0-0.6 0.1-1.2 0.3-1.6 0.2-0.5 0.4-0.9 0.7-1.2 0.3-0.3 0.6-0.6 1-0.8 0.4-0.2 0.8-0.3 1.1-0.3 0.4 0 0.8 0.1 1 0.2 0.3 0.1 0.5 0.3 0.8 0.6l-0.1-1.1V119h2.2v10.5h-1.8l-0.1-0.7h-0.1c-0.3 0.3-0.6 0.5-0.9 0.7s-0.7 0.3-1.1 0.3c-0.5 0-0.9-0.1-1.3-0.3 -0.4-0.2-0.7-0.4-1-0.8 -0.3-0.3-0.5-0.7-0.6-1.2C91.5 127 91.5 126.4 91.5 125.8zM93.7 125.8c0 0.7 0.1 1.3 0.4 1.6 0.2 0.3 0.6 0.5 1 0.5 0.2 0 0.5 0 0.7-0.1 0.2-0.1 0.4-0.3 0.6-0.5v-3c-0.2-0.2-0.4-0.3-0.6-0.4s-0.4-0.1-0.6-0.1c-0.3 0-0.7 0.2-0.9 0.5S93.7 125.1 93.7 125.8z" class="e"/><path d="M104.7 121c-0.4 0-0.7-0.1-0.9-0.3 -0.2-0.2-0.4-0.5-0.4-0.8s0.1-0.6 0.4-0.8c0.2-0.2 0.5-0.3 0.9-0.3 0.4 0 0.7 0.1 0.9 0.3 0.2 0.2 0.4 0.5 0.4 0.8s-0.1 0.6-0.4 0.8C105.4 120.9 105.1 121 104.7 121zM103.6 122.1h2.2v7.4h-2.2V122.1z" class="e"/><path d="M108 127.3c0.3 0.3 0.7 0.5 1 0.6s0.6 0.2 0.9 0.2c0.3 0 0.6-0.1 0.7-0.2 0.2-0.1 0.2-0.3 0.2-0.5 0-0.1 0-0.2-0.1-0.3 -0.1-0.1-0.2-0.2-0.3-0.3s-0.3-0.2-0.5-0.2c-0.2-0.1-0.4-0.1-0.6-0.2 -0.2-0.1-0.5-0.2-0.7-0.3s-0.4-0.3-0.6-0.4 -0.3-0.4-0.5-0.6c-0.1-0.2-0.2-0.5-0.2-0.8 0-0.3 0.1-0.7 0.2-0.9 0.1-0.3 0.3-0.5 0.6-0.7 0.3-0.2 0.6-0.4 0.9-0.5 0.4-0.1 0.7-0.2 1.2-0.2 0.6 0 1.1 0.1 1.5 0.3 0.4 0.2 0.8 0.4 1.1 0.7l-1 1.3c-0.3-0.2-0.5-0.4-0.8-0.5s-0.5-0.2-0.8-0.2c-0.6 0-0.8 0.2-0.8 0.6 0 0.1 0 0.2 0.1 0.3s0.2 0.2 0.3 0.2c0.1 0.1 0.3 0.1 0.5 0.2 0.2 0.1 0.4 0.1 0.5 0.2 0.2 0.1 0.5 0.2 0.7 0.3 0.2 0.1 0.5 0.3 0.6 0.4 0.2 0.2 0.4 0.4 0.5 0.6 0.1 0.2 0.2 0.5 0.2 0.9 0 0.3-0.1 0.7-0.2 0.9s-0.3 0.5-0.6 0.8c-0.3 0.2-0.6 0.4-1 0.5 -0.4 0.1-0.8 0.2-1.3 0.2 -0.5 0-1-0.1-1.5-0.3 -0.5-0.2-1-0.4-1.3-0.7L108 127.3z" class="e"/><path d="M117.5 119h2.2v2.6l-0.1 1.3c0.3-0.2 0.6-0.5 1-0.7s0.8-0.3 1.3-0.3c0.8 0 1.4 0.3 1.8 0.8 0.4 0.5 0.5 1.3 0.5 2.2v4.6h-2.2v-4.3c0-0.5-0.1-0.9-0.2-1.1s-0.4-0.3-0.7-0.3c-0.3 0-0.5 0.1-0.7 0.2 -0.2 0.1-0.4 0.3-0.7 0.5v5h-2.2V119z" class="e"/><path d="M125.8 127.4c0-0.8 0.3-1.4 1-1.8 0.7-0.4 1.7-0.7 3.2-0.9 0-0.3-0.1-0.6-0.3-0.8 -0.2-0.2-0.5-0.3-0.9-0.3 -0.3 0-0.6 0.1-1 0.2 -0.3 0.1-0.7 0.3-1 0.5l-0.8-1.5c0.5-0.3 1-0.5 1.5-0.7 0.5-0.2 1.1-0.3 1.7-0.3 1 0 1.7 0.3 2.2 0.8 0.5 0.5 0.8 1.4 0.8 2.5v4.3h-1.8l-0.2-0.8h0c-0.3 0.3-0.7 0.5-1 0.7s-0.7 0.3-1.2 0.3c-0.3 0-0.6-0.1-0.9-0.2 -0.3-0.1-0.5-0.3-0.7-0.5 -0.2-0.2-0.3-0.4-0.4-0.7S125.8 127.8 125.8 127.4zM127.9 127.3c0 0.2 0.1 0.4 0.2 0.5 0.2 0.1 0.4 0.2 0.6 0.2 0.3 0 0.5-0.1 0.7-0.2 0.2-0.1 0.4-0.3 0.6-0.5v-1.3c-0.8 0.1-1.3 0.3-1.6 0.5C128 126.7 127.9 127 127.9 127.3z" class="e"/><path d="M134.4 127.3c0.3 0.3 0.7 0.5 1 0.6s0.6 0.2 0.9 0.2c0.3 0 0.6-0.1 0.7-0.2 0.2-0.1 0.2-0.3 0.2-0.5 0-0.1 0-0.2-0.1-0.3 -0.1-0.1-0.2-0.2-0.3-0.3s-0.3-0.2-0.5-0.2c-0.2-0.1-0.4-0.1-0.6-0.2 -0.2-0.1-0.5-0.2-0.7-0.3s-0.4-0.3-0.6-0.4 -0.3-0.4-0.5-0.6c-0.1-0.2-0.2-0.5-0.2-0.8 0-0.3 0.1-0.7 0.2-0.9 0.1-0.3 0.3-0.5 0.6-0.7 0.3-0.2 0.6-0.4 0.9-0.5 0.4-0.1 0.7-0.2 1.2-0.2 0.6 0 1.1 0.1 1.5 0.3 0.4 0.2 0.8 0.4 1.1 0.7l-1 1.3c-0.3-0.2-0.5-0.4-0.8-0.5s-0.5-0.2-0.8-0.2c-0.6 0-0.8 0.2-0.8 0.6 0 0.1 0 0.2 0.1 0.3s0.2 0.2 0.3 0.2c0.1 0.1 0.3 0.1 0.5 0.2 0.2 0.1 0.4 0.1 0.5 0.2 0.2 0.1 0.5 0.2 0.7 0.3 0.2 0.1 0.5 0.3 0.6 0.4 0.2 0.2 0.4 0.4 0.5 0.6 0.1 0.2 0.2 0.5 0.2 0.9 0 0.3-0.1 0.7-0.2 0.9s-0.3 0.5-0.6 0.8c-0.3 0.2-0.6 0.4-1 0.5 -0.4 0.1-0.8 0.2-1.3 0.2 -0.5 0-1-0.1-1.5-0.3 -0.5-0.2-1-0.4-1.3-0.7L134.4 127.3z" class="e"/><path d="M140.7 119h2.2v2.6l-0.1 1.3c0.3-0.2 0.6-0.5 1-0.7s0.8-0.3 1.3-0.3c0.8 0 1.4 0.3 1.8 0.8 0.4 0.5 0.5 1.3 0.5 2.2v4.6h-2.2v-4.3c0-0.5-0.1-0.9-0.2-1.1s-0.4-0.3-0.7-0.3c-0.3 0-0.5 0.1-0.7 0.2 -0.2 0.1-0.4 0.3-0.7 0.5v5h-2.2V119z" class="e"/><path d="M148.8 125.8c0-0.6 0.1-1.1 0.3-1.6 0.2-0.5 0.5-0.9 0.8-1.2 0.3-0.3 0.7-0.6 1.1-0.8 0.4-0.2 0.9-0.3 1.3-0.3 0.5 0 1 0.1 1.4 0.3 0.4 0.2 0.7 0.4 1 0.8 0.3 0.3 0.5 0.7 0.6 1.1 0.1 0.4 0.2 0.9 0.2 1.4 0 0.2 0 0.4 0 0.5s0 0.3-0.1 0.4h-4.5c0.1 0.6 0.3 1 0.7 1.2 0.3 0.3 0.8 0.4 1.3 0.4 0.5 0 1.1-0.2 1.6-0.5l0.7 1.3c-0.4 0.3-0.8 0.5-1.3 0.6 -0.5 0.2-0.9 0.2-1.4 0.2 -0.5 0-1-0.1-1.5-0.3s-0.9-0.4-1.2-0.8c-0.3-0.3-0.6-0.7-0.8-1.2C148.9 127 148.8 126.4 148.8 125.8zM153.6 125c0-0.4-0.1-0.8-0.3-1 -0.2-0.3-0.5-0.4-1-0.4 -0.4 0-0.7 0.1-0.9 0.4s-0.4 0.6-0.5 1.1H153.6z" class="e"/><path d="M156.6 125.8c0-0.6 0.1-1.2 0.3-1.6 0.2-0.5 0.4-0.9 0.7-1.2 0.3-0.3 0.6-0.6 1-0.8 0.4-0.2 0.8-0.3 1.1-0.3 0.4 0 0.8 0.1 1 0.2 0.3 0.1 0.5 0.3 0.8 0.6l-0.1-1.1V119h2.2v10.5h-1.8l-0.1-0.7h-0.1c-0.3 0.3-0.6 0.5-0.9 0.7s-0.7 0.3-1.1 0.3c-0.5 0-0.9-0.1-1.3-0.3 -0.4-0.2-0.7-0.4-1-0.8 -0.3-0.3-0.5-0.7-0.6-1.2C156.7 127 156.6 126.4 156.6 125.8zM158.9 125.8c0 0.7 0.1 1.3 0.4 1.6 0.2 0.3 0.6 0.5 1 0.5 0.2 0 0.5 0 0.7-0.1 0.2-0.1 0.4-0.3 0.6-0.5v-3c-0.2-0.2-0.4-0.3-0.6-0.4s-0.4-0.1-0.6-0.1c-0.3 0-0.7 0.2-0.9 0.5S158.9 125.1 158.9 125.8z" class="e"/><path d="M356 126.8c0.4 0.3 0.7 0.5 1.2 0.7 0.4 0.2 0.8 0.3 1.3 0.3 0.5 0 0.8-0.1 1-0.3s0.3-0.4 0.3-0.7c0-0.1 0-0.3-0.1-0.4 -0.1-0.1-0.2-0.2-0.3-0.3 -0.1-0.1-0.3-0.2-0.4-0.2 -0.2-0.1-0.4-0.2-0.6-0.2l-1.3-0.5c-0.2-0.1-0.5-0.2-0.7-0.4 -0.2-0.2-0.4-0.3-0.6-0.6 -0.2-0.2-0.3-0.5-0.4-0.7 -0.1-0.3-0.2-0.6-0.2-1 0-0.4 0.1-0.8 0.3-1.1 0.2-0.4 0.4-0.7 0.7-0.9 0.3-0.3 0.7-0.5 1.1-0.6 0.4-0.1 0.9-0.2 1.4-0.2 0.6 0 1.1 0.1 1.7 0.3 0.6 0.2 1 0.5 1.5 1l-1.1 1.4c-0.3-0.2-0.6-0.4-1-0.6 -0.3-0.1-0.7-0.2-1.1-0.2 -0.4 0-0.7 0.1-0.9 0.2 -0.2 0.2-0.3 0.4-0.3 0.7 0 0.2 0 0.3 0.1 0.4s0.2 0.2 0.3 0.3c0.1 0.1 0.3 0.2 0.5 0.2 0.2 0.1 0.4 0.2 0.6 0.2l1.3 0.5c0.6 0.2 1.1 0.6 1.4 1s0.5 1 0.5 1.7c0 0.4-0.1 0.8-0.2 1.2 -0.2 0.4-0.4 0.7-0.7 1 -0.3 0.3-0.7 0.5-1.2 0.7s-1 0.2-1.6 0.2c-0.6 0-1.3-0.1-1.9-0.4 -0.6-0.2-1.2-0.6-1.7-1.1L356 126.8z" class="e"/><path d="M363.3 127.4c0-0.8 0.3-1.4 1-1.8s1.7-0.7 3.2-0.9c0-0.3-0.1-0.6-0.3-0.8 -0.2-0.2-0.5-0.3-0.9-0.3 -0.3 0-0.6 0.1-1 0.2s-0.7 0.3-1 0.5l-0.8-1.5c0.5-0.3 1-0.5 1.5-0.7 0.5-0.2 1.1-0.3 1.7-0.3 1 0 1.7 0.3 2.2 0.8 0.5 0.5 0.8 1.4 0.8 2.5v4.3h-1.8l-0.2-0.8h0c-0.3 0.3-0.7 0.5-1 0.7s-0.7 0.3-1.2 0.3c-0.3 0-0.6-0.1-0.9-0.2 -0.3-0.1-0.5-0.3-0.7-0.5 -0.2-0.2-0.3-0.4-0.4-0.7S363.3 127.8 363.3 127.4zM365.4 127.3c0 0.2 0.1 0.4 0.2 0.5 0.2 0.1 0.4 0.2 0.6 0.2s0.5-0.1 0.7-0.2 0.4-0.3 0.6-0.5v-1.3c-0.8 0.1-1.3 0.3-1.6 0.5S365.4 127 365.4 127.3z" class="e"/><path d="M371.5 119h2.2v8.3c0 0.2 0 0.4 0.1 0.5 0.1 0.1 0.2 0.1 0.3 0.1 0.1 0 0.1 0 0.1 0s0.1 0 0.1 0l0.3 1.6c-0.1 0.1-0.3 0.1-0.5 0.1s-0.4 0.1-0.7 0.1c-0.4 0-0.7-0.1-1-0.2 -0.3-0.1-0.5-0.3-0.6-0.5 -0.2-0.2-0.3-0.5-0.3-0.8 -0.1-0.3-0.1-0.6-0.1-1V119z" class="e"/><path d="M376.1 123.8h-1v-1.6l1.1-0.1 0.3-2h1.8v2h1.8v1.7h-1.8v3c0 0.4 0.1 0.7 0.3 0.9 0.2 0.2 0.4 0.3 0.7 0.3 0.1 0 0.2 0 0.4 0 0.1 0 0.2-0.1 0.3-0.1l0.3 1.6c-0.2 0.1-0.4 0.1-0.7 0.2s-0.6 0.1-0.9 0.1c-0.5 0-0.9-0.1-1.2-0.2 -0.3-0.1-0.6-0.3-0.8-0.6 -0.2-0.2-0.4-0.6-0.5-0.9 -0.1-0.4-0.1-0.7-0.1-1.2V123.8z" class="e"/><path d="M385.8 121c-0.4 0-0.7-0.1-0.9-0.3s-0.4-0.5-0.4-0.8 0.1-0.6 0.4-0.8 0.5-0.3 0.9-0.3c0.4 0 0.7 0.1 0.9 0.3 0.2 0.2 0.4 0.5 0.4 0.8s-0.1 0.6-0.4 0.8C386.5 120.9 386.2 121 385.8 121zM384.7 122.1h2.2v7.4h-2.2V122.1z" class="e"/><path d="M389.2 127.3c0.3 0.3 0.7 0.5 1 0.6 0.3 0.1 0.6 0.2 0.9 0.2 0.3 0 0.6-0.1 0.7-0.2 0.2-0.1 0.2-0.3 0.2-0.5 0-0.1 0-0.2-0.1-0.3 -0.1-0.1-0.2-0.2-0.3-0.3s-0.3-0.2-0.5-0.2c-0.2-0.1-0.4-0.1-0.6-0.2 -0.2-0.1-0.5-0.2-0.7-0.3s-0.4-0.3-0.6-0.4 -0.3-0.4-0.5-0.6c-0.1-0.2-0.2-0.5-0.2-0.8 0-0.3 0.1-0.7 0.2-0.9 0.1-0.3 0.3-0.5 0.6-0.7 0.2-0.2 0.5-0.4 0.9-0.5 0.4-0.1 0.7-0.2 1.2-0.2 0.6 0 1.1 0.1 1.5 0.3 0.4 0.2 0.8 0.4 1.1 0.7l-1 1.3c-0.3-0.2-0.5-0.4-0.8-0.5s-0.5-0.2-0.8-0.2c-0.6 0-0.8 0.2-0.8 0.6 0 0.1 0 0.2 0.1 0.3s0.2 0.2 0.3 0.2c0.1 0.1 0.3 0.1 0.5 0.2 0.2 0.1 0.4 0.1 0.5 0.2 0.2 0.1 0.5 0.2 0.7 0.3 0.2 0.1 0.4 0.3 0.6 0.4 0.2 0.2 0.4 0.4 0.5 0.6 0.1 0.2 0.2 0.5 0.2 0.9 0 0.3-0.1 0.7-0.2 0.9 -0.1 0.3-0.3 0.5-0.6 0.8 -0.3 0.2-0.6 0.4-1 0.5 -0.4 0.1-0.8 0.2-1.3 0.2 -0.5 0-1-0.1-1.5-0.3 -0.5-0.2-1-0.4-1.3-0.7L389.2 127.3z" class="e"/><path d="M398.6 119h2.2v2.6l-0.1 1.3c0.3-0.2 0.6-0.5 1-0.7 0.4-0.2 0.8-0.3 1.3-0.3 0.8 0 1.4 0.3 1.8 0.8 0.4 0.5 0.5 1.3 0.5 2.2v4.6h-2.2v-4.3c0-0.5-0.1-0.9-0.2-1.1s-0.4-0.3-0.7-0.3c-0.3 0-0.5 0.1-0.7 0.2 -0.2 0.1-0.4 0.3-0.7 0.5v5h-2.2V119z" class="e"/><path d="M406.9 127.4c0-0.8 0.3-1.4 1-1.8s1.7-0.7 3.2-0.9c0-0.3-0.1-0.6-0.3-0.8 -0.2-0.2-0.5-0.3-0.9-0.3 -0.3 0-0.6 0.1-1 0.2s-0.7 0.3-1 0.5l-0.8-1.5c0.5-0.3 1-0.5 1.5-0.7 0.5-0.2 1.1-0.3 1.7-0.3 1 0 1.7 0.3 2.2 0.8 0.5 0.5 0.8 1.4 0.8 2.5v4.3h-1.8l-0.2-0.8h0c-0.3 0.3-0.7 0.5-1 0.7s-0.7 0.3-1.2 0.3c-0.3 0-0.6-0.1-0.9-0.2 -0.3-0.1-0.5-0.3-0.7-0.5 -0.2-0.2-0.3-0.4-0.4-0.7S406.9 127.8 406.9 127.4zM409 127.3c0 0.2 0.1 0.4 0.2 0.5 0.2 0.1 0.4 0.2 0.6 0.2s0.5-0.1 0.7-0.2 0.4-0.3 0.6-0.5v-1.3c-0.8 0.1-1.3 0.3-1.6 0.5S409 127 409 127.3z" class="e"/><path d="M415.5 127.3c0.3 0.3 0.7 0.5 1 0.6 0.3 0.1 0.6 0.2 0.9 0.2 0.3 0 0.6-0.1 0.7-0.2 0.2-0.1 0.2-0.3 0.2-0.5 0-0.1 0-0.2-0.1-0.3 -0.1-0.1-0.2-0.2-0.3-0.3s-0.3-0.2-0.5-0.2c-0.2-0.1-0.4-0.1-0.6-0.2 -0.2-0.1-0.5-0.2-0.7-0.3s-0.4-0.3-0.6-0.4 -0.3-0.4-0.5-0.6c-0.1-0.2-0.2-0.5-0.2-0.8 0-0.3 0.1-0.7 0.2-0.9 0.1-0.3 0.3-0.5 0.6-0.7 0.2-0.2 0.5-0.4 0.9-0.5 0.4-0.1 0.7-0.2 1.2-0.2 0.6 0 1.1 0.1 1.5 0.3 0.4 0.2 0.8 0.4 1.1 0.7l-1 1.3c-0.3-0.2-0.5-0.4-0.8-0.5s-0.5-0.2-0.8-0.2c-0.6 0-0.8 0.2-0.8 0.6 0 0.1 0 0.2 0.1 0.3s0.2 0.2 0.3 0.2c0.1 0.1 0.3 0.1 0.5 0.2 0.2 0.1 0.4 0.1 0.5 0.2 0.2 0.1 0.5 0.2 0.7 0.3 0.2 0.1 0.4 0.3 0.6 0.4 0.2 0.2 0.4 0.4 0.5 0.6 0.1 0.2 0.2 0.5 0.2 0.9 0 0.3-0.1 0.7-0.2 0.9 -0.1 0.3-0.3 0.5-0.6 0.8 -0.3 0.2-0.6 0.4-1 0.5 -0.4 0.1-0.8 0.2-1.3 0.2 -0.5 0-1-0.1-1.5-0.3 -0.5-0.2-1-0.4-1.3-0.7L415.5 127.3z" class="e"/><path d="M421.8 119h2.2v2.6l-0.1 1.3c0.3-0.2 0.6-0.5 1-0.7 0.4-0.2 0.8-0.3 1.3-0.3 0.8 0 1.4 0.3 1.8 0.8 0.4 0.5 0.5 1.3 0.5 2.2v4.6h-2.2v-4.3c0-0.5-0.1-0.9-0.2-1.1s-0.4-0.3-0.7-0.3c-0.3 0-0.5 0.1-0.7 0.2 -0.2 0.1-0.4 0.3-0.7 0.5v5h-2.2V119z" class="e"/><path d="M430 125.8c0-0.6 0.1-1.1 0.3-1.6 0.2-0.5 0.5-0.9 0.8-1.2 0.3-0.3 0.7-0.6 1.1-0.8 0.4-0.2 0.9-0.3 1.3-0.3 0.5 0 1 0.1 1.4 0.3 0.4 0.2 0.7 0.4 1 0.8 0.3 0.3 0.5 0.7 0.6 1.1 0.1 0.4 0.2 0.9 0.2 1.4 0 0.2 0 0.4 0 0.5 0 0.2 0 0.3-0.1 0.4h-4.5c0.1 0.6 0.3 1 0.7 1.2 0.3 0.3 0.8 0.4 1.3 0.4 0.5 0 1.1-0.2 1.6-0.5l0.7 1.3c-0.4 0.3-0.8 0.5-1.3 0.6 -0.5 0.2-0.9 0.2-1.4 0.2 -0.5 0-1-0.1-1.5-0.3 -0.5-0.2-0.9-0.4-1.2-0.8 -0.3-0.3-0.6-0.7-0.8-1.2C430.1 127 430 126.4 430 125.8zM434.8 125c0-0.4-0.1-0.8-0.3-1 -0.2-0.3-0.5-0.4-1-0.4 -0.3 0-0.7 0.1-0.9 0.4 -0.3 0.2-0.4 0.6-0.5 1.1H434.8z" class="e"/><path d="M437.8 125.8c0-0.6 0.1-1.2 0.3-1.6 0.2-0.5 0.4-0.9 0.7-1.2 0.3-0.3 0.6-0.6 1-0.8 0.4-0.2 0.8-0.3 1.1-0.3 0.4 0 0.8 0.1 1 0.2 0.3 0.1 0.5 0.3 0.8 0.6l-0.1-1.1V119h2.2v10.5h-1.8l-0.1-0.7h-0.1c-0.3 0.3-0.6 0.5-0.9 0.7s-0.7 0.3-1.1 0.3c-0.5 0-0.9-0.1-1.3-0.3 -0.4-0.2-0.7-0.4-1-0.8s-0.5-0.7-0.6-1.2C437.8 127 437.8 126.4 437.8 125.8zM440 125.8c0 0.7 0.1 1.3 0.4 1.6s0.6 0.5 1 0.5c0.2 0 0.5 0 0.7-0.1 0.2-0.1 0.4-0.3 0.6-0.5v-3c-0.2-0.2-0.4-0.3-0.6-0.4 -0.2-0.1-0.4-0.1-0.6-0.1 -0.4 0-0.7 0.2-0.9 0.5C440.2 124.5 440 125.1 440 125.8z" class="e"/><path d="M191 209.2h3.6c0.5 0 1 0.1 1.5 0.2 0.5 0.1 0.9 0.3 1.2 0.5 0.3 0.2 0.6 0.6 0.8 1 0.2 0.4 0.3 0.9 0.3 1.5 0 0.6-0.1 1.1-0.3 1.5 -0.2 0.4-0.5 0.8-0.8 1 -0.3 0.3-0.8 0.5-1.2 0.6s-0.9 0.2-1.5 0.2h-1.4v3.3h-2.2V209.2zM194.5 213.9c1.2 0 1.8-0.5 1.8-1.6 0-0.5-0.2-0.9-0.5-1.1 -0.3-0.2-0.8-0.3-1.3-0.3h-1.2v3H194.5z" class="e"/><path d="M199.2 216.9c0-0.8 0.3-1.4 1-1.8 0.7-0.4 1.7-0.7 3.2-0.9 0-0.3-0.1-0.6-0.3-0.8 -0.2-0.2-0.5-0.3-0.9-0.3 -0.3 0-0.6 0.1-1 0.2 -0.3 0.1-0.7 0.3-1 0.5l-0.8-1.5c0.5-0.3 1-0.5 1.5-0.7 0.5-0.2 1.1-0.3 1.7-0.3 1 0 1.7 0.3 2.2 0.8 0.5 0.5 0.8 1.4 0.8 2.5v4.3h-1.8l-0.2-0.8h0c-0.3 0.3-0.7 0.5-1 0.7 -0.4 0.2-0.7 0.3-1.2 0.3 -0.3 0-0.6-0.1-0.9-0.2 -0.3-0.1-0.5-0.3-0.7-0.5 -0.2-0.2-0.3-0.4-0.4-0.7C199.2 217.6 199.2 217.3 199.2 216.9zM201.3 216.8c0 0.2 0.1 0.4 0.2 0.5 0.2 0.1 0.4 0.2 0.6 0.2 0.3 0 0.5-0.1 0.7-0.2 0.2-0.1 0.4-0.3 0.6-0.5v-1.3c-0.8 0.1-1.3 0.3-1.6 0.5C201.4 216.2 201.3 216.5 201.3 216.8z" class="e"/><path d="M207.8 216.8c0.3 0.3 0.7 0.5 1 0.6 0.3 0.1 0.6 0.2 0.9 0.2 0.3 0 0.6-0.1 0.7-0.2 0.2-0.1 0.2-0.3 0.2-0.5 0-0.1 0-0.2-0.1-0.3 -0.1-0.1-0.2-0.2-0.3-0.3s-0.3-0.2-0.5-0.2c-0.2-0.1-0.4-0.1-0.6-0.2 -0.2-0.1-0.5-0.2-0.7-0.3s-0.4-0.3-0.6-0.4 -0.3-0.4-0.5-0.6c-0.1-0.2-0.2-0.5-0.2-0.8 0-0.3 0.1-0.7 0.2-0.9 0.1-0.3 0.3-0.5 0.6-0.7 0.3-0.2 0.6-0.4 0.9-0.5 0.4-0.1 0.7-0.2 1.2-0.2 0.6 0 1.1 0.1 1.5 0.3 0.4 0.2 0.8 0.4 1.1 0.7l-1 1.3c-0.3-0.2-0.5-0.4-0.8-0.5 -0.3-0.1-0.5-0.2-0.8-0.2 -0.6 0-0.8 0.2-0.8 0.6 0 0.1 0 0.2 0.1 0.3 0.1 0.1 0.2 0.2 0.3 0.2 0.1 0.1 0.3 0.1 0.5 0.2 0.2 0.1 0.4 0.1 0.5 0.2 0.2 0.1 0.5 0.2 0.7 0.3 0.2 0.1 0.5 0.3 0.6 0.4 0.2 0.2 0.4 0.4 0.5 0.6s0.2 0.5 0.2 0.9 -0.1 0.7-0.2 0.9c-0.1 0.3-0.3 0.5-0.6 0.8 -0.3 0.2-0.6 0.4-1 0.5 -0.4 0.1-0.8 0.2-1.3 0.2 -0.5 0-1-0.1-1.5-0.3 -0.5-0.2-1-0.4-1.3-0.7L207.8 216.8z" class="e"/><path d="M214.4 216.8c0.3 0.3 0.7 0.5 1 0.6 0.3 0.1 0.6 0.2 0.9 0.2 0.3 0 0.6-0.1 0.7-0.2 0.2-0.1 0.2-0.3 0.2-0.5 0-0.1 0-0.2-0.1-0.3 -0.1-0.1-0.2-0.2-0.3-0.3s-0.3-0.2-0.5-0.2c-0.2-0.1-0.4-0.1-0.6-0.2 -0.2-0.1-0.5-0.2-0.7-0.3s-0.4-0.3-0.6-0.4 -0.3-0.4-0.5-0.6c-0.1-0.2-0.2-0.5-0.2-0.8 0-0.3 0.1-0.7 0.2-0.9 0.1-0.3 0.3-0.5 0.6-0.7 0.3-0.2 0.6-0.4 0.9-0.5 0.4-0.1 0.7-0.2 1.2-0.2 0.6 0 1.1 0.1 1.5 0.3 0.4 0.2 0.8 0.4 1.1 0.7l-1 1.3c-0.3-0.2-0.5-0.4-0.8-0.5 -0.3-0.1-0.5-0.2-0.8-0.2 -0.6 0-0.8 0.2-0.8 0.6 0 0.1 0 0.2 0.1 0.3 0.1 0.1 0.2 0.2 0.3 0.2 0.1 0.1 0.3 0.1 0.5 0.2 0.2 0.1 0.4 0.1 0.5 0.2 0.2 0.1 0.5 0.2 0.7 0.3 0.2 0.1 0.5 0.3 0.6 0.4 0.2 0.2 0.4 0.4 0.5 0.6s0.2 0.5 0.2 0.9 -0.1 0.7-0.2 0.9c-0.1 0.3-0.3 0.5-0.6 0.8 -0.3 0.2-0.6 0.4-1 0.5 -0.4 0.1-0.8 0.2-1.3 0.2 -0.5 0-1-0.1-1.5-0.3 -0.5-0.2-1-0.4-1.3-0.7L214.4 216.8z" class="e"/><path d="M220.1 211.6h2.2l0.7 3.5c0.1 0.4 0.1 0.7 0.2 1.1 0.1 0.4 0.1 0.7 0.2 1.1h0.1c0.1-0.4 0.1-0.8 0.2-1.1s0.1-0.7 0.2-1.1l0.8-3.4h1.9l0.8 3.5c0.1 0.4 0.2 0.7 0.2 1.1 0.1 0.4 0.1 0.7 0.2 1.1h0.1c0.1-0.4 0.1-0.7 0.2-1.1 0-0.4 0.1-0.7 0.2-1.1l0.7-3.4h2l-1.8 7.4h-2.6l-0.7-3c-0.1-0.3-0.1-0.7-0.2-1.1 -0.1-0.3-0.1-0.7-0.2-1.1h-0.1c-0.1 0.4-0.1 0.8-0.2 1.1 -0.1 0.4-0.1 0.7-0.2 1.1l-0.7 3h-2.5L220.1 211.6z" class="e"/><path d="M231.8 215.3c0-0.6 0.1-1.2 0.3-1.7 0.2-0.5 0.5-0.9 0.8-1.2 0.3-0.3 0.7-0.6 1.2-0.8 0.4-0.2 0.9-0.3 1.4-0.3s0.9 0.1 1.4 0.3 0.8 0.4 1.2 0.8c0.3 0.3 0.6 0.7 0.8 1.2 0.2 0.5 0.3 1 0.3 1.7s-0.1 1.2-0.3 1.7 -0.5 0.9-0.8 1.2c-0.3 0.3-0.7 0.6-1.2 0.8 -0.4 0.2-0.9 0.3-1.4 0.3s-0.9-0.1-1.4-0.3c-0.4-0.2-0.8-0.4-1.2-0.8 -0.3-0.3-0.6-0.7-0.8-1.2S231.8 215.9 231.8 215.3zM234.1 215.3c0 0.7 0.1 1.2 0.3 1.5s0.6 0.6 1 0.6c0.5 0 0.8-0.2 1-0.6s0.3-0.9 0.3-1.5 -0.1-1.2-0.3-1.5c-0.2-0.4-0.6-0.6-1-0.6 -0.5 0-0.8 0.2-1 0.6C234.2 214.1 234.1 214.6 234.1 215.3z" class="e"/><path d="M240.6 211.6h1.8l0.2 1.3h0.1c0.3-0.5 0.6-0.9 1-1.1 0.4-0.2 0.8-0.4 1.1-0.4 0.2 0 0.4 0 0.5 0 0.1 0 0.3 0.1 0.4 0.1l-0.4 1.9c-0.1 0-0.3-0.1-0.4-0.1 -0.1 0-0.3 0-0.4 0 -0.3 0-0.6 0.1-0.9 0.3 -0.3 0.2-0.6 0.6-0.8 1.1v4.3h-2.2V211.6z" class="e"/><path d="M246 215.3c0-0.6 0.1-1.2 0.3-1.6 0.2-0.5 0.4-0.9 0.7-1.2 0.3-0.3 0.6-0.6 1-0.8 0.4-0.2 0.8-0.3 1.1-0.3 0.4 0 0.8 0.1 1 0.2s0.5 0.3 0.8 0.6l-0.1-1.1V208.5h2.2v10.5h-1.8l-0.1-0.7h-0.1c-0.3 0.3-0.6 0.5-0.9 0.7 -0.3 0.2-0.7 0.3-1.1 0.3 -0.5 0-0.9-0.1-1.3-0.3 -0.4-0.2-0.7-0.4-1-0.8 -0.3-0.3-0.5-0.7-0.6-1.2C246.1 216.4 246 215.9 246 215.3zM248.3 215.3c0 0.7 0.1 1.3 0.4 1.6 0.2 0.3 0.6 0.5 1 0.5 0.2 0 0.5 0 0.7-0.1 0.2-0.1 0.4-0.3 0.6-0.5v-3c-0.2-0.2-0.4-0.3-0.6-0.4s-0.4-0.1-0.6-0.1c-0.3 0-0.7 0.2-0.9 0.5S248.3 214.6 248.3 215.3z" class="e"/><path d="M257.8 216.9c0-0.8 0.3-1.4 1-1.8 0.7-0.4 1.7-0.7 3.2-0.9 0-0.3-0.1-0.6-0.3-0.8 -0.2-0.2-0.5-0.3-0.9-0.3 -0.3 0-0.6 0.1-1 0.2 -0.3 0.1-0.7 0.3-1 0.5l-0.8-1.5c0.5-0.3 1-0.5 1.5-0.7 0.5-0.2 1.1-0.3 1.7-0.3 1 0 1.7 0.3 2.2 0.8 0.5 0.5 0.8 1.4 0.8 2.5v4.3h-1.8l-0.2-0.8h0c-0.3 0.3-0.7 0.5-1 0.7 -0.4 0.2-0.7 0.3-1.2 0.3 -0.3 0-0.6-0.1-0.9-0.2 -0.3-0.1-0.5-0.3-0.7-0.5 -0.2-0.2-0.3-0.4-0.4-0.7C257.9 217.6 257.8 217.3 257.8 216.9zM259.9 216.8c0 0.2 0.1 0.4 0.2 0.5 0.2 0.1 0.4 0.2 0.6 0.2 0.3 0 0.5-0.1 0.7-0.2 0.2-0.1 0.4-0.3 0.6-0.5v-1.3c-0.8 0.1-1.3 0.3-1.6 0.5C260.1 216.2 259.9 216.5 259.9 216.8z" class="e"/><path d="M266.1 211.6h1.8l0.1 0.9h0.1c0.3-0.3 0.7-0.6 1.1-0.8 0.4-0.2 0.8-0.3 1.3-0.3 0.8 0 1.4 0.3 1.8 0.8 0.4 0.5 0.5 1.3 0.5 2.2v4.6h-2.2v-4.3c0-0.5-0.1-0.9-0.2-1.1 -0.1-0.2-0.4-0.3-0.7-0.3 -0.3 0-0.5 0.1-0.7 0.2 -0.2 0.1-0.4 0.3-0.7 0.5v5h-2.2V211.6z" class="e"/><path d="M274.3 215.3c0-0.6 0.1-1.2 0.3-1.6 0.2-0.5 0.4-0.9 0.7-1.2 0.3-0.3 0.6-0.6 1-0.8 0.4-0.2 0.8-0.3 1.1-0.3 0.4 0 0.8 0.1 1 0.2 0.3 0.1 0.5 0.3 0.8 0.6l-0.1-1.1V208.5h2.2v10.5h-1.8l-0.1-0.7h-0.1c-0.3 0.3-0.6 0.5-0.9 0.7 -0.4 0.2-0.7 0.3-1.1 0.3 -0.5 0-0.9-0.1-1.3-0.3 -0.4-0.2-0.7-0.4-1-0.8s-0.5-0.7-0.6-1.2C274.4 216.4 274.3 215.9 274.3 215.3zM276.6 215.3c0 0.7 0.1 1.3 0.4 1.6s0.6 0.5 1 0.5c0.2 0 0.5 0 0.7-0.1 0.2-0.1 0.4-0.3 0.6-0.5v-3c-0.2-0.2-0.4-0.3-0.6-0.4 -0.2-0.1-0.4-0.1-0.6-0.1 -0.4 0-0.7 0.2-0.9 0.5C276.7 214 276.6 214.6 276.6 215.3z" class="e"/><path d="M286.7 216.8c0.3 0.3 0.7 0.5 1 0.6 0.3 0.1 0.6 0.2 0.9 0.2 0.3 0 0.6-0.1 0.7-0.2 0.2-0.1 0.2-0.3 0.2-0.5 0-0.1 0-0.2-0.1-0.3 -0.1-0.1-0.2-0.2-0.3-0.3 -0.1-0.1-0.3-0.2-0.5-0.2 -0.2-0.1-0.4-0.1-0.6-0.2 -0.2-0.1-0.5-0.2-0.7-0.3 -0.2-0.1-0.4-0.3-0.6-0.4 -0.2-0.2-0.3-0.4-0.5-0.6 -0.1-0.2-0.2-0.5-0.2-0.8 0-0.3 0.1-0.7 0.2-0.9 0.1-0.3 0.3-0.5 0.6-0.7 0.2-0.2 0.6-0.4 0.9-0.5 0.4-0.1 0.7-0.2 1.2-0.2 0.6 0 1.1 0.1 1.5 0.3s0.8 0.4 1.1 0.7l-1 1.3c-0.3-0.2-0.5-0.4-0.8-0.5 -0.3-0.1-0.5-0.2-0.8-0.2 -0.6 0-0.8 0.2-0.8 0.6 0 0.1 0 0.2 0.1 0.3 0.1 0.1 0.2 0.2 0.3 0.2 0.1 0.1 0.3 0.1 0.5 0.2 0.2 0.1 0.4 0.1 0.5 0.2 0.2 0.1 0.5 0.2 0.7 0.3 0.2 0.1 0.4 0.3 0.6 0.4s0.4 0.4 0.5 0.6c0.1 0.2 0.2 0.5 0.2 0.9s-0.1 0.7-0.2 0.9c-0.1 0.3-0.3 0.5-0.6 0.8 -0.3 0.2-0.6 0.4-1 0.5 -0.4 0.1-0.8 0.2-1.3 0.2 -0.5 0-1-0.1-1.5-0.3 -0.5-0.2-1-0.4-1.3-0.7L286.7 216.8z" class="e"/><path d="M292.8 216.9c0-0.8 0.3-1.4 1-1.8 0.7-0.4 1.7-0.7 3.2-0.9 0-0.3-0.1-0.6-0.3-0.8 -0.2-0.2-0.5-0.3-0.9-0.3 -0.3 0-0.6 0.1-1 0.2 -0.3 0.1-0.7 0.3-1 0.5l-0.8-1.5c0.5-0.3 1-0.5 1.5-0.7 0.5-0.2 1.1-0.3 1.7-0.3 1 0 1.7 0.3 2.2 0.8 0.5 0.5 0.8 1.4 0.8 2.5v4.3h-1.8l-0.2-0.8h0c-0.3 0.3-0.7 0.5-1 0.7 -0.4 0.2-0.7 0.3-1.2 0.3 -0.3 0-0.6-0.1-0.9-0.2 -0.3-0.1-0.5-0.3-0.7-0.5 -0.2-0.2-0.3-0.4-0.4-0.7C292.8 217.6 292.8 217.3 292.8 216.9zM294.9 216.8c0 0.2 0.1 0.4 0.2 0.5 0.2 0.1 0.4 0.2 0.6 0.2s0.5-0.1 0.7-0.2c0.2-0.1 0.4-0.3 0.6-0.5v-1.3c-0.8 0.1-1.3 0.3-1.6 0.5C295 216.2 294.9 216.5 294.9 216.8z" class="e"/><path d="M301.1 208.5h2.2v8.3c0 0.2 0 0.4 0.1 0.5 0.1 0.1 0.2 0.1 0.3 0.1 0.1 0 0.1 0 0.1 0s0.1 0 0.1 0l0.3 1.6c-0.1 0.1-0.3 0.1-0.5 0.1s-0.4 0.1-0.7 0.1c-0.4 0-0.7-0.1-1-0.2 -0.3-0.1-0.5-0.3-0.6-0.5 -0.2-0.2-0.3-0.5-0.3-0.8s-0.1-0.6-0.1-1V208.5z" class="e"/><path d="M305.7 213.3h-1v-1.6l1.1-0.1 0.3-2h1.8v2h1.8v1.7h-1.8v3c0 0.4 0.1 0.7 0.3 0.9 0.2 0.2 0.4 0.3 0.7 0.3 0.1 0 0.2 0 0.4 0s0.2-0.1 0.3-0.1l0.3 1.6c-0.2 0.1-0.4 0.1-0.7 0.2s-0.6 0.1-0.9 0.1c-0.5 0-0.9-0.1-1.2-0.2 -0.3-0.1-0.6-0.3-0.8-0.6 -0.2-0.2-0.4-0.6-0.5-0.9 -0.1-0.4-0.1-0.7-0.1-1.2V213.3z" class="e"/><path d="M190.9 228.5c-0.4 0-0.7-0.1-0.9-0.3 -0.2-0.2-0.4-0.5-0.4-0.8s0.1-0.6 0.4-0.8c0.2-0.2 0.5-0.3 0.9-0.3 0.4 0 0.7 0.1 0.9 0.3 0.2 0.2 0.4 0.5 0.4 0.8s-0.1 0.6-0.4 0.8C191.6 228.4 191.3 228.5 190.9 228.5zM189.8 229.6h2.2v7.4h-2.2V229.6z" class="e"/><path d="M194.3 234.8c0.3 0.3 0.7 0.5 1 0.6 0.3 0.1 0.6 0.2 0.9 0.2 0.3 0 0.6-0.1 0.7-0.2 0.2-0.1 0.2-0.3 0.2-0.5 0-0.1 0-0.2-0.1-0.3 -0.1-0.1-0.2-0.2-0.3-0.3s-0.3-0.2-0.5-0.2c-0.2-0.1-0.4-0.1-0.6-0.2 -0.2-0.1-0.5-0.2-0.7-0.3s-0.4-0.3-0.6-0.4 -0.3-0.4-0.5-0.6c-0.1-0.2-0.2-0.5-0.2-0.8 0-0.3 0.1-0.7 0.2-0.9 0.1-0.3 0.3-0.5 0.6-0.7 0.3-0.2 0.6-0.4 0.9-0.5 0.4-0.1 0.7-0.2 1.2-0.2 0.6 0 1.1 0.1 1.5 0.3 0.4 0.2 0.8 0.4 1.1 0.7l-1 1.3c-0.3-0.2-0.5-0.4-0.8-0.5 -0.3-0.1-0.5-0.2-0.8-0.2 -0.6 0-0.8 0.2-0.8 0.6 0 0.1 0 0.2 0.1 0.3 0.1 0.1 0.2 0.2 0.3 0.2 0.1 0.1 0.3 0.1 0.5 0.2 0.2 0.1 0.4 0.1 0.5 0.2 0.2 0.1 0.5 0.2 0.7 0.3 0.2 0.1 0.5 0.3 0.6 0.4 0.2 0.2 0.4 0.4 0.5 0.6s0.2 0.5 0.2 0.9 -0.1 0.7-0.2 0.9c-0.1 0.3-0.3 0.5-0.6 0.8 -0.3 0.2-0.6 0.4-1 0.5 -0.4 0.1-0.8 0.2-1.3 0.2 -0.5 0-1-0.1-1.5-0.3 -0.5-0.2-1-0.4-1.3-0.7L194.3 234.8z" class="e"/><path d="M203.7 226.5h2.2v2.6l-0.1 1.3c0.3-0.2 0.6-0.5 1-0.7s0.8-0.3 1.3-0.3c0.8 0 1.4 0.3 1.8 0.8 0.4 0.5 0.5 1.3 0.5 2.2v4.6h-2.2v-4.3c0-0.5-0.1-0.9-0.2-1.1 -0.1-0.2-0.4-0.3-0.7-0.3 -0.3 0-0.5 0.1-0.7 0.2s-0.4 0.3-0.7 0.5v5h-2.2V226.5z" class="e"/><path d="M212 234.9c0-0.8 0.3-1.4 1-1.8 0.7-0.4 1.7-0.7 3.2-0.9 0-0.3-0.1-0.6-0.3-0.8 -0.2-0.2-0.5-0.3-0.9-0.3 -0.3 0-0.6 0.1-1 0.2 -0.3 0.1-0.7 0.3-1 0.5l-0.8-1.5c0.5-0.3 1-0.5 1.5-0.7 0.5-0.2 1.1-0.3 1.7-0.3 1 0 1.7 0.3 2.2 0.8 0.5 0.5 0.8 1.4 0.8 2.5v4.3h-1.8l-0.2-0.8h0c-0.3 0.3-0.7 0.5-1 0.7 -0.4 0.2-0.7 0.3-1.2 0.3 -0.3 0-0.6-0.1-0.9-0.2 -0.3-0.1-0.5-0.3-0.7-0.5 -0.2-0.2-0.3-0.4-0.4-0.7C212 235.6 212 235.3 212 234.9zM214.1 234.8c0 0.2 0.1 0.4 0.2 0.5 0.2 0.1 0.4 0.2 0.6 0.2 0.3 0 0.5-0.1 0.7-0.2 0.2-0.1 0.4-0.3 0.6-0.5v-1.3c-0.8 0.1-1.3 0.3-1.6 0.5C214.2 234.2 214.1 234.5 214.1 234.8z" class="e"/><path d="M220.6 234.8c0.3 0.3 0.7 0.5 1 0.6 0.3 0.1 0.6 0.2 0.9 0.2 0.3 0 0.6-0.1 0.7-0.2 0.2-0.1 0.2-0.3 0.2-0.5 0-0.1 0-0.2-0.1-0.3 -0.1-0.1-0.2-0.2-0.3-0.3s-0.3-0.2-0.5-0.2c-0.2-0.1-0.4-0.1-0.6-0.2 -0.2-0.1-0.5-0.2-0.7-0.3s-0.4-0.3-0.6-0.4 -0.3-0.4-0.5-0.6c-0.1-0.2-0.2-0.5-0.2-0.8 0-0.3 0.1-0.7 0.2-0.9 0.1-0.3 0.3-0.5 0.6-0.7 0.3-0.2 0.6-0.4 0.9-0.5 0.4-0.1 0.7-0.2 1.2-0.2 0.6 0 1.1 0.1 1.5 0.3 0.4 0.2 0.8 0.4 1.1 0.7l-1 1.3c-0.3-0.2-0.5-0.4-0.8-0.5 -0.3-0.1-0.5-0.2-0.8-0.2 -0.6 0-0.8 0.2-0.8 0.6 0 0.1 0 0.2 0.1 0.3 0.1 0.1 0.2 0.2 0.3 0.2 0.1 0.1 0.3 0.1 0.5 0.2 0.2 0.1 0.4 0.1 0.5 0.2 0.2 0.1 0.5 0.2 0.7 0.3 0.2 0.1 0.5 0.3 0.6 0.4 0.2 0.2 0.4 0.4 0.5 0.6s0.2 0.5 0.2 0.9 -0.1 0.7-0.2 0.9c-0.1 0.3-0.3 0.5-0.6 0.8 -0.3 0.2-0.6 0.4-1 0.5 -0.4 0.1-0.8 0.2-1.3 0.2 -0.5 0-1-0.1-1.5-0.3 -0.5-0.2-1-0.4-1.3-0.7L220.6 234.8z" class="e"/><path d="M226.9 226.5h2.2v2.6l-0.1 1.3c0.3-0.2 0.6-0.5 1-0.7s0.8-0.3 1.3-0.3c0.8 0 1.4 0.3 1.8 0.8 0.4 0.5 0.5 1.3 0.5 2.2v4.6h-2.2v-4.3c0-0.5-0.1-0.9-0.2-1.1 -0.1-0.2-0.4-0.3-0.7-0.3 -0.3 0-0.5 0.1-0.7 0.2s-0.4 0.3-0.7 0.5v5h-2.2V226.5z" class="e"/><path d="M235 233.3c0-0.6 0.1-1.1 0.3-1.6s0.5-0.9 0.8-1.2c0.3-0.3 0.7-0.6 1.1-0.8 0.4-0.2 0.9-0.3 1.3-0.3 0.5 0 1 0.1 1.4 0.3 0.4 0.2 0.7 0.4 1 0.8 0.3 0.3 0.5 0.7 0.6 1.1 0.1 0.4 0.2 0.9 0.2 1.4 0 0.2 0 0.4 0 0.5 0 0.2 0 0.3-0.1 0.4h-4.5c0.1 0.6 0.3 1 0.7 1.2 0.3 0.3 0.8 0.4 1.3 0.4 0.5 0 1.1-0.2 1.6-0.5l0.7 1.3c-0.4 0.3-0.8 0.5-1.3 0.6 -0.5 0.1-0.9 0.2-1.4 0.2 -0.5 0-1-0.1-1.5-0.3 -0.5-0.2-0.9-0.4-1.2-0.8 -0.3-0.3-0.6-0.7-0.8-1.2C235.1 234.5 235 233.9 235 233.3zM239.8 232.5c0-0.4-0.1-0.8-0.3-1 -0.2-0.3-0.5-0.4-1-0.4 -0.4 0-0.7 0.1-0.9 0.4 -0.3 0.2-0.4 0.6-0.5 1.1H239.8z" class="e"/><path d="M242.9 233.3c0-0.6 0.1-1.2 0.3-1.6 0.2-0.5 0.4-0.9 0.7-1.2 0.3-0.3 0.6-0.6 1-0.8 0.4-0.2 0.8-0.3 1.1-0.3 0.4 0 0.8 0.1 1 0.2s0.5 0.3 0.8 0.6l-0.1-1.1V226.5h2.2v10.5h-1.8l-0.1-0.7h-0.1c-0.3 0.3-0.6 0.5-0.9 0.7 -0.3 0.2-0.7 0.3-1.1 0.3 -0.5 0-0.9-0.1-1.3-0.3 -0.4-0.2-0.7-0.4-1-0.8 -0.3-0.3-0.5-0.7-0.6-1.2C242.9 234.4 242.9 233.9 242.9 233.3zM245.1 233.3c0 0.7 0.1 1.3 0.4 1.6 0.2 0.3 0.6 0.5 1 0.5 0.2 0 0.5 0 0.7-0.1 0.2-0.1 0.4-0.3 0.6-0.5v-3c-0.2-0.2-0.4-0.3-0.6-0.4s-0.4-0.1-0.6-0.1c-0.3 0-0.7 0.2-0.9 0.5S245.1 232.6 245.1 233.3z" class="e"/><path d="M255.3 231.3h-1v-1.6l1.1-0.1 0.3-2h1.8v2h1.8v1.7h-1.8v3c0 0.4 0.1 0.7 0.3 0.9 0.2 0.2 0.4 0.3 0.7 0.3 0.1 0 0.2 0 0.4 0 0.1 0 0.2-0.1 0.3-0.1l0.3 1.6c-0.2 0.1-0.4 0.1-0.7 0.2s-0.6 0.1-0.9 0.1c-0.5 0-0.9-0.1-1.2-0.2 -0.3-0.1-0.6-0.3-0.8-0.6 -0.2-0.2-0.4-0.6-0.4-0.9 -0.1-0.4-0.1-0.7-0.1-1.2V231.3z" class="e"/><path d="M260.1 233.3c0-0.6 0.1-1.2 0.3-1.7 0.2-0.5 0.5-0.9 0.8-1.2 0.3-0.3 0.7-0.6 1.2-0.8 0.4-0.2 0.9-0.3 1.4-0.3 0.5 0 0.9 0.1 1.4 0.3 0.4 0.2 0.8 0.4 1.2 0.8 0.3 0.3 0.6 0.7 0.8 1.2 0.2 0.5 0.3 1 0.3 1.7s-0.1 1.2-0.3 1.7 -0.5 0.9-0.8 1.2c-0.3 0.3-0.7 0.6-1.2 0.8 -0.4 0.2-0.9 0.3-1.4 0.3 -0.5 0-0.9-0.1-1.4-0.3 -0.4-0.2-0.8-0.4-1.2-0.8 -0.3-0.3-0.6-0.7-0.8-1.2C260.2 234.5 260.1 233.9 260.1 233.3zM262.4 233.3c0 0.7 0.1 1.2 0.3 1.5 0.2 0.4 0.6 0.6 1 0.6 0.4 0 0.8-0.2 1-0.6s0.3-0.9 0.3-1.5 -0.1-1.2-0.3-1.5c-0.2-0.4-0.6-0.6-1-0.6 -0.5 0-0.8 0.2-1 0.6C262.5 232.1 262.4 232.6 262.4 233.3z" class="e"/><path d="M268.4 238.3c0-0.6 0.4-1.1 1.1-1.5v-0.1c-0.2-0.1-0.4-0.3-0.5-0.5 -0.1-0.2-0.2-0.5-0.2-0.8 0-0.3 0.1-0.5 0.2-0.8s0.4-0.5 0.6-0.6v-0.1c-0.3-0.2-0.5-0.4-0.7-0.8s-0.3-0.7-0.3-1.2c0-0.4 0.1-0.8 0.3-1.2s0.4-0.6 0.7-0.8c0.3-0.2 0.6-0.4 1-0.5 0.4-0.1 0.8-0.2 1.2-0.2 0.4 0 0.8 0.1 1.2 0.2h2.7v1.6h-1.2c0.1 0.1 0.1 0.3 0.2 0.4s0.1 0.4 0.1 0.6c0 0.4-0.1 0.8-0.2 1.1 -0.1 0.3-0.4 0.6-0.6 0.8 -0.3 0.2-0.6 0.4-0.9 0.5s-0.7 0.2-1.1 0.2c-0.3 0-0.6-0.1-0.9-0.1 -0.1 0.1-0.2 0.2-0.2 0.2 0 0.1-0.1 0.2-0.1 0.3 0 0.2 0.1 0.3 0.2 0.4 0.2 0.1 0.5 0.1 0.9 0.1h1.2c0.9 0 1.6 0.1 2.1 0.4s0.7 0.8 0.7 1.4c0 0.4-0.1 0.7-0.3 1.1s-0.5 0.6-0.8 0.8c-0.4 0.2-0.8 0.4-1.3 0.6 -0.5 0.1-1.1 0.2-1.7 0.2 -0.4 0-0.8 0-1.2-0.1s-0.7-0.2-1-0.3c-0.3-0.1-0.5-0.3-0.7-0.6S268.4 238.6 268.4 238.3zM270.2 237.9c0 0.3 0.1 0.5 0.5 0.6 0.3 0.1 0.7 0.2 1.2 0.2s0.9-0.1 1.2-0.3 0.5-0.4 0.5-0.7c0-0.2-0.1-0.4-0.3-0.5s-0.5-0.1-0.8-0.1h-0.8c-0.3 0-0.5 0-0.6 0 -0.2 0-0.3 0-0.4-0.1C270.4 237.4 270.2 237.7 270.2 237.9zM271.7 233.3c0.3 0 0.5-0.1 0.7-0.3s0.3-0.5 0.3-0.9c0-0.4-0.1-0.7-0.3-0.9s-0.4-0.3-0.7-0.3 -0.5 0.1-0.7 0.3c-0.2 0.2-0.3 0.5-0.3 0.9 0 0.4 0.1 0.7 0.3 0.9C271.2 233.2 271.4 233.3 271.7 233.3z" class="e"/><path d="M276.2 233.3c0-0.6 0.1-1.1 0.3-1.6 0.2-0.5 0.5-0.9 0.8-1.2 0.3-0.3 0.7-0.6 1.1-0.8 0.4-0.2 0.9-0.3 1.3-0.3 0.5 0 1 0.1 1.4 0.3 0.4 0.2 0.7 0.4 1 0.8 0.3 0.3 0.5 0.7 0.6 1.1 0.1 0.4 0.2 0.9 0.2 1.4 0 0.2 0 0.4 0 0.5 0 0.2 0 0.3-0.1 0.4h-4.5c0.1 0.6 0.3 1 0.7 1.2 0.3 0.3 0.8 0.4 1.3 0.4 0.5 0 1.1-0.2 1.6-0.5l0.7 1.3c-0.4 0.3-0.8 0.5-1.3 0.6 -0.5 0.1-0.9 0.2-1.4 0.2 -0.5 0-1-0.1-1.5-0.3 -0.5-0.2-0.9-0.4-1.2-0.8s-0.6-0.7-0.8-1.2C276.3 234.5 276.2 233.9 276.2 233.3zM281 232.5c0-0.4-0.1-0.8-0.3-1 -0.2-0.3-0.5-0.4-1-0.4 -0.4 0-0.7 0.1-0.9 0.4 -0.3 0.2-0.4 0.6-0.5 1.1H281z" class="e"/><path d="M284.4 231.3h-1v-1.6l1.1-0.1 0.3-2h1.8v2h1.8v1.7h-1.8v3c0 0.4 0.1 0.7 0.3 0.9 0.2 0.2 0.4 0.3 0.7 0.3 0.1 0 0.2 0 0.4 0 0.1 0 0.2-0.1 0.3-0.1l0.3 1.6c-0.2 0.1-0.4 0.1-0.7 0.2s-0.6 0.1-0.9 0.1c-0.5 0-0.9-0.1-1.2-0.2 -0.3-0.1-0.6-0.3-0.8-0.6 -0.2-0.2-0.4-0.6-0.4-0.9 -0.1-0.4-0.1-0.7-0.1-1.2V231.3z" class="e"/><path d="M289.9 226.5h2.2v2.6l-0.1 1.3c0.3-0.2 0.6-0.5 1-0.7s0.8-0.3 1.3-0.3c0.8 0 1.4 0.3 1.8 0.8 0.4 0.5 0.5 1.3 0.5 2.2v4.6h-2.2v-4.3c0-0.5-0.1-0.9-0.2-1.1 -0.1-0.2-0.4-0.3-0.7-0.3 -0.3 0-0.5 0.1-0.7 0.2s-0.4 0.3-0.7 0.5v5h-2.2V226.5z" class="e"/><path d="M298 233.3c0-0.6 0.1-1.1 0.3-1.6 0.2-0.5 0.5-0.9 0.8-1.2 0.3-0.3 0.7-0.6 1.1-0.8 0.4-0.2 0.9-0.3 1.3-0.3 0.5 0 1 0.1 1.4 0.3 0.4 0.2 0.7 0.4 1 0.8 0.3 0.3 0.5 0.7 0.6 1.1 0.1 0.4 0.2 0.9 0.2 1.4 0 0.2 0 0.4 0 0.5 0 0.2 0 0.3-0.1 0.4h-4.5c0.1 0.6 0.3 1 0.7 1.2 0.3 0.3 0.8 0.4 1.3 0.4 0.5 0 1.1-0.2 1.6-0.5l0.7 1.3c-0.4 0.3-0.8 0.5-1.3 0.6 -0.5 0.1-0.9 0.2-1.4 0.2 -0.5 0-1-0.1-1.5-0.3 -0.5-0.2-0.9-0.4-1.2-0.8s-0.6-0.7-0.8-1.2C298.1 234.5 298 233.9 298 233.3zM302.8 232.5c0-0.4-0.1-0.8-0.3-1 -0.2-0.3-0.5-0.4-1-0.4 -0.4 0-0.7 0.1-0.9 0.4 -0.3 0.2-0.4 0.6-0.5 1.1H302.8z" class="e"/><path d="M306.2 229.6h1.8l0.1 1.3h0.1c0.3-0.5 0.6-0.9 1-1.1 0.4-0.2 0.8-0.4 1.1-0.4 0.2 0 0.4 0 0.5 0 0.1 0 0.3 0.1 0.4 0.1l-0.4 1.9c-0.1 0-0.3-0.1-0.4-0.1 -0.1 0-0.3 0-0.4 0 -0.3 0-0.6 0.1-0.9 0.3s-0.6 0.6-0.8 1.1v4.3h-2.2V229.6z" class="e"/><path d="M178.6 310.2h2.2V314h3.4v-3.8h2.2v9.8h-2.2v-4.1h-3.4v4.1h-2.2V310.2z" class="e"/><path d="M188.3 317.9c0-0.8 0.3-1.4 1-1.8 0.7-0.4 1.7-0.7 3.2-0.9 0-0.3-0.1-0.6-0.3-0.8 -0.2-0.2-0.5-0.3-0.9-0.3 -0.3 0-0.6 0.1-1 0.2 -0.3 0.1-0.7 0.3-1 0.5l-0.8-1.5c0.5-0.3 1-0.5 1.5-0.7 0.5-0.2 1.1-0.3 1.7-0.3 1 0 1.7 0.3 2.2 0.8 0.5 0.5 0.8 1.4 0.8 2.5v4.3h-1.8l-0.2-0.8h0c-0.3 0.3-0.7 0.5-1 0.7 -0.4 0.2-0.7 0.3-1.2 0.3 -0.3 0-0.6-0.1-0.9-0.2 -0.3-0.1-0.5-0.3-0.7-0.5 -0.2-0.2-0.3-0.4-0.4-0.7C188.3 318.6 188.3 318.3 188.3 317.9zM190.4 317.8c0 0.2 0.1 0.4 0.2 0.5 0.2 0.1 0.4 0.2 0.6 0.2 0.3 0 0.5-0.1 0.7-0.2 0.2-0.1 0.4-0.3 0.6-0.5v-1.3c-0.8 0.1-1.3 0.3-1.6 0.5C190.5 317.2 190.4 317.5 190.4 317.8z" class="e"/><path d="M196.9 317.8c0.3 0.3 0.7 0.5 1 0.6 0.3 0.1 0.6 0.2 0.9 0.2 0.3 0 0.6-0.1 0.7-0.2 0.2-0.1 0.2-0.3 0.2-0.5 0-0.1 0-0.2-0.1-0.3 -0.1-0.1-0.2-0.2-0.3-0.3s-0.3-0.2-0.5-0.2c-0.2-0.1-0.4-0.1-0.6-0.2 -0.2-0.1-0.5-0.2-0.7-0.3s-0.4-0.3-0.6-0.4 -0.3-0.4-0.5-0.6c-0.1-0.2-0.2-0.5-0.2-0.8 0-0.3 0.1-0.7 0.2-0.9 0.1-0.3 0.3-0.5 0.6-0.7 0.3-0.2 0.6-0.4 0.9-0.5 0.4-0.1 0.7-0.2 1.2-0.2 0.6 0 1.1 0.1 1.5 0.3 0.4 0.2 0.8 0.4 1.1 0.7l-1 1.3c-0.3-0.2-0.5-0.4-0.8-0.5 -0.3-0.1-0.5-0.2-0.8-0.2 -0.6 0-0.8 0.2-0.8 0.6 0 0.1 0 0.2 0.1 0.3 0.1 0.1 0.2 0.2 0.3 0.2 0.1 0.1 0.3 0.1 0.5 0.2 0.2 0.1 0.4 0.1 0.5 0.2 0.2 0.1 0.5 0.2 0.7 0.3 0.2 0.1 0.5 0.3 0.6 0.4 0.2 0.2 0.4 0.4 0.5 0.6s0.2 0.5 0.2 0.9 -0.1 0.7-0.2 0.9c-0.1 0.3-0.3 0.5-0.6 0.8 -0.3 0.2-0.6 0.4-1 0.5 -0.4 0.1-0.8 0.2-1.3 0.2 -0.5 0-1-0.1-1.5-0.3 -0.5-0.2-1-0.4-1.3-0.7L196.9 317.8z" class="e"/><path d="M203.2 309.5h2.2v2.6l-0.1 1.3c0.3-0.2 0.6-0.5 1-0.7s0.8-0.3 1.3-0.3c0.8 0 1.4 0.3 1.8 0.8 0.4 0.5 0.5 1.3 0.5 2.2v4.6h-2.2v-4.3c0-0.5-0.1-0.9-0.2-1.1 -0.1-0.2-0.4-0.3-0.7-0.3 -0.3 0-0.5 0.1-0.7 0.2s-0.4 0.3-0.7 0.5v5h-2.2V309.5z" class="e"/><path d="M211.3 316.3c0-0.6 0.1-1.1 0.3-1.6s0.5-0.9 0.8-1.2c0.3-0.3 0.7-0.6 1.1-0.8 0.4-0.2 0.9-0.3 1.3-0.3 0.5 0 1 0.1 1.4 0.3 0.4 0.2 0.7 0.4 1 0.8 0.3 0.3 0.5 0.7 0.6 1.1 0.1 0.4 0.2 0.9 0.2 1.4 0 0.2 0 0.4 0 0.5 0 0.2 0 0.3-0.1 0.4h-4.5c0.1 0.6 0.3 1 0.7 1.2 0.3 0.3 0.8 0.4 1.3 0.4 0.5 0 1.1-0.2 1.6-0.5l0.7 1.3c-0.4 0.3-0.8 0.5-1.3 0.6 -0.5 0.1-0.9 0.2-1.4 0.2 -0.5 0-1-0.1-1.5-0.3 -0.5-0.2-0.9-0.4-1.2-0.8 -0.3-0.3-0.6-0.7-0.8-1.2C211.4 317.5 211.3 316.9 211.3 316.3zM216.1 315.5c0-0.4-0.1-0.8-0.3-1 -0.2-0.3-0.5-0.4-1-0.4 -0.4 0-0.7 0.1-0.9 0.4 -0.3 0.2-0.4 0.6-0.5 1.1H216.1z" class="e"/><path d="M219.1 316.3c0-0.6 0.1-1.2 0.3-1.6 0.2-0.5 0.4-0.9 0.7-1.2 0.3-0.3 0.6-0.6 1-0.8 0.4-0.2 0.8-0.3 1.1-0.3 0.4 0 0.8 0.1 1 0.2s0.5 0.3 0.8 0.6l-0.1-1.1V309.5h2.2v10.5h-1.8l-0.1-0.7h-0.1c-0.3 0.3-0.6 0.5-0.9 0.7 -0.3 0.2-0.7 0.3-1.1 0.3 -0.5 0-0.9-0.1-1.3-0.3 -0.4-0.2-0.7-0.4-1-0.8 -0.3-0.3-0.5-0.7-0.6-1.2C219.2 317.4 219.1 316.9 219.1 316.3zM221.4 316.3c0 0.7 0.1 1.3 0.4 1.6 0.2 0.3 0.6 0.5 1 0.5 0.2 0 0.5 0 0.7-0.1 0.2-0.1 0.4-0.3 0.6-0.5v-3c-0.2-0.2-0.4-0.3-0.6-0.4s-0.4-0.1-0.6-0.1c-0.3 0-0.7 0.2-0.9 0.5S221.4 315.6 221.4 316.3z" class="e"/><path d="M233.4 320.6v2.2h-2.2v-10.2h1.8l0.2 0.7h0.1c0.3-0.3 0.6-0.5 1-0.7 0.4-0.2 0.7-0.3 1.1-0.3 0.5 0 0.9 0.1 1.2 0.3 0.4 0.2 0.7 0.4 0.9 0.8s0.4 0.7 0.6 1.2c0.1 0.5 0.2 1 0.2 1.6 0 0.6-0.1 1.2-0.3 1.7 -0.2 0.5-0.4 0.9-0.7 1.3 -0.3 0.3-0.6 0.6-1 0.8 -0.4 0.2-0.8 0.3-1.2 0.3 -0.3 0-0.6-0.1-0.9-0.2 -0.3-0.1-0.6-0.3-0.8-0.6L233.4 320.6zM233.4 317.9c0.2 0.2 0.4 0.3 0.6 0.4 0.2 0.1 0.4 0.1 0.6 0.1 0.4 0 0.7-0.2 1-0.5 0.3-0.3 0.4-0.9 0.4-1.7 0-1.3-0.4-2-1.3-2 -0.4 0-0.9 0.2-1.3 0.7V317.9z" class="e"/><path d="M239.4 317.9c0-0.8 0.3-1.4 1-1.8 0.7-0.4 1.7-0.7 3.2-0.9 0-0.3-0.1-0.6-0.3-0.8 -0.2-0.2-0.5-0.3-0.9-0.3 -0.3 0-0.6 0.1-1 0.2 -0.3 0.1-0.7 0.3-1 0.5l-0.8-1.5c0.5-0.3 1-0.5 1.5-0.7 0.5-0.2 1.1-0.3 1.7-0.3 1 0 1.7 0.3 2.2 0.8 0.5 0.5 0.8 1.4 0.8 2.5v4.3h-1.8l-0.2-0.8h0c-0.3 0.3-0.7 0.5-1 0.7 -0.4 0.2-0.7 0.3-1.2 0.3 -0.3 0-0.6-0.1-0.9-0.2 -0.3-0.1-0.5-0.3-0.7-0.5 -0.2-0.2-0.3-0.4-0.4-0.7C239.4 318.6 239.4 318.3 239.4 317.9zM241.5 317.8c0 0.2 0.1 0.4 0.2 0.5 0.2 0.1 0.4 0.2 0.6 0.2 0.3 0 0.5-0.1 0.7-0.2 0.2-0.1 0.4-0.3 0.6-0.5v-1.3c-0.8 0.1-1.3 0.3-1.6 0.5C241.6 317.2 241.5 317.5 241.5 317.8z" class="e"/><path d="M248 317.8c0.3 0.3 0.7 0.5 1 0.6 0.3 0.1 0.6 0.2 0.9 0.2 0.3 0 0.6-0.1 0.7-0.2 0.2-0.1 0.2-0.3 0.2-0.5 0-0.1 0-0.2-0.1-0.3 -0.1-0.1-0.2-0.2-0.3-0.3s-0.3-0.2-0.5-0.2c-0.2-0.1-0.4-0.1-0.6-0.2 -0.2-0.1-0.5-0.2-0.7-0.3s-0.4-0.3-0.6-0.4 -0.3-0.4-0.5-0.6c-0.1-0.2-0.2-0.5-0.2-0.8 0-0.3 0.1-0.7 0.2-0.9 0.1-0.3 0.3-0.5 0.6-0.7 0.3-0.2 0.6-0.4 0.9-0.5 0.4-0.1 0.7-0.2 1.2-0.2 0.6 0 1.1 0.1 1.5 0.3s0.8 0.4 1.1 0.7l-1 1.3c-0.3-0.2-0.5-0.4-0.8-0.5 -0.3-0.1-0.5-0.2-0.8-0.2 -0.6 0-0.8 0.2-0.8 0.6 0 0.1 0 0.2 0.1 0.3 0.1 0.1 0.2 0.2 0.3 0.2 0.1 0.1 0.3 0.1 0.5 0.2 0.2 0.1 0.4 0.1 0.5 0.2 0.2 0.1 0.5 0.2 0.7 0.3 0.2 0.1 0.5 0.3 0.6 0.4 0.2 0.2 0.4 0.4 0.5 0.6s0.2 0.5 0.2 0.9 -0.1 0.7-0.2 0.9c-0.1 0.3-0.3 0.5-0.6 0.8 -0.3 0.2-0.6 0.4-1 0.5 -0.4 0.1-0.8 0.2-1.3 0.2 -0.5 0-1-0.1-1.5-0.3 -0.5-0.2-1-0.4-1.3-0.7L248 317.8z" class="e"/><path d="M254.7 317.8c0.3 0.3 0.7 0.5 1 0.6 0.3 0.1 0.6 0.2 0.9 0.2 0.3 0 0.6-0.1 0.7-0.2 0.2-0.1 0.2-0.3 0.2-0.5 0-0.1 0-0.2-0.1-0.3 -0.1-0.1-0.2-0.2-0.3-0.3s-0.3-0.2-0.5-0.2c-0.2-0.1-0.4-0.1-0.6-0.2 -0.2-0.1-0.5-0.2-0.7-0.3s-0.4-0.3-0.6-0.4 -0.3-0.4-0.5-0.6c-0.1-0.2-0.2-0.5-0.2-0.8 0-0.3 0.1-0.7 0.2-0.9s0.3-0.5 0.6-0.7c0.2-0.2 0.5-0.4 0.9-0.5 0.4-0.1 0.7-0.2 1.2-0.2 0.6 0 1.1 0.1 1.5 0.3 0.4 0.2 0.8 0.4 1.1 0.7l-1 1.3c-0.3-0.2-0.5-0.4-0.8-0.5 -0.3-0.1-0.5-0.2-0.8-0.2 -0.6 0-0.8 0.2-0.8 0.6 0 0.1 0 0.2 0.1 0.3 0.1 0.1 0.2 0.2 0.3 0.2 0.1 0.1 0.3 0.1 0.5 0.2 0.2 0.1 0.4 0.1 0.5 0.2 0.2 0.1 0.5 0.2 0.7 0.3 0.2 0.1 0.4 0.3 0.6 0.4s0.4 0.4 0.5 0.6 0.2 0.5 0.2 0.9 -0.1 0.7-0.2 0.9c-0.1 0.3-0.3 0.5-0.6 0.8 -0.3 0.2-0.6 0.4-1 0.5 -0.4 0.1-0.8 0.2-1.3 0.2 -0.5 0-1-0.1-1.5-0.3 -0.5-0.2-1-0.4-1.3-0.7L254.7 317.8z" class="e"/><path d="M260.4 312.6h2.2l0.7 3.5c0.1 0.4 0.1 0.7 0.2 1.1 0 0.4 0.1 0.7 0.2 1.1h0.1c0.1-0.4 0.1-0.8 0.2-1.1s0.1-0.7 0.2-1.1l0.8-3.4h1.9l0.8 3.5c0.1 0.4 0.2 0.7 0.2 1.1 0.1 0.4 0.1 0.7 0.2 1.1h0.1c0.1-0.4 0.1-0.7 0.2-1.1 0-0.4 0.1-0.7 0.2-1.1l0.7-3.4h2l-1.8 7.4h-2.6l-0.7-3c-0.1-0.3-0.1-0.7-0.2-1.1 -0.1-0.3-0.1-0.7-0.2-1.1h-0.1c-0.1 0.4-0.1 0.8-0.2 1.1 -0.1 0.4-0.1 0.7-0.2 1.1l-0.7 3h-2.5L260.4 312.6z" class="e"/><path d="M272.1 316.3c0-0.6 0.1-1.2 0.3-1.7 0.2-0.5 0.5-0.9 0.8-1.2 0.3-0.3 0.7-0.6 1.2-0.8s0.9-0.3 1.4-0.3c0.5 0 0.9 0.1 1.4 0.3 0.4 0.2 0.8 0.4 1.2 0.8 0.3 0.3 0.6 0.7 0.8 1.2 0.2 0.5 0.3 1 0.3 1.7s-0.1 1.2-0.3 1.7 -0.5 0.9-0.8 1.2c-0.3 0.3-0.7 0.6-1.2 0.8 -0.4 0.2-0.9 0.3-1.4 0.3 -0.5 0-0.9-0.1-1.4-0.3 -0.4-0.2-0.8-0.4-1.2-0.8 -0.3-0.3-0.6-0.7-0.8-1.2C272.2 317.5 272.1 316.9 272.1 316.3zM274.3 316.3c0 0.7 0.1 1.2 0.3 1.5 0.2 0.4 0.6 0.6 1 0.6 0.5 0 0.8-0.2 1-0.6s0.3-0.9 0.3-1.5 -0.1-1.2-0.3-1.5c-0.2-0.4-0.6-0.6-1-0.6 -0.5 0-0.8 0.2-1 0.6C274.4 315.1 274.3 315.6 274.3 316.3z" class="e"/><path d="M280.8 312.6h1.8l0.2 1.3h0.1c0.3-0.5 0.6-0.9 1-1.1 0.4-0.2 0.8-0.4 1.1-0.4 0.2 0 0.4 0 0.5 0 0.1 0 0.3 0.1 0.4 0.1l-0.4 1.9c-0.1 0-0.3-0.1-0.4-0.1 -0.1 0-0.3 0-0.4 0 -0.3 0-0.6 0.1-0.9 0.3 -0.3 0.2-0.6 0.6-0.8 1.1v4.3h-2.2V312.6z" class="e"/><path d="M286.2 316.3c0-0.6 0.1-1.2 0.3-1.6 0.2-0.5 0.4-0.9 0.7-1.2 0.3-0.3 0.6-0.6 1-0.8 0.4-0.2 0.8-0.3 1.1-0.3 0.4 0 0.8 0.1 1 0.2 0.3 0.1 0.5 0.3 0.8 0.6l-0.1-1.1V309.5h2.2v10.5h-1.8l-0.1-0.7h-0.1c-0.3 0.3-0.6 0.5-0.9 0.7 -0.3 0.2-0.7 0.3-1.1 0.3 -0.5 0-0.9-0.1-1.3-0.3 -0.4-0.2-0.7-0.4-1-0.8 -0.3-0.3-0.5-0.7-0.6-1.2S286.2 316.9 286.2 316.3zM288.5 316.3c0 0.7 0.1 1.3 0.4 1.6 0.2 0.3 0.6 0.5 1 0.5 0.2 0 0.5 0 0.7-0.1 0.2-0.1 0.4-0.3 0.6-0.5v-3c-0.2-0.2-0.4-0.3-0.6-0.4 -0.2-0.1-0.4-0.1-0.6-0.1 -0.3 0-0.7 0.2-0.9 0.5C288.6 315 288.5 315.6 288.5 316.3z" class="e"/><path d="M298.1 317.9c0-0.8 0.3-1.4 1-1.8 0.7-0.4 1.7-0.7 3.2-0.9 0-0.3-0.1-0.6-0.3-0.8 -0.2-0.2-0.5-0.3-0.9-0.3 -0.3 0-0.6 0.1-1 0.2 -0.3 0.1-0.7 0.3-1 0.5l-0.8-1.5c0.5-0.3 1-0.5 1.5-0.7 0.5-0.2 1.1-0.3 1.7-0.3 1 0 1.7 0.3 2.2 0.8 0.5 0.5 0.8 1.4 0.8 2.5v4.3h-1.8l-0.2-0.8h0c-0.3 0.3-0.7 0.5-1 0.7 -0.4 0.2-0.7 0.3-1.2 0.3 -0.3 0-0.6-0.1-0.9-0.2 -0.3-0.1-0.5-0.3-0.7-0.5 -0.2-0.2-0.3-0.4-0.4-0.7C298.1 318.6 298.1 318.3 298.1 317.9zM300.2 317.8c0 0.2 0.1 0.4 0.2 0.5 0.2 0.1 0.4 0.2 0.6 0.2 0.3 0 0.5-0.1 0.7-0.2 0.2-0.1 0.4-0.3 0.6-0.5v-1.3c-0.8 0.1-1.3 0.3-1.6 0.5C300.3 317.2 300.2 317.5 300.2 317.8z" class="e"/><path d="M306.4 312.6h1.8l0.2 0.9h0.1c0.3-0.3 0.7-0.6 1.1-0.8s0.8-0.3 1.3-0.3c0.8 0 1.4 0.3 1.8 0.8 0.4 0.5 0.5 1.3 0.5 2.2v4.6h-2.2v-4.3c0-0.5-0.1-0.9-0.2-1.1 -0.1-0.2-0.4-0.3-0.7-0.3 -0.3 0-0.5 0.1-0.7 0.2s-0.4 0.3-0.7 0.5v5h-2.2V312.6z" class="e"/><path d="M314.5 316.3c0-0.6 0.1-1.2 0.3-1.6 0.2-0.5 0.4-0.9 0.7-1.2 0.3-0.3 0.6-0.6 1-0.8 0.4-0.2 0.8-0.3 1.1-0.3 0.4 0 0.8 0.1 1 0.2s0.5 0.3 0.8 0.6l-0.1-1.1V309.5h2.2v10.5h-1.8l-0.1-0.7h-0.1c-0.3 0.3-0.6 0.5-0.9 0.7 -0.3 0.2-0.7 0.3-1.1 0.3 -0.5 0-0.9-0.1-1.3-0.3 -0.4-0.2-0.7-0.4-1-0.8 -0.3-0.3-0.5-0.7-0.6-1.2C314.6 317.4 314.5 316.9 314.5 316.3zM316.8 316.3c0 0.7 0.1 1.3 0.4 1.6 0.2 0.3 0.6 0.5 1 0.5 0.2 0 0.5 0 0.7-0.1 0.2-0.1 0.4-0.3 0.6-0.5v-3c-0.2-0.2-0.4-0.3-0.6-0.4s-0.4-0.1-0.6-0.1c-0.3 0-0.7 0.2-0.9 0.5S316.8 315.6 316.8 316.3z" class="e"/><path d="M199.7 335.8c0.3 0.3 0.7 0.5 1 0.6 0.3 0.1 0.6 0.2 0.9 0.2 0.3 0 0.6-0.1 0.7-0.2 0.2-0.1 0.2-0.3 0.2-0.5 0-0.1 0-0.2-0.1-0.3 -0.1-0.1-0.2-0.2-0.3-0.3s-0.3-0.2-0.5-0.2c-0.2-0.1-0.4-0.1-0.6-0.2 -0.2-0.1-0.5-0.2-0.7-0.3s-0.4-0.3-0.6-0.4 -0.3-0.4-0.5-0.6c-0.1-0.2-0.2-0.5-0.2-0.8 0-0.3 0.1-0.7 0.2-0.9 0.1-0.3 0.3-0.5 0.6-0.7 0.3-0.2 0.6-0.4 0.9-0.5 0.4-0.1 0.7-0.2 1.2-0.2 0.6 0 1.1 0.1 1.5 0.3 0.4 0.2 0.8 0.4 1.1 0.7l-1 1.3c-0.3-0.2-0.5-0.4-0.8-0.5 -0.3-0.1-0.5-0.2-0.8-0.2 -0.6 0-0.8 0.2-0.8 0.6 0 0.1 0 0.2 0.1 0.3 0.1 0.1 0.2 0.2 0.3 0.2 0.1 0.1 0.3 0.1 0.5 0.2 0.2 0.1 0.4 0.1 0.5 0.2 0.2 0.1 0.5 0.2 0.7 0.3 0.2 0.1 0.5 0.3 0.6 0.4 0.2 0.2 0.4 0.4 0.5 0.6s0.2 0.5 0.2 0.9 -0.1 0.7-0.2 0.9c-0.1 0.3-0.3 0.5-0.6 0.8 -0.3 0.2-0.6 0.4-1 0.5 -0.4 0.1-0.8 0.2-1.3 0.2 -0.5 0-1-0.1-1.5-0.3 -0.5-0.2-1-0.4-1.3-0.7L199.7 335.8z" class="e"/><path d="M205.7 335.9c0-0.8 0.3-1.4 1-1.8 0.7-0.4 1.7-0.7 3.2-0.9 0-0.3-0.1-0.6-0.3-0.8 -0.2-0.2-0.5-0.3-0.9-0.3 -0.3 0-0.6 0.1-1 0.2 -0.3 0.1-0.7 0.3-1 0.5l-0.8-1.5c0.5-0.3 1-0.5 1.5-0.7 0.5-0.2 1.1-0.3 1.7-0.3 1 0 1.7 0.3 2.2 0.8 0.5 0.5 0.8 1.4 0.8 2.5v4.3h-1.8l-0.2-0.8h0c-0.3 0.3-0.7 0.5-1 0.7 -0.4 0.2-0.7 0.3-1.2 0.3 -0.3 0-0.6-0.1-0.9-0.2 -0.3-0.1-0.5-0.3-0.7-0.5 -0.2-0.2-0.3-0.4-0.4-0.7C205.8 336.6 205.7 336.3 205.7 335.9zM207.8 335.8c0 0.2 0.1 0.4 0.2 0.5 0.2 0.1 0.4 0.2 0.6 0.2 0.3 0 0.5-0.1 0.7-0.2 0.2-0.1 0.4-0.3 0.6-0.5v-1.3c-0.8 0.1-1.3 0.3-1.6 0.5C208 335.2 207.8 335.5 207.8 335.8z" class="e"/><path d="M214 327.5h2.2v8.3c0 0.2 0 0.4 0.1 0.5 0.1 0.1 0.2 0.1 0.3 0.1 0.1 0 0.1 0 0.1 0s0.1 0 0.1 0l0.3 1.6c-0.1 0.1-0.3 0.1-0.5 0.1s-0.4 0.1-0.7 0.1c-0.4 0-0.7-0.1-1-0.2 -0.3-0.1-0.5-0.3-0.6-0.5 -0.2-0.2-0.3-0.5-0.3-0.8 -0.1-0.3-0.1-0.6-0.1-1V327.5z" class="e"/><path d="M218.6 332.3h-1v-1.6l1.1-0.1 0.3-2h1.8v2h1.8v1.7h-1.8v3c0 0.4 0.1 0.7 0.3 0.9 0.2 0.2 0.4 0.3 0.7 0.3 0.1 0 0.2 0 0.4 0 0.1 0 0.2-0.1 0.3-0.1l0.3 1.6c-0.2 0.1-0.4 0.1-0.7 0.2s-0.6 0.1-0.9 0.1c-0.5 0-0.9-0.1-1.2-0.2 -0.3-0.1-0.6-0.3-0.8-0.6 -0.2-0.2-0.4-0.6-0.4-0.9 -0.1-0.4-0.1-0.7-0.1-1.2V332.3z" class="e"/><path d="M228.2 329.5c-0.4 0-0.7-0.1-0.9-0.3 -0.2-0.2-0.4-0.5-0.4-0.8s0.1-0.6 0.4-0.8c0.2-0.2 0.5-0.3 0.9-0.3 0.4 0 0.7 0.1 0.9 0.3 0.2 0.2 0.4 0.5 0.4 0.8s-0.1 0.6-0.4 0.8C228.9 329.4 228.6 329.5 228.2 329.5zM227.1 330.6h2.2v7.4h-2.2V330.6z" class="e"/><path d="M231.6 335.8c0.3 0.3 0.7 0.5 1 0.6 0.3 0.1 0.6 0.2 0.9 0.2 0.3 0 0.6-0.1 0.7-0.2 0.2-0.1 0.2-0.3 0.2-0.5 0-0.1 0-0.2-0.1-0.3 -0.1-0.1-0.2-0.2-0.3-0.3s-0.3-0.2-0.5-0.2c-0.2-0.1-0.4-0.1-0.6-0.2 -0.2-0.1-0.5-0.2-0.7-0.3s-0.4-0.3-0.6-0.4 -0.3-0.4-0.5-0.6c-0.1-0.2-0.2-0.5-0.2-0.8 0-0.3 0.1-0.7 0.2-0.9 0.1-0.3 0.3-0.5 0.6-0.7 0.3-0.2 0.6-0.4 0.9-0.5 0.4-0.1 0.7-0.2 1.2-0.2 0.6 0 1.1 0.1 1.5 0.3 0.4 0.2 0.8 0.4 1.1 0.7l-1 1.3c-0.3-0.2-0.5-0.4-0.8-0.5 -0.3-0.1-0.5-0.2-0.8-0.2 -0.6 0-0.8 0.2-0.8 0.6 0 0.1 0 0.2 0.1 0.3 0.1 0.1 0.2 0.2 0.3 0.2 0.1 0.1 0.3 0.1 0.5 0.2 0.2 0.1 0.4 0.1 0.5 0.2 0.2 0.1 0.5 0.2 0.7 0.3 0.2 0.1 0.5 0.3 0.6 0.4 0.2 0.2 0.4 0.4 0.5 0.6s0.2 0.5 0.2 0.9 -0.1 0.7-0.2 0.9c-0.1 0.3-0.3 0.5-0.6 0.8 -0.3 0.2-0.6 0.4-1 0.5 -0.4 0.1-0.8 0.2-1.3 0.2 -0.5 0-1-0.1-1.5-0.3 -0.5-0.2-1-0.4-1.3-0.7L231.6 335.8z" class="e"/><path d="M243.3 338.6v2.2h-2.2v-10.2h1.8l0.2 0.7h0.1c0.3-0.3 0.6-0.5 1-0.7 0.4-0.2 0.7-0.3 1.1-0.3 0.5 0 0.9 0.1 1.2 0.3 0.4 0.2 0.7 0.4 0.9 0.8s0.4 0.7 0.6 1.2c0.1 0.5 0.2 1 0.2 1.6 0 0.6-0.1 1.2-0.3 1.7 -0.2 0.5-0.4 0.9-0.7 1.3 -0.3 0.3-0.6 0.6-1 0.8 -0.4 0.2-0.8 0.3-1.2 0.3 -0.3 0-0.6-0.1-0.9-0.2 -0.3-0.1-0.6-0.3-0.8-0.6L243.3 338.6zM243.3 335.9c0.2 0.2 0.4 0.3 0.6 0.4 0.2 0.1 0.4 0.1 0.6 0.1 0.4 0 0.7-0.2 1-0.5 0.3-0.3 0.4-0.9 0.4-1.7 0-1.3-0.4-2-1.3-2 -0.4 0-0.9 0.2-1.3 0.7V335.9z" class="e"/><path d="M249.2 334.3c0-0.6 0.1-1.1 0.3-1.6s0.5-0.9 0.8-1.2c0.3-0.3 0.7-0.6 1.1-0.8 0.4-0.2 0.9-0.3 1.3-0.3 0.5 0 1 0.1 1.4 0.3 0.4 0.2 0.7 0.4 1 0.8 0.3 0.3 0.5 0.7 0.6 1.1 0.1 0.4 0.2 0.9 0.2 1.4 0 0.2 0 0.4 0 0.5 0 0.2 0 0.3-0.1 0.4h-4.5c0.1 0.6 0.3 1 0.7 1.2 0.3 0.3 0.8 0.4 1.3 0.4 0.5 0 1.1-0.2 1.6-0.5l0.7 1.3c-0.4 0.3-0.8 0.5-1.3 0.6s-0.9 0.2-1.4 0.2c-0.5 0-1-0.1-1.5-0.3 -0.5-0.2-0.9-0.4-1.2-0.8 -0.3-0.3-0.6-0.7-0.8-1.2C249.3 335.5 249.2 334.9 249.2 334.3zM254 333.5c0-0.4-0.1-0.8-0.3-1s-0.5-0.4-1-0.4c-0.4 0-0.7 0.1-0.9 0.4 -0.3 0.2-0.4 0.6-0.5 1.1H254z" class="e"/><path d="M257.4 330.6h1.8l0.2 1.3h0.1c0.3-0.5 0.6-0.9 1-1.1 0.4-0.2 0.8-0.4 1.1-0.4 0.2 0 0.4 0 0.5 0 0.1 0 0.3 0.1 0.4 0.1l-0.4 1.9c-0.1 0-0.3-0.1-0.4-0.1 -0.1 0-0.3 0-0.4 0 -0.3 0-0.6 0.1-0.9 0.3s-0.6 0.6-0.8 1.1v4.3h-2.2V330.6z" class="e"/><path d="M263.6 335.8c0.3 0.3 0.7 0.5 1 0.6 0.3 0.1 0.6 0.2 0.9 0.2 0.3 0 0.6-0.1 0.7-0.2 0.2-0.1 0.2-0.3 0.2-0.5 0-0.1 0-0.2-0.1-0.3 -0.1-0.1-0.2-0.2-0.3-0.3s-0.3-0.2-0.5-0.2c-0.2-0.1-0.4-0.1-0.6-0.2 -0.2-0.1-0.5-0.2-0.7-0.3s-0.4-0.3-0.6-0.4 -0.3-0.4-0.5-0.6c-0.1-0.2-0.2-0.5-0.2-0.8 0-0.3 0.1-0.7 0.2-0.9s0.3-0.5 0.6-0.7c0.2-0.2 0.5-0.4 0.9-0.5 0.4-0.1 0.7-0.2 1.2-0.2 0.6 0 1.1 0.1 1.5 0.3 0.4 0.2 0.8 0.4 1.1 0.7l-1 1.3c-0.3-0.2-0.5-0.4-0.8-0.5 -0.3-0.1-0.5-0.2-0.8-0.2 -0.6 0-0.8 0.2-0.8 0.6 0 0.1 0 0.2 0.1 0.3 0.1 0.1 0.2 0.2 0.3 0.2 0.1 0.1 0.3 0.1 0.5 0.2 0.2 0.1 0.4 0.1 0.5 0.2 0.2 0.1 0.5 0.2 0.7 0.3 0.2 0.1 0.4 0.3 0.6 0.4s0.4 0.4 0.5 0.6 0.2 0.5 0.2 0.9 -0.1 0.7-0.2 0.9c-0.1 0.3-0.3 0.5-0.6 0.8 -0.3 0.2-0.6 0.4-1 0.5 -0.4 0.1-0.8 0.2-1.3 0.2 -0.5 0-1-0.1-1.5-0.3 -0.5-0.2-1-0.4-1.3-0.7L263.6 335.8z" class="e"/><path d="M271 329.5c-0.4 0-0.7-0.1-0.9-0.3 -0.2-0.2-0.4-0.5-0.4-0.8s0.1-0.6 0.4-0.8c0.2-0.2 0.5-0.3 0.9-0.3 0.4 0 0.7 0.1 0.9 0.3 0.2 0.2 0.4 0.5 0.4 0.8s-0.1 0.6-0.4 0.8S271.4 329.5 271 329.5zM269.9 330.6h2.2v7.4h-2.2V330.6z" class="e"/><path d="M274.3 335.8c0.3 0.3 0.7 0.5 1 0.6 0.3 0.1 0.6 0.2 0.9 0.2 0.3 0 0.6-0.1 0.7-0.2 0.2-0.1 0.2-0.3 0.2-0.5 0-0.1 0-0.2-0.1-0.3 -0.1-0.1-0.2-0.2-0.3-0.3 -0.1-0.1-0.3-0.2-0.5-0.2 -0.2-0.1-0.4-0.1-0.6-0.2 -0.2-0.1-0.5-0.2-0.7-0.3 -0.2-0.1-0.4-0.3-0.6-0.4 -0.2-0.2-0.3-0.4-0.5-0.6 -0.1-0.2-0.2-0.5-0.2-0.8 0-0.3 0.1-0.7 0.2-0.9 0.1-0.3 0.3-0.5 0.6-0.7 0.2-0.2 0.6-0.4 0.9-0.5 0.4-0.1 0.7-0.2 1.2-0.2 0.6 0 1.1 0.1 1.5 0.3s0.8 0.4 1.1 0.7l-1 1.3c-0.3-0.2-0.5-0.4-0.8-0.5 -0.3-0.1-0.5-0.2-0.8-0.2 -0.6 0-0.8 0.2-0.8 0.6 0 0.1 0 0.2 0.1 0.3 0.1 0.1 0.2 0.2 0.3 0.2 0.1 0.1 0.3 0.1 0.5 0.2 0.2 0.1 0.4 0.1 0.5 0.2 0.2 0.1 0.5 0.2 0.7 0.3 0.2 0.1 0.4 0.3 0.6 0.4s0.4 0.4 0.5 0.6c0.1 0.2 0.2 0.5 0.2 0.9s-0.1 0.7-0.2 0.9c-0.1 0.3-0.3 0.5-0.6 0.8 -0.3 0.2-0.6 0.4-1 0.5 -0.4 0.1-0.8 0.2-1.3 0.2 -0.5 0-1-0.1-1.5-0.3 -0.5-0.2-1-0.4-1.3-0.7L274.3 335.8z" class="e"/><path d="M281 332.3h-1v-1.6l1.1-0.1 0.3-2h1.8v2h1.8v1.7h-1.8v3c0 0.4 0.1 0.7 0.3 0.9 0.2 0.2 0.4 0.3 0.7 0.3 0.1 0 0.2 0 0.4 0 0.1 0 0.2-0.1 0.3-0.1l0.3 1.6c-0.2 0.1-0.4 0.1-0.7 0.2s-0.6 0.1-0.9 0.1c-0.5 0-0.9-0.1-1.2-0.2 -0.3-0.1-0.6-0.3-0.8-0.6 -0.2-0.2-0.4-0.6-0.4-0.9 -0.1-0.4-0.1-0.7-0.1-1.2V332.3z" class="e"/><path d="M285.8 334.3c0-0.6 0.1-1.1 0.3-1.6 0.2-0.5 0.5-0.9 0.8-1.2 0.3-0.3 0.7-0.6 1.1-0.8 0.4-0.2 0.9-0.3 1.3-0.3 0.5 0 1 0.1 1.4 0.3 0.4 0.2 0.7 0.4 1 0.8 0.3 0.3 0.5 0.7 0.6 1.1 0.1 0.4 0.2 0.9 0.2 1.4 0 0.2 0 0.4 0 0.5 0 0.2 0 0.3-0.1 0.4h-4.5c0.1 0.6 0.3 1 0.7 1.2 0.3 0.3 0.8 0.4 1.3 0.4 0.5 0 1.1-0.2 1.6-0.5l0.7 1.3c-0.4 0.3-0.8 0.5-1.3 0.6 -0.5 0.1-0.9 0.2-1.4 0.2 -0.5 0-1-0.1-1.5-0.3 -0.5-0.2-0.9-0.4-1.2-0.8s-0.6-0.7-0.8-1.2C285.9 335.5 285.8 334.9 285.8 334.3zM290.6 333.5c0-0.4-0.1-0.8-0.3-1 -0.2-0.3-0.5-0.4-1-0.4 -0.4 0-0.7 0.1-0.9 0.4 -0.3 0.2-0.4 0.6-0.5 1.1H290.6z" class="e"/><path d="M293.6 334.3c0-0.6 0.1-1.2 0.3-1.6 0.2-0.5 0.4-0.9 0.7-1.2 0.3-0.3 0.6-0.6 1-0.8 0.4-0.2 0.8-0.3 1.1-0.3 0.4 0 0.8 0.1 1 0.2s0.5 0.3 0.8 0.6l-0.1-1.1V327.5h2.2v10.5h-1.8l-0.1-0.7h-0.1c-0.3 0.3-0.6 0.5-0.9 0.7 -0.4 0.2-0.7 0.3-1.1 0.3 -0.5 0-0.9-0.1-1.3-0.3 -0.4-0.2-0.7-0.4-1-0.8 -0.3-0.3-0.5-0.7-0.6-1.2C293.7 335.4 293.6 334.9 293.6 334.3zM295.9 334.3c0 0.7 0.1 1.3 0.4 1.6 0.2 0.3 0.6 0.5 1 0.5 0.2 0 0.5 0 0.7-0.1 0.2-0.1 0.4-0.3 0.6-0.5v-3c-0.2-0.2-0.4-0.3-0.6-0.4s-0.4-0.1-0.6-0.1c-0.4 0-0.7 0.2-0.9 0.5S295.9 333.6 295.9 334.3z" class="e"/><path d="M364.8 20.5l-1.9-3.5h-1.2v3.5h-2.2v-9.8h3.5c0.5 0 1 0.1 1.5 0.2s0.9 0.3 1.2 0.5 0.6 0.5 0.8 0.9 0.3 0.9 0.3 1.5c0 0.7-0.2 1.3-0.5 1.8 -0.3 0.5-0.7 0.8-1.3 1l2.2 3.9H364.8zM361.7 15.2h1.1c0.6 0 1-0.1 1.3-0.4s0.5-0.6 0.5-1.1 -0.2-0.8-0.5-1c-0.3-0.2-0.7-0.3-1.3-0.3h-1.1V15.2z" class="e"/><path d="M368.2 18.4c0-0.8 0.3-1.4 1-1.8s1.7-0.7 3.2-0.9c0-0.3-0.1-0.6-0.3-0.8 -0.2-0.2-0.5-0.3-0.9-0.3 -0.3 0-0.6 0.1-1 0.2 -0.3 0.1-0.7 0.3-1 0.5l-0.8-1.5c0.5-0.3 1-0.5 1.5-0.7 0.5-0.2 1.1-0.3 1.7-0.3 1 0 1.7 0.3 2.2 0.8 0.5 0.5 0.8 1.4 0.8 2.5v4.3h-1.8l-0.2-0.8h0c-0.3 0.3-0.7 0.5-1 0.7 -0.4 0.2-0.7 0.3-1.2 0.3 -0.3 0-0.6-0.1-0.9-0.2 -0.3-0.1-0.5-0.3-0.7-0.5 -0.2-0.2-0.3-0.4-0.4-0.7C368.2 19.1 368.2 18.8 368.2 18.4zM370.3 18.3c0 0.2 0.1 0.4 0.2 0.5 0.2 0.1 0.4 0.2 0.6 0.2s0.5-0.1 0.7-0.2 0.4-0.3 0.6-0.5V17.1c-0.8 0.1-1.3 0.3-1.6 0.5C370.4 17.7 370.3 18 370.3 18.3z" class="e"/><path d="M376.4 13.1h1.8l0.2 0.9h0.1c0.3-0.3 0.7-0.6 1.1-0.8 0.4-0.2 0.8-0.3 1.3-0.3 0.8 0 1.4 0.3 1.8 0.8 0.4 0.5 0.5 1.3 0.5 2.2v4.6h-2.2V16.2c0-0.5-0.1-0.9-0.2-1.1s-0.4-0.3-0.7-0.3c-0.3 0-0.5 0.1-0.7 0.2 -0.2 0.1-0.4 0.3-0.7 0.5v5h-2.2V13.1z" class="e"/><path d="M384.6 16.8c0-0.6 0.1-1.2 0.3-1.6 0.2-0.5 0.4-0.9 0.7-1.2 0.3-0.3 0.6-0.6 1-0.8 0.4-0.2 0.8-0.3 1.1-0.3 0.4 0 0.8 0.1 1 0.2 0.3 0.1 0.5 0.3 0.8 0.6l-0.1-1.1V10h2.2v10.5h-1.8l-0.1-0.7h-0.1c-0.3 0.3-0.6 0.5-0.9 0.7s-0.7 0.3-1.1 0.3c-0.5 0-0.9-0.1-1.3-0.3 -0.4-0.2-0.7-0.4-1-0.8 -0.3-0.3-0.5-0.7-0.6-1.2S384.6 17.4 384.6 16.8zM386.9 16.8c0 0.7 0.1 1.3 0.4 1.6 0.2 0.3 0.6 0.5 1 0.5 0.2 0 0.5 0 0.7-0.1 0.2-0.1 0.4-0.3 0.6-0.5v-3c-0.2-0.2-0.4-0.3-0.6-0.4 -0.2-0.1-0.4-0.1-0.6-0.1 -0.3 0-0.7 0.2-0.9 0.5C387 15.5 386.9 16.1 386.9 16.8z" class="e"/><path d="M393.2 16.8c0-0.6 0.1-1.2 0.3-1.7 0.2-0.5 0.5-0.9 0.8-1.2 0.3-0.3 0.7-0.6 1.2-0.8 0.4-0.2 0.9-0.3 1.4-0.3 0.5 0 0.9 0.1 1.4 0.3 0.4 0.2 0.8 0.4 1.2 0.8 0.3 0.3 0.6 0.7 0.8 1.2s0.3 1 0.3 1.7c0 0.6-0.1 1.2-0.3 1.7 -0.2 0.5-0.5 0.9-0.8 1.2 -0.3 0.3-0.7 0.6-1.2 0.8 -0.4 0.2-0.9 0.3-1.4 0.3 -0.5 0-0.9-0.1-1.4-0.3 -0.4-0.2-0.8-0.4-1.2-0.8 -0.3-0.3-0.6-0.7-0.8-1.2C393.3 18 393.2 17.4 393.2 16.8zM395.4 16.8c0 0.7 0.1 1.2 0.3 1.5 0.2 0.4 0.6 0.6 1 0.6 0.4 0 0.8-0.2 1-0.6s0.3-0.9 0.3-1.5c0-0.6-0.1-1.2-0.3-1.5 -0.2-0.4-0.6-0.6-1-0.6 -0.5 0-0.8 0.2-1 0.6C395.6 15.6 395.4 16.1 395.4 16.8z" class="e"/><path d="M401.9 13.1h1.8l0.1 1h0.1c0.3-0.3 0.6-0.6 1-0.8 0.4-0.2 0.8-0.3 1.3-0.3 0.5 0 1 0.1 1.3 0.3 0.3 0.2 0.6 0.5 0.8 0.9 0.3-0.3 0.7-0.6 1-0.9s0.8-0.4 1.3-0.4c0.8 0 1.4 0.3 1.8 0.8s0.6 1.3 0.6 2.2v4.6h-2.2V16.2c0-0.5-0.1-0.9-0.2-1.1 -0.1-0.2-0.4-0.3-0.7-0.3 -0.4 0-0.8 0.2-1.3 0.7v5h-2.2V16.2c0-0.5-0.1-0.9-0.2-1.1 -0.1-0.2-0.4-0.3-0.7-0.3 -0.4 0-0.8 0.2-1.3 0.7v5h-2.2V13.1z" class="e"/><path d="M418.2 18.3c0.3 0.3 0.7 0.5 1 0.6s0.6 0.2 0.9 0.2c0.3 0 0.6-0.1 0.7-0.2 0.2-0.1 0.2-0.3 0.2-0.5 0-0.1 0-0.2-0.1-0.3 -0.1-0.1-0.2-0.2-0.3-0.3 -0.1-0.1-0.3-0.2-0.5-0.2 -0.2-0.1-0.4-0.1-0.6-0.2 -0.2-0.1-0.5-0.2-0.7-0.3 -0.2-0.1-0.4-0.3-0.6-0.4 -0.2-0.2-0.3-0.4-0.5-0.6 -0.1-0.2-0.2-0.5-0.2-0.8 0-0.3 0.1-0.7 0.2-0.9 0.1-0.3 0.3-0.5 0.6-0.7 0.3-0.2 0.6-0.4 0.9-0.5 0.4-0.1 0.7-0.2 1.2-0.2 0.6 0 1.1 0.1 1.5 0.3 0.4 0.2 0.8 0.4 1.1 0.7l-1 1.3c-0.3-0.2-0.5-0.4-0.8-0.5 -0.3-0.1-0.5-0.2-0.8-0.2 -0.6 0-0.8 0.2-0.8 0.6 0 0.1 0 0.2 0.1 0.3s0.2 0.2 0.3 0.2 0.3 0.1 0.5 0.2c0.2 0.1 0.4 0.1 0.5 0.2 0.2 0.1 0.5 0.2 0.7 0.3 0.2 0.1 0.5 0.3 0.6 0.4 0.2 0.2 0.4 0.4 0.5 0.6 0.1 0.2 0.2 0.5 0.2 0.9 0 0.3-0.1 0.7-0.2 0.9s-0.3 0.5-0.6 0.8c-0.3 0.2-0.6 0.4-1 0.5 -0.4 0.1-0.8 0.2-1.3 0.2 -0.5 0-1-0.1-1.5-0.3 -0.5-0.2-1-0.4-1.3-0.7L418.2 18.3z" class="e"/><path d="M424.3 18.4c0-0.8 0.3-1.4 1-1.8 0.7-0.4 1.7-0.7 3.2-0.9 0-0.3-0.1-0.6-0.3-0.8 -0.2-0.2-0.5-0.3-0.9-0.3 -0.3 0-0.6 0.1-1 0.2 -0.3 0.1-0.7 0.3-1 0.5l-0.8-1.5c0.5-0.3 1-0.5 1.5-0.7 0.5-0.2 1.1-0.3 1.7-0.3 1 0 1.7 0.3 2.2 0.8 0.5 0.5 0.8 1.4 0.8 2.5v4.3h-1.8l-0.2-0.8h0c-0.3 0.3-0.7 0.5-1 0.7s-0.7 0.3-1.2 0.3c-0.3 0-0.6-0.1-0.9-0.2 -0.3-0.1-0.5-0.3-0.7-0.5 -0.2-0.2-0.3-0.4-0.4-0.7S424.3 18.8 424.3 18.4zM426.4 18.3c0 0.2 0.1 0.4 0.2 0.5 0.2 0.1 0.4 0.2 0.6 0.2 0.3 0 0.5-0.1 0.7-0.2 0.2-0.1 0.4-0.3 0.6-0.5V17.1c-0.8 0.1-1.3 0.3-1.6 0.5C426.5 17.7 426.4 18 426.4 18.3z" class="e"/><path d="M432.6 10h2.2v8.3c0 0.2 0 0.4 0.1 0.5 0.1 0.1 0.2 0.1 0.3 0.1 0.1 0 0.1 0 0.1 0s0.1 0 0.1 0l0.3 1.6c-0.1 0.1-0.3 0.1-0.5 0.1s-0.4 0.1-0.7 0.1c-0.4 0-0.7-0.1-1-0.2s-0.5-0.3-0.6-0.5c-0.2-0.2-0.3-0.5-0.3-0.8 -0.1-0.3-0.1-0.6-0.1-1V10z" class="e"/><path d="M437.2 14.8h-1v-1.6l1.1-0.1 0.3-2h1.8v2h1.8V14.8h-1.8v3c0 0.4 0.1 0.7 0.3 0.9 0.2 0.2 0.4 0.3 0.7 0.3 0.1 0 0.2 0 0.4 0 0.1 0 0.2-0.1 0.3-0.1l0.3 1.6c-0.2 0.1-0.4 0.1-0.7 0.2s-0.6 0.1-0.9 0.1c-0.5 0-0.9-0.1-1.2-0.2 -0.3-0.1-0.6-0.3-0.8-0.6 -0.2-0.2-0.4-0.6-0.4-0.9 -0.1-0.4-0.1-0.7-0.1-1.2V14.8z" class="e"/><path d="M361.4 30c-0.4 0-0.7-0.1-0.9-0.3 -0.2-0.2-0.4-0.5-0.4-0.8s0.1-0.6 0.4-0.8c0.2-0.2 0.5-0.3 0.9-0.3 0.4 0 0.7 0.1 0.9 0.3 0.2 0.2 0.4 0.5 0.4 0.8s-0.1 0.6-0.4 0.8C362.1 29.9 361.8 30 361.4 30zM360.3 31.1h2.2v7.4h-2.2V31.1z" class="e"/><path d="M364.8 36.3c0.3 0.3 0.7 0.5 1 0.6 0.3 0.1 0.6 0.2 0.9 0.2 0.3 0 0.6-0.1 0.7-0.2 0.2-0.1 0.2-0.3 0.2-0.5 0-0.1 0-0.2-0.1-0.3 -0.1-0.1-0.2-0.2-0.3-0.3s-0.3-0.2-0.5-0.2c-0.2-0.1-0.4-0.1-0.6-0.2 -0.2-0.1-0.5-0.2-0.7-0.3s-0.4-0.3-0.6-0.4 -0.3-0.4-0.5-0.6c-0.1-0.2-0.2-0.5-0.2-0.8 0-0.3 0.1-0.7 0.2-0.9 0.1-0.3 0.3-0.5 0.6-0.7 0.3-0.2 0.6-0.4 0.9-0.5 0.4-0.1 0.7-0.2 1.2-0.2 0.6 0 1.1 0.1 1.5 0.3 0.4 0.2 0.8 0.4 1.1 0.7l-1 1.3c-0.3-0.2-0.5-0.4-0.8-0.5s-0.5-0.2-0.8-0.2c-0.6 0-0.8 0.2-0.8 0.6 0 0.1 0 0.2 0.1 0.3s0.2 0.2 0.3 0.2 0.3 0.1 0.5 0.2c0.2 0.1 0.4 0.1 0.5 0.2 0.2 0.1 0.5 0.2 0.7 0.3 0.2 0.1 0.5 0.3 0.6 0.4 0.2 0.2 0.4 0.4 0.5 0.6 0.1 0.2 0.2 0.5 0.2 0.9 0 0.3-0.1 0.7-0.2 0.9 -0.1 0.3-0.3 0.5-0.6 0.8 -0.3 0.2-0.6 0.4-1 0.5 -0.4 0.1-0.8 0.2-1.3 0.2 -0.5 0-1-0.1-1.5-0.3 -0.5-0.2-1-0.4-1.3-0.7L364.8 36.3z" class="e"/><path d="M373.8 39.8c0-0.6 0.4-1.1 1.1-1.5v-0.1c-0.2-0.1-0.4-0.3-0.5-0.5 -0.1-0.2-0.2-0.5-0.2-0.8 0-0.3 0.1-0.5 0.2-0.8s0.4-0.5 0.6-0.6v-0.1c-0.3-0.2-0.5-0.4-0.7-0.8s-0.3-0.7-0.3-1.2c0-0.4 0.1-0.8 0.3-1.2 0.2-0.3 0.4-0.6 0.7-0.8s0.6-0.4 1-0.5c0.4-0.1 0.8-0.2 1.2-0.2 0.4 0 0.8 0.1 1.2 0.2h2.7v1.6h-1.2c0.1 0.1 0.1 0.3 0.2 0.4 0 0.2 0.1 0.4 0.1 0.6 0 0.4-0.1 0.8-0.2 1.1 -0.1 0.3-0.4 0.6-0.6 0.8 -0.3 0.2-0.6 0.4-0.9 0.5 -0.4 0.1-0.7 0.2-1.1 0.2 -0.3 0-0.6 0-0.9-0.1 -0.1 0.1-0.2 0.2-0.2 0.2 0 0.1-0.1 0.2-0.1 0.3 0 0.2 0.1 0.3 0.2 0.4 0.2 0.1 0.5 0.1 0.9 0.1h1.2c0.9 0 1.6 0.1 2.1 0.4 0.5 0.3 0.7 0.8 0.7 1.4 0 0.4-0.1 0.7-0.3 1.1 -0.2 0.3-0.5 0.6-0.8 0.8 -0.4 0.2-0.8 0.4-1.3 0.6 -0.5 0.1-1.1 0.2-1.7 0.2 -0.4 0-0.8 0-1.2-0.1 -0.4-0.1-0.7-0.2-1-0.3 -0.3-0.1-0.5-0.3-0.7-0.6C373.9 40.4 373.8 40.1 373.8 39.8zM375.6 39.4c0 0.3 0.1 0.5 0.4 0.6 0.3 0.1 0.7 0.2 1.2 0.2 0.5 0 0.9-0.1 1.2-0.3s0.5-0.4 0.5-0.7c0-0.2-0.1-0.4-0.3-0.5s-0.5-0.1-0.8-0.1h-0.8c-0.3 0-0.5 0-0.6 0 -0.2 0-0.3 0-0.4-0.1C375.7 39 375.6 39.2 375.6 39.4zM377.1 34.8c0.3 0 0.5-0.1 0.7-0.3 0.2-0.2 0.3-0.5 0.3-0.9 0-0.4-0.1-0.7-0.3-0.9 -0.2-0.2-0.4-0.3-0.7-0.3 -0.3 0-0.5 0.1-0.7 0.3s-0.3 0.5-0.3 0.9c0 0.4 0.1 0.7 0.3 0.9C376.5 34.7 376.8 34.8 377.1 34.8z" class="e"/><path d="M381.6 34.8c0-0.6 0.1-1.1 0.3-1.6 0.2-0.5 0.5-0.9 0.8-1.2 0.3-0.3 0.7-0.6 1.1-0.8 0.4-0.2 0.9-0.3 1.3-0.3 0.5 0 1 0.1 1.4 0.3 0.4 0.2 0.7 0.4 1 0.8 0.3 0.3 0.5 0.7 0.6 1.1 0.1 0.4 0.2 0.9 0.2 1.4 0 0.2 0 0.4 0 0.5 0 0.2 0 0.3-0.1 0.4h-4.5c0.1 0.6 0.3 1 0.7 1.2 0.3 0.3 0.8 0.4 1.3 0.4 0.5 0 1.1-0.2 1.6-0.5l0.7 1.3c-0.4 0.3-0.8 0.5-1.3 0.6s-0.9 0.2-1.4 0.2c-0.5 0-1-0.1-1.5-0.3 -0.5-0.2-0.9-0.4-1.2-0.8 -0.3-0.3-0.6-0.7-0.8-1.2C381.6 36 381.6 35.4 381.6 34.8zM386.4 34c0-0.4-0.1-0.8-0.3-1s-0.5-0.4-1-0.4c-0.4 0-0.7 0.1-0.9 0.4 -0.3 0.2-0.4 0.6-0.5 1.1H386.4z" class="e"/><path d="M389.8 31.1h1.8l0.2 0.9h0.1c0.3-0.3 0.7-0.6 1.1-0.8 0.4-0.2 0.8-0.3 1.3-0.3 0.8 0 1.4 0.3 1.8 0.8 0.4 0.5 0.5 1.3 0.5 2.2v4.6h-2.2V34.2c0-0.5-0.1-0.9-0.2-1.1s-0.4-0.3-0.7-0.3c-0.3 0-0.5 0.1-0.7 0.2 -0.2 0.1-0.4 0.3-0.7 0.5v5h-2.2V31.1z" class="e"/><path d="M397.9 34.8c0-0.6 0.1-1.1 0.3-1.6 0.2-0.5 0.5-0.9 0.8-1.2 0.3-0.3 0.7-0.6 1.1-0.8 0.4-0.2 0.9-0.3 1.3-0.3 0.5 0 1 0.1 1.4 0.3 0.4 0.2 0.7 0.4 1 0.8 0.3 0.3 0.5 0.7 0.6 1.1 0.1 0.4 0.2 0.9 0.2 1.4 0 0.2 0 0.4 0 0.5s0 0.3-0.1 0.4h-4.5c0.1 0.6 0.3 1 0.7 1.2 0.3 0.3 0.8 0.4 1.3 0.4 0.5 0 1.1-0.2 1.6-0.5l0.7 1.3c-0.4 0.3-0.8 0.5-1.3 0.6s-0.9 0.2-1.4 0.2c-0.5 0-1-0.1-1.5-0.3s-0.9-0.4-1.2-0.8c-0.3-0.3-0.6-0.7-0.8-1.2C398 36 397.9 35.4 397.9 34.8zM402.7 34c0-0.4-0.1-0.8-0.3-1 -0.2-0.3-0.5-0.4-1-0.4 -0.4 0-0.7 0.1-0.9 0.4s-0.4 0.6-0.5 1.1H402.7z" class="e"/><path d="M406.1 31.1h1.8l0.2 1.3h0.1c0.3-0.5 0.6-0.9 1-1.1 0.4-0.2 0.8-0.4 1.1-0.4 0.2 0 0.4 0 0.5 0 0.1 0 0.3 0.1 0.4 0.1l-0.4 1.9c-0.1 0-0.3-0.1-0.4-0.1 -0.1 0-0.3 0-0.4 0 -0.3 0-0.6 0.1-0.9 0.3 -0.3 0.2-0.6 0.6-0.8 1.1v4.3h-2.2V31.1z" class="e"/><path d="M411.4 36.4c0-0.8 0.3-1.4 1-1.8 0.7-0.4 1.7-0.7 3.2-0.9 0-0.3-0.1-0.6-0.3-0.8 -0.2-0.2-0.5-0.3-0.9-0.3 -0.3 0-0.6 0.1-1 0.2 -0.3 0.1-0.7 0.3-1 0.5l-0.8-1.5c0.5-0.3 1-0.5 1.5-0.7 0.5-0.2 1.1-0.3 1.7-0.3 1 0 1.7 0.3 2.2 0.8 0.5 0.5 0.8 1.4 0.8 2.5v4.3h-1.8l-0.2-0.8h0c-0.3 0.3-0.7 0.5-1 0.7s-0.7 0.3-1.2 0.3c-0.3 0-0.6-0.1-0.9-0.2 -0.3-0.1-0.5-0.3-0.7-0.5 -0.2-0.2-0.3-0.4-0.4-0.7S411.4 36.8 411.4 36.4zM413.5 36.3c0 0.2 0.1 0.4 0.2 0.5 0.2 0.1 0.4 0.2 0.6 0.2 0.3 0 0.5-0.1 0.7-0.2 0.2-0.1 0.4-0.3 0.6-0.5V35.1c-0.8 0.1-1.3 0.3-1.6 0.5C413.6 35.7 413.5 36 413.5 36.3z" class="e"/><path d="M419.9 32.8h-1v-1.6l1.1-0.1 0.3-2h1.8v2h1.8V32.8h-1.8v3c0 0.4 0.1 0.7 0.3 0.9 0.2 0.2 0.4 0.3 0.7 0.3 0.1 0 0.2 0 0.4 0 0.1 0 0.2-0.1 0.3-0.1l0.3 1.6c-0.2 0.1-0.4 0.1-0.7 0.2s-0.6 0.1-0.9 0.1c-0.5 0-0.9-0.1-1.2-0.2 -0.3-0.1-0.6-0.3-0.8-0.6 -0.2-0.2-0.4-0.6-0.5-0.9 -0.1-0.4-0.1-0.7-0.1-1.2V32.8z" class="e"/><path d="M424.8 34.8c0-0.6 0.1-1.1 0.3-1.6 0.2-0.5 0.5-0.9 0.8-1.2 0.3-0.3 0.7-0.6 1.1-0.8 0.4-0.2 0.9-0.3 1.3-0.3 0.5 0 1 0.1 1.4 0.3 0.4 0.2 0.7 0.4 1 0.8 0.3 0.3 0.5 0.7 0.6 1.1 0.1 0.4 0.2 0.9 0.2 1.4 0 0.2 0 0.4 0 0.5s0 0.3-0.1 0.4h-4.5c0.1 0.6 0.3 1 0.7 1.2 0.3 0.3 0.8 0.4 1.3 0.4 0.5 0 1.1-0.2 1.6-0.5l0.7 1.3c-0.4 0.3-0.8 0.5-1.3 0.6s-0.9 0.2-1.4 0.2c-0.5 0-1-0.1-1.5-0.3s-0.9-0.4-1.2-0.8c-0.3-0.3-0.6-0.7-0.8-1.2C424.9 36 424.8 35.4 424.8 34.8zM429.6 34c0-0.4-0.1-0.8-0.3-1 -0.2-0.3-0.5-0.4-1-0.4 -0.4 0-0.7 0.1-0.9 0.4s-0.4 0.6-0.5 1.1H429.6z" class="e"/><path d="M432.6 34.8c0-0.6 0.1-1.2 0.3-1.6s0.4-0.9 0.7-1.2c0.3-0.3 0.6-0.6 1-0.8 0.4-0.2 0.8-0.3 1.1-0.3 0.4 0 0.8 0.1 1 0.2 0.3 0.1 0.5 0.3 0.8 0.6l-0.1-1.1V28h2.2v10.5h-1.8l-0.1-0.7h-0.1c-0.3 0.3-0.6 0.5-0.9 0.7 -0.3 0.2-0.7 0.3-1.1 0.3 -0.5 0-0.9-0.1-1.3-0.3 -0.4-0.2-0.7-0.4-1-0.8 -0.3-0.3-0.5-0.7-0.6-1.2C432.7 36 432.6 35.4 432.6 34.8zM434.9 34.8c0 0.7 0.1 1.3 0.4 1.6 0.2 0.3 0.6 0.5 1 0.5 0.2 0 0.5 0 0.7-0.1 0.2-0.1 0.4-0.3 0.6-0.5v-3c-0.2-0.2-0.4-0.3-0.6-0.4s-0.4-0.1-0.6-0.1c-0.3 0-0.7 0.2-0.9 0.5S434.9 34.1 434.9 34.8z" class="e"/></svg>
