<svg xmlns="http://www.w3.org/2000/svg" width="500" height="275" viewBox="0 0 500 275"><style>.a{fill:#16A085;}.b{fill:#F39C12;}.c{fill:#1ABC9C;}.d{fill:#FFF;}</style><line x1="100" y1="50" x2="100" y2="95.4" style="fill:none;stroke-width:4;stroke:#16A085"/><polygon points="93.2 87.5 100 94.2 106.8 87.5 106.8 93.2 100 100 93.2 93.2 " class="a"/><polyline points="100 150 100 225 145.4 225 " style="fill:none;stroke-width:4;stroke:#F39C12"/><polygon points="137.5 231.8 144.2 225 137.5 218.2 143.2 218.2 150 225 143.2 231.8 " class="b"/><polyline points="400 150 400 225 354.6 225 " style="fill:none;stroke-width:4;stroke:#1ABC9C"/><polygon points="362.5 218.2 355.8 225 362.5 231.8 356.8 231.8 350 225 356.8 218.2 " class="c"/><polygon points="175 50 0 50 25 0 200 0 " class="a"/><rect y="100" width="200" height="50" class="b"/><rect x="300" y="100" width="200" height="50" class="c"/><polygon points="250 275 150 225.5 250 175 350 225.5 " fill="#E74C3C"/><path d="M34.6 10.7h3.6c0.5 0 1 0.1 1.5 0.2 0.5 0.1 0.9 0.3 1.2 0.5 0.3 0.2 0.6 0.6 0.8 1 0.2 0.4 0.3 0.9 0.3 1.5 0 0.6-0.1 1.1-0.3 1.5 -0.2 0.4-0.5 0.8-0.8 1 -0.3 0.3-0.8 0.5-1.2 0.6s-0.9 0.2-1.5 0.2h-1.4v3.3h-2.2V10.7zM38.1 15.4c1.2 0 1.8-0.5 1.8-1.6 0-0.5-0.2-0.9-0.5-1.1 -0.3-0.2-0.8-0.3-1.3-0.3h-1.2v3H38.1z" class="d"/><path d="M42.8 18.4c0-0.8 0.3-1.4 1-1.8 0.7-0.4 1.7-0.7 3.2-0.9 0-0.3-0.1-0.6-0.3-0.8 -0.2-0.2-0.5-0.3-0.9-0.3 -0.3 0-0.6 0.1-1 0.2 -0.3 0.1-0.7 0.3-1 0.5l-0.8-1.5c0.5-0.3 1-0.5 1.5-0.7 0.5-0.2 1.1-0.3 1.7-0.3 1 0 1.7 0.3 2.2 0.8 0.5 0.5 0.8 1.4 0.8 2.5v4.3h-1.8l-0.2-0.8h0c-0.3 0.3-0.7 0.5-1 0.7s-0.7 0.3-1.2 0.3c-0.3 0-0.6-0.1-0.9-0.2 -0.3-0.1-0.5-0.3-0.7-0.5 -0.2-0.2-0.3-0.4-0.4-0.7S42.8 18.8 42.8 18.4zM44.9 18.3c0 0.2 0.1 0.4 0.2 0.5 0.2 0.1 0.4 0.2 0.6 0.2 0.3 0 0.5-0.1 0.7-0.2 0.2-0.1 0.4-0.3 0.6-0.5V17.1c-0.8 0.1-1.3 0.3-1.6 0.5C45 17.7 44.9 18 44.9 18.3z" class="d"/><path d="M51.4 18.3c0.3 0.3 0.7 0.5 1 0.6s0.6 0.2 0.9 0.2c0.3 0 0.6-0.1 0.7-0.2 0.2-0.1 0.2-0.3 0.2-0.5 0-0.1 0-0.2-0.1-0.3 -0.1-0.1-0.2-0.2-0.3-0.3s-0.3-0.2-0.5-0.2c-0.2-0.1-0.4-0.1-0.6-0.2 -0.2-0.1-0.5-0.2-0.7-0.3s-0.4-0.3-0.6-0.4 -0.3-0.4-0.5-0.6c-0.1-0.2-0.2-0.5-0.2-0.8 0-0.3 0.1-0.7 0.2-0.9 0.1-0.3 0.3-0.5 0.6-0.7 0.3-0.2 0.6-0.4 0.9-0.5 0.4-0.1 0.7-0.2 1.2-0.2 0.6 0 1.1 0.1 1.5 0.3 0.4 0.2 0.8 0.4 1.1 0.7l-1 1.3c-0.3-0.2-0.5-0.4-0.8-0.5s-0.5-0.2-0.8-0.2c-0.6 0-0.8 0.2-0.8 0.6 0 0.1 0 0.2 0.1 0.3s0.2 0.2 0.3 0.2c0.1 0.1 0.3 0.1 0.5 0.2 0.2 0.1 0.4 0.1 0.5 0.2 0.2 0.1 0.5 0.2 0.7 0.3 0.2 0.1 0.5 0.3 0.6 0.4 0.2 0.2 0.4 0.4 0.5 0.6 0.1 0.2 0.2 0.5 0.2 0.9 0 0.3-0.1 0.7-0.2 0.9s-0.3 0.5-0.6 0.8c-0.3 0.2-0.6 0.4-1 0.5 -0.4 0.1-0.8 0.2-1.3 0.2 -0.5 0-1-0.1-1.5-0.3 -0.5-0.2-1-0.4-1.3-0.7L51.4 18.3z" class="d"/><path d="M58 18.3c0.3 0.3 0.7 0.5 1 0.6s0.6 0.2 0.9 0.2c0.3 0 0.6-0.1 0.7-0.2 0.2-0.1 0.2-0.3 0.2-0.5 0-0.1 0-0.2-0.1-0.3 -0.1-0.1-0.2-0.2-0.3-0.3s-0.3-0.2-0.5-0.2c-0.2-0.1-0.4-0.1-0.6-0.2 -0.2-0.1-0.5-0.2-0.7-0.3s-0.4-0.3-0.6-0.4 -0.3-0.4-0.5-0.6c-0.1-0.2-0.2-0.5-0.2-0.8 0-0.3 0.1-0.7 0.2-0.9 0.1-0.3 0.3-0.5 0.6-0.7 0.3-0.2 0.6-0.4 0.9-0.5 0.4-0.1 0.7-0.2 1.2-0.2 0.6 0 1.1 0.1 1.5 0.3 0.4 0.2 0.8 0.4 1.1 0.7l-1 1.3c-0.3-0.2-0.5-0.4-0.8-0.5s-0.5-0.2-0.8-0.2c-0.6 0-0.8 0.2-0.8 0.6 0 0.1 0 0.2 0.1 0.3s0.2 0.2 0.3 0.2c0.1 0.1 0.3 0.1 0.5 0.2 0.2 0.1 0.4 0.1 0.5 0.2 0.2 0.1 0.5 0.2 0.7 0.3 0.2 0.1 0.5 0.3 0.6 0.4 0.2 0.2 0.4 0.4 0.5 0.6 0.1 0.2 0.2 0.5 0.2 0.9 0 0.3-0.1 0.7-0.2 0.9s-0.3 0.5-0.6 0.8c-0.3 0.2-0.6 0.4-1 0.5 -0.4 0.1-0.8 0.2-1.3 0.2 -0.5 0-1-0.1-1.5-0.3 -0.5-0.2-1-0.4-1.3-0.7L58 18.3z" class="d"/><path d="M63.7 13.1h2.2l0.7 3.5c0.1 0.4 0.1 0.7 0.2 1.1 0.1 0.4 0.1 0.7 0.2 1.1h0.1c0.1-0.4 0.1-0.8 0.2-1.1 0.1-0.4 0.1-0.7 0.2-1.1l0.8-3.4h1.9l0.8 3.5c0.1 0.4 0.2 0.7 0.2 1.1s0.1 0.7 0.2 1.1h0.1c0.1-0.4 0.1-0.7 0.2-1.1 0-0.4 0.1-0.7 0.2-1.1l0.7-3.4h2l-1.8 7.4h-2.6l-0.7-3c-0.1-0.3-0.1-0.7-0.2-1 -0.1-0.3-0.1-0.7-0.2-1.1h-0.1c-0.1 0.4-0.1 0.8-0.2 1.1s-0.1 0.7-0.2 1.1l-0.7 3h-2.5L63.7 13.1z" class="d"/><path d="M75.4 16.8c0-0.6 0.1-1.2 0.3-1.7s0.5-0.9 0.8-1.2c0.3-0.3 0.7-0.6 1.2-0.8 0.4-0.2 0.9-0.3 1.4-0.3s0.9 0.1 1.4 0.3 0.8 0.4 1.2 0.8c0.3 0.3 0.6 0.7 0.8 1.2s0.3 1 0.3 1.7c0 0.6-0.1 1.2-0.3 1.7 -0.2 0.5-0.5 0.9-0.8 1.2 -0.3 0.3-0.7 0.6-1.2 0.8s-0.9 0.3-1.4 0.3 -0.9-0.1-1.4-0.3c-0.4-0.2-0.8-0.4-1.2-0.8 -0.3-0.3-0.6-0.7-0.8-1.2C75.5 18 75.4 17.4 75.4 16.8zM77.7 16.8c0 0.7 0.1 1.2 0.3 1.5s0.6 0.6 1 0.6c0.5 0 0.8-0.2 1-0.6s0.3-0.9 0.3-1.5c0-0.6-0.1-1.2-0.3-1.5 -0.2-0.4-0.6-0.6-1-0.6 -0.5 0-0.8 0.2-1 0.6C77.8 15.6 77.7 16.1 77.7 16.8z" class="d"/><path d="M84.2 13.1h1.8l0.2 1.3h0.1c0.3-0.5 0.6-0.9 1-1.1 0.4-0.2 0.8-0.4 1.1-0.4 0.2 0 0.4 0 0.5 0 0.1 0 0.3 0.1 0.4 0.1l-0.4 1.9c-0.1 0-0.3-0.1-0.4-0.1 -0.1 0-0.3 0-0.4 0 -0.3 0-0.6 0.1-0.9 0.3 -0.3 0.2-0.6 0.6-0.8 1.1v4.3h-2.2V13.1z" class="d"/><path d="M89.6 16.8c0-0.6 0.1-1.2 0.3-1.6 0.2-0.5 0.4-0.9 0.7-1.2 0.3-0.3 0.6-0.6 1-0.8 0.4-0.2 0.8-0.3 1.1-0.3 0.4 0 0.8 0.1 1 0.2 0.3 0.1 0.5 0.3 0.8 0.6l-0.1-1.1V10h2.2v10.5h-1.8l-0.1-0.7h-0.1c-0.3 0.3-0.6 0.5-0.9 0.7s-0.7 0.3-1.1 0.3c-0.5 0-0.9-0.1-1.3-0.3 -0.4-0.2-0.7-0.4-1-0.8 -0.3-0.3-0.5-0.7-0.6-1.2C89.7 18 89.6 17.4 89.6 16.8zM91.9 16.8c0 0.7 0.1 1.3 0.4 1.6 0.2 0.3 0.6 0.5 1 0.5 0.2 0 0.5 0 0.7-0.1 0.2-0.1 0.4-0.3 0.6-0.5v-3c-0.2-0.2-0.4-0.3-0.6-0.4s-0.4-0.1-0.6-0.1c-0.3 0-0.7 0.2-0.9 0.5S91.9 16.1 91.9 16.8z" class="d"/><path d="M102.8 12c-0.4 0-0.7-0.1-0.9-0.3 -0.2-0.2-0.4-0.5-0.4-0.8s0.1-0.6 0.4-0.8c0.2-0.2 0.5-0.3 0.9-0.3 0.4 0 0.7 0.1 0.9 0.3 0.2 0.2 0.4 0.5 0.4 0.8s-0.1 0.6-0.4 0.8C103.5 11.9 103.2 12 102.8 12zM101.7 13.1h2.2v7.4h-2.2V13.1z" class="d"/><path d="M106.2 18.3c0.3 0.3 0.7 0.5 1 0.6s0.6 0.2 0.9 0.2c0.3 0 0.6-0.1 0.7-0.2 0.2-0.1 0.2-0.3 0.2-0.5 0-0.1 0-0.2-0.1-0.3 -0.1-0.1-0.2-0.2-0.3-0.3s-0.3-0.2-0.5-0.2c-0.2-0.1-0.4-0.1-0.6-0.2 -0.2-0.1-0.5-0.2-0.7-0.3s-0.4-0.3-0.6-0.4 -0.3-0.4-0.5-0.6c-0.1-0.2-0.2-0.5-0.2-0.8 0-0.3 0.1-0.7 0.2-0.9 0.1-0.3 0.3-0.5 0.6-0.7 0.3-0.2 0.6-0.4 0.9-0.5 0.4-0.1 0.7-0.2 1.2-0.2 0.6 0 1.1 0.1 1.5 0.3 0.4 0.2 0.8 0.4 1.1 0.7l-1 1.3c-0.3-0.2-0.5-0.4-0.8-0.5s-0.5-0.2-0.8-0.2c-0.6 0-0.8 0.2-0.8 0.6 0 0.1 0 0.2 0.1 0.3s0.2 0.2 0.3 0.2c0.1 0.1 0.3 0.1 0.5 0.2 0.2 0.1 0.4 0.1 0.5 0.2 0.2 0.1 0.5 0.2 0.7 0.3 0.2 0.1 0.5 0.3 0.6 0.4 0.2 0.2 0.4 0.4 0.5 0.6 0.1 0.2 0.2 0.5 0.2 0.9 0 0.3-0.1 0.7-0.2 0.9s-0.3 0.5-0.6 0.8c-0.3 0.2-0.6 0.4-1 0.5 -0.4 0.1-0.8 0.2-1.3 0.2 -0.5 0-1-0.1-1.5-0.3 -0.5-0.2-1-0.4-1.3-0.7L106.2 18.3z" class="d"/><path d="M115.2 16.8c0-0.6 0.1-1.1 0.3-1.6 0.2-0.5 0.5-0.9 0.8-1.2 0.3-0.3 0.7-0.6 1.1-0.8 0.4-0.2 0.9-0.3 1.3-0.3 0.5 0 1 0.1 1.4 0.3 0.4 0.2 0.7 0.4 1 0.8 0.3 0.3 0.5 0.7 0.6 1.1 0.1 0.4 0.2 0.9 0.2 1.4 0 0.2 0 0.4 0 0.5s0 0.3-0.1 0.4h-4.5c0.1 0.6 0.3 1 0.7 1.2 0.3 0.3 0.8 0.4 1.3 0.4 0.5 0 1.1-0.2 1.6-0.5l0.7 1.3c-0.4 0.3-0.8 0.5-1.3 0.6 -0.5 0.2-0.9 0.2-1.4 0.2 -0.5 0-1-0.1-1.5-0.3s-0.9-0.4-1.2-0.8c-0.3-0.3-0.6-0.7-0.8-1.2C115.3 18 115.2 17.4 115.2 16.8zM120 16c0-0.4-0.1-0.8-0.3-1 -0.2-0.3-0.5-0.4-1-0.4 -0.4 0-0.7 0.1-0.9 0.4s-0.4 0.6-0.5 1.1H120z" class="d"/><path d="M123.4 13.1h1.8l0.2 0.9h0.1c0.3-0.3 0.7-0.6 1.1-0.8 0.4-0.2 0.8-0.3 1.3-0.3 0.8 0 1.4 0.3 1.8 0.8 0.4 0.5 0.5 1.3 0.5 2.2v4.6h-2.2V16.2c0-0.5-0.1-0.9-0.2-1.1s-0.4-0.3-0.7-0.3c-0.3 0-0.5 0.1-0.7 0.2 -0.2 0.1-0.4 0.3-0.7 0.5v5h-2.2V13.1z" class="d"/><path d="M132.3 14.8h-1v-1.6l1.1-0.1 0.3-2h1.8v2h1.8V14.8h-1.8v3c0 0.4 0.1 0.7 0.3 0.9 0.2 0.2 0.4 0.3 0.7 0.3 0.1 0 0.2 0 0.4 0 0.1 0 0.2-0.1 0.3-0.1l0.3 1.6c-0.2 0.1-0.4 0.1-0.7 0.2s-0.6 0.1-0.9 0.1c-0.5 0-0.9-0.1-1.2-0.2 -0.3-0.1-0.6-0.3-0.8-0.6 -0.2-0.2-0.4-0.6-0.4-0.9 -0.1-0.4-0.1-0.7-0.1-1.2V14.8z" class="d"/><path d="M137.1 16.8c0-0.6 0.1-1.1 0.3-1.6 0.2-0.5 0.5-0.9 0.8-1.2 0.3-0.3 0.7-0.6 1.1-0.8 0.4-0.2 0.9-0.3 1.3-0.3 0.5 0 1 0.1 1.4 0.3 0.4 0.2 0.7 0.4 1 0.8 0.3 0.3 0.5 0.7 0.6 1.1 0.1 0.4 0.2 0.9 0.2 1.4 0 0.2 0 0.4 0 0.5s0 0.3-0.1 0.4h-4.5c0.1 0.6 0.3 1 0.7 1.2 0.3 0.3 0.8 0.4 1.3 0.4 0.5 0 1.1-0.2 1.6-0.5l0.7 1.3c-0.4 0.3-0.8 0.5-1.3 0.6 -0.5 0.2-0.9 0.2-1.4 0.2 -0.5 0-1-0.1-1.5-0.3s-0.9-0.4-1.2-0.8c-0.3-0.3-0.6-0.7-0.8-1.2C137.2 18 137.1 17.4 137.1 16.8zM141.9 16c0-0.4-0.1-0.8-0.3-1 -0.2-0.3-0.5-0.4-1-0.4 -0.4 0-0.7 0.1-0.9 0.4s-0.4 0.6-0.5 1.1H141.9z" class="d"/><path d="M145.3 13.1h1.8l0.2 1.3h0.1c0.3-0.5 0.6-0.9 1-1.1 0.4-0.2 0.8-0.4 1.1-0.4 0.2 0 0.4 0 0.5 0 0.1 0 0.3 0.1 0.4 0.1l-0.4 1.9c-0.1 0-0.3-0.1-0.4-0.1 -0.1 0-0.3 0-0.4 0 -0.3 0-0.6 0.1-0.9 0.3 -0.3 0.2-0.6 0.6-0.8 1.1v4.3h-2.2V13.1z" class="d"/><path d="M150.7 16.8c0-0.6 0.1-1.1 0.3-1.6 0.2-0.5 0.5-0.9 0.8-1.2 0.3-0.3 0.7-0.6 1.1-0.8 0.4-0.2 0.9-0.3 1.3-0.3 0.5 0 1 0.1 1.4 0.3 0.4 0.2 0.7 0.4 1 0.8 0.3 0.3 0.5 0.7 0.6 1.1 0.1 0.4 0.2 0.9 0.2 1.4 0 0.2 0 0.4 0 0.5s0 0.3-0.1 0.4h-4.5c0.1 0.6 0.3 1 0.7 1.2 0.3 0.3 0.8 0.4 1.3 0.4 0.5 0 1.1-0.2 1.6-0.5l0.7 1.3c-0.4 0.3-0.8 0.5-1.3 0.6 -0.5 0.2-0.9 0.2-1.4 0.2 -0.5 0-1-0.1-1.5-0.3s-0.9-0.4-1.2-0.8c-0.3-0.3-0.6-0.7-0.8-1.2C150.8 18 150.7 17.4 150.7 16.8zM155.5 16c0-0.4-0.1-0.8-0.3-1 -0.2-0.3-0.5-0.4-1-0.4 -0.4 0-0.7 0.1-0.9 0.4s-0.4 0.6-0.5 1.1H155.5z" class="d"/><path d="M158.5 16.8c0-0.6 0.1-1.2 0.3-1.6 0.2-0.5 0.4-0.9 0.7-1.2 0.3-0.3 0.6-0.6 1-0.8 0.4-0.2 0.8-0.3 1.1-0.3 0.4 0 0.8 0.1 1 0.2 0.3 0.1 0.5 0.3 0.8 0.6l-0.1-1.1V10h2.2v10.5h-1.8l-0.1-0.7h-0.1c-0.3 0.3-0.6 0.5-0.9 0.7s-0.7 0.3-1.1 0.3c-0.5 0-0.9-0.1-1.3-0.3 -0.4-0.2-0.7-0.4-1-0.8 -0.3-0.3-0.5-0.7-0.6-1.2C158.6 18 158.5 17.4 158.5 16.8zM160.8 16.8c0 0.7 0.1 1.3 0.4 1.6 0.2 0.3 0.6 0.5 1 0.5 0.2 0 0.5 0 0.7-0.1 0.2-0.1 0.4-0.3 0.6-0.5v-3c-0.2-0.2-0.4-0.3-0.6-0.4s-0.4-0.1-0.6-0.1c-0.3 0-0.7 0.2-0.9 0.5S160.8 16.1 160.8 16.8z" class="d"/><path d="M64.4 30c-0.4 0-0.7-0.1-0.9-0.3 -0.2-0.2-0.4-0.5-0.4-0.8s0.1-0.6 0.4-0.8c0.2-0.2 0.5-0.3 0.9-0.3 0.4 0 0.7 0.1 0.9 0.3 0.2 0.2 0.4 0.5 0.4 0.8s-0.1 0.6-0.4 0.8C65.1 29.9 64.8 30 64.4 30zM63.3 31.1h2.2v7.4h-2.2V31.1z" class="d"/><path d="M67.5 31.1h1.8l0.2 0.9h0.1c0.3-0.3 0.7-0.6 1.1-0.8 0.4-0.2 0.8-0.3 1.3-0.3 0.8 0 1.4 0.3 1.8 0.8 0.4 0.5 0.5 1.3 0.5 2.2v4.6h-2.2V34.2c0-0.5-0.1-0.9-0.2-1.1s-0.4-0.3-0.7-0.3c-0.3 0-0.5 0.1-0.7 0.2 -0.2 0.1-0.4 0.3-0.7 0.5v5h-2.2V31.1z" class="d"/><path d="M78.7 34.8c0-0.6 0.1-1.2 0.3-1.7s0.5-0.9 0.8-1.2c0.4-0.3 0.8-0.6 1.2-0.8s1-0.3 1.5-0.3c0.5 0 0.9 0.1 1.2 0.2 0.4 0.2 0.7 0.4 0.9 0.6l-1 1.4c-0.3-0.3-0.7-0.4-1-0.4 -0.5 0-1 0.2-1.3 0.6 -0.3 0.4-0.5 0.9-0.5 1.5 0 0.7 0.2 1.2 0.5 1.5s0.7 0.6 1.2 0.6c0.3 0 0.5-0.1 0.7-0.2 0.2-0.1 0.4-0.2 0.6-0.4l0.9 1.4c-0.4 0.3-0.8 0.6-1.2 0.7 -0.4 0.2-0.9 0.2-1.3 0.2 -0.5 0-1-0.1-1.4-0.3 -0.4-0.2-0.8-0.4-1.2-0.8s-0.6-0.7-0.8-1.2C78.8 36 78.7 35.4 78.7 34.8z" class="d"/><path d="M86.2 28h2.2v8.3c0 0.2 0 0.4 0.1 0.5 0.1 0.1 0.2 0.1 0.3 0.1 0.1 0 0.1 0 0.1 0s0.1 0 0.1 0l0.3 1.6c-0.1 0.1-0.3 0.1-0.5 0.1s-0.4 0.1-0.7 0.1c-0.4 0-0.7-0.1-1-0.2 -0.3-0.1-0.5-0.3-0.6-0.5 -0.2-0.2-0.3-0.5-0.3-0.8 -0.1-0.3-0.1-0.6-0.1-1V28z" class="d"/><path d="M90 34.8c0-0.6 0.1-1.1 0.3-1.6 0.2-0.5 0.5-0.9 0.8-1.2 0.3-0.3 0.7-0.6 1.1-0.8 0.4-0.2 0.9-0.3 1.3-0.3 0.5 0 1 0.1 1.4 0.3 0.4 0.2 0.7 0.4 1 0.8 0.3 0.3 0.5 0.7 0.6 1.1 0.1 0.4 0.2 0.9 0.2 1.4 0 0.2 0 0.4 0 0.5s0 0.3-0.1 0.4h-4.5c0.1 0.6 0.3 1 0.7 1.2 0.3 0.3 0.8 0.4 1.3 0.4 0.5 0 1.1-0.2 1.6-0.5l0.7 1.3c-0.4 0.3-0.8 0.5-1.3 0.6 -0.5 0.2-0.9 0.2-1.4 0.2 -0.5 0-1-0.1-1.5-0.3s-0.9-0.4-1.2-0.8c-0.3-0.3-0.6-0.7-0.8-1.2C90.1 36 90 35.4 90 34.8zM94.8 34c0-0.4-0.1-0.8-0.3-1 -0.2-0.3-0.5-0.4-1-0.4 -0.4 0-0.7 0.1-0.9 0.4S92.2 33.5 92.1 34H94.8z" class="d"/><path d="M97.8 36.4c0-0.8 0.3-1.4 1-1.8 0.7-0.4 1.7-0.7 3.2-0.9 0-0.3-0.1-0.6-0.3-0.8 -0.2-0.2-0.5-0.3-0.9-0.3 -0.3 0-0.6 0.1-1 0.2 -0.3 0.1-0.7 0.3-1 0.5l-0.8-1.5c0.5-0.3 1-0.5 1.5-0.7 0.5-0.2 1.1-0.3 1.7-0.3 1 0 1.7 0.3 2.2 0.8 0.5 0.5 0.8 1.4 0.8 2.5v4.3h-1.8l-0.2-0.8h0c-0.3 0.3-0.7 0.5-1 0.7s-0.7 0.3-1.2 0.3c-0.3 0-0.6-0.1-0.9-0.2 -0.3-0.1-0.5-0.3-0.7-0.5 -0.2-0.2-0.3-0.4-0.4-0.7S97.8 36.8 97.8 36.4zM99.9 36.3c0 0.2 0.1 0.4 0.2 0.5 0.2 0.1 0.4 0.2 0.6 0.2 0.3 0 0.5-0.1 0.7-0.2 0.2-0.1 0.4-0.3 0.6-0.5V35.1c-0.8 0.1-1.3 0.3-1.6 0.5C100 35.7 99.9 36 99.9 36.3z" class="d"/><path d="M106.1 31.1h1.8l0.2 1.3h0.1c0.3-0.5 0.6-0.9 1-1.1 0.4-0.2 0.8-0.4 1.1-0.4 0.2 0 0.4 0 0.5 0 0.1 0 0.3 0.1 0.4 0.1l-0.4 1.9c-0.1 0-0.3-0.1-0.4-0.1 -0.1 0-0.3 0-0.4 0 -0.3 0-0.6 0.1-0.9 0.3 -0.3 0.2-0.6 0.6-0.8 1.1v4.3h-2.2V31.1z" class="d"/><path d="M112.3 32.8h-1v-1.6l1.1-0.1 0.3-2h1.8v2h1.8V32.8h-1.8v3c0 0.4 0.1 0.7 0.3 0.9 0.2 0.2 0.4 0.3 0.7 0.3 0.1 0 0.2 0 0.4 0 0.1 0 0.2-0.1 0.3-0.1l0.3 1.6c-0.2 0.1-0.4 0.1-0.7 0.2s-0.6 0.1-0.9 0.1c-0.5 0-0.9-0.1-1.2-0.2 -0.3-0.1-0.6-0.3-0.8-0.6 -0.2-0.2-0.4-0.6-0.4-0.9 -0.1-0.4-0.1-0.7-0.1-1.2V32.8z" class="d"/><path d="M117.2 34.8c0-0.6 0.1-1.1 0.3-1.6 0.2-0.5 0.5-0.9 0.8-1.2 0.3-0.3 0.7-0.6 1.1-0.8 0.4-0.2 0.9-0.3 1.3-0.3 0.5 0 1 0.1 1.4 0.3 0.4 0.2 0.7 0.4 1 0.8 0.3 0.3 0.5 0.7 0.6 1.1 0.1 0.4 0.2 0.9 0.2 1.4 0 0.2 0 0.4 0 0.5s0 0.3-0.1 0.4h-4.5c0.1 0.6 0.3 1 0.7 1.2 0.3 0.3 0.8 0.4 1.3 0.4 0.5 0 1.1-0.2 1.6-0.5l0.7 1.3c-0.4 0.3-0.8 0.5-1.3 0.6 -0.5 0.2-0.9 0.2-1.4 0.2 -0.5 0-1-0.1-1.5-0.3s-0.9-0.4-1.2-0.8c-0.3-0.3-0.6-0.7-0.8-1.2C117.3 36 117.2 35.4 117.2 34.8zM122 34c0-0.4-0.1-0.8-0.3-1 -0.2-0.3-0.5-0.4-1-0.4 -0.4 0-0.7 0.1-0.9 0.4s-0.4 0.6-0.5 1.1H122z" class="d"/><path d="M126.7 34.6l-2.1-3.6h2.4l0.7 1.2c0.1 0.2 0.2 0.4 0.3 0.6 0.1 0.2 0.2 0.4 0.3 0.6h0.1c0.1-0.2 0.2-0.4 0.3-0.6 0.1-0.2 0.2-0.4 0.3-0.6l0.5-1.2h2.3l-2.2 3.8 2.3 3.6h-2.4l-0.7-1.2c-0.1-0.2-0.2-0.4-0.4-0.6 -0.1-0.2-0.2-0.4-0.4-0.6h-0.1c-0.1 0.2-0.2 0.4-0.3 0.6 -0.1 0.2-0.2 0.4-0.3 0.7l-0.6 1.2h-2.3L126.7 34.6z" class="d"/><path d="M133.2 32.8h-1v-1.6l1.1-0.1 0.3-2h1.8v2h1.8V32.8h-1.8v3c0 0.4 0.1 0.7 0.3 0.9 0.2 0.2 0.4 0.3 0.7 0.3 0.1 0 0.2 0 0.4 0 0.1 0 0.2-0.1 0.3-0.1l0.3 1.6c-0.2 0.1-0.4 0.1-0.7 0.2s-0.6 0.1-0.9 0.1c-0.5 0-0.9-0.1-1.2-0.2 -0.3-0.1-0.6-0.3-0.8-0.6 -0.2-0.2-0.4-0.6-0.4-0.9 -0.1-0.4-0.1-0.7-0.1-1.2V32.8z" class="d"/><path d="M36.5 119.7h3.6c0.5 0 1 0.1 1.5 0.2 0.5 0.1 0.9 0.3 1.2 0.5 0.3 0.2 0.6 0.6 0.8 1 0.2 0.4 0.3 0.9 0.3 1.5 0 0.6-0.1 1.1-0.3 1.5 -0.2 0.4-0.5 0.8-0.8 1 -0.3 0.3-0.8 0.5-1.2 0.6s-0.9 0.2-1.5 0.2h-1.4v3.3h-2.2V119.7zM39.9 124.4c1.2 0 1.8-0.5 1.8-1.6 0-0.5-0.2-0.9-0.5-1.1 -0.3-0.2-0.8-0.3-1.3-0.3h-1.2v3H39.9z" class="d"/><path d="M44.6 127.4c0-0.8 0.3-1.4 1-1.8 0.7-0.4 1.7-0.7 3.2-0.9 0-0.3-0.1-0.6-0.3-0.8 -0.2-0.2-0.5-0.3-0.9-0.3 -0.3 0-0.6 0.1-1 0.2 -0.3 0.1-0.7 0.3-1 0.5l-0.8-1.5c0.5-0.3 1-0.5 1.5-0.7 0.5-0.2 1.1-0.3 1.7-0.3 1 0 1.7 0.3 2.2 0.8 0.5 0.5 0.8 1.4 0.8 2.5v4.3h-1.8l-0.2-0.8h0c-0.3 0.3-0.7 0.5-1 0.7s-0.7 0.3-1.2 0.3c-0.3 0-0.6-0.1-0.9-0.2 -0.3-0.1-0.5-0.3-0.7-0.5 -0.2-0.2-0.3-0.4-0.4-0.7S44.6 127.8 44.6 127.4zM46.7 127.3c0 0.2 0.1 0.4 0.2 0.5 0.2 0.1 0.4 0.2 0.6 0.2 0.3 0 0.5-0.1 0.7-0.2 0.2-0.1 0.4-0.3 0.6-0.5v-1.3c-0.8 0.1-1.3 0.3-1.6 0.5C46.9 126.7 46.7 127 46.7 127.3z" class="d"/><path d="M53.2 127.3c0.3 0.3 0.7 0.5 1 0.6s0.6 0.2 0.9 0.2c0.3 0 0.6-0.1 0.7-0.2 0.2-0.1 0.2-0.3 0.2-0.5 0-0.1 0-0.2-0.1-0.3 -0.1-0.1-0.2-0.2-0.3-0.3s-0.3-0.2-0.5-0.2c-0.2-0.1-0.4-0.1-0.6-0.2 -0.2-0.1-0.5-0.2-0.7-0.3s-0.4-0.3-0.6-0.4 -0.3-0.4-0.5-0.6c-0.1-0.2-0.2-0.5-0.2-0.8 0-0.3 0.1-0.7 0.2-0.9 0.1-0.3 0.3-0.5 0.6-0.7 0.3-0.2 0.6-0.4 0.9-0.5 0.4-0.1 0.7-0.2 1.2-0.2 0.6 0 1.1 0.1 1.5 0.3 0.4 0.2 0.8 0.4 1.1 0.7l-1 1.3c-0.3-0.2-0.5-0.4-0.8-0.5s-0.5-0.2-0.8-0.2c-0.6 0-0.8 0.2-0.8 0.6 0 0.1 0 0.2 0.1 0.3s0.2 0.2 0.3 0.2c0.1 0.1 0.3 0.1 0.5 0.2 0.2 0.1 0.4 0.1 0.5 0.2 0.2 0.1 0.5 0.2 0.7 0.3 0.2 0.1 0.5 0.3 0.6 0.4 0.2 0.2 0.4 0.4 0.5 0.6 0.1 0.2 0.2 0.5 0.2 0.9 0 0.3-0.1 0.7-0.2 0.9s-0.3 0.5-0.6 0.8c-0.3 0.2-0.6 0.4-1 0.5 -0.4 0.1-0.8 0.2-1.3 0.2 -0.5 0-1-0.1-1.5-0.3 -0.5-0.2-1-0.4-1.3-0.7L53.2 127.3z" class="d"/><path d="M59.9 127.3c0.3 0.3 0.7 0.5 1 0.6s0.6 0.2 0.9 0.2c0.3 0 0.6-0.1 0.7-0.2 0.2-0.1 0.2-0.3 0.2-0.5 0-0.1 0-0.2-0.1-0.3 -0.1-0.1-0.2-0.2-0.3-0.3s-0.3-0.2-0.5-0.2c-0.2-0.1-0.4-0.1-0.6-0.2 -0.2-0.1-0.5-0.2-0.7-0.3s-0.4-0.3-0.6-0.4 -0.3-0.4-0.5-0.6c-0.1-0.2-0.2-0.5-0.2-0.8 0-0.3 0.1-0.7 0.2-0.9 0.1-0.3 0.3-0.5 0.6-0.7 0.3-0.2 0.6-0.4 0.9-0.5 0.4-0.1 0.7-0.2 1.2-0.2 0.6 0 1.1 0.1 1.5 0.3 0.4 0.2 0.8 0.4 1.1 0.7l-1 1.3c-0.3-0.2-0.5-0.4-0.8-0.5s-0.5-0.2-0.8-0.2c-0.6 0-0.8 0.2-0.8 0.6 0 0.1 0 0.2 0.1 0.3s0.2 0.2 0.3 0.2c0.1 0.1 0.3 0.1 0.5 0.2 0.2 0.1 0.4 0.1 0.5 0.2 0.2 0.1 0.5 0.2 0.7 0.3 0.2 0.1 0.5 0.3 0.6 0.4 0.2 0.2 0.4 0.4 0.5 0.6 0.1 0.2 0.2 0.5 0.2 0.9 0 0.3-0.1 0.7-0.2 0.9s-0.3 0.5-0.6 0.8c-0.3 0.2-0.6 0.4-1 0.5 -0.4 0.1-0.8 0.2-1.3 0.2 -0.5 0-1-0.1-1.5-0.3 -0.5-0.2-1-0.4-1.3-0.7L59.9 127.3z" class="d"/><path d="M65.6 122.1h2.2l0.7 3.5c0.1 0.4 0.1 0.7 0.2 1.1 0.1 0.4 0.1 0.7 0.2 1.1h0.1c0.1-0.4 0.1-0.8 0.2-1.1 0.1-0.4 0.1-0.7 0.2-1.1l0.8-3.4h1.9l0.8 3.5c0.1 0.4 0.2 0.7 0.2 1.1s0.1 0.7 0.2 1.1h0.1c0.1-0.4 0.1-0.7 0.2-1.1 0-0.4 0.1-0.7 0.2-1.1l0.7-3.4h2l-1.8 7.4h-2.6l-0.7-3c-0.1-0.3-0.1-0.7-0.2-1 -0.1-0.3-0.1-0.7-0.2-1.1h-0.1c-0.1 0.4-0.1 0.8-0.2 1.1s-0.1 0.7-0.2 1.1l-0.7 3h-2.5L65.6 122.1z" class="d"/><path d="M77.3 125.8c0-0.6 0.1-1.2 0.3-1.7s0.5-0.9 0.8-1.2c0.3-0.3 0.7-0.6 1.2-0.8 0.4-0.2 0.9-0.3 1.4-0.3s0.9 0.1 1.4 0.3 0.8 0.4 1.2 0.8c0.3 0.3 0.6 0.7 0.8 1.2s0.3 1 0.3 1.7c0 0.6-0.1 1.2-0.3 1.7 -0.2 0.5-0.5 0.9-0.8 1.2 -0.3 0.3-0.7 0.6-1.2 0.8s-0.9 0.3-1.4 0.3 -0.9-0.1-1.4-0.3c-0.4-0.2-0.8-0.4-1.2-0.8 -0.3-0.3-0.6-0.7-0.8-1.2C77.4 127 77.3 126.4 77.3 125.8zM79.5 125.8c0 0.7 0.1 1.2 0.3 1.5s0.6 0.6 1 0.6c0.5 0 0.8-0.2 1-0.6s0.3-0.9 0.3-1.5c0-0.6-0.1-1.2-0.3-1.5 -0.2-0.4-0.6-0.6-1-0.6 -0.5 0-0.8 0.2-1 0.6C79.7 124.6 79.5 125.1 79.5 125.8z" class="d"/><path d="M86 122.1h1.8l0.2 1.3h0.1c0.3-0.5 0.6-0.9 1-1.1 0.4-0.2 0.8-0.4 1.1-0.4 0.2 0 0.4 0 0.5 0 0.1 0 0.3 0.1 0.4 0.1l-0.4 1.9c-0.1 0-0.3-0.1-0.4-0.1 -0.1 0-0.3 0-0.4 0 -0.3 0-0.6 0.1-0.9 0.3 -0.3 0.2-0.6 0.6-0.8 1.1v4.3h-2.2V122.1z" class="d"/><path d="M91.5 125.8c0-0.6 0.1-1.2 0.3-1.6 0.2-0.5 0.4-0.9 0.7-1.2 0.3-0.3 0.6-0.6 1-0.8 0.4-0.2 0.8-0.3 1.1-0.3 0.4 0 0.8 0.1 1 0.2 0.3 0.1 0.5 0.3 0.8 0.6l-0.1-1.1V119h2.2v10.5h-1.8l-0.1-0.7h-0.1c-0.3 0.3-0.6 0.5-0.9 0.7s-0.7 0.3-1.1 0.3c-0.5 0-0.9-0.1-1.3-0.3 -0.4-0.2-0.7-0.4-1-0.8 -0.3-0.3-0.5-0.7-0.6-1.2C91.5 127 91.5 126.4 91.5 125.8zM93.7 125.8c0 0.7 0.1 1.3 0.4 1.6 0.2 0.3 0.6 0.5 1 0.5 0.2 0 0.5 0 0.7-0.1 0.2-0.1 0.4-0.3 0.6-0.5v-3c-0.2-0.2-0.4-0.3-0.6-0.4s-0.4-0.1-0.6-0.1c-0.3 0-0.7 0.2-0.9 0.5S93.7 125.1 93.7 125.8z" class="d"/><path d="M104.7 121c-0.4 0-0.7-0.1-0.9-0.3 -0.2-0.2-0.4-0.5-0.4-0.8s0.1-0.6 0.4-0.8c0.2-0.2 0.5-0.3 0.9-0.3 0.4 0 0.7 0.1 0.9 0.3 0.2 0.2 0.4 0.5 0.4 0.8s-0.1 0.6-0.4 0.8C105.4 120.9 105.1 121 104.7 121zM103.6 122.1h2.2v7.4h-2.2V122.1z" class="d"/><path d="M108 127.3c0.3 0.3 0.7 0.5 1 0.6s0.6 0.2 0.9 0.2c0.3 0 0.6-0.1 0.7-0.2 0.2-0.1 0.2-0.3 0.2-0.5 0-0.1 0-0.2-0.1-0.3 -0.1-0.1-0.2-0.2-0.3-0.3s-0.3-0.2-0.5-0.2c-0.2-0.1-0.4-0.1-0.6-0.2 -0.2-0.1-0.5-0.2-0.7-0.3s-0.4-0.3-0.6-0.4 -0.3-0.4-0.5-0.6c-0.1-0.2-0.2-0.5-0.2-0.8 0-0.3 0.1-0.7 0.2-0.9 0.1-0.3 0.3-0.5 0.6-0.7 0.3-0.2 0.6-0.4 0.9-0.5 0.4-0.1 0.7-0.2 1.2-0.2 0.6 0 1.1 0.1 1.5 0.3 0.4 0.2 0.8 0.4 1.1 0.7l-1 1.3c-0.3-0.2-0.5-0.4-0.8-0.5s-0.5-0.2-0.8-0.2c-0.6 0-0.8 0.2-0.8 0.6 0 0.1 0 0.2 0.1 0.3s0.2 0.2 0.3 0.2c0.1 0.1 0.3 0.1 0.5 0.2 0.2 0.1 0.4 0.1 0.5 0.2 0.2 0.1 0.5 0.2 0.7 0.3 0.2 0.1 0.5 0.3 0.6 0.4 0.2 0.2 0.4 0.4 0.5 0.6 0.1 0.2 0.2 0.5 0.2 0.9 0 0.3-0.1 0.7-0.2 0.9s-0.3 0.5-0.6 0.8c-0.3 0.2-0.6 0.4-1 0.5 -0.4 0.1-0.8 0.2-1.3 0.2 -0.5 0-1-0.1-1.5-0.3 -0.5-0.2-1-0.4-1.3-0.7L108 127.3z" class="d"/><path d="M117.5 119h2.2v2.6l-0.1 1.3c0.3-0.2 0.6-0.5 1-0.7s0.8-0.3 1.3-0.3c0.8 0 1.4 0.3 1.8 0.8 0.4 0.5 0.5 1.3 0.5 2.2v4.6h-2.2v-4.3c0-0.5-0.1-0.9-0.2-1.1s-0.4-0.3-0.7-0.3c-0.3 0-0.5 0.1-0.7 0.2 -0.2 0.1-0.4 0.3-0.7 0.5v5h-2.2V119z" class="d"/><path d="M125.8 127.4c0-0.8 0.3-1.4 1-1.8 0.7-0.4 1.7-0.7 3.2-0.9 0-0.3-0.1-0.6-0.3-0.8 -0.2-0.2-0.5-0.3-0.9-0.3 -0.3 0-0.6 0.1-1 0.2 -0.3 0.1-0.7 0.3-1 0.5l-0.8-1.5c0.5-0.3 1-0.5 1.5-0.7 0.5-0.2 1.1-0.3 1.7-0.3 1 0 1.7 0.3 2.2 0.8 0.5 0.5 0.8 1.4 0.8 2.5v4.3h-1.8l-0.2-0.8h0c-0.3 0.3-0.7 0.5-1 0.7s-0.7 0.3-1.2 0.3c-0.3 0-0.6-0.1-0.9-0.2 -0.3-0.1-0.5-0.3-0.7-0.5 -0.2-0.2-0.3-0.4-0.4-0.7S125.8 127.8 125.8 127.4zM127.9 127.3c0 0.2 0.1 0.4 0.2 0.5 0.2 0.1 0.4 0.2 0.6 0.2 0.3 0 0.5-0.1 0.7-0.2 0.2-0.1 0.4-0.3 0.6-0.5v-1.3c-0.8 0.1-1.3 0.3-1.6 0.5C128 126.7 127.9 127 127.9 127.3z" class="d"/><path d="M134.4 127.3c0.3 0.3 0.7 0.5 1 0.6s0.6 0.2 0.9 0.2c0.3 0 0.6-0.1 0.7-0.2 0.2-0.1 0.2-0.3 0.2-0.5 0-0.1 0-0.2-0.1-0.3 -0.1-0.1-0.2-0.2-0.3-0.3s-0.3-0.2-0.5-0.2c-0.2-0.1-0.4-0.1-0.6-0.2 -0.2-0.1-0.5-0.2-0.7-0.3s-0.4-0.3-0.6-0.4 -0.3-0.4-0.5-0.6c-0.1-0.2-0.2-0.5-0.2-0.8 0-0.3 0.1-0.7 0.2-0.9 0.1-0.3 0.3-0.5 0.6-0.7 0.3-0.2 0.6-0.4 0.9-0.5 0.4-0.1 0.7-0.2 1.2-0.2 0.6 0 1.1 0.1 1.5 0.3 0.4 0.2 0.8 0.4 1.1 0.7l-1 1.3c-0.3-0.2-0.5-0.4-0.8-0.5s-0.5-0.2-0.8-0.2c-0.6 0-0.8 0.2-0.8 0.6 0 0.1 0 0.2 0.1 0.3s0.2 0.2 0.3 0.2c0.1 0.1 0.3 0.1 0.5 0.2 0.2 0.1 0.4 0.1 0.5 0.2 0.2 0.1 0.5 0.2 0.7 0.3 0.2 0.1 0.5 0.3 0.6 0.4 0.2 0.2 0.4 0.4 0.5 0.6 0.1 0.2 0.2 0.5 0.2 0.9 0 0.3-0.1 0.7-0.2 0.9s-0.3 0.5-0.6 0.8c-0.3 0.2-0.6 0.4-1 0.5 -0.4 0.1-0.8 0.2-1.3 0.2 -0.5 0-1-0.1-1.5-0.3 -0.5-0.2-1-0.4-1.3-0.7L134.4 127.3z" class="d"/><path d="M140.7 119h2.2v2.6l-0.1 1.3c0.3-0.2 0.6-0.5 1-0.7s0.8-0.3 1.3-0.3c0.8 0 1.4 0.3 1.8 0.8 0.4 0.5 0.5 1.3 0.5 2.2v4.6h-2.2v-4.3c0-0.5-0.1-0.9-0.2-1.1s-0.4-0.3-0.7-0.3c-0.3 0-0.5 0.1-0.7 0.2 -0.2 0.1-0.4 0.3-0.7 0.5v5h-2.2V119z" class="d"/><path d="M148.8 125.8c0-0.6 0.1-1.1 0.3-1.6 0.2-0.5 0.5-0.9 0.8-1.2 0.3-0.3 0.7-0.6 1.1-0.8 0.4-0.2 0.9-0.3 1.3-0.3 0.5 0 1 0.1 1.4 0.3 0.4 0.2 0.7 0.4 1 0.8 0.3 0.3 0.5 0.7 0.6 1.1 0.1 0.4 0.2 0.9 0.2 1.4 0 0.2 0 0.4 0 0.5s0 0.3-0.1 0.4h-4.5c0.1 0.6 0.3 1 0.7 1.2 0.3 0.3 0.8 0.4 1.3 0.4 0.5 0 1.1-0.2 1.6-0.5l0.7 1.3c-0.4 0.3-0.8 0.5-1.3 0.6 -0.5 0.2-0.9 0.2-1.4 0.2 -0.5 0-1-0.1-1.5-0.3s-0.9-0.4-1.2-0.8c-0.3-0.3-0.6-0.7-0.8-1.2C148.9 127 148.8 126.4 148.8 125.8zM153.6 125c0-0.4-0.1-0.8-0.3-1 -0.2-0.3-0.5-0.4-1-0.4 -0.4 0-0.7 0.1-0.9 0.4s-0.4 0.6-0.5 1.1H153.6z" class="d"/><path d="M156.6 125.8c0-0.6 0.1-1.2 0.3-1.6 0.2-0.5 0.4-0.9 0.7-1.2 0.3-0.3 0.6-0.6 1-0.8 0.4-0.2 0.8-0.3 1.1-0.3 0.4 0 0.8 0.1 1 0.2 0.3 0.1 0.5 0.3 0.8 0.6l-0.1-1.1V119h2.2v10.5h-1.8l-0.1-0.7h-0.1c-0.3 0.3-0.6 0.5-0.9 0.7s-0.7 0.3-1.1 0.3c-0.5 0-0.9-0.1-1.3-0.3 -0.4-0.2-0.7-0.4-1-0.8 -0.3-0.3-0.5-0.7-0.6-1.2C156.7 127 156.6 126.4 156.6 125.8zM158.9 125.8c0 0.7 0.1 1.3 0.4 1.6 0.2 0.3 0.6 0.5 1 0.5 0.2 0 0.5 0 0.7-0.1 0.2-0.1 0.4-0.3 0.6-0.5v-3c-0.2-0.2-0.4-0.3-0.6-0.4s-0.4-0.1-0.6-0.1c-0.3 0-0.7 0.2-0.9 0.5S158.9 125.1 158.9 125.8z" class="d"/><path d="M205 210.2h2.8c0.8 0 1.4 0.1 2 0.3 0.6 0.2 1.1 0.5 1.5 0.9 0.4 0.4 0.8 0.9 1 1.5 0.2 0.6 0.3 1.3 0.3 2.2s-0.1 1.6-0.3 2.2c-0.2 0.6-0.6 1.1-1 1.5s-0.9 0.7-1.5 0.9 -1.2 0.3-2 0.3h-2.9V210.2zM207.6 218.2c0.4 0 0.8-0.1 1.1-0.2 0.3-0.1 0.6-0.3 0.9-0.5 0.2-0.2 0.4-0.6 0.6-1 0.1-0.4 0.2-0.9 0.2-1.5 0-0.6-0.1-1.1-0.2-1.5 -0.1-0.4-0.3-0.7-0.6-0.9 -0.2-0.2-0.5-0.4-0.9-0.5 -0.3-0.1-0.7-0.1-1.1-0.1h-0.4v6.2H207.6z" class="d"/><path d="M213.9 216.3c0-0.6 0.1-1.2 0.3-1.7s0.5-0.9 0.8-1.2c0.3-0.3 0.7-0.6 1.2-0.8 0.4-0.2 0.9-0.3 1.4-0.3s0.9 0.1 1.4 0.3 0.8 0.4 1.2 0.8c0.3 0.3 0.6 0.7 0.8 1.2s0.3 1 0.3 1.7c0 0.6-0.1 1.2-0.3 1.7 -0.2 0.5-0.5 0.9-0.8 1.2 -0.3 0.3-0.7 0.6-1.2 0.8s-0.9 0.3-1.4 0.3 -0.9-0.1-1.4-0.3c-0.4-0.2-0.8-0.4-1.2-0.8 -0.3-0.3-0.6-0.7-0.8-1.2C214 217.5 213.9 216.9 213.9 216.3zM216.1 216.3c0 0.7 0.1 1.2 0.3 1.5s0.6 0.6 1 0.6c0.5 0 0.8-0.2 1-0.6s0.3-0.9 0.3-1.5c0-0.6-0.1-1.2-0.3-1.5 -0.2-0.4-0.6-0.6-1-0.6 -0.5 0-0.8 0.2-1 0.6C216.3 215.1 216.1 215.6 216.1 216.3z" class="d"/><path d="M226.1 214.3h-1v-1.6l1.1-0.1 0.3-2h1.8v2h1.8v1.7h-1.8v3c0 0.4 0.1 0.7 0.3 0.9 0.2 0.2 0.4 0.3 0.7 0.3 0.1 0 0.2 0 0.4 0 0.1 0 0.2-0.1 0.3-0.1l0.3 1.6c-0.2 0.1-0.4 0.1-0.7 0.2s-0.6 0.1-0.9 0.1c-0.5 0-0.9-0.1-1.2-0.2 -0.3-0.1-0.6-0.3-0.8-0.6 -0.2-0.2-0.4-0.6-0.4-0.9 -0.1-0.4-0.1-0.7-0.1-1.2V214.3z" class="d"/><path d="M231.5 209.5h2.2v2.6l-0.1 1.3c0.3-0.2 0.6-0.5 1-0.7s0.8-0.3 1.3-0.3c0.8 0 1.4 0.3 1.8 0.8 0.4 0.5 0.5 1.3 0.5 2.2v4.6h-2.2v-4.3c0-0.5-0.1-0.9-0.2-1.1s-0.4-0.3-0.7-0.3c-0.3 0-0.5 0.1-0.7 0.2 -0.2 0.1-0.4 0.3-0.7 0.5v5h-2.2V209.5z" class="d"/><path d="M239.6 216.3c0-0.6 0.1-1.1 0.3-1.6 0.2-0.5 0.5-0.9 0.8-1.2 0.3-0.3 0.7-0.6 1.1-0.8 0.4-0.2 0.9-0.3 1.3-0.3 0.5 0 1 0.1 1.4 0.3 0.4 0.2 0.7 0.4 1 0.8 0.3 0.3 0.5 0.7 0.6 1.1 0.1 0.4 0.2 0.9 0.2 1.4 0 0.2 0 0.4 0 0.5s0 0.3-0.1 0.4h-4.5c0.1 0.6 0.3 1 0.7 1.2 0.3 0.3 0.8 0.4 1.3 0.4 0.5 0 1.1-0.2 1.6-0.5l0.7 1.3c-0.4 0.3-0.8 0.5-1.3 0.6 -0.5 0.2-0.9 0.2-1.4 0.2 -0.5 0-1-0.1-1.5-0.3s-0.9-0.4-1.2-0.8c-0.3-0.3-0.6-0.7-0.8-1.2C239.7 217.5 239.6 216.9 239.6 216.3zM244.4 215.5c0-0.4-0.1-0.8-0.3-1 -0.2-0.3-0.5-0.4-1-0.4 -0.4 0-0.7 0.1-0.9 0.4s-0.4 0.6-0.5 1.1H244.4z" class="d"/><path d="M251 209.5h2.2v2.6l-0.1 1.3c0.3-0.2 0.6-0.5 1-0.7s0.8-0.3 1.3-0.3c0.8 0 1.4 0.3 1.8 0.8 0.4 0.5 0.5 1.3 0.5 2.2v4.6h-2.2v-4.3c0-0.5-0.1-0.9-0.2-1.1 -0.1-0.2-0.4-0.3-0.7-0.3 -0.3 0-0.5 0.1-0.7 0.2 -0.2 0.1-0.4 0.3-0.7 0.5v5h-2.2V209.5z" class="d"/><path d="M259.3 217.9c0-0.8 0.3-1.4 1-1.8 0.7-0.4 1.7-0.7 3.2-0.9 0-0.3-0.1-0.6-0.3-0.8 -0.2-0.2-0.5-0.3-0.9-0.3 -0.3 0-0.6 0.1-1 0.2s-0.7 0.3-1 0.5l-0.8-1.5c0.5-0.3 1-0.5 1.5-0.7 0.5-0.2 1.1-0.3 1.7-0.3 1 0 1.7 0.3 2.2 0.8 0.5 0.5 0.8 1.4 0.8 2.5v4.3h-1.8l-0.2-0.8h0c-0.3 0.3-0.7 0.5-1 0.7 -0.4 0.2-0.7 0.3-1.2 0.3 -0.3 0-0.6-0.1-0.9-0.2 -0.3-0.1-0.5-0.3-0.7-0.5 -0.2-0.2-0.3-0.4-0.4-0.7C259.3 218.6 259.3 218.3 259.3 217.9zM261.4 217.8c0 0.2 0.1 0.4 0.2 0.5 0.2 0.1 0.4 0.2 0.6 0.2 0.3 0 0.5-0.1 0.7-0.2 0.2-0.1 0.4-0.3 0.6-0.5v-1.3c-0.8 0.1-1.3 0.3-1.6 0.5C261.5 217.2 261.4 217.5 261.4 217.8z" class="d"/><path d="M267.9 217.8c0.3 0.3 0.7 0.5 1 0.6s0.6 0.2 0.9 0.2c0.3 0 0.6-0.1 0.7-0.2 0.2-0.1 0.2-0.3 0.2-0.5 0-0.1 0-0.2-0.1-0.3 -0.1-0.1-0.2-0.2-0.3-0.3 -0.1-0.1-0.3-0.2-0.5-0.2 -0.2-0.1-0.4-0.1-0.6-0.2 -0.2-0.1-0.5-0.2-0.7-0.3 -0.2-0.1-0.4-0.3-0.6-0.4 -0.2-0.2-0.3-0.4-0.5-0.6 -0.1-0.2-0.2-0.5-0.2-0.8 0-0.3 0.1-0.7 0.2-0.9 0.1-0.3 0.3-0.5 0.6-0.7 0.2-0.2 0.6-0.4 0.9-0.5 0.4-0.1 0.7-0.2 1.2-0.2 0.6 0 1.1 0.1 1.5 0.3 0.4 0.2 0.8 0.4 1.1 0.7l-1 1.3c-0.3-0.2-0.5-0.4-0.8-0.5 -0.3-0.1-0.5-0.2-0.8-0.2 -0.6 0-0.8 0.2-0.8 0.6 0 0.1 0 0.2 0.1 0.3s0.2 0.2 0.3 0.2c0.1 0.1 0.3 0.1 0.5 0.2 0.2 0.1 0.4 0.1 0.5 0.2 0.2 0.1 0.5 0.2 0.7 0.3 0.2 0.1 0.4 0.3 0.6 0.4 0.2 0.2 0.4 0.4 0.5 0.6 0.1 0.2 0.2 0.5 0.2 0.9 0 0.3-0.1 0.7-0.2 0.9s-0.3 0.5-0.6 0.8c-0.3 0.2-0.6 0.4-1 0.5 -0.4 0.1-0.8 0.2-1.3 0.2 -0.5 0-1-0.1-1.5-0.3s-1-0.4-1.3-0.7L267.9 217.8z" class="d"/><path d="M274.2 209.5h2.2v2.6l-0.1 1.3c0.3-0.2 0.6-0.5 1-0.7s0.8-0.3 1.3-0.3c0.8 0 1.4 0.3 1.8 0.8 0.4 0.5 0.5 1.3 0.5 2.2v4.6h-2.2v-4.3c0-0.5-0.1-0.9-0.2-1.1 -0.1-0.2-0.4-0.3-0.7-0.3 -0.3 0-0.5 0.1-0.7 0.2 -0.2 0.1-0.4 0.3-0.7 0.5v5h-2.2V209.5z" class="d"/><path d="M282.3 216.3c0-0.6 0.1-1.1 0.3-1.6 0.2-0.5 0.5-0.9 0.8-1.2 0.3-0.3 0.7-0.6 1.1-0.8 0.4-0.2 0.9-0.3 1.3-0.3 0.5 0 1 0.1 1.4 0.3 0.4 0.2 0.7 0.4 1 0.8 0.3 0.3 0.5 0.7 0.6 1.1 0.1 0.4 0.2 0.9 0.2 1.4 0 0.2 0 0.4 0 0.5s0 0.3-0.1 0.4h-4.5c0.1 0.6 0.3 1 0.7 1.2 0.3 0.3 0.8 0.4 1.3 0.4 0.5 0 1.1-0.2 1.6-0.5l0.7 1.3c-0.4 0.3-0.8 0.5-1.3 0.6s-0.9 0.2-1.4 0.2c-0.5 0-1-0.1-1.5-0.3s-0.9-0.4-1.2-0.8c-0.3-0.3-0.6-0.7-0.8-1.2C282.4 217.5 282.3 216.9 282.3 216.3zM287.1 215.5c0-0.4-0.1-0.8-0.3-1 -0.2-0.3-0.5-0.4-1-0.4 -0.4 0-0.7 0.1-0.9 0.4s-0.4 0.6-0.5 1.1H287.1z" class="d"/><path d="M290.8 217.8c0.3 0.3 0.7 0.5 1 0.6 0.3 0.1 0.6 0.2 0.9 0.2 0.3 0 0.6-0.1 0.7-0.2 0.2-0.1 0.2-0.3 0.2-0.5 0-0.1 0-0.2-0.1-0.3 -0.1-0.1-0.2-0.2-0.3-0.3s-0.3-0.2-0.5-0.2c-0.2-0.1-0.4-0.1-0.6-0.2 -0.2-0.1-0.5-0.2-0.7-0.3s-0.4-0.3-0.6-0.4 -0.3-0.4-0.5-0.6c-0.1-0.2-0.2-0.5-0.2-0.8 0-0.3 0.1-0.7 0.2-0.9 0.1-0.3 0.3-0.5 0.6-0.7 0.3-0.2 0.6-0.4 0.9-0.5 0.4-0.1 0.7-0.2 1.2-0.2 0.6 0 1.1 0.1 1.5 0.3 0.4 0.2 0.8 0.4 1.1 0.7l-1 1.3c-0.3-0.2-0.5-0.4-0.8-0.5s-0.5-0.2-0.8-0.2c-0.6 0-0.8 0.2-0.8 0.6 0 0.1 0 0.2 0.1 0.3s0.2 0.2 0.3 0.2 0.3 0.1 0.5 0.2c0.2 0.1 0.4 0.1 0.5 0.2 0.2 0.1 0.5 0.2 0.7 0.3 0.2 0.1 0.5 0.3 0.6 0.4 0.2 0.2 0.4 0.4 0.5 0.6 0.1 0.2 0.2 0.5 0.2 0.9 0 0.3-0.1 0.7-0.2 0.9 -0.1 0.3-0.3 0.5-0.6 0.8 -0.3 0.2-0.6 0.4-1 0.5 -0.4 0.1-0.8 0.2-1.3 0.2 -0.5 0-1-0.1-1.5-0.3 -0.5-0.2-1-0.4-1.3-0.7L290.8 217.8z" class="d"/><path d="M226.6 230.6h1.8l0.2 1h0.1c0.3-0.3 0.6-0.6 1-0.8 0.4-0.2 0.8-0.3 1.3-0.3 0.5 0 1 0.1 1.3 0.3 0.3 0.2 0.6 0.5 0.8 0.9 0.3-0.3 0.7-0.6 1-0.9 0.4-0.2 0.8-0.4 1.3-0.4 0.8 0 1.4 0.3 1.8 0.8s0.6 1.3 0.6 2.2v4.6h-2.2v-4.3c0-0.5-0.1-0.9-0.2-1.1 -0.1-0.2-0.4-0.3-0.7-0.3 -0.4 0-0.8 0.2-1.3 0.7v5h-2.2v-4.3c0-0.5-0.1-0.9-0.2-1.1 -0.1-0.2-0.4-0.3-0.7-0.3 -0.4 0-0.8 0.2-1.3 0.7v5h-2.2V230.6z" class="d"/><path d="M239.2 235.9c0-0.8 0.3-1.4 1-1.8 0.7-0.4 1.7-0.7 3.2-0.9 0-0.3-0.1-0.6-0.3-0.8 -0.2-0.2-0.5-0.3-0.9-0.3 -0.3 0-0.6 0.1-1 0.2 -0.3 0.1-0.7 0.3-1 0.5l-0.8-1.5c0.5-0.3 1-0.5 1.5-0.7 0.5-0.2 1.1-0.3 1.7-0.3 1 0 1.7 0.3 2.2 0.8 0.5 0.5 0.8 1.4 0.8 2.5v4.3h-1.8l-0.2-0.8h0c-0.3 0.3-0.7 0.5-1 0.7s-0.7 0.3-1.2 0.3c-0.3 0-0.6-0.1-0.9-0.2 -0.3-0.1-0.5-0.3-0.7-0.5 -0.2-0.2-0.3-0.4-0.4-0.7S239.2 236.3 239.2 235.9zM241.3 235.8c0 0.2 0.1 0.4 0.2 0.5 0.2 0.1 0.4 0.2 0.6 0.2 0.3 0 0.5-0.1 0.7-0.2 0.2-0.1 0.4-0.3 0.6-0.5v-1.3c-0.8 0.1-1.3 0.3-1.6 0.5C241.4 235.2 241.3 235.5 241.3 235.8z" class="d"/><path d="M247.8 232.3h-1v-1.6l1.1-0.1 0.3-2h1.8v2h1.8v1.7h-1.8v3c0 0.4 0.1 0.7 0.3 0.9 0.2 0.2 0.4 0.3 0.7 0.3 0.1 0 0.2 0 0.4 0 0.1 0 0.2-0.1 0.3-0.1l0.3 1.6c-0.2 0.1-0.4 0.1-0.7 0.2s-0.6 0.1-0.9 0.1c-0.5 0-0.9-0.1-1.2-0.2 -0.3-0.1-0.6-0.3-0.8-0.6 -0.2-0.2-0.4-0.6-0.4-0.9 -0.1-0.4-0.1-0.7-0.1-1.2V232.3z" class="d"/><path d="M252.6 234.3c0-0.6 0.1-1.2 0.3-1.7s0.5-0.9 0.8-1.2c0.4-0.3 0.8-0.6 1.2-0.8s1-0.3 1.5-0.3c0.5 0 0.9 0.1 1.2 0.2 0.4 0.2 0.7 0.4 0.9 0.6l-1 1.4c-0.3-0.3-0.7-0.4-1-0.4 -0.5 0-1 0.2-1.3 0.6 -0.3 0.4-0.5 0.9-0.5 1.5 0 0.7 0.2 1.2 0.5 1.5 0.3 0.4 0.7 0.6 1.2 0.6 0.3 0 0.5-0.1 0.7-0.2 0.2-0.1 0.4-0.2 0.6-0.4l0.9 1.4c-0.4 0.3-0.8 0.6-1.2 0.7s-0.9 0.2-1.3 0.2c-0.5 0-1-0.1-1.4-0.3s-0.8-0.4-1.2-0.8 -0.6-0.7-0.8-1.2C252.7 235.5 252.6 234.9 252.6 234.3z" class="d"/><path d="M260.1 227.5h2.2v2.6l-0.1 1.3c0.3-0.2 0.6-0.5 1-0.7 0.4-0.2 0.8-0.3 1.3-0.3 0.8 0 1.4 0.3 1.8 0.8 0.4 0.5 0.5 1.3 0.5 2.2v4.6h-2.2v-4.3c0-0.5-0.1-0.9-0.2-1.1s-0.4-0.3-0.7-0.3c-0.3 0-0.5 0.1-0.7 0.2 -0.2 0.1-0.4 0.3-0.7 0.5v5h-2.2V227.5z" class="d"/><path d="M269.7 234.6c-0.1-0.3 0-0.6 0-0.9 0.1-0.3 0.2-0.5 0.3-0.8 0.1-0.2 0.3-0.5 0.5-0.7 0.2-0.2 0.3-0.4 0.5-0.6 0.2-0.2 0.3-0.4 0.4-0.5 0.1-0.2 0.2-0.4 0.2-0.5 0-0.3-0.1-0.5-0.3-0.7 -0.2-0.2-0.4-0.2-0.7-0.2 -0.3 0-0.5 0.1-0.7 0.2s-0.4 0.3-0.6 0.5l-1.2-1.1c0.3-0.4 0.7-0.7 1.2-1s1-0.4 1.5-0.4c0.4 0 0.8 0.1 1.2 0.2 0.4 0.1 0.7 0.3 0.9 0.5 0.3 0.2 0.5 0.5 0.6 0.8 0.2 0.3 0.2 0.7 0.2 1.1 0 0.3-0.1 0.6-0.2 0.8s-0.2 0.5-0.4 0.7c-0.2 0.2-0.3 0.4-0.5 0.6s-0.4 0.4-0.5 0.6c-0.2 0.2-0.3 0.4-0.4 0.7 -0.1 0.2-0.1 0.5-0.1 0.8H269.7zM269.4 236.8c0-0.4 0.1-0.7 0.4-1 0.2-0.3 0.6-0.4 0.9-0.4s0.7 0.1 1 0.4c0.3 0.3 0.4 0.6 0.4 1 0 0.4-0.1 0.7-0.4 1 -0.3 0.3-0.6 0.4-1 0.4s-0.7-0.1-0.9-0.4C269.5 237.5 269.4 237.2 269.4 236.8z" class="d"/><path d="M352.8 110.7h3.6c0.5 0 1 0.1 1.5 0.2 0.5 0.1 0.9 0.3 1.2 0.5 0.3 0.2 0.6 0.6 0.8 1 0.2 0.4 0.3 0.9 0.3 1.5 0 0.6-0.1 1.1-0.3 1.5 -0.2 0.4-0.5 0.8-0.8 1s-0.8 0.5-1.2 0.6 -0.9 0.2-1.5 0.2h-1.4v3.3h-2.2V110.7zM356.3 115.4c1.2 0 1.8-0.5 1.8-1.6 0-0.5-0.2-0.9-0.5-1.1 -0.3-0.2-0.8-0.3-1.3-0.3h-1.2v3H356.3z" class="d"/><path d="M361 116.8c0-0.6 0.1-1.1 0.3-1.6 0.2-0.5 0.5-0.9 0.8-1.2 0.3-0.3 0.7-0.6 1.1-0.8 0.4-0.2 0.9-0.3 1.3-0.3 0.5 0 1 0.1 1.4 0.3 0.4 0.2 0.7 0.4 1 0.8 0.3 0.3 0.5 0.7 0.6 1.1 0.1 0.4 0.2 0.9 0.2 1.4 0 0.2 0 0.4 0 0.5 0 0.2 0 0.3-0.1 0.4h-4.5c0.1 0.6 0.3 1 0.7 1.2 0.3 0.3 0.8 0.4 1.3 0.4 0.5 0 1.1-0.2 1.6-0.5l0.7 1.3c-0.4 0.3-0.8 0.5-1.3 0.6s-0.9 0.2-1.4 0.2c-0.5 0-1-0.1-1.5-0.3 -0.5-0.2-0.9-0.4-1.2-0.8 -0.3-0.3-0.6-0.7-0.8-1.2C361.1 118 361 117.4 361 116.8zM365.8 116c0-0.4-0.1-0.8-0.3-1s-0.5-0.4-1-0.4c-0.4 0-0.7 0.1-0.9 0.4 -0.3 0.2-0.4 0.6-0.5 1.1H365.8z" class="d"/><path d="M369.2 113.1h1.8l0.2 1.3h0.1c0.3-0.5 0.6-0.9 1-1.1 0.4-0.2 0.8-0.4 1.1-0.4 0.2 0 0.4 0 0.5 0 0.1 0 0.3 0.1 0.4 0.1l-0.4 1.9c-0.1 0-0.3-0.1-0.4-0.1s-0.3 0-0.4 0c-0.3 0-0.6 0.1-0.9 0.3 -0.3 0.2-0.6 0.6-0.8 1.1v4.3h-2.2V113.1z" class="d"/><path d="M375.3 118.3c0.3 0.3 0.7 0.5 1 0.6 0.3 0.1 0.6 0.2 0.9 0.2 0.3 0 0.6-0.1 0.7-0.2 0.2-0.1 0.2-0.3 0.2-0.5 0-0.1 0-0.2-0.1-0.3 -0.1-0.1-0.2-0.2-0.3-0.3s-0.3-0.2-0.5-0.2c-0.2-0.1-0.4-0.1-0.6-0.2 -0.2-0.1-0.5-0.2-0.7-0.3s-0.4-0.3-0.6-0.4 -0.3-0.4-0.5-0.6c-0.1-0.2-0.2-0.5-0.2-0.8 0-0.3 0.1-0.7 0.2-0.9 0.1-0.3 0.3-0.5 0.6-0.7 0.2-0.2 0.5-0.4 0.9-0.5 0.4-0.1 0.7-0.2 1.2-0.2 0.6 0 1.1 0.1 1.5 0.3 0.4 0.2 0.8 0.4 1.1 0.7l-1 1.3c-0.3-0.2-0.5-0.4-0.8-0.5s-0.5-0.2-0.8-0.2c-0.6 0-0.8 0.2-0.8 0.6 0 0.1 0 0.2 0.1 0.3s0.2 0.2 0.3 0.2c0.1 0.1 0.3 0.1 0.5 0.2 0.2 0.1 0.4 0.1 0.5 0.2 0.2 0.1 0.5 0.2 0.7 0.3 0.2 0.1 0.4 0.3 0.6 0.4 0.2 0.2 0.4 0.4 0.5 0.6 0.1 0.2 0.2 0.5 0.2 0.9 0 0.3-0.1 0.7-0.2 0.9 -0.1 0.3-0.3 0.5-0.6 0.8 -0.3 0.2-0.6 0.4-1 0.5 -0.4 0.1-0.8 0.2-1.3 0.2 -0.5 0-1-0.1-1.5-0.3 -0.5-0.2-1-0.4-1.3-0.7L375.3 118.3z" class="d"/><path d="M382.8 112c-0.4 0-0.7-0.1-0.9-0.3 -0.2-0.2-0.4-0.5-0.4-0.8s0.1-0.6 0.4-0.8c0.2-0.2 0.5-0.3 0.9-0.3 0.4 0 0.7 0.1 0.9 0.3s0.4 0.5 0.4 0.8 -0.1 0.6-0.4 0.8S383.1 112 382.8 112zM381.7 113.1h2.2v7.4h-2.2V113.1z" class="d"/><path d="M386.1 118.3c0.3 0.3 0.7 0.5 1 0.6s0.6 0.2 0.9 0.2c0.3 0 0.6-0.1 0.7-0.2 0.2-0.1 0.2-0.3 0.2-0.5 0-0.1 0-0.2-0.1-0.3 -0.1-0.1-0.2-0.2-0.3-0.3 -0.1-0.1-0.3-0.2-0.5-0.2 -0.2-0.1-0.4-0.1-0.6-0.2 -0.2-0.1-0.5-0.2-0.7-0.3 -0.2-0.1-0.4-0.3-0.6-0.4 -0.2-0.2-0.3-0.4-0.5-0.6 -0.1-0.2-0.2-0.5-0.2-0.8 0-0.3 0.1-0.7 0.2-0.9 0.1-0.3 0.3-0.5 0.6-0.7 0.2-0.2 0.6-0.4 0.9-0.5 0.4-0.1 0.7-0.2 1.2-0.2 0.6 0 1.1 0.1 1.5 0.3 0.4 0.2 0.8 0.4 1.1 0.7l-1 1.3c-0.3-0.2-0.5-0.4-0.8-0.5 -0.3-0.1-0.5-0.2-0.8-0.2 -0.6 0-0.8 0.2-0.8 0.6 0 0.1 0 0.2 0.1 0.3s0.2 0.2 0.3 0.2c0.1 0.1 0.3 0.1 0.5 0.2 0.2 0.1 0.4 0.1 0.5 0.2 0.2 0.1 0.5 0.2 0.7 0.3 0.2 0.1 0.4 0.3 0.6 0.4 0.2 0.2 0.4 0.4 0.5 0.6 0.1 0.2 0.2 0.5 0.2 0.9 0 0.3-0.1 0.7-0.2 0.9s-0.3 0.5-0.6 0.8c-0.3 0.2-0.6 0.4-1 0.5 -0.4 0.1-0.8 0.2-1.3 0.2 -0.5 0-1-0.1-1.5-0.3s-1-0.4-1.3-0.7L386.1 118.3z" class="d"/><path d="M392.7 114.8h-1v-1.6l1.1-0.1 0.3-2h1.8v2h1.8v1.7h-1.8v3c0 0.4 0.1 0.7 0.3 0.9 0.2 0.2 0.4 0.3 0.7 0.3 0.1 0 0.2 0 0.4 0 0.1 0 0.2-0.1 0.3-0.1l0.3 1.6c-0.2 0.1-0.4 0.1-0.7 0.2s-0.6 0.1-0.9 0.1c-0.5 0-0.9-0.1-1.2-0.2 -0.3-0.1-0.6-0.3-0.8-0.6 -0.2-0.2-0.4-0.6-0.4-0.9 -0.1-0.4-0.1-0.7-0.1-1.2V114.8z" class="d"/><path d="M397.6 116.8c0-0.6 0.1-1.1 0.3-1.6 0.2-0.5 0.5-0.9 0.8-1.2 0.3-0.3 0.7-0.6 1.1-0.8 0.4-0.2 0.9-0.3 1.3-0.3 0.5 0 1 0.1 1.4 0.3 0.4 0.2 0.7 0.4 1 0.8 0.3 0.3 0.5 0.7 0.6 1.1 0.1 0.4 0.2 0.9 0.2 1.4 0 0.2 0 0.4 0 0.5s0 0.3-0.1 0.4h-4.5c0.1 0.6 0.3 1 0.7 1.2 0.3 0.3 0.8 0.4 1.3 0.4 0.5 0 1.1-0.2 1.6-0.5l0.7 1.3c-0.4 0.3-0.8 0.5-1.3 0.6 -0.5 0.2-0.9 0.2-1.4 0.2 -0.5 0-1-0.1-1.5-0.3s-0.9-0.4-1.2-0.8c-0.3-0.3-0.6-0.7-0.8-1.2S397.6 117.4 397.6 116.8zM402.4 116c0-0.4-0.1-0.8-0.3-1 -0.2-0.3-0.5-0.4-1-0.4 -0.4 0-0.7 0.1-0.9 0.4s-0.4 0.6-0.5 1.1H402.4z" class="d"/><path d="M405.4 116.8c0-0.6 0.1-1.2 0.3-1.6 0.2-0.5 0.4-0.9 0.7-1.2 0.3-0.3 0.6-0.6 1-0.8 0.4-0.2 0.8-0.3 1.1-0.3 0.4 0 0.8 0.1 1 0.2 0.3 0.1 0.5 0.3 0.8 0.6l-0.1-1.1V110h2.2v10.5h-1.8l-0.1-0.7h-0.1c-0.3 0.3-0.6 0.5-0.9 0.7 -0.4 0.2-0.7 0.3-1.1 0.3 -0.5 0-0.9-0.1-1.3-0.3 -0.4-0.2-0.7-0.4-1-0.8 -0.3-0.3-0.5-0.7-0.6-1.2C405.5 118 405.4 117.4 405.4 116.8zM407.7 116.8c0 0.7 0.1 1.3 0.4 1.6 0.2 0.3 0.6 0.5 1 0.5 0.2 0 0.5 0 0.7-0.1 0.2-0.1 0.4-0.3 0.6-0.5v-3c-0.2-0.2-0.4-0.3-0.6-0.4s-0.4-0.1-0.6-0.1c-0.4 0-0.7 0.2-0.9 0.5S407.7 116.1 407.7 116.8z" class="d"/><path d="M417.5 110h2.2v2.6l-0.1 1.3c0.3-0.2 0.6-0.5 1-0.7 0.4-0.2 0.8-0.3 1.3-0.3 0.8 0 1.4 0.3 1.8 0.8 0.4 0.5 0.5 1.3 0.5 2.2v4.6h-2.2v-4.3c0-0.5-0.1-0.9-0.2-1.1s-0.4-0.3-0.7-0.3c-0.3 0-0.5 0.1-0.7 0.2 -0.2 0.1-0.4 0.3-0.7 0.5v5h-2.2V110z" class="d"/><path d="M425.8 118.4c0-0.8 0.3-1.4 1-1.8 0.7-0.4 1.7-0.7 3.2-0.9 0-0.3-0.1-0.6-0.3-0.8 -0.2-0.2-0.5-0.3-0.9-0.3 -0.3 0-0.6 0.1-1 0.2 -0.3 0.1-0.7 0.3-1 0.5l-0.8-1.5c0.5-0.3 1-0.5 1.5-0.7 0.5-0.2 1.1-0.3 1.7-0.3 1 0 1.7 0.3 2.2 0.8 0.5 0.5 0.8 1.4 0.8 2.5v4.3h-1.8l-0.2-0.8h0c-0.3 0.3-0.7 0.5-1 0.7s-0.7 0.3-1.2 0.3c-0.3 0-0.6-0.1-0.9-0.2 -0.3-0.1-0.5-0.3-0.7-0.5 -0.2-0.2-0.3-0.4-0.4-0.7S425.8 118.8 425.8 118.4zM427.9 118.3c0 0.2 0.1 0.4 0.2 0.5 0.2 0.1 0.4 0.2 0.6 0.2 0.3 0 0.5-0.1 0.7-0.2 0.2-0.1 0.4-0.3 0.6-0.5v-1.3c-0.8 0.1-1.3 0.3-1.6 0.5C428.1 117.7 427.9 118 427.9 118.3z" class="d"/><path d="M434.4 118.3c0.3 0.3 0.7 0.5 1 0.6 0.3 0.1 0.6 0.2 0.9 0.2 0.3 0 0.6-0.1 0.7-0.2 0.2-0.1 0.2-0.3 0.2-0.5 0-0.1 0-0.2-0.1-0.3 -0.1-0.1-0.2-0.2-0.3-0.3s-0.3-0.2-0.5-0.2c-0.2-0.1-0.4-0.1-0.6-0.2 -0.2-0.1-0.5-0.2-0.7-0.3s-0.4-0.3-0.6-0.4 -0.3-0.4-0.5-0.6c-0.1-0.2-0.2-0.5-0.2-0.8 0-0.3 0.1-0.7 0.2-0.9 0.1-0.3 0.3-0.5 0.6-0.7 0.3-0.2 0.6-0.4 0.9-0.5 0.4-0.1 0.7-0.2 1.2-0.2 0.6 0 1.1 0.1 1.5 0.3 0.4 0.2 0.8 0.4 1.1 0.7l-1 1.3c-0.3-0.2-0.5-0.4-0.8-0.5s-0.5-0.2-0.8-0.2c-0.6 0-0.8 0.2-0.8 0.6 0 0.1 0 0.2 0.1 0.3s0.2 0.2 0.3 0.2 0.3 0.1 0.5 0.2c0.2 0.1 0.4 0.1 0.5 0.2 0.2 0.1 0.5 0.2 0.7 0.3 0.2 0.1 0.5 0.3 0.6 0.4 0.2 0.2 0.4 0.4 0.5 0.6 0.1 0.2 0.2 0.5 0.2 0.9 0 0.3-0.1 0.7-0.2 0.9 -0.1 0.3-0.3 0.5-0.6 0.8 -0.3 0.2-0.6 0.4-1 0.5 -0.4 0.1-0.8 0.2-1.3 0.2 -0.5 0-1-0.1-1.5-0.3 -0.5-0.2-1-0.4-1.3-0.7L434.4 118.3z" class="d"/><path d="M440.7 110h2.2v2.6l-0.1 1.3c0.3-0.2 0.6-0.5 1-0.7 0.4-0.2 0.8-0.3 1.3-0.3 0.8 0 1.4 0.3 1.8 0.8 0.4 0.5 0.5 1.3 0.5 2.2v4.6h-2.2v-4.3c0-0.5-0.1-0.9-0.2-1.1s-0.4-0.3-0.7-0.3c-0.3 0-0.5 0.1-0.7 0.2 -0.2 0.1-0.4 0.3-0.7 0.5v5h-2.2V110z" class="d"/><path d="M370.1 130c-0.4 0-0.7-0.1-0.9-0.3s-0.4-0.5-0.4-0.8 0.1-0.6 0.4-0.8 0.5-0.3 0.9-0.3c0.4 0 0.7 0.1 0.9 0.3 0.2 0.2 0.4 0.5 0.4 0.8s-0.1 0.6-0.4 0.8C370.8 129.9 370.5 130 370.1 130zM369 131.1h2.2v7.4h-2.2V131.1z" class="d"/><path d="M373.5 136.3c0.3 0.3 0.7 0.5 1 0.6s0.6 0.2 0.9 0.2c0.3 0 0.6-0.1 0.7-0.2 0.2-0.1 0.2-0.3 0.2-0.5 0-0.1 0-0.2-0.1-0.3 -0.1-0.1-0.2-0.2-0.3-0.3 -0.1-0.1-0.3-0.2-0.5-0.2 -0.2-0.1-0.4-0.1-0.6-0.2 -0.2-0.1-0.5-0.2-0.7-0.3 -0.2-0.1-0.4-0.3-0.6-0.4 -0.2-0.2-0.3-0.4-0.5-0.6 -0.1-0.2-0.2-0.5-0.2-0.8 0-0.3 0.1-0.7 0.2-0.9 0.1-0.3 0.3-0.5 0.6-0.7 0.3-0.2 0.6-0.4 0.9-0.5 0.4-0.1 0.7-0.2 1.2-0.2 0.6 0 1.1 0.1 1.5 0.3 0.4 0.2 0.8 0.4 1.1 0.7l-1 1.3c-0.3-0.2-0.5-0.4-0.8-0.5 -0.3-0.1-0.5-0.2-0.8-0.2 -0.6 0-0.8 0.2-0.8 0.6 0 0.1 0 0.2 0.1 0.3s0.2 0.2 0.3 0.2 0.3 0.1 0.5 0.2c0.2 0.1 0.4 0.1 0.5 0.2 0.2 0.1 0.5 0.2 0.7 0.3 0.2 0.1 0.5 0.3 0.6 0.4 0.2 0.2 0.4 0.4 0.5 0.6 0.1 0.2 0.2 0.5 0.2 0.9 0 0.3-0.1 0.7-0.2 0.9s-0.3 0.5-0.6 0.8c-0.3 0.2-0.6 0.4-1 0.5 -0.4 0.1-0.8 0.2-1.3 0.2 -0.5 0-1-0.1-1.5-0.3 -0.5-0.2-1-0.4-1.3-0.7L373.5 136.3z" class="d"/><path d="M387.1 129.7c-0.3-0.1-0.5-0.1-0.8-0.1 -0.3 0-0.5 0.1-0.6 0.2 -0.1 0.2-0.2 0.4-0.2 0.8v0.5h1.3v1.7h-1.3v5.7h-2.2V132.8h-1v-1.6l1-0.1v-0.4c0-0.4 0-0.8 0.1-1.1 0.1-0.3 0.3-0.7 0.5-0.9 0.2-0.3 0.5-0.5 0.9-0.6 0.4-0.1 0.8-0.2 1.3-0.2 0.3 0 0.6 0 0.8 0.1s0.5 0.1 0.6 0.2L387.1 129.7z" class="d"/><path d="M387.5 134.8c0-0.6 0.1-1.1 0.3-1.6 0.2-0.5 0.5-0.9 0.8-1.2 0.3-0.3 0.7-0.6 1.1-0.8 0.4-0.2 0.9-0.3 1.3-0.3 0.5 0 1 0.1 1.4 0.3 0.4 0.2 0.7 0.4 1 0.8 0.3 0.3 0.5 0.7 0.6 1.1 0.1 0.4 0.2 0.9 0.2 1.4 0 0.2 0 0.4 0 0.5 0 0.2 0 0.3-0.1 0.4h-4.5c0.1 0.6 0.3 1 0.7 1.2 0.3 0.3 0.8 0.4 1.3 0.4 0.5 0 1.1-0.2 1.6-0.5l0.7 1.3c-0.4 0.3-0.8 0.5-1.3 0.6s-0.9 0.2-1.4 0.2c-0.5 0-1-0.1-1.5-0.3 -0.5-0.2-0.9-0.4-1.2-0.8 -0.3-0.3-0.6-0.7-0.8-1.2C387.6 136 387.5 135.4 387.5 134.8zM392.3 134c0-0.4-0.1-0.8-0.3-1s-0.5-0.4-1-0.4c-0.4 0-0.7 0.1-0.9 0.4 -0.3 0.2-0.4 0.6-0.5 1.1H392.3z" class="d"/><path d="M395.7 132.8h-1v-1.6l1.1-0.1 0.3-2h1.8v2h1.8v1.7H397.9v3c0 0.4 0.1 0.7 0.3 0.9 0.2 0.2 0.4 0.3 0.7 0.3 0.1 0 0.2 0 0.4 0 0.1 0 0.2-0.1 0.3-0.1l0.3 1.6c-0.2 0.1-0.4 0.1-0.7 0.2s-0.6 0.1-0.9 0.1c-0.5 0-0.9-0.1-1.2-0.2 -0.3-0.1-0.6-0.3-0.8-0.6 -0.2-0.2-0.4-0.6-0.4-0.9 -0.1-0.4-0.1-0.7-0.1-1.2V132.8z" class="d"/><path d="M400.6 134.8c0-0.6 0.1-1.2 0.3-1.7s0.5-0.9 0.8-1.2 0.8-0.6 1.2-0.8 1-0.3 1.5-0.3c0.5 0 0.9 0.1 1.2 0.2 0.4 0.2 0.7 0.4 0.9 0.6l-1 1.4c-0.4-0.3-0.7-0.4-1-0.4 -0.5 0-1 0.2-1.3 0.6 -0.3 0.4-0.5 0.9-0.5 1.5 0 0.7 0.2 1.2 0.5 1.5 0.3 0.4 0.7 0.6 1.2 0.6 0.3 0 0.5-0.1 0.7-0.2 0.2-0.1 0.4-0.2 0.6-0.4l0.9 1.4c-0.4 0.3-0.8 0.6-1.2 0.7 -0.4 0.2-0.9 0.2-1.3 0.2 -0.5 0-1-0.1-1.4-0.3 -0.4-0.2-0.8-0.4-1.2-0.8s-0.6-0.7-0.8-1.2C400.7 136 400.6 135.4 400.6 134.8z" class="d"/><path d="M408 128h2.2v2.6l-0.1 1.3c0.3-0.2 0.6-0.5 1-0.7 0.4-0.2 0.8-0.3 1.3-0.3 0.8 0 1.4 0.3 1.8 0.8 0.4 0.5 0.5 1.3 0.5 2.2v4.6h-2.2v-4.3c0-0.5-0.1-0.9-0.2-1.1s-0.4-0.3-0.7-0.3c-0.3 0-0.5 0.1-0.7 0.2 -0.2 0.1-0.4 0.3-0.7 0.5v5h-2.2V128z" class="d"/><path d="M416.1 134.8c0-0.6 0.1-1.1 0.3-1.6 0.2-0.5 0.5-0.9 0.8-1.2 0.3-0.3 0.7-0.6 1.1-0.8 0.4-0.2 0.9-0.3 1.3-0.3 0.5 0 1 0.1 1.4 0.3 0.4 0.2 0.7 0.4 1 0.8 0.3 0.3 0.5 0.7 0.6 1.1 0.1 0.4 0.2 0.9 0.2 1.4 0 0.2 0 0.4 0 0.5 0 0.2 0 0.3-0.1 0.4h-4.5c0.1 0.6 0.3 1 0.7 1.2 0.3 0.3 0.8 0.4 1.3 0.4 0.5 0 1.1-0.2 1.6-0.5l0.7 1.3c-0.4 0.3-0.8 0.5-1.3 0.6 -0.5 0.2-0.9 0.2-1.4 0.2 -0.5 0-1-0.1-1.5-0.3 -0.5-0.2-0.9-0.4-1.2-0.8 -0.3-0.3-0.6-0.7-0.8-1.2C416.2 136 416.1 135.4 416.1 134.8zM420.9 134c0-0.4-0.1-0.8-0.3-1 -0.2-0.3-0.5-0.4-1-0.4 -0.3 0-0.7 0.1-0.9 0.4 -0.3 0.2-0.4 0.6-0.5 1.1H420.9z" class="d"/><path d="M423.9 134.8c0-0.6 0.1-1.2 0.3-1.6 0.2-0.5 0.4-0.9 0.7-1.2 0.3-0.3 0.6-0.6 1-0.8 0.4-0.2 0.8-0.3 1.1-0.3 0.4 0 0.8 0.1 1 0.2 0.3 0.1 0.5 0.3 0.8 0.6l-0.1-1.1V128h2.2v10.5h-1.8l-0.1-0.7h-0.1c-0.3 0.3-0.6 0.5-0.9 0.7s-0.7 0.3-1.1 0.3c-0.5 0-0.9-0.1-1.3-0.3 -0.4-0.2-0.7-0.4-1-0.8s-0.5-0.7-0.6-1.2C424 136 423.9 135.4 423.9 134.8zM426.2 134.8c0 0.7 0.1 1.3 0.4 1.6s0.6 0.5 1 0.5c0.2 0 0.5 0 0.7-0.1 0.2-0.1 0.4-0.3 0.6-0.5v-3c-0.2-0.2-0.4-0.3-0.6-0.4 -0.2-0.1-0.4-0.1-0.6-0.1 -0.4 0-0.7 0.2-0.9 0.5C426.3 133.5 426.2 134.1 426.2 134.8z" class="d"/></svg>
